<?xml version="1.0" encoding="utf-8" standalone="no"?>
<!DOCTYPE svg PUBLIC "-//W3C//DTD SVG 1.1//EN"
  "http://www.w3.org/Graphics/SVG/1.1/DTD/svg11.dtd">
<svg xmlns:xlink="http://www.w3.org/1999/xlink" width="1008pt" height="288pt" viewBox="0 0 1008 288" xmlns="http://www.w3.org/2000/svg" version="1.1">
 <metadata>
  <rdf:RDF xmlns:dc="http://purl.org/dc/elements/1.1/" xmlns:cc="http://creativecommons.org/ns#" xmlns:rdf="http://www.w3.org/1999/02/22-rdf-syntax-ns#">
   <cc:Work>
    <dc:type rdf:resource="http://purl.org/dc/dcmitype/StillImage"/>
    <dc:date>2024-11-21T18:23:24.365973</dc:date>
    <dc:format>image/svg+xml</dc:format>
    <dc:creator>
     <cc:Agent>
      <dc:title>Matplotlib v3.7.5, https://matplotlib.org/</dc:title>
     </cc:Agent>
    </dc:creator>
   </cc:Work>
  </rdf:RDF>
 </metadata>
 <defs>
  <style type="text/css">*{stroke-linejoin: round; stroke-linecap: butt}</style>
 </defs>
 <g id="figure_1">
  <g id="patch_1">
   <path d="M 0 288 
L 1008 288 
L 1008 0 
L 0 0 
z
" style="fill: #ffffff"/>
  </g>
  <g id="axes_1">
   <g id="patch_2">
    <path d="M 55.772054 246.04 
L 510.061027 246.04 
L 510.061027 43.2 
L 55.772054 43.2 
z
" style="fill: #ffffff"/>
   </g>
   <g id="matplotlib.axis_1">
    <g id="xtick_1">
     <g id="text_1">
      <!-- 0 -->
      <g style="fill: #262626" transform="translate(52.590804 260.638438) scale(0.1 -0.1)">
       <defs>
        <path id="DejaVuSans-30" d="M 2034 4250 
Q 1547 4250 1301 3770 
Q 1056 3291 1056 2328 
Q 1056 1369 1301 889 
Q 1547 409 2034 409 
Q 2525 409 2770 889 
Q 3016 1369 3016 2328 
Q 3016 3291 2770 3770 
Q 2525 4250 2034 4250 
z
M 2034 4750 
Q 2819 4750 3233 4129 
Q 3647 3509 3647 2328 
Q 3647 1150 3233 529 
Q 2819 -91 2034 -91 
Q 1250 -91 836 529 
Q 422 1150 422 2328 
Q 422 3509 836 4129 
Q 1250 4750 2034 4750 
z
" transform="scale(0.015625)"/>
       </defs>
       <use xlink:href="#DejaVuSans-30"/>
      </g>
     </g>
    </g>
    <g id="xtick_2">
     <g id="text_2">
      <!-- 50 -->
      <g style="fill: #262626" transform="translate(140.267349 260.638438) scale(0.1 -0.1)">
       <defs>
        <path id="DejaVuSans-35" d="M 691 4666 
L 3169 4666 
L 3169 4134 
L 1269 4134 
L 1269 2991 
Q 1406 3038 1543 3061 
Q 1681 3084 1819 3084 
Q 2600 3084 3056 2656 
Q 3513 2228 3513 1497 
Q 3513 744 3044 326 
Q 2575 -91 1722 -91 
Q 1428 -91 1123 -41 
Q 819 9 494 109 
L 494 744 
Q 775 591 1075 516 
Q 1375 441 1709 441 
Q 2250 441 2565 725 
Q 2881 1009 2881 1497 
Q 2881 1984 2565 2268 
Q 2250 2553 1709 2553 
Q 1456 2553 1204 2497 
Q 953 2441 691 2322 
L 691 4666 
z
" transform="scale(0.015625)"/>
       </defs>
       <use xlink:href="#DejaVuSans-35"/>
       <use xlink:href="#DejaVuSans-30" x="63.623047"/>
      </g>
     </g>
    </g>
    <g id="xtick_3">
     <g id="text_3">
      <!-- 100 -->
      <g style="fill: #262626" transform="translate(227.943893 260.638438) scale(0.1 -0.1)">
       <defs>
        <path id="DejaVuSans-31" d="M 794 531 
L 1825 531 
L 1825 4091 
L 703 3866 
L 703 4441 
L 1819 4666 
L 2450 4666 
L 2450 531 
L 3481 531 
L 3481 0 
L 794 0 
L 794 531 
z
" transform="scale(0.015625)"/>
       </defs>
       <use xlink:href="#DejaVuSans-31"/>
       <use xlink:href="#DejaVuSans-30" x="63.623047"/>
       <use xlink:href="#DejaVuSans-30" x="127.246094"/>
      </g>
     </g>
    </g>
    <g id="xtick_4">
     <g id="text_4">
      <!-- 150 -->
      <g style="fill: #262626" transform="translate(318.801688 260.638438) scale(0.1 -0.1)">
       <use xlink:href="#DejaVuSans-31"/>
       <use xlink:href="#DejaVuSans-35" x="63.623047"/>
       <use xlink:href="#DejaVuSans-30" x="127.246094"/>
      </g>
     </g>
    </g>
    <g id="xtick_5">
     <g id="text_5">
      <!-- 200 -->
      <g style="fill: #262626" transform="translate(409.659482 260.638438) scale(0.1 -0.1)">
       <defs>
        <path id="DejaVuSans-32" d="M 1228 531 
L 3431 531 
L 3431 0 
L 469 0 
L 469 531 
Q 828 903 1448 1529 
Q 2069 2156 2228 2338 
Q 2531 2678 2651 2914 
Q 2772 3150 2772 3378 
Q 2772 3750 2511 3984 
Q 2250 4219 1831 4219 
Q 1534 4219 1204 4116 
Q 875 4013 500 3803 
L 500 4441 
Q 881 4594 1212 4672 
Q 1544 4750 1819 4750 
Q 2544 4750 2975 4387 
Q 3406 4025 3406 3419 
Q 3406 3131 3298 2873 
Q 3191 2616 2906 2266 
Q 2828 2175 2409 1742 
Q 1991 1309 1228 531 
z
" transform="scale(0.015625)"/>
       </defs>
       <use xlink:href="#DejaVuSans-32"/>
       <use xlink:href="#DejaVuSans-30" x="63.623047"/>
       <use xlink:href="#DejaVuSans-30" x="127.246094"/>
      </g>
     </g>
    </g>
    <g id="xtick_6">
     <g id="text_6">
      <!-- 250 -->
      <g style="fill: #262626" transform="translate(500.517277 260.638438) scale(0.1 -0.1)">
       <use xlink:href="#DejaVuSans-32"/>
       <use xlink:href="#DejaVuSans-35" x="63.623047"/>
       <use xlink:href="#DejaVuSans-30" x="127.246094"/>
      </g>
     </g>
    </g>
    <g id="text_7">
     <!-- Epoch -->
     <g style="fill: #262626" transform="translate(267.605603 274.316562) scale(0.1 -0.1)">
      <defs>
       <path id="DejaVuSans-45" d="M 628 4666 
L 3578 4666 
L 3578 4134 
L 1259 4134 
L 1259 2753 
L 3481 2753 
L 3481 2222 
L 1259 2222 
L 1259 531 
L 3634 531 
L 3634 0 
L 628 0 
L 628 4666 
z
" transform="scale(0.015625)"/>
       <path id="DejaVuSans-70" d="M 1159 525 
L 1159 -1331 
L 581 -1331 
L 581 3500 
L 1159 3500 
L 1159 2969 
Q 1341 3281 1617 3432 
Q 1894 3584 2278 3584 
Q 2916 3584 3314 3078 
Q 3713 2572 3713 1747 
Q 3713 922 3314 415 
Q 2916 -91 2278 -91 
Q 1894 -91 1617 61 
Q 1341 213 1159 525 
z
M 3116 1747 
Q 3116 2381 2855 2742 
Q 2594 3103 2138 3103 
Q 1681 3103 1420 2742 
Q 1159 2381 1159 1747 
Q 1159 1113 1420 752 
Q 1681 391 2138 391 
Q 2594 391 2855 752 
Q 3116 1113 3116 1747 
z
" transform="scale(0.015625)"/>
       <path id="DejaVuSans-6f" d="M 1959 3097 
Q 1497 3097 1228 2736 
Q 959 2375 959 1747 
Q 959 1119 1226 758 
Q 1494 397 1959 397 
Q 2419 397 2687 759 
Q 2956 1122 2956 1747 
Q 2956 2369 2687 2733 
Q 2419 3097 1959 3097 
z
M 1959 3584 
Q 2709 3584 3137 3096 
Q 3566 2609 3566 1747 
Q 3566 888 3137 398 
Q 2709 -91 1959 -91 
Q 1206 -91 779 398 
Q 353 888 353 1747 
Q 353 2609 779 3096 
Q 1206 3584 1959 3584 
z
" transform="scale(0.015625)"/>
       <path id="DejaVuSans-63" d="M 3122 3366 
L 3122 2828 
Q 2878 2963 2633 3030 
Q 2388 3097 2138 3097 
Q 1578 3097 1268 2742 
Q 959 2388 959 1747 
Q 959 1106 1268 751 
Q 1578 397 2138 397 
Q 2388 397 2633 464 
Q 2878 531 3122 666 
L 3122 134 
Q 2881 22 2623 -34 
Q 2366 -91 2075 -91 
Q 1284 -91 818 406 
Q 353 903 353 1747 
Q 353 2603 823 3093 
Q 1294 3584 2113 3584 
Q 2378 3584 2631 3529 
Q 2884 3475 3122 3366 
z
" transform="scale(0.015625)"/>
       <path id="DejaVuSans-68" d="M 3513 2113 
L 3513 0 
L 2938 0 
L 2938 2094 
Q 2938 2591 2744 2837 
Q 2550 3084 2163 3084 
Q 1697 3084 1428 2787 
Q 1159 2491 1159 1978 
L 1159 0 
L 581 0 
L 581 4863 
L 1159 4863 
L 1159 2956 
Q 1366 3272 1645 3428 
Q 1925 3584 2291 3584 
Q 2894 3584 3203 3211 
Q 3513 2838 3513 2113 
z
" transform="scale(0.015625)"/>
      </defs>
      <use xlink:href="#DejaVuSans-45"/>
      <use xlink:href="#DejaVuSans-70" x="63.183594"/>
      <use xlink:href="#DejaVuSans-6f" x="126.660156"/>
      <use xlink:href="#DejaVuSans-63" x="187.841797"/>
      <use xlink:href="#DejaVuSans-68" x="242.822266"/>
     </g>
    </g>
   </g>
   <g id="matplotlib.axis_2">
    <g id="ytick_1">
     <g id="text_8">
      <!-- $\mathdefault{10^{-2}}$ -->
      <g style="fill: #262626" transform="translate(25.272054 192.482603) scale(0.1 -0.1)">
       <defs>
        <path id="DejaVuSans-2212" d="M 678 2272 
L 4684 2272 
L 4684 1741 
L 678 1741 
L 678 2272 
z
" transform="scale(0.015625)"/>
       </defs>
       <use xlink:href="#DejaVuSans-31" transform="translate(0 0.765625)"/>
       <use xlink:href="#DejaVuSans-30" transform="translate(63.623047 0.765625)"/>
       <use xlink:href="#DejaVuSans-2212" transform="translate(128.203125 39.046875) scale(0.7)"/>
       <use xlink:href="#DejaVuSans-32" transform="translate(186.855469 39.046875) scale(0.7)"/>
      </g>
     </g>
    </g>
    <g id="ytick_2">
     <g id="text_9">
      <!-- $\mathdefault{10^{-1}}$ -->
      <g style="fill: #262626" transform="translate(25.272054 107.649925) scale(0.1 -0.1)">
       <use xlink:href="#DejaVuSans-31" transform="translate(0 0.684375)"/>
       <use xlink:href="#DejaVuSans-30" transform="translate(63.623047 0.684375)"/>
       <use xlink:href="#DejaVuSans-2212" transform="translate(128.203125 38.965625) scale(0.7)"/>
       <use xlink:href="#DejaVuSans-31" transform="translate(186.855469 38.965625) scale(0.7)"/>
      </g>
     </g>
    </g>
    <g id="ytick_3"/>
    <g id="ytick_4"/>
    <g id="ytick_5"/>
    <g id="ytick_6"/>
    <g id="ytick_7"/>
    <g id="ytick_8"/>
    <g id="ytick_9"/>
    <g id="ytick_10"/>
    <g id="ytick_11"/>
    <g id="ytick_12"/>
    <g id="ytick_13"/>
    <g id="ytick_14"/>
    <g id="ytick_15"/>
    <g id="ytick_16"/>
    <g id="ytick_17"/>
    <g id="ytick_18"/>
    <g id="ytick_19"/>
    <g id="ytick_20"/>
    <g id="ytick_21"/>
    <g id="text_10">
     <!-- Mean Absolute Error (log scale) -->
     <g style="fill: #262626" transform="translate(19.192366 223.045781) rotate(-90) scale(0.1 -0.1)">
      <defs>
       <path id="DejaVuSans-4d" d="M 628 4666 
L 1569 4666 
L 2759 1491 
L 3956 4666 
L 4897 4666 
L 4897 0 
L 4281 0 
L 4281 4097 
L 3078 897 
L 2444 897 
L 1241 4097 
L 1241 0 
L 628 0 
L 628 4666 
z
" transform="scale(0.015625)"/>
       <path id="DejaVuSans-65" d="M 3597 1894 
L 3597 1613 
L 953 1613 
Q 991 1019 1311 708 
Q 1631 397 2203 397 
Q 2534 397 2845 478 
Q 3156 559 3463 722 
L 3463 178 
Q 3153 47 2828 -22 
Q 2503 -91 2169 -91 
Q 1331 -91 842 396 
Q 353 884 353 1716 
Q 353 2575 817 3079 
Q 1281 3584 2069 3584 
Q 2775 3584 3186 3129 
Q 3597 2675 3597 1894 
z
M 3022 2063 
Q 3016 2534 2758 2815 
Q 2500 3097 2075 3097 
Q 1594 3097 1305 2825 
Q 1016 2553 972 2059 
L 3022 2063 
z
" transform="scale(0.015625)"/>
       <path id="DejaVuSans-61" d="M 2194 1759 
Q 1497 1759 1228 1600 
Q 959 1441 959 1056 
Q 959 750 1161 570 
Q 1363 391 1709 391 
Q 2188 391 2477 730 
Q 2766 1069 2766 1631 
L 2766 1759 
L 2194 1759 
z
M 3341 1997 
L 3341 0 
L 2766 0 
L 2766 531 
Q 2569 213 2275 61 
Q 1981 -91 1556 -91 
Q 1019 -91 701 211 
Q 384 513 384 1019 
Q 384 1609 779 1909 
Q 1175 2209 1959 2209 
L 2766 2209 
L 2766 2266 
Q 2766 2663 2505 2880 
Q 2244 3097 1772 3097 
Q 1472 3097 1187 3025 
Q 903 2953 641 2809 
L 641 3341 
Q 956 3463 1253 3523 
Q 1550 3584 1831 3584 
Q 2591 3584 2966 3190 
Q 3341 2797 3341 1997 
z
" transform="scale(0.015625)"/>
       <path id="DejaVuSans-6e" d="M 3513 2113 
L 3513 0 
L 2938 0 
L 2938 2094 
Q 2938 2591 2744 2837 
Q 2550 3084 2163 3084 
Q 1697 3084 1428 2787 
Q 1159 2491 1159 1978 
L 1159 0 
L 581 0 
L 581 3500 
L 1159 3500 
L 1159 2956 
Q 1366 3272 1645 3428 
Q 1925 3584 2291 3584 
Q 2894 3584 3203 3211 
Q 3513 2838 3513 2113 
z
" transform="scale(0.015625)"/>
       <path id="DejaVuSans-20" transform="scale(0.015625)"/>
       <path id="DejaVuSans-41" d="M 2188 4044 
L 1331 1722 
L 3047 1722 
L 2188 4044 
z
M 1831 4666 
L 2547 4666 
L 4325 0 
L 3669 0 
L 3244 1197 
L 1141 1197 
L 716 0 
L 50 0 
L 1831 4666 
z
" transform="scale(0.015625)"/>
       <path id="DejaVuSans-62" d="M 3116 1747 
Q 3116 2381 2855 2742 
Q 2594 3103 2138 3103 
Q 1681 3103 1420 2742 
Q 1159 2381 1159 1747 
Q 1159 1113 1420 752 
Q 1681 391 2138 391 
Q 2594 391 2855 752 
Q 3116 1113 3116 1747 
z
M 1159 2969 
Q 1341 3281 1617 3432 
Q 1894 3584 2278 3584 
Q 2916 3584 3314 3078 
Q 3713 2572 3713 1747 
Q 3713 922 3314 415 
Q 2916 -91 2278 -91 
Q 1894 -91 1617 61 
Q 1341 213 1159 525 
L 1159 0 
L 581 0 
L 581 4863 
L 1159 4863 
L 1159 2969 
z
" transform="scale(0.015625)"/>
       <path id="DejaVuSans-73" d="M 2834 3397 
L 2834 2853 
Q 2591 2978 2328 3040 
Q 2066 3103 1784 3103 
Q 1356 3103 1142 2972 
Q 928 2841 928 2578 
Q 928 2378 1081 2264 
Q 1234 2150 1697 2047 
L 1894 2003 
Q 2506 1872 2764 1633 
Q 3022 1394 3022 966 
Q 3022 478 2636 193 
Q 2250 -91 1575 -91 
Q 1294 -91 989 -36 
Q 684 19 347 128 
L 347 722 
Q 666 556 975 473 
Q 1284 391 1588 391 
Q 1994 391 2212 530 
Q 2431 669 2431 922 
Q 2431 1156 2273 1281 
Q 2116 1406 1581 1522 
L 1381 1569 
Q 847 1681 609 1914 
Q 372 2147 372 2553 
Q 372 3047 722 3315 
Q 1072 3584 1716 3584 
Q 2034 3584 2315 3537 
Q 2597 3491 2834 3397 
z
" transform="scale(0.015625)"/>
       <path id="DejaVuSans-6c" d="M 603 4863 
L 1178 4863 
L 1178 0 
L 603 0 
L 603 4863 
z
" transform="scale(0.015625)"/>
       <path id="DejaVuSans-75" d="M 544 1381 
L 544 3500 
L 1119 3500 
L 1119 1403 
Q 1119 906 1312 657 
Q 1506 409 1894 409 
Q 2359 409 2629 706 
Q 2900 1003 2900 1516 
L 2900 3500 
L 3475 3500 
L 3475 0 
L 2900 0 
L 2900 538 
Q 2691 219 2414 64 
Q 2138 -91 1772 -91 
Q 1169 -91 856 284 
Q 544 659 544 1381 
z
M 1991 3584 
L 1991 3584 
z
" transform="scale(0.015625)"/>
       <path id="DejaVuSans-74" d="M 1172 4494 
L 1172 3500 
L 2356 3500 
L 2356 3053 
L 1172 3053 
L 1172 1153 
Q 1172 725 1289 603 
Q 1406 481 1766 481 
L 2356 481 
L 2356 0 
L 1766 0 
Q 1100 0 847 248 
Q 594 497 594 1153 
L 594 3053 
L 172 3053 
L 172 3500 
L 594 3500 
L 594 4494 
L 1172 4494 
z
" transform="scale(0.015625)"/>
       <path id="DejaVuSans-72" d="M 2631 2963 
Q 2534 3019 2420 3045 
Q 2306 3072 2169 3072 
Q 1681 3072 1420 2755 
Q 1159 2438 1159 1844 
L 1159 0 
L 581 0 
L 581 3500 
L 1159 3500 
L 1159 2956 
Q 1341 3275 1631 3429 
Q 1922 3584 2338 3584 
Q 2397 3584 2469 3576 
Q 2541 3569 2628 3553 
L 2631 2963 
z
" transform="scale(0.015625)"/>
       <path id="DejaVuSans-28" d="M 1984 4856 
Q 1566 4138 1362 3434 
Q 1159 2731 1159 2009 
Q 1159 1288 1364 580 
Q 1569 -128 1984 -844 
L 1484 -844 
Q 1016 -109 783 600 
Q 550 1309 550 2009 
Q 550 2706 781 3412 
Q 1013 4119 1484 4856 
L 1984 4856 
z
" transform="scale(0.015625)"/>
       <path id="DejaVuSans-67" d="M 2906 1791 
Q 2906 2416 2648 2759 
Q 2391 3103 1925 3103 
Q 1463 3103 1205 2759 
Q 947 2416 947 1791 
Q 947 1169 1205 825 
Q 1463 481 1925 481 
Q 2391 481 2648 825 
Q 2906 1169 2906 1791 
z
M 3481 434 
Q 3481 -459 3084 -895 
Q 2688 -1331 1869 -1331 
Q 1566 -1331 1297 -1286 
Q 1028 -1241 775 -1147 
L 775 -588 
Q 1028 -725 1275 -790 
Q 1522 -856 1778 -856 
Q 2344 -856 2625 -561 
Q 2906 -266 2906 331 
L 2906 616 
Q 2728 306 2450 153 
Q 2172 0 1784 0 
Q 1141 0 747 490 
Q 353 981 353 1791 
Q 353 2603 747 3093 
Q 1141 3584 1784 3584 
Q 2172 3584 2450 3431 
Q 2728 3278 2906 2969 
L 2906 3500 
L 3481 3500 
L 3481 434 
z
" transform="scale(0.015625)"/>
       <path id="DejaVuSans-29" d="M 513 4856 
L 1013 4856 
Q 1481 4119 1714 3412 
Q 1947 2706 1947 2009 
Q 1947 1309 1714 600 
Q 1481 -109 1013 -844 
L 513 -844 
Q 928 -128 1133 580 
Q 1338 1288 1338 2009 
Q 1338 2731 1133 3434 
Q 928 4138 513 4856 
z
" transform="scale(0.015625)"/>
      </defs>
      <use xlink:href="#DejaVuSans-4d"/>
      <use xlink:href="#DejaVuSans-65" x="86.279297"/>
      <use xlink:href="#DejaVuSans-61" x="147.802734"/>
      <use xlink:href="#DejaVuSans-6e" x="209.082031"/>
      <use xlink:href="#DejaVuSans-20" x="272.460938"/>
      <use xlink:href="#DejaVuSans-41" x="304.248047"/>
      <use xlink:href="#DejaVuSans-62" x="372.65625"/>
      <use xlink:href="#DejaVuSans-73" x="436.132812"/>
      <use xlink:href="#DejaVuSans-6f" x="488.232422"/>
      <use xlink:href="#DejaVuSans-6c" x="549.414062"/>
      <use xlink:href="#DejaVuSans-75" x="577.197266"/>
      <use xlink:href="#DejaVuSans-74" x="640.576172"/>
      <use xlink:href="#DejaVuSans-65" x="679.785156"/>
      <use xlink:href="#DejaVuSans-20" x="741.308594"/>
      <use xlink:href="#DejaVuSans-45" x="773.095703"/>
      <use xlink:href="#DejaVuSans-72" x="836.279297"/>
      <use xlink:href="#DejaVuSans-72" x="875.642578"/>
      <use xlink:href="#DejaVuSans-6f" x="914.505859"/>
      <use xlink:href="#DejaVuSans-72" x="975.6875"/>
      <use xlink:href="#DejaVuSans-20" x="1016.800781"/>
      <use xlink:href="#DejaVuSans-28" x="1048.587891"/>
      <use xlink:href="#DejaVuSans-6c" x="1087.601562"/>
      <use xlink:href="#DejaVuSans-6f" x="1115.384766"/>
      <use xlink:href="#DejaVuSans-67" x="1176.566406"/>
      <use xlink:href="#DejaVuSans-20" x="1240.042969"/>
      <use xlink:href="#DejaVuSans-73" x="1271.830078"/>
      <use xlink:href="#DejaVuSans-63" x="1323.929688"/>
      <use xlink:href="#DejaVuSans-61" x="1378.910156"/>
      <use xlink:href="#DejaVuSans-6c" x="1440.189453"/>
      <use xlink:href="#DejaVuSans-65" x="1467.972656"/>
      <use xlink:href="#DejaVuSans-29" x="1529.496094"/>
     </g>
    </g>
   </g>
   <g id="line2d_1">
    <path d="M 55.772054 52.42 
L 57.58921 73.999806 
L 59.406366 90.594802 
L 61.223522 101.205451 
L 63.040677 108.866556 
L 66.674989 122.437509 
L 68.492145 129.974242 
L 70.309301 136.667199 
L 72.126457 142.408202 
L 75.760769 150.943655 
L 81.212236 160.047988 
L 83.029392 161.127647 
L 84.846548 163.744948 
L 86.663704 166.843019 
L 88.48086 169.520566 
L 90.298016 171.293323 
L 92.115172 172.45184 
L 93.932328 174.757044 
L 95.749484 177.670652 
L 97.566639 177.767772 
L 99.383795 181.140786 
L 101.200951 180.23357 
L 103.018107 183.791103 
L 104.835263 184.34825 
L 106.652419 185.913392 
L 108.469575 189.699456 
L 110.286731 188.519836 
L 112.103887 188.273485 
L 113.921042 192.166431 
L 115.738198 194.35209 
L 117.555354 197.11331 
L 119.37251 197.837278 
L 121.189666 193.249036 
L 123.006822 202.161587 
L 124.823978 201.793486 
L 126.641134 200.118609 
L 128.45829 203.827984 
L 130.275445 205.740466 
L 132.092601 205.327398 
L 133.909757 205.747911 
L 135.726913 208.204035 
L 137.544069 208.695959 
L 139.361225 202.600087 
L 141.178381 207.215549 
L 142.995537 206.760126 
L 144.812693 209.140583 
L 146.629849 214.024289 
L 148.447004 214.958518 
L 150.26416 205.396642 
L 152.081316 201.740076 
L 153.898472 204.943164 
L 155.715628 207.529385 
L 157.532784 213.823787 
L 159.34994 208.618366 
L 161.167096 210.115514 
L 162.984252 215.773426 
L 164.801407 215.344118 
L 166.618563 216.239699 
L 168.435719 216.707657 
L 170.252875 216.697255 
L 172.070031 212.961838 
L 173.887187 217.501274 
L 175.704343 213.883459 
L 177.521499 217.744155 
L 179.338655 218.673752 
L 181.15581 218.592845 
L 182.972966 213.258802 
L 184.790122 218.22988 
L 186.607278 216.640828 
L 188.424434 216.359226 
L 190.24159 218.077482 
L 192.058746 214.119336 
L 193.875902 209.513027 
L 195.693058 213.467421 
L 197.510213 214.777697 
L 199.327369 218.509402 
L 201.144525 211.779279 
L 202.961681 213.716969 
L 204.778837 216.323099 
L 206.595993 223.519238 
L 208.413149 219.893369 
L 210.230305 218.804281 
L 212.047461 219.499657 
L 213.864617 222.651311 
L 215.681772 222.209074 
L 217.498928 226.149388 
L 219.316084 230.46199 
L 221.13324 220.799099 
L 222.950396 214.45962 
L 224.767552 219.144349 
L 226.584708 218.599889 
L 228.401864 222.388545 
L 230.21902 221.594526 
L 232.036175 223.859438 
L 233.853331 221.834571 
L 235.670487 224.407227 
L 237.487643 218.313267 
L 239.304799 216.365335 
L 241.121955 223.539751 
L 242.939111 226.612023 
L 244.756267 227.126813 
L 246.573423 222.621245 
L 248.390578 225.443421 
L 250.207734 225.724643 
L 252.02489 223.225531 
L 253.842046 223.577553 
L 255.659202 221.587393 
L 257.476358 221.775342 
L 259.293514 221.812099 
L 261.11067 227.037088 
L 262.927826 223.607206 
L 264.744982 225.551072 
L 268.379293 219.241413 
L 270.196449 215.750971 
L 272.013605 222.696898 
L 273.830761 228.581956 
L 275.647917 220.970649 
L 277.465073 220.058589 
L 279.282229 218.142414 
L 281.099385 228.163418 
L 282.91654 220.579258 
L 284.733696 225.590195 
L 286.550852 226.904561 
L 288.368008 223.611279 
L 290.185164 220.674724 
L 292.00232 215.181404 
L 293.819476 224.455736 
L 295.636632 227.941638 
L 297.453788 226.623785 
L 299.270943 227.002988 
L 301.088099 225.515244 
L 302.905255 220.968004 
L 304.722411 224.92488 
L 306.539567 220.062867 
L 308.356723 220.166896 
L 310.173879 223.835243 
L 311.991035 222.559642 
L 313.808191 224.50908 
L 315.625346 225.987536 
L 317.442502 222.023564 
L 319.259658 219.249534 
L 321.076814 222.026592 
L 322.89397 221.372643 
L 324.711126 218.20004 
L 326.528282 226.145197 
L 330.162594 220.754046 
L 331.97975 221.293313 
L 333.796905 220.976976 
L 335.614061 221.390325 
L 337.431217 217.1336 
L 339.248373 222.697718 
L 341.065529 227.6533 
L 342.882685 228.599623 
L 344.699841 226.65649 
L 346.516997 223.239233 
L 350.151308 229.215193 
L 351.968464 224.723319 
L 353.78562 221.206277 
L 355.602776 218.341959 
L 357.419932 226.786455 
L 359.237088 230.661119 
L 361.054244 229.832875 
L 362.8714 228.050357 
L 364.688556 230.684227 
L 366.505711 230.299763 
L 368.322867 228.11875 
L 370.140023 227.826754 
L 371.957179 231.037069 
L 373.774335 226.787659 
L 375.591491 229.66226 
L 377.408647 228.602234 
L 379.225803 228.023643 
L 381.042959 225.89363 
L 382.860115 226.312875 
L 384.67727 228.785055 
L 386.494426 226.022049 
L 388.311582 228.199114 
L 390.128738 229.54136 
L 391.945894 228.331991 
L 393.76305 221.641392 
L 395.580206 229.078923 
L 397.397362 225.949185 
L 399.214518 221.562906 
L 401.031673 223.436107 
L 402.848829 228.716501 
L 404.665985 226.669031 
L 406.483141 217.085089 
L 408.300297 222.01505 
L 410.117453 225.040248 
L 411.934609 221.202088 
L 413.751765 216.63841 
L 415.568921 225.208157 
L 417.386076 220.631239 
L 419.203232 220.798037 
L 421.020388 223.493035 
L 422.837544 226.854562 
L 424.6547 225.902281 
L 426.471856 228.986377 
L 428.289012 228.589316 
L 430.106168 222.445997 
L 431.923324 229.422896 
L 433.740479 231.635596 
L 435.557635 232.36992 
L 437.374791 226.911521 
L 439.191947 223.701259 
L 441.009103 233.774932 
L 442.826259 222.588413 
L 444.643415 225.440662 
L 446.460571 228.508679 
L 448.277727 226.207655 
L 450.094883 223.366796 
L 451.912038 232.162634 
L 453.729194 236.82 
L 455.54635 227.422649 
L 457.363506 224.265425 
L 459.180662 219.014511 
L 460.997818 219.00457 
L 462.814974 224.301536 
L 466.449286 226.814672 
L 468.266441 231.953454 
L 470.083597 225.708233 
L 471.900753 226.43712 
L 473.717909 229.096309 
L 475.535065 230.747073 
L 477.352221 228.532716 
L 479.169377 226.051665 
L 480.986533 223.028909 
L 482.803689 231.337757 
L 484.620844 234.677246 
L 486.438 229.172403 
L 488.255156 229.853738 
L 490.072312 229.557545 
L 491.889468 234.259718 
L 493.706624 232.313331 
L 495.52378 232.767097 
L 497.340936 233.042221 
L 499.158092 234.369245 
L 500.975247 235.107774 
L 502.792403 236.042563 
L 504.609559 236.483095 
L 506.426715 227.621915 
L 508.243871 227.80515 
L 508.243871 227.80515 
" clip-path="url(#pe5bbbfcd93)" style="fill: none; stroke: #1f77b4; stroke-width: 1.5; stroke-linecap: round"/>
   </g>
   <g id="line2d_2">
    <path d="M 55.772054 59.175312 
L 57.58921 58.620994 
L 59.406366 61.752844 
L 61.223522 63.067836 
L 63.040677 65.170574 
L 64.857833 66.186443 
L 66.674989 66.772407 
L 68.492145 68.298356 
L 70.309301 68.943007 
L 72.126457 70.676663 
L 73.943613 72.102904 
L 75.760769 73.175955 
L 79.395081 74.756739 
L 81.212236 75.215466 
L 84.846548 77.473422 
L 90.298016 80.264761 
L 92.115172 80.976417 
L 93.932328 82.263121 
L 95.749484 83.264516 
L 97.566639 84.492715 
L 99.383795 85.041161 
L 103.018107 85.900393 
L 104.835263 86.899804 
L 106.652419 86.708947 
L 108.469575 87.116967 
L 110.286731 87.900562 
L 112.103887 87.663829 
L 115.738198 88.721462 
L 117.555354 88.389425 
L 119.37251 89.060006 
L 121.189666 89.141187 
L 123.006822 89.566692 
L 124.823978 89.381422 
L 128.45829 90.005812 
L 130.275445 89.88218 
L 132.092601 89.954512 
L 133.909757 90.665704 
L 135.726913 90.453908 
L 137.544069 90.056073 
L 139.361225 90.486082 
L 141.178381 90.767927 
L 142.995537 90.67663 
L 146.629849 90.90297 
L 148.447004 90.470524 
L 150.26416 91.074533 
L 152.081316 90.552964 
L 153.898472 90.748383 
L 157.532784 90.6678 
L 159.34994 90.470444 
L 161.167096 90.81932 
L 162.984252 90.76581 
L 164.801407 91.054458 
L 166.618563 90.870503 
L 168.435719 91.050746 
L 170.252875 90.852737 
L 172.070031 91.242801 
L 173.887187 91.195829 
L 175.704343 90.829566 
L 177.521499 90.918778 
L 179.338655 91.430541 
L 182.972966 91.086167 
L 184.790122 91.240193 
L 186.607278 91.028969 
L 188.424434 91.527794 
L 192.058746 91.34366 
L 193.875902 91.534105 
L 195.693058 91.195047 
L 197.510213 91.207899 
L 199.327369 91.412683 
L 201.144525 91.381365 
L 204.778837 91.570801 
L 208.413149 91.425408 
L 210.230305 91.51615 
L 212.047461 91.172232 
L 213.864617 91.299926 
L 215.681772 91.651868 
L 217.498928 91.467099 
L 219.316084 91.495224 
L 221.13324 91.839276 
L 224.767552 91.340513 
L 232.036175 91.595994 
L 235.670487 91.376305 
L 237.487643 91.880458 
L 239.304799 91.901914 
L 241.121955 91.543074 
L 242.939111 91.38812 
L 246.573423 91.694842 
L 248.390578 91.834905 
L 250.207734 91.513899 
L 252.02489 91.473242 
L 253.842046 91.595309 
L 255.659202 91.889901 
L 257.476358 91.715973 
L 259.293514 91.348481 
L 261.11067 92.024834 
L 262.927826 91.973037 
L 266.562137 91.463866 
L 268.379293 91.427332 
L 270.196449 91.642245 
L 272.013605 91.736879 
L 273.830761 91.566474 
L 275.647917 91.784486 
L 277.465073 91.845291 
L 281.099385 91.729075 
L 282.91654 91.922783 
L 284.733696 91.718615 
L 286.550852 91.712197 
L 288.368008 91.905086 
L 290.185164 91.983176 
L 293.819476 91.62982 
L 297.453788 91.794526 
L 299.270943 91.837386 
L 301.088099 91.520801 
L 302.905255 91.843944 
L 306.539567 91.71662 
L 308.356723 91.953714 
L 310.173879 91.872922 
L 311.991035 91.462184 
L 313.808191 91.958866 
L 315.625346 91.45145 
L 317.442502 91.909417 
L 319.259658 91.541895 
L 321.076814 92.146608 
L 322.89397 91.514555 
L 324.711126 91.915869 
L 326.528282 91.714176 
L 337.431217 91.729537 
L 341.065529 92.196137 
L 342.882685 92.064287 
L 344.699841 91.754463 
L 346.516997 92.101515 
L 348.334153 91.831542 
L 353.78562 92.323573 
L 355.602776 91.671096 
L 357.419932 91.86223 
L 359.237088 91.879228 
L 361.054244 92.044159 
L 362.8714 91.790818 
L 364.688556 91.935597 
L 366.505711 91.693492 
L 368.322867 92.210736 
L 370.140023 91.993445 
L 371.957179 91.998415 
L 373.774335 91.563135 
L 375.591491 92.065551 
L 377.408647 92.183991 
L 379.225803 91.913907 
L 381.042959 92.06337 
L 382.860115 91.853964 
L 384.67727 91.981052 
L 388.311582 91.918168 
L 390.128738 91.961351 
L 391.945894 91.88552 
L 393.76305 92.056047 
L 397.397362 92.181415 
L 399.214518 91.888087 
L 401.031673 92.144442 
L 402.848829 92.154313 
L 404.665985 91.909675 
L 406.483141 92.184827 
L 408.300297 92.237119 
L 410.117453 91.946286 
L 411.934609 92.419303 
L 413.751765 92.249499 
L 415.568921 92.344996 
L 417.386076 91.558911 
L 419.203232 92.065364 
L 424.6547 92.045454 
L 426.471856 91.764953 
L 428.289012 92.141921 
L 430.106168 91.84658 
L 431.923324 92.194652 
L 433.740479 92.079907 
L 435.557635 92.202831 
L 437.374791 92.063474 
L 441.009103 91.964913 
L 442.826259 91.902736 
L 444.643415 92.26383 
L 446.460571 92.042342 
L 448.277727 91.960103 
L 450.094883 92.095529 
L 451.912038 92.024938 
L 453.729194 91.590149 
L 455.54635 91.966424 
L 459.180662 92.291022 
L 462.814974 91.873953 
L 464.63213 91.68756 
L 466.449286 92.109654 
L 468.266441 91.886084 
L 473.717909 91.982118 
L 475.535065 92.171786 
L 479.169377 92.025253 
L 480.986533 92.233338 
L 484.620844 91.887861 
L 486.438 92.045374 
L 488.255156 92.023094 
L 490.072312 92.112196 
L 491.889468 91.796604 
L 493.706624 91.996247 
L 495.52378 92.002073 
L 497.340936 92.169047 
L 502.792403 91.963569 
L 504.609559 92.20035 
L 506.426715 91.970425 
L 508.243871 91.958031 
L 508.243871 91.958031 
" clip-path="url(#pe5bbbfcd93)" style="fill: none; stroke: #ff7f0e; stroke-width: 1.5; stroke-linecap: round"/>
   </g>
   <g id="patch_3">
    <path d="M 55.772054 246.04 
L 55.772054 43.2 
" style="fill: none; stroke: #262626; stroke-width: 0.8; stroke-linejoin: miter; stroke-linecap: square"/>
   </g>
   <g id="patch_4">
    <path d="M 55.772054 246.04 
L 510.061027 246.04 
" style="fill: none; stroke: #262626; stroke-width: 0.8; stroke-linejoin: miter; stroke-linecap: square"/>
   </g>
   <g id="text_11">
    <!-- Train on Synthetic, Test on Real -->
    <g style="fill: #262626" transform="translate(189.058728 37.2) scale(0.12 -0.12)">
     <defs>
      <path id="DejaVuSans-54" d="M -19 4666 
L 3928 4666 
L 3928 4134 
L 2272 4134 
L 2272 0 
L 1638 0 
L 1638 4134 
L -19 4134 
L -19 4666 
z
" transform="scale(0.015625)"/>
      <path id="DejaVuSans-69" d="M 603 3500 
L 1178 3500 
L 1178 0 
L 603 0 
L 603 3500 
z
M 603 4863 
L 1178 4863 
L 1178 4134 
L 603 4134 
L 603 4863 
z
" transform="scale(0.015625)"/>
      <path id="DejaVuSans-53" d="M 3425 4513 
L 3425 3897 
Q 3066 4069 2747 4153 
Q 2428 4238 2131 4238 
Q 1616 4238 1336 4038 
Q 1056 3838 1056 3469 
Q 1056 3159 1242 3001 
Q 1428 2844 1947 2747 
L 2328 2669 
Q 3034 2534 3370 2195 
Q 3706 1856 3706 1288 
Q 3706 609 3251 259 
Q 2797 -91 1919 -91 
Q 1588 -91 1214 -16 
Q 841 59 441 206 
L 441 856 
Q 825 641 1194 531 
Q 1563 422 1919 422 
Q 2459 422 2753 634 
Q 3047 847 3047 1241 
Q 3047 1584 2836 1778 
Q 2625 1972 2144 2069 
L 1759 2144 
Q 1053 2284 737 2584 
Q 422 2884 422 3419 
Q 422 4038 858 4394 
Q 1294 4750 2059 4750 
Q 2388 4750 2728 4690 
Q 3069 4631 3425 4513 
z
" transform="scale(0.015625)"/>
      <path id="DejaVuSans-79" d="M 2059 -325 
Q 1816 -950 1584 -1140 
Q 1353 -1331 966 -1331 
L 506 -1331 
L 506 -850 
L 844 -850 
Q 1081 -850 1212 -737 
Q 1344 -625 1503 -206 
L 1606 56 
L 191 3500 
L 800 3500 
L 1894 763 
L 2988 3500 
L 3597 3500 
L 2059 -325 
z
" transform="scale(0.015625)"/>
      <path id="DejaVuSans-2c" d="M 750 794 
L 1409 794 
L 1409 256 
L 897 -744 
L 494 -744 
L 750 256 
L 750 794 
z
" transform="scale(0.015625)"/>
      <path id="DejaVuSans-52" d="M 2841 2188 
Q 3044 2119 3236 1894 
Q 3428 1669 3622 1275 
L 4263 0 
L 3584 0 
L 2988 1197 
Q 2756 1666 2539 1819 
Q 2322 1972 1947 1972 
L 1259 1972 
L 1259 0 
L 628 0 
L 628 4666 
L 2053 4666 
Q 2853 4666 3247 4331 
Q 3641 3997 3641 3322 
Q 3641 2881 3436 2590 
Q 3231 2300 2841 2188 
z
M 1259 4147 
L 1259 2491 
L 2053 2491 
Q 2509 2491 2742 2702 
Q 2975 2913 2975 3322 
Q 2975 3731 2742 3939 
Q 2509 4147 2053 4147 
L 1259 4147 
z
" transform="scale(0.015625)"/>
     </defs>
     <use xlink:href="#DejaVuSans-54"/>
     <use xlink:href="#DejaVuSans-72" x="46.333984"/>
     <use xlink:href="#DejaVuSans-61" x="87.447266"/>
     <use xlink:href="#DejaVuSans-69" x="148.726562"/>
     <use xlink:href="#DejaVuSans-6e" x="176.509766"/>
     <use xlink:href="#DejaVuSans-20" x="239.888672"/>
     <use xlink:href="#DejaVuSans-6f" x="271.675781"/>
     <use xlink:href="#DejaVuSans-6e" x="332.857422"/>
     <use xlink:href="#DejaVuSans-20" x="396.236328"/>
     <use xlink:href="#DejaVuSans-53" x="428.023438"/>
     <use xlink:href="#DejaVuSans-79" x="491.5"/>
     <use xlink:href="#DejaVuSans-6e" x="550.679688"/>
     <use xlink:href="#DejaVuSans-74" x="614.058594"/>
     <use xlink:href="#DejaVuSans-68" x="653.267578"/>
     <use xlink:href="#DejaVuSans-65" x="716.646484"/>
     <use xlink:href="#DejaVuSans-74" x="778.169922"/>
     <use xlink:href="#DejaVuSans-69" x="817.378906"/>
     <use xlink:href="#DejaVuSans-63" x="845.162109"/>
     <use xlink:href="#DejaVuSans-2c" x="900.142578"/>
     <use xlink:href="#DejaVuSans-20" x="931.929688"/>
     <use xlink:href="#DejaVuSans-54" x="963.716797"/>
     <use xlink:href="#DejaVuSans-65" x="1007.800781"/>
     <use xlink:href="#DejaVuSans-73" x="1069.324219"/>
     <use xlink:href="#DejaVuSans-74" x="1121.423828"/>
     <use xlink:href="#DejaVuSans-20" x="1160.632812"/>
     <use xlink:href="#DejaVuSans-6f" x="1192.419922"/>
     <use xlink:href="#DejaVuSans-6e" x="1253.601562"/>
     <use xlink:href="#DejaVuSans-20" x="1316.980469"/>
     <use xlink:href="#DejaVuSans-52" x="1348.767578"/>
     <use xlink:href="#DejaVuSans-65" x="1413.75"/>
     <use xlink:href="#DejaVuSans-61" x="1475.273438"/>
     <use xlink:href="#DejaVuSans-6c" x="1536.552734"/>
    </g>
   </g>
   <g id="legend_1">
    <g id="patch_5">
     <path d="M 447.073527 80.55625 
L 503.061027 80.55625 
Q 505.061027 80.55625 505.061027 78.55625 
L 505.061027 50.2 
Q 505.061027 48.2 503.061027 48.2 
L 447.073527 48.2 
Q 445.073527 48.2 445.073527 50.2 
L 445.073527 78.55625 
Q 445.073527 80.55625 447.073527 80.55625 
z
" style="fill: #ffffff; opacity: 0.8; stroke: #cccccc; stroke-linejoin: miter"/>
    </g>
    <g id="line2d_3">
     <path d="M 449.073527 56.298438 
L 459.073527 56.298438 
L 469.073527 56.298438 
" style="fill: none; stroke: #1f77b4; stroke-width: 1.5; stroke-linecap: round"/>
    </g>
    <g id="text_12">
     <!-- Train -->
     <g style="fill: #262626" transform="translate(477.073527 59.798438) scale(0.1 -0.1)">
      <use xlink:href="#DejaVuSans-54"/>
      <use xlink:href="#DejaVuSans-72" x="46.333984"/>
      <use xlink:href="#DejaVuSans-61" x="87.447266"/>
      <use xlink:href="#DejaVuSans-69" x="148.726562"/>
      <use xlink:href="#DejaVuSans-6e" x="176.509766"/>
     </g>
    </g>
    <g id="line2d_4">
     <path d="M 449.073527 70.976562 
L 459.073527 70.976562 
L 469.073527 70.976562 
" style="fill: none; stroke: #ff7f0e; stroke-width: 1.5; stroke-linecap: round"/>
    </g>
    <g id="text_13">
     <!-- Test -->
     <g style="fill: #262626" transform="translate(477.073527 74.476562) scale(0.1 -0.1)">
      <use xlink:href="#DejaVuSans-54"/>
      <use xlink:href="#DejaVuSans-65" x="44.083984"/>
      <use xlink:href="#DejaVuSans-73" x="105.607422"/>
      <use xlink:href="#DejaVuSans-74" x="157.707031"/>
     </g>
    </g>
   </g>
  </g>
  <g id="axes_2">
   <g id="patch_6">
    <path d="M 533.461027 246.04 
L 987.75 246.04 
L 987.75 43.2 
L 533.461027 43.2 
z
" style="fill: #ffffff"/>
   </g>
   <g id="matplotlib.axis_3">
    <g id="xtick_7">
     <g id="text_14">
      <!-- 0 -->
      <g style="fill: #262626" transform="translate(530.279777 260.638438) scale(0.1 -0.1)">
       <use xlink:href="#DejaVuSans-30"/>
      </g>
     </g>
    </g>
    <g id="xtick_8">
     <g id="text_15">
      <!-- 50 -->
      <g style="fill: #262626" transform="translate(617.956322 260.638438) scale(0.1 -0.1)">
       <use xlink:href="#DejaVuSans-35"/>
       <use xlink:href="#DejaVuSans-30" x="63.623047"/>
      </g>
     </g>
    </g>
    <g id="xtick_9">
     <g id="text_16">
      <!-- 100 -->
      <g style="fill: #262626" transform="translate(705.632866 260.638438) scale(0.1 -0.1)">
       <use xlink:href="#DejaVuSans-31"/>
       <use xlink:href="#DejaVuSans-30" x="63.623047"/>
       <use xlink:href="#DejaVuSans-30" x="127.246094"/>
      </g>
     </g>
    </g>
    <g id="xtick_10">
     <g id="text_17">
      <!-- 150 -->
      <g style="fill: #262626" transform="translate(796.490661 260.638438) scale(0.1 -0.1)">
       <use xlink:href="#DejaVuSans-31"/>
       <use xlink:href="#DejaVuSans-35" x="63.623047"/>
       <use xlink:href="#DejaVuSans-30" x="127.246094"/>
      </g>
     </g>
    </g>
    <g id="xtick_11">
     <g id="text_18">
      <!-- 200 -->
      <g style="fill: #262626" transform="translate(887.348455 260.638438) scale(0.1 -0.1)">
       <use xlink:href="#DejaVuSans-32"/>
       <use xlink:href="#DejaVuSans-30" x="63.623047"/>
       <use xlink:href="#DejaVuSans-30" x="127.246094"/>
      </g>
     </g>
    </g>
    <g id="xtick_12">
     <g id="text_19">
      <!-- 250 -->
      <g style="fill: #262626" transform="translate(978.20625 260.638438) scale(0.1 -0.1)">
       <use xlink:href="#DejaVuSans-32"/>
       <use xlink:href="#DejaVuSans-35" x="63.623047"/>
       <use xlink:href="#DejaVuSans-30" x="127.246094"/>
      </g>
     </g>
    </g>
    <g id="text_20">
     <!-- Epoch -->
     <g style="fill: #262626" transform="translate(745.294576 274.316562) scale(0.1 -0.1)">
      <use xlink:href="#DejaVuSans-45"/>
      <use xlink:href="#DejaVuSans-70" x="63.183594"/>
      <use xlink:href="#DejaVuSans-6f" x="126.660156"/>
      <use xlink:href="#DejaVuSans-63" x="187.841797"/>
      <use xlink:href="#DejaVuSans-68" x="242.822266"/>
     </g>
    </g>
   </g>
   <g id="matplotlib.axis_4">
    <g id="ytick_22"/>
    <g id="ytick_23"/>
    <g id="ytick_24"/>
    <g id="ytick_25"/>
    <g id="ytick_26"/>
    <g id="ytick_27"/>
    <g id="ytick_28"/>
    <g id="ytick_29"/>
    <g id="ytick_30"/>
    <g id="ytick_31"/>
    <g id="ytick_32"/>
    <g id="ytick_33"/>
    <g id="ytick_34"/>
    <g id="ytick_35"/>
    <g id="ytick_36"/>
    <g id="ytick_37"/>
    <g id="ytick_38"/>
    <g id="ytick_39"/>
    <g id="ytick_40"/>
    <g id="ytick_41"/>
    <g id="ytick_42"/>
   </g>
   <g id="line2d_5">
    <path d="M 533.461027 71.223526 
L 535.278183 79.713599 
L 537.095339 85.715424 
L 540.729651 95.693403 
L 542.546806 99.272525 
L 544.363962 101.786308 
L 546.181118 103.910427 
L 547.998274 105.548103 
L 549.81543 106.91125 
L 551.632586 108.003028 
L 553.449742 108.182802 
L 558.901209 109.794223 
L 560.718365 109.828355 
L 562.535521 110.382127 
L 564.352677 110.410881 
L 566.169833 110.744926 
L 567.986989 110.922528 
L 569.804145 110.800792 
L 571.621301 111.099344 
L 578.889924 111.594683 
L 580.70708 111.580859 
L 582.524236 111.914351 
L 584.341392 111.940268 
L 586.158548 112.22704 
L 587.975704 112.119221 
L 589.79286 112.212809 
L 591.610016 112.45928 
L 593.427171 112.053641 
L 598.878639 112.939656 
L 600.695795 112.82716 
L 602.512951 112.963524 
L 604.330107 112.768571 
L 606.147263 113.073142 
L 607.964419 113.229385 
L 609.781574 113.024674 
L 611.59873 113.043851 
L 613.415886 113.281141 
L 617.050198 113.000823 
L 618.867354 113.365885 
L 622.501666 113.616194 
L 626.135977 113.364389 
L 629.770289 113.675122 
L 631.587445 113.549926 
L 637.038913 113.975554 
L 638.856069 113.906531 
L 642.49038 114.211329 
L 644.307536 114.030468 
L 646.124692 114.040793 
L 647.941848 114.174293 
L 649.759004 114.143275 
L 651.57616 114.337756 
L 653.393316 114.006358 
L 657.027628 114.262644 
L 658.844784 114.07058 
L 660.661939 114.431432 
L 662.479095 114.637832 
L 664.296251 114.655586 
L 666.113407 113.898908 
L 667.930563 114.474283 
L 669.747719 114.467395 
L 671.564875 114.607918 
L 675.199187 114.495454 
L 678.833498 114.770796 
L 680.650654 114.836624 
L 682.46781 115.025448 
L 691.55359 114.852076 
L 693.370745 115.312732 
L 697.005057 115.354415 
L 702.456525 115.318499 
L 709.725148 115.620223 
L 711.542304 115.473201 
L 715.176616 115.486118 
L 718.810928 115.670764 
L 724.262396 115.690408 
L 726.079552 115.775737 
L 729.713863 115.750545 
L 731.531019 115.810253 
L 733.348175 116.137867 
L 735.165331 116.285521 
L 736.982487 116.191786 
L 738.799643 115.786662 
L 742.433955 115.729296 
L 744.25111 115.727667 
L 747.885422 116.312756 
L 749.702578 116.36837 
L 751.519734 116.2504 
L 753.33689 116.386685 
L 758.788358 116.303087 
L 760.605513 116.229249 
L 762.422669 115.913812 
L 764.239825 116.154956 
L 766.056981 116.207027 
L 767.874137 116.480438 
L 771.508449 116.823629 
L 773.325605 116.587806 
L 775.142761 116.664085 
L 778.777072 116.560344 
L 782.411384 116.774056 
L 784.22854 117.045369 
L 786.045696 116.95646 
L 787.862852 117.078309 
L 789.680008 116.946883 
L 793.31432 117.119694 
L 795.131475 116.8699 
L 796.948631 117.138682 
L 800.582943 117.323428 
L 802.400099 116.984263 
L 806.034411 117.260867 
L 807.851567 117.340997 
L 809.668723 117.549806 
L 811.485878 117.610978 
L 813.303034 117.534518 
L 815.12019 117.253955 
L 816.937346 117.167296 
L 818.754502 117.194943 
L 820.571658 117.387359 
L 822.388814 117.219722 
L 824.20597 117.590669 
L 831.474593 117.636605 
L 833.291749 117.871287 
L 840.560373 117.924041 
L 846.01184 117.43684 
L 847.828996 117.874825 
L 849.646152 117.92968 
L 851.463308 118.220621 
L 853.280464 117.984798 
L 856.914776 118.545466 
L 858.731932 118.541351 
L 860.549088 118.213356 
L 862.366243 118.334613 
L 864.183399 118.285419 
L 866.000555 118.504745 
L 867.817711 118.521087 
L 869.634867 118.237094 
L 875.086335 118.713881 
L 878.720646 118.578289 
L 880.537802 118.668085 
L 882.354958 118.59244 
L 884.172114 118.7122 
L 887.806426 118.741755 
L 891.440738 118.948357 
L 893.257894 118.755204 
L 895.075049 118.707134 
L 896.892205 118.301433 
L 898.709361 118.934139 
L 900.526517 118.628876 
L 904.160829 118.775334 
L 905.977985 119.083129 
L 907.795141 119.26089 
L 909.612297 119.166303 
L 911.429453 119.289102 
L 913.246608 119.031521 
L 915.063764 119.246283 
L 918.698076 119.391613 
L 920.515232 119.195296 
L 922.332388 119.484969 
L 924.149544 119.596078 
L 927.783856 119.39487 
L 929.601011 119.565035 
L 931.418167 119.499074 
L 935.052479 119.835704 
L 936.869635 119.725536 
L 940.503947 119.897158 
L 942.321103 119.713264 
L 944.138259 119.874328 
L 945.955414 119.884859 
L 947.77257 120.129004 
L 949.589726 120.049659 
L 951.406882 119.815571 
L 953.224038 120.241017 
L 955.041194 120.243805 
L 956.85835 119.73757 
L 958.675506 120.154684 
L 960.492662 120.305498 
L 965.944129 120.217143 
L 967.761285 120.467782 
L 971.395597 120.654537 
L 973.212753 120.318449 
L 975.029909 120.371927 
L 976.847065 120.250912 
L 978.664221 120.536719 
L 980.481376 120.674523 
L 982.298532 121.010916 
L 985.932844 120.97671 
L 985.932844 120.97671 
" clip-path="url(#pafd223cf65)" style="fill: none; stroke: #1f77b4; stroke-width: 1.5; stroke-linecap: round"/>
   </g>
   <g id="line2d_6">
    <path d="M 533.461027 68.939512 
L 537.095339 77.508294 
L 538.912495 79.345596 
L 540.729651 78.859961 
L 542.546806 80.011031 
L 544.363962 81.647104 
L 546.181118 80.270429 
L 547.998274 80.714978 
L 549.81543 80.137982 
L 551.632586 80.062191 
L 553.449742 80.837803 
L 555.266898 79.547552 
L 557.084054 80.567168 
L 558.901209 80.428596 
L 560.718365 80.474314 
L 562.535521 80.24477 
L 564.352677 80.13205 
L 566.169833 80.447201 
L 567.986989 79.765375 
L 571.621301 80.292922 
L 573.438457 80.016965 
L 575.255612 80.018968 
L 577.072768 79.75117 
L 578.889924 79.769607 
L 582.524236 79.394192 
L 584.341392 79.363727 
L 586.158548 79.785405 
L 589.79286 79.350413 
L 593.427171 79.870806 
L 595.244327 79.521283 
L 600.695795 78.937733 
L 602.512951 79.157987 
L 606.147263 78.747664 
L 609.781574 78.955812 
L 611.59873 78.698893 
L 617.050198 78.796275 
L 620.68451 78.134306 
L 622.501666 78.022013 
L 624.318822 78.022661 
L 626.135977 78.408981 
L 627.953133 77.830478 
L 629.770289 77.772273 
L 631.587445 77.400364 
L 633.404601 77.750607 
L 638.856069 77.148073 
L 642.49038 77.074166 
L 644.307536 77.276893 
L 646.124692 77.126445 
L 647.941848 76.765761 
L 649.759004 76.725765 
L 651.57616 77.002297 
L 653.393316 76.803363 
L 660.661939 76.776133 
L 664.296251 76.449825 
L 667.930563 75.944055 
L 669.747719 75.942879 
L 671.564875 76.184448 
L 673.382031 76.293026 
L 677.016342 75.701651 
L 678.833498 76.000249 
L 680.650654 75.759741 
L 682.46781 76.00809 
L 684.284966 75.459515 
L 686.102122 75.616026 
L 689.736434 75.565328 
L 691.55359 75.26273 
L 693.370745 75.313078 
L 695.187901 75.195976 
L 697.005057 75.374015 
L 700.639369 74.932631 
L 702.456525 74.992053 
L 706.090837 74.772851 
L 707.907993 74.995667 
L 709.725148 74.628156 
L 711.542304 74.701368 
L 713.35946 74.49342 
L 715.176616 74.609804 
L 724.262396 74.35205 
L 726.079552 74.054496 
L 727.896707 74.245066 
L 729.713863 74.160633 
L 731.531019 73.905064 
L 733.348175 74.056327 
L 735.165331 73.642472 
L 736.982487 73.767567 
L 740.616799 73.682058 
L 742.433955 73.991283 
L 744.25111 73.64083 
L 746.068266 73.733102 
L 747.885422 73.408692 
L 749.702578 73.621307 
L 751.519734 73.674867 
L 753.33689 73.269812 
L 755.154046 73.408961 
L 758.788358 73.004541 
L 760.605513 73.177583 
L 767.874137 72.873103 
L 773.325605 72.613297 
L 776.959917 72.699033 
L 780.594228 72.494538 
L 782.411384 72.46919 
L 784.22854 72.60685 
L 787.862852 72.353911 
L 789.680008 72.251177 
L 791.497164 72.332778 
L 795.131475 72.140101 
L 796.948631 72.154081 
L 802.400099 71.828198 
L 804.217255 71.627245 
L 806.034411 71.858665 
L 807.851567 71.669685 
L 809.668723 71.741477 
L 811.485878 71.683164 
L 815.12019 71.20493 
L 816.937346 71.547155 
L 824.20597 71.095601 
L 826.023126 71.167173 
L 831.474593 70.902898 
L 833.291749 71.04361 
L 835.108905 70.799425 
L 842.377529 70.648834 
L 844.194685 70.436675 
L 847.828996 70.623009 
L 849.646152 70.299392 
L 851.463308 70.452811 
L 853.280464 70.122047 
L 856.914776 70.340017 
L 858.731932 70.064103 
L 862.366243 70.061036 
L 864.183399 69.931845 
L 866.000555 70.037689 
L 869.634867 69.666987 
L 871.452023 69.559383 
L 873.269179 69.685556 
L 875.086335 69.4831 
L 876.903491 69.636656 
L 878.720646 69.400687 
L 882.354958 69.433205 
L 884.172114 68.986284 
L 885.98927 69.289817 
L 891.440738 69.073602 
L 893.257894 69.069304 
L 895.075049 68.946132 
L 896.892205 68.954622 
L 898.709361 69.113256 
L 907.795141 68.908919 
L 911.429453 68.923706 
L 915.063764 68.704839 
L 916.88092 68.817451 
L 920.515232 68.62109 
L 924.149544 68.758306 
L 927.783856 68.428285 
L 929.601011 68.596934 
L 931.418167 68.347667 
L 933.235323 68.363223 
L 935.052479 68.573468 
L 940.503947 68.027192 
L 942.321103 68.340019 
L 944.138259 68.336024 
L 949.589726 67.996592 
L 953.224038 68.029543 
L 955.041194 67.859166 
L 956.85835 68.069618 
L 962.309818 67.678494 
L 964.126973 67.360423 
L 965.944129 67.680127 
L 967.761285 67.67661 
L 969.578441 67.483108 
L 971.395597 67.59871 
L 973.212753 67.429395 
L 975.029909 67.462491 
L 976.847065 67.263013 
L 978.664221 67.251935 
L 980.481376 67.48918 
L 982.298532 67.321079 
L 984.115688 67.37279 
L 985.932844 67.128615 
L 985.932844 67.128615 
" clip-path="url(#pafd223cf65)" style="fill: none; stroke: #ff7f0e; stroke-width: 1.5; stroke-linecap: round"/>
   </g>
   <g id="patch_7">
    <path d="M 533.461027 246.04 
L 533.461027 43.2 
" style="fill: none; stroke: #262626; stroke-width: 0.8; stroke-linejoin: miter; stroke-linecap: square"/>
   </g>
   <g id="patch_8">
    <path d="M 533.461027 246.04 
L 987.75 246.04 
" style="fill: none; stroke: #262626; stroke-width: 0.8; stroke-linejoin: miter; stroke-linecap: square"/>
   </g>
   <g id="text_21">
    <!-- Train on Real, Test on Real -->
    <g style="fill: #262626" transform="translate(682.140513 37.2) scale(0.12 -0.12)">
     <use xlink:href="#DejaVuSans-54"/>
     <use xlink:href="#DejaVuSans-72" x="46.333984"/>
     <use xlink:href="#DejaVuSans-61" x="87.447266"/>
     <use xlink:href="#DejaVuSans-69" x="148.726562"/>
     <use xlink:href="#DejaVuSans-6e" x="176.509766"/>
     <use xlink:href="#DejaVuSans-20" x="239.888672"/>
     <use xlink:href="#DejaVuSans-6f" x="271.675781"/>
     <use xlink:href="#DejaVuSans-6e" x="332.857422"/>
     <use xlink:href="#DejaVuSans-20" x="396.236328"/>
     <use xlink:href="#DejaVuSans-52" x="428.023438"/>
     <use xlink:href="#DejaVuSans-65" x="493.005859"/>
     <use xlink:href="#DejaVuSans-61" x="554.529297"/>
     <use xlink:href="#DejaVuSans-6c" x="615.808594"/>
     <use xlink:href="#DejaVuSans-2c" x="643.591797"/>
     <use xlink:href="#DejaVuSans-20" x="675.378906"/>
     <use xlink:href="#DejaVuSans-54" x="707.166016"/>
     <use xlink:href="#DejaVuSans-65" x="751.25"/>
     <use xlink:href="#DejaVuSans-73" x="812.773438"/>
     <use xlink:href="#DejaVuSans-74" x="864.873047"/>
     <use xlink:href="#DejaVuSans-20" x="904.082031"/>
     <use xlink:href="#DejaVuSans-6f" x="935.869141"/>
     <use xlink:href="#DejaVuSans-6e" x="997.050781"/>
     <use xlink:href="#DejaVuSans-20" x="1060.429688"/>
     <use xlink:href="#DejaVuSans-52" x="1092.216797"/>
     <use xlink:href="#DejaVuSans-65" x="1157.199219"/>
     <use xlink:href="#DejaVuSans-61" x="1218.722656"/>
     <use xlink:href="#DejaVuSans-6c" x="1280.001953"/>
    </g>
   </g>
   <g id="legend_2">
    <g id="patch_9">
     <path d="M 540.461027 241.04 
L 596.448527 241.04 
Q 598.448527 241.04 598.448527 239.04 
L 598.448527 210.68375 
Q 598.448527 208.68375 596.448527 208.68375 
L 540.461027 208.68375 
Q 538.461027 208.68375 538.461027 210.68375 
L 538.461027 239.04 
Q 538.461027 241.04 540.461027 241.04 
z
" style="fill: #ffffff; opacity: 0.8; stroke: #cccccc; stroke-linejoin: miter"/>
    </g>
    <g id="line2d_7">
     <path d="M 542.461027 216.782187 
L 552.461027 216.782187 
L 562.461027 216.782187 
" style="fill: none; stroke: #1f77b4; stroke-width: 1.5; stroke-linecap: round"/>
    </g>
    <g id="text_22">
     <!-- Train -->
     <g style="fill: #262626" transform="translate(570.461027 220.282187) scale(0.1 -0.1)">
      <use xlink:href="#DejaVuSans-54"/>
      <use xlink:href="#DejaVuSans-72" x="46.333984"/>
      <use xlink:href="#DejaVuSans-61" x="87.447266"/>
      <use xlink:href="#DejaVuSans-69" x="148.726562"/>
      <use xlink:href="#DejaVuSans-6e" x="176.509766"/>
     </g>
    </g>
    <g id="line2d_8">
     <path d="M 542.461027 231.460312 
L 552.461027 231.460312 
L 562.461027 231.460312 
" style="fill: none; stroke: #ff7f0e; stroke-width: 1.5; stroke-linecap: round"/>
    </g>
    <g id="text_23">
     <!-- Test -->
     <g style="fill: #262626" transform="translate(570.461027 234.960312) scale(0.1 -0.1)">
      <use xlink:href="#DejaVuSans-54"/>
      <use xlink:href="#DejaVuSans-65" x="44.083984"/>
      <use xlink:href="#DejaVuSans-73" x="105.607422"/>
      <use xlink:href="#DejaVuSans-74" x="157.707031"/>
     </g>
    </g>
   </g>
  </g>
  <g id="text_24">
   <!-- Assessing Usefulness: Time Series Prediction Performance -->
   <g style="fill: #262626" transform="translate(300.272656 16.397812) scale(0.14 -0.14)">
    <defs>
     <path id="DejaVuSans-55" d="M 556 4666 
L 1191 4666 
L 1191 1831 
Q 1191 1081 1462 751 
Q 1734 422 2344 422 
Q 2950 422 3222 751 
Q 3494 1081 3494 1831 
L 3494 4666 
L 4128 4666 
L 4128 1753 
Q 4128 841 3676 375 
Q 3225 -91 2344 -91 
Q 1459 -91 1007 375 
Q 556 841 556 1753 
L 556 4666 
z
" transform="scale(0.015625)"/>
     <path id="DejaVuSans-66" d="M 2375 4863 
L 2375 4384 
L 1825 4384 
Q 1516 4384 1395 4259 
Q 1275 4134 1275 3809 
L 1275 3500 
L 2222 3500 
L 2222 3053 
L 1275 3053 
L 1275 0 
L 697 0 
L 697 3053 
L 147 3053 
L 147 3500 
L 697 3500 
L 697 3744 
Q 697 4328 969 4595 
Q 1241 4863 1831 4863 
L 2375 4863 
z
" transform="scale(0.015625)"/>
     <path id="DejaVuSans-3a" d="M 750 794 
L 1409 794 
L 1409 0 
L 750 0 
L 750 794 
z
M 750 3309 
L 1409 3309 
L 1409 2516 
L 750 2516 
L 750 3309 
z
" transform="scale(0.015625)"/>
     <path id="DejaVuSans-6d" d="M 3328 2828 
Q 3544 3216 3844 3400 
Q 4144 3584 4550 3584 
Q 5097 3584 5394 3201 
Q 5691 2819 5691 2113 
L 5691 0 
L 5113 0 
L 5113 2094 
Q 5113 2597 4934 2840 
Q 4756 3084 4391 3084 
Q 3944 3084 3684 2787 
Q 3425 2491 3425 1978 
L 3425 0 
L 2847 0 
L 2847 2094 
Q 2847 2600 2669 2842 
Q 2491 3084 2119 3084 
Q 1678 3084 1418 2786 
Q 1159 2488 1159 1978 
L 1159 0 
L 581 0 
L 581 3500 
L 1159 3500 
L 1159 2956 
Q 1356 3278 1631 3431 
Q 1906 3584 2284 3584 
Q 2666 3584 2933 3390 
Q 3200 3197 3328 2828 
z
" transform="scale(0.015625)"/>
     <path id="DejaVuSans-50" d="M 1259 4147 
L 1259 2394 
L 2053 2394 
Q 2494 2394 2734 2622 
Q 2975 2850 2975 3272 
Q 2975 3691 2734 3919 
Q 2494 4147 2053 4147 
L 1259 4147 
z
M 628 4666 
L 2053 4666 
Q 2838 4666 3239 4311 
Q 3641 3956 3641 3272 
Q 3641 2581 3239 2228 
Q 2838 1875 2053 1875 
L 1259 1875 
L 1259 0 
L 628 0 
L 628 4666 
z
" transform="scale(0.015625)"/>
     <path id="DejaVuSans-64" d="M 2906 2969 
L 2906 4863 
L 3481 4863 
L 3481 0 
L 2906 0 
L 2906 525 
Q 2725 213 2448 61 
Q 2172 -91 1784 -91 
Q 1150 -91 751 415 
Q 353 922 353 1747 
Q 353 2572 751 3078 
Q 1150 3584 1784 3584 
Q 2172 3584 2448 3432 
Q 2725 3281 2906 2969 
z
M 947 1747 
Q 947 1113 1208 752 
Q 1469 391 1925 391 
Q 2381 391 2643 752 
Q 2906 1113 2906 1747 
Q 2906 2381 2643 2742 
Q 2381 3103 1925 3103 
Q 1469 3103 1208 2742 
Q 947 2381 947 1747 
z
" transform="scale(0.015625)"/>
    </defs>
    <use xlink:href="#DejaVuSans-41"/>
    <use xlink:href="#DejaVuSans-73" x="68.408203"/>
    <use xlink:href="#DejaVuSans-73" x="120.507812"/>
    <use xlink:href="#DejaVuSans-65" x="172.607422"/>
    <use xlink:href="#DejaVuSans-73" x="234.130859"/>
    <use xlink:href="#DejaVuSans-73" x="286.230469"/>
    <use xlink:href="#DejaVuSans-69" x="338.330078"/>
    <use xlink:href="#DejaVuSans-6e" x="366.113281"/>
    <use xlink:href="#DejaVuSans-67" x="429.492188"/>
    <use xlink:href="#DejaVuSans-20" x="492.96875"/>
    <use xlink:href="#DejaVuSans-55" x="524.755859"/>
    <use xlink:href="#DejaVuSans-73" x="597.949219"/>
    <use xlink:href="#DejaVuSans-65" x="650.048828"/>
    <use xlink:href="#DejaVuSans-66" x="711.572266"/>
    <use xlink:href="#DejaVuSans-75" x="746.777344"/>
    <use xlink:href="#DejaVuSans-6c" x="810.15625"/>
    <use xlink:href="#DejaVuSans-6e" x="837.939453"/>
    <use xlink:href="#DejaVuSans-65" x="901.318359"/>
    <use xlink:href="#DejaVuSans-73" x="962.841797"/>
    <use xlink:href="#DejaVuSans-73" x="1014.941406"/>
    <use xlink:href="#DejaVuSans-3a" x="1067.041016"/>
    <use xlink:href="#DejaVuSans-20" x="1100.732422"/>
    <use xlink:href="#DejaVuSans-54" x="1132.519531"/>
    <use xlink:href="#DejaVuSans-69" x="1190.478516"/>
    <use xlink:href="#DejaVuSans-6d" x="1218.261719"/>
    <use xlink:href="#DejaVuSans-65" x="1315.673828"/>
    <use xlink:href="#DejaVuSans-20" x="1377.197266"/>
    <use xlink:href="#DejaVuSans-53" x="1408.984375"/>
    <use xlink:href="#DejaVuSans-65" x="1472.460938"/>
    <use xlink:href="#DejaVuSans-72" x="1533.984375"/>
    <use xlink:href="#DejaVuSans-69" x="1575.097656"/>
    <use xlink:href="#DejaVuSans-65" x="1602.880859"/>
    <use xlink:href="#DejaVuSans-73" x="1664.404297"/>
    <use xlink:href="#DejaVuSans-20" x="1716.503906"/>
    <use xlink:href="#DejaVuSans-50" x="1748.291016"/>
    <use xlink:href="#DejaVuSans-72" x="1806.84375"/>
    <use xlink:href="#DejaVuSans-65" x="1845.707031"/>
    <use xlink:href="#DejaVuSans-64" x="1907.230469"/>
    <use xlink:href="#DejaVuSans-69" x="1970.707031"/>
    <use xlink:href="#DejaVuSans-63" x="1998.490234"/>
    <use xlink:href="#DejaVuSans-74" x="2053.470703"/>
    <use xlink:href="#DejaVuSans-69" x="2092.679688"/>
    <use xlink:href="#DejaVuSans-6f" x="2120.462891"/>
    <use xlink:href="#DejaVuSans-6e" x="2181.644531"/>
    <use xlink:href="#DejaVuSans-20" x="2245.023438"/>
    <use xlink:href="#DejaVuSans-50" x="2276.810547"/>
    <use xlink:href="#DejaVuSans-65" x="2333.488281"/>
    <use xlink:href="#DejaVuSans-72" x="2395.011719"/>
    <use xlink:href="#DejaVuSans-66" x="2436.125"/>
    <use xlink:href="#DejaVuSans-6f" x="2471.330078"/>
    <use xlink:href="#DejaVuSans-72" x="2532.511719"/>
    <use xlink:href="#DejaVuSans-6d" x="2571.875"/>
    <use xlink:href="#DejaVuSans-61" x="2669.287109"/>
    <use xlink:href="#DejaVuSans-6e" x="2730.566406"/>
    <use xlink:href="#DejaVuSans-63" x="2793.945312"/>
    <use xlink:href="#DejaVuSans-65" x="2848.925781"/>
   </g>
  </g>
 </g>
 <defs>
  <clipPath id="pe5bbbfcd93">
   <rect x="55.772054" y="43.2" width="454.288973" height="202.84"/>
  </clipPath>
  <clipPath id="pafd223cf65">
   <rect x="533.461027" y="43.2" width="454.288973" height="202.84"/>
  </clipPath>
 </defs>
</svg>
