<?xml version="1.0" encoding="utf-8" standalone="no"?>
<!DOCTYPE svg PUBLIC "-//W3C//DTD SVG 1.1//EN"
  "http://www.w3.org/Graphics/SVG/1.1/DTD/svg11.dtd">
<svg xmlns:xlink="http://www.w3.org/1999/xlink" width="1008pt" height="288pt" viewBox="0 0 1008 288" xmlns="http://www.w3.org/2000/svg" version="1.1">
 <metadata>
  <rdf:RDF xmlns:dc="http://purl.org/dc/elements/1.1/" xmlns:cc="http://creativecommons.org/ns#" xmlns:rdf="http://www.w3.org/1999/02/22-rdf-syntax-ns#">
   <cc:Work>
    <dc:type rdf:resource="http://purl.org/dc/dcmitype/StillImage"/>
    <dc:date>2024-11-22T14:02:45.556935</dc:date>
    <dc:format>image/svg+xml</dc:format>
    <dc:creator>
     <cc:Agent>
      <dc:title>Matplotlib v3.7.5, https://matplotlib.org/</dc:title>
     </cc:Agent>
    </dc:creator>
   </cc:Work>
  </rdf:RDF>
 </metadata>
 <defs>
  <style type="text/css">*{stroke-linejoin: round; stroke-linecap: butt}</style>
 </defs>
 <g id="figure_1">
  <g id="patch_1">
   <path d="M 0 288 
L 1008 288 
L 1008 0 
L 0 0 
z
" style="fill: #ffffff"/>
  </g>
  <g id="axes_1">
   <g id="patch_2">
    <path d="M 60.32 246.04 
L 492.3 246.04 
L 492.3 43.2 
L 60.32 43.2 
z
" style="fill: #ffffff"/>
   </g>
   <g id="matplotlib.axis_1">
    <g id="xtick_1">
     <g id="text_1">
      <!-- 0 -->
      <g style="fill: #262626" transform="translate(57.13875 260.638438) scale(0.1 -0.1)">
       <defs>
        <path id="DejaVuSans-30" d="M 2034 4250 
Q 1547 4250 1301 3770 
Q 1056 3291 1056 2328 
Q 1056 1369 1301 889 
Q 1547 409 2034 409 
Q 2525 409 2770 889 
Q 3016 1369 3016 2328 
Q 3016 3291 2770 3770 
Q 2525 4250 2034 4250 
z
M 2034 4750 
Q 2819 4750 3233 4129 
Q 3647 3509 3647 2328 
Q 3647 1150 3233 529 
Q 2819 -91 2034 -91 
Q 1250 -91 836 529 
Q 422 1150 422 2328 
Q 422 3509 836 4129 
Q 1250 4750 2034 4750 
z
" transform="scale(0.015625)"/>
       </defs>
       <use xlink:href="#DejaVuSans-30"/>
      </g>
     </g>
    </g>
    <g id="xtick_2">
     <g id="text_2">
      <!-- 1000 -->
      <g style="fill: #262626" transform="translate(133.991 260.638438) scale(0.1 -0.1)">
       <defs>
        <path id="DejaVuSans-31" d="M 794 531 
L 1825 531 
L 1825 4091 
L 703 3866 
L 703 4441 
L 1819 4666 
L 2450 4666 
L 2450 531 
L 3481 531 
L 3481 0 
L 794 0 
L 794 531 
z
" transform="scale(0.015625)"/>
       </defs>
       <use xlink:href="#DejaVuSans-31"/>
       <use xlink:href="#DejaVuSans-30" x="63.623047"/>
       <use xlink:href="#DejaVuSans-30" x="127.246094"/>
       <use xlink:href="#DejaVuSans-30" x="190.869141"/>
      </g>
     </g>
    </g>
    <g id="xtick_3">
     <g id="text_3">
      <!-- 2000 -->
      <g style="fill: #262626" transform="translate(220.387 260.638438) scale(0.1 -0.1)">
       <defs>
        <path id="DejaVuSans-32" d="M 1228 531 
L 3431 531 
L 3431 0 
L 469 0 
L 469 531 
Q 828 903 1448 1529 
Q 2069 2156 2228 2338 
Q 2531 2678 2651 2914 
Q 2772 3150 2772 3378 
Q 2772 3750 2511 3984 
Q 2250 4219 1831 4219 
Q 1534 4219 1204 4116 
Q 875 4013 500 3803 
L 500 4441 
Q 881 4594 1212 4672 
Q 1544 4750 1819 4750 
Q 2544 4750 2975 4387 
Q 3406 4025 3406 3419 
Q 3406 3131 3298 2873 
Q 3191 2616 2906 2266 
Q 2828 2175 2409 1742 
Q 1991 1309 1228 531 
z
" transform="scale(0.015625)"/>
       </defs>
       <use xlink:href="#DejaVuSans-32"/>
       <use xlink:href="#DejaVuSans-30" x="63.623047"/>
       <use xlink:href="#DejaVuSans-30" x="127.246094"/>
       <use xlink:href="#DejaVuSans-30" x="190.869141"/>
      </g>
     </g>
    </g>
    <g id="xtick_4">
     <g id="text_4">
      <!-- 3000 -->
      <g style="fill: #262626" transform="translate(306.783 260.638438) scale(0.1 -0.1)">
       <defs>
        <path id="DejaVuSans-33" d="M 2597 2516 
Q 3050 2419 3304 2112 
Q 3559 1806 3559 1356 
Q 3559 666 3084 287 
Q 2609 -91 1734 -91 
Q 1441 -91 1130 -33 
Q 819 25 488 141 
L 488 750 
Q 750 597 1062 519 
Q 1375 441 1716 441 
Q 2309 441 2620 675 
Q 2931 909 2931 1356 
Q 2931 1769 2642 2001 
Q 2353 2234 1838 2234 
L 1294 2234 
L 1294 2753 
L 1863 2753 
Q 2328 2753 2575 2939 
Q 2822 3125 2822 3475 
Q 2822 3834 2567 4026 
Q 2313 4219 1838 4219 
Q 1578 4219 1281 4162 
Q 984 4106 628 3988 
L 628 4550 
Q 988 4650 1302 4700 
Q 1616 4750 1894 4750 
Q 2613 4750 3031 4423 
Q 3450 4097 3450 3541 
Q 3450 3153 3228 2886 
Q 3006 2619 2597 2516 
z
" transform="scale(0.015625)"/>
       </defs>
       <use xlink:href="#DejaVuSans-33"/>
       <use xlink:href="#DejaVuSans-30" x="63.623047"/>
       <use xlink:href="#DejaVuSans-30" x="127.246094"/>
       <use xlink:href="#DejaVuSans-30" x="190.869141"/>
      </g>
     </g>
    </g>
    <g id="xtick_5">
     <g id="text_5">
      <!-- 4000 -->
      <g style="fill: #262626" transform="translate(393.179 260.638438) scale(0.1 -0.1)">
       <defs>
        <path id="DejaVuSans-34" d="M 2419 4116 
L 825 1625 
L 2419 1625 
L 2419 4116 
z
M 2253 4666 
L 3047 4666 
L 3047 1625 
L 3713 1625 
L 3713 1100 
L 3047 1100 
L 3047 0 
L 2419 0 
L 2419 1100 
L 313 1100 
L 313 1709 
L 2253 4666 
z
" transform="scale(0.015625)"/>
       </defs>
       <use xlink:href="#DejaVuSans-34"/>
       <use xlink:href="#DejaVuSans-30" x="63.623047"/>
       <use xlink:href="#DejaVuSans-30" x="127.246094"/>
       <use xlink:href="#DejaVuSans-30" x="190.869141"/>
      </g>
     </g>
    </g>
    <g id="xtick_6">
     <g id="text_6">
      <!-- 5000 -->
      <g style="fill: #262626" transform="translate(479.575 260.638438) scale(0.1 -0.1)">
       <defs>
        <path id="DejaVuSans-35" d="M 691 4666 
L 3169 4666 
L 3169 4134 
L 1269 4134 
L 1269 2991 
Q 1406 3038 1543 3061 
Q 1681 3084 1819 3084 
Q 2600 3084 3056 2656 
Q 3513 2228 3513 1497 
Q 3513 744 3044 326 
Q 2575 -91 1722 -91 
Q 1428 -91 1123 -41 
Q 819 9 494 109 
L 494 744 
Q 775 591 1075 516 
Q 1375 441 1709 441 
Q 2250 441 2565 725 
Q 2881 1009 2881 1497 
Q 2881 1984 2565 2268 
Q 2250 2553 1709 2553 
Q 1456 2553 1204 2497 
Q 953 2441 691 2322 
L 691 4666 
z
" transform="scale(0.015625)"/>
       </defs>
       <use xlink:href="#DejaVuSans-35"/>
       <use xlink:href="#DejaVuSans-30" x="63.623047"/>
       <use xlink:href="#DejaVuSans-30" x="127.246094"/>
       <use xlink:href="#DejaVuSans-30" x="190.869141"/>
      </g>
     </g>
    </g>
    <g id="text_7">
     <!-- Epoch -->
     <g style="fill: #262626" transform="translate(260.999063 274.316562) scale(0.1 -0.1)">
      <defs>
       <path id="DejaVuSans-45" d="M 628 4666 
L 3578 4666 
L 3578 4134 
L 1259 4134 
L 1259 2753 
L 3481 2753 
L 3481 2222 
L 1259 2222 
L 1259 531 
L 3634 531 
L 3634 0 
L 628 0 
L 628 4666 
z
" transform="scale(0.015625)"/>
       <path id="DejaVuSans-70" d="M 1159 525 
L 1159 -1331 
L 581 -1331 
L 581 3500 
L 1159 3500 
L 1159 2969 
Q 1341 3281 1617 3432 
Q 1894 3584 2278 3584 
Q 2916 3584 3314 3078 
Q 3713 2572 3713 1747 
Q 3713 922 3314 415 
Q 2916 -91 2278 -91 
Q 1894 -91 1617 61 
Q 1341 213 1159 525 
z
M 3116 1747 
Q 3116 2381 2855 2742 
Q 2594 3103 2138 3103 
Q 1681 3103 1420 2742 
Q 1159 2381 1159 1747 
Q 1159 1113 1420 752 
Q 1681 391 2138 391 
Q 2594 391 2855 752 
Q 3116 1113 3116 1747 
z
" transform="scale(0.015625)"/>
       <path id="DejaVuSans-6f" d="M 1959 3097 
Q 1497 3097 1228 2736 
Q 959 2375 959 1747 
Q 959 1119 1226 758 
Q 1494 397 1959 397 
Q 2419 397 2687 759 
Q 2956 1122 2956 1747 
Q 2956 2369 2687 2733 
Q 2419 3097 1959 3097 
z
M 1959 3584 
Q 2709 3584 3137 3096 
Q 3566 2609 3566 1747 
Q 3566 888 3137 398 
Q 2709 -91 1959 -91 
Q 1206 -91 779 398 
Q 353 888 353 1747 
Q 353 2609 779 3096 
Q 1206 3584 1959 3584 
z
" transform="scale(0.015625)"/>
       <path id="DejaVuSans-63" d="M 3122 3366 
L 3122 2828 
Q 2878 2963 2633 3030 
Q 2388 3097 2138 3097 
Q 1578 3097 1268 2742 
Q 959 2388 959 1747 
Q 959 1106 1268 751 
Q 1578 397 2138 397 
Q 2388 397 2633 464 
Q 2878 531 3122 666 
L 3122 134 
Q 2881 22 2623 -34 
Q 2366 -91 2075 -91 
Q 1284 -91 818 406 
Q 353 903 353 1747 
Q 353 2603 823 3093 
Q 1294 3584 2113 3584 
Q 2378 3584 2631 3529 
Q 2884 3475 3122 3366 
z
" transform="scale(0.015625)"/>
       <path id="DejaVuSans-68" d="M 3513 2113 
L 3513 0 
L 2938 0 
L 2938 2094 
Q 2938 2591 2744 2837 
Q 2550 3084 2163 3084 
Q 1697 3084 1428 2787 
Q 1159 2491 1159 1978 
L 1159 0 
L 581 0 
L 581 4863 
L 1159 4863 
L 1159 2956 
Q 1366 3272 1645 3428 
Q 1925 3584 2291 3584 
Q 2894 3584 3203 3211 
Q 3513 2838 3513 2113 
z
" transform="scale(0.015625)"/>
      </defs>
      <use xlink:href="#DejaVuSans-45"/>
      <use xlink:href="#DejaVuSans-70" x="63.183594"/>
      <use xlink:href="#DejaVuSans-6f" x="126.660156"/>
      <use xlink:href="#DejaVuSans-63" x="187.841797"/>
      <use xlink:href="#DejaVuSans-68" x="242.822266"/>
     </g>
    </g>
   </g>
   <g id="matplotlib.axis_2">
    <g id="ytick_1">
     <g id="text_8">
      <!-- 50% -->
      <g style="fill: #262626" transform="translate(31.093438 237.073065) scale(0.1 -0.1)">
       <defs>
        <path id="DejaVuSans-25" d="M 4653 2053 
Q 4381 2053 4226 1822 
Q 4072 1591 4072 1178 
Q 4072 772 4226 539 
Q 4381 306 4653 306 
Q 4919 306 5073 539 
Q 5228 772 5228 1178 
Q 5228 1588 5073 1820 
Q 4919 2053 4653 2053 
z
M 4653 2450 
Q 5147 2450 5437 2106 
Q 5728 1763 5728 1178 
Q 5728 594 5436 251 
Q 5144 -91 4653 -91 
Q 4153 -91 3862 251 
Q 3572 594 3572 1178 
Q 3572 1766 3864 2108 
Q 4156 2450 4653 2450 
z
M 1428 4353 
Q 1159 4353 1004 4120 
Q 850 3888 850 3481 
Q 850 3069 1003 2837 
Q 1156 2606 1428 2606 
Q 1700 2606 1854 2837 
Q 2009 3069 2009 3481 
Q 2009 3884 1853 4118 
Q 1697 4353 1428 4353 
z
M 4250 4750 
L 4750 4750 
L 1831 -91 
L 1331 -91 
L 4250 4750 
z
M 1428 4750 
Q 1922 4750 2215 4408 
Q 2509 4066 2509 3481 
Q 2509 2891 2217 2550 
Q 1925 2209 1428 2209 
Q 931 2209 642 2551 
Q 353 2894 353 3481 
Q 353 4063 643 4406 
Q 934 4750 1428 4750 
z
" transform="scale(0.015625)"/>
       </defs>
       <use xlink:href="#DejaVuSans-35"/>
       <use xlink:href="#DejaVuSans-30" x="63.623047"/>
       <use xlink:href="#DejaVuSans-25" x="127.246094"/>
      </g>
     </g>
    </g>
    <g id="ytick_2">
     <g id="text_9">
      <!-- 60% -->
      <g style="fill: #262626" transform="translate(31.093438 200.902296) scale(0.1 -0.1)">
       <defs>
        <path id="DejaVuSans-36" d="M 2113 2584 
Q 1688 2584 1439 2293 
Q 1191 2003 1191 1497 
Q 1191 994 1439 701 
Q 1688 409 2113 409 
Q 2538 409 2786 701 
Q 3034 994 3034 1497 
Q 3034 2003 2786 2293 
Q 2538 2584 2113 2584 
z
M 3366 4563 
L 3366 3988 
Q 3128 4100 2886 4159 
Q 2644 4219 2406 4219 
Q 1781 4219 1451 3797 
Q 1122 3375 1075 2522 
Q 1259 2794 1537 2939 
Q 1816 3084 2150 3084 
Q 2853 3084 3261 2657 
Q 3669 2231 3669 1497 
Q 3669 778 3244 343 
Q 2819 -91 2113 -91 
Q 1303 -91 875 529 
Q 447 1150 447 2328 
Q 447 3434 972 4092 
Q 1497 4750 2381 4750 
Q 2619 4750 2861 4703 
Q 3103 4656 3366 4563 
z
" transform="scale(0.015625)"/>
       </defs>
       <use xlink:href="#DejaVuSans-36"/>
       <use xlink:href="#DejaVuSans-30" x="63.623047"/>
       <use xlink:href="#DejaVuSans-25" x="127.246094"/>
      </g>
     </g>
    </g>
    <g id="ytick_3">
     <g id="text_10">
      <!-- 70% -->
      <g style="fill: #262626" transform="translate(31.093438 164.731527) scale(0.1 -0.1)">
       <defs>
        <path id="DejaVuSans-37" d="M 525 4666 
L 3525 4666 
L 3525 4397 
L 1831 0 
L 1172 0 
L 2766 4134 
L 525 4134 
L 525 4666 
z
" transform="scale(0.015625)"/>
       </defs>
       <use xlink:href="#DejaVuSans-37"/>
       <use xlink:href="#DejaVuSans-30" x="63.623047"/>
       <use xlink:href="#DejaVuSans-25" x="127.246094"/>
      </g>
     </g>
    </g>
    <g id="ytick_4">
     <g id="text_11">
      <!-- 80% -->
      <g style="fill: #262626" transform="translate(31.093438 128.560757) scale(0.1 -0.1)">
       <defs>
        <path id="DejaVuSans-38" d="M 2034 2216 
Q 1584 2216 1326 1975 
Q 1069 1734 1069 1313 
Q 1069 891 1326 650 
Q 1584 409 2034 409 
Q 2484 409 2743 651 
Q 3003 894 3003 1313 
Q 3003 1734 2745 1975 
Q 2488 2216 2034 2216 
z
M 1403 2484 
Q 997 2584 770 2862 
Q 544 3141 544 3541 
Q 544 4100 942 4425 
Q 1341 4750 2034 4750 
Q 2731 4750 3128 4425 
Q 3525 4100 3525 3541 
Q 3525 3141 3298 2862 
Q 3072 2584 2669 2484 
Q 3125 2378 3379 2068 
Q 3634 1759 3634 1313 
Q 3634 634 3220 271 
Q 2806 -91 2034 -91 
Q 1263 -91 848 271 
Q 434 634 434 1313 
Q 434 1759 690 2068 
Q 947 2378 1403 2484 
z
M 1172 3481 
Q 1172 3119 1398 2916 
Q 1625 2713 2034 2713 
Q 2441 2713 2670 2916 
Q 2900 3119 2900 3481 
Q 2900 3844 2670 4047 
Q 2441 4250 2034 4250 
Q 1625 4250 1398 4047 
Q 1172 3844 1172 3481 
z
" transform="scale(0.015625)"/>
       </defs>
       <use xlink:href="#DejaVuSans-38"/>
       <use xlink:href="#DejaVuSans-30" x="63.623047"/>
       <use xlink:href="#DejaVuSans-25" x="127.246094"/>
      </g>
     </g>
    </g>
    <g id="ytick_5">
     <g id="text_12">
      <!-- 90% -->
      <g style="fill: #262626" transform="translate(31.093438 92.389988) scale(0.1 -0.1)">
       <defs>
        <path id="DejaVuSans-39" d="M 703 97 
L 703 672 
Q 941 559 1184 500 
Q 1428 441 1663 441 
Q 2288 441 2617 861 
Q 2947 1281 2994 2138 
Q 2813 1869 2534 1725 
Q 2256 1581 1919 1581 
Q 1219 1581 811 2004 
Q 403 2428 403 3163 
Q 403 3881 828 4315 
Q 1253 4750 1959 4750 
Q 2769 4750 3195 4129 
Q 3622 3509 3622 2328 
Q 3622 1225 3098 567 
Q 2575 -91 1691 -91 
Q 1453 -91 1209 -44 
Q 966 3 703 97 
z
M 1959 2075 
Q 2384 2075 2632 2365 
Q 2881 2656 2881 3163 
Q 2881 3666 2632 3958 
Q 2384 4250 1959 4250 
Q 1534 4250 1286 3958 
Q 1038 3666 1038 3163 
Q 1038 2656 1286 2365 
Q 1534 2075 1959 2075 
z
" transform="scale(0.015625)"/>
       </defs>
       <use xlink:href="#DejaVuSans-39"/>
       <use xlink:href="#DejaVuSans-30" x="63.623047"/>
       <use xlink:href="#DejaVuSans-25" x="127.246094"/>
      </g>
     </g>
    </g>
    <g id="ytick_6">
     <g id="text_13">
      <!-- 100% -->
      <g style="fill: #262626" transform="translate(24.730938 56.219219) scale(0.1 -0.1)">
       <use xlink:href="#DejaVuSans-31"/>
       <use xlink:href="#DejaVuSans-30" x="63.623047"/>
       <use xlink:href="#DejaVuSans-30" x="127.246094"/>
       <use xlink:href="#DejaVuSans-25" x="190.869141"/>
      </g>
     </g>
    </g>
    <g id="text_14">
     <!-- Accuracy (%) -->
     <g style="fill: #262626" transform="translate(18.65125 177.689531) rotate(-90) scale(0.1 -0.1)">
      <defs>
       <path id="DejaVuSans-41" d="M 2188 4044 
L 1331 1722 
L 3047 1722 
L 2188 4044 
z
M 1831 4666 
L 2547 4666 
L 4325 0 
L 3669 0 
L 3244 1197 
L 1141 1197 
L 716 0 
L 50 0 
L 1831 4666 
z
" transform="scale(0.015625)"/>
       <path id="DejaVuSans-75" d="M 544 1381 
L 544 3500 
L 1119 3500 
L 1119 1403 
Q 1119 906 1312 657 
Q 1506 409 1894 409 
Q 2359 409 2629 706 
Q 2900 1003 2900 1516 
L 2900 3500 
L 3475 3500 
L 3475 0 
L 2900 0 
L 2900 538 
Q 2691 219 2414 64 
Q 2138 -91 1772 -91 
Q 1169 -91 856 284 
Q 544 659 544 1381 
z
M 1991 3584 
L 1991 3584 
z
" transform="scale(0.015625)"/>
       <path id="DejaVuSans-72" d="M 2631 2963 
Q 2534 3019 2420 3045 
Q 2306 3072 2169 3072 
Q 1681 3072 1420 2755 
Q 1159 2438 1159 1844 
L 1159 0 
L 581 0 
L 581 3500 
L 1159 3500 
L 1159 2956 
Q 1341 3275 1631 3429 
Q 1922 3584 2338 3584 
Q 2397 3584 2469 3576 
Q 2541 3569 2628 3553 
L 2631 2963 
z
" transform="scale(0.015625)"/>
       <path id="DejaVuSans-61" d="M 2194 1759 
Q 1497 1759 1228 1600 
Q 959 1441 959 1056 
Q 959 750 1161 570 
Q 1363 391 1709 391 
Q 2188 391 2477 730 
Q 2766 1069 2766 1631 
L 2766 1759 
L 2194 1759 
z
M 3341 1997 
L 3341 0 
L 2766 0 
L 2766 531 
Q 2569 213 2275 61 
Q 1981 -91 1556 -91 
Q 1019 -91 701 211 
Q 384 513 384 1019 
Q 384 1609 779 1909 
Q 1175 2209 1959 2209 
L 2766 2209 
L 2766 2266 
Q 2766 2663 2505 2880 
Q 2244 3097 1772 3097 
Q 1472 3097 1187 3025 
Q 903 2953 641 2809 
L 641 3341 
Q 956 3463 1253 3523 
Q 1550 3584 1831 3584 
Q 2591 3584 2966 3190 
Q 3341 2797 3341 1997 
z
" transform="scale(0.015625)"/>
       <path id="DejaVuSans-79" d="M 2059 -325 
Q 1816 -950 1584 -1140 
Q 1353 -1331 966 -1331 
L 506 -1331 
L 506 -850 
L 844 -850 
Q 1081 -850 1212 -737 
Q 1344 -625 1503 -206 
L 1606 56 
L 191 3500 
L 800 3500 
L 1894 763 
L 2988 3500 
L 3597 3500 
L 2059 -325 
z
" transform="scale(0.015625)"/>
       <path id="DejaVuSans-20" transform="scale(0.015625)"/>
       <path id="DejaVuSans-28" d="M 1984 4856 
Q 1566 4138 1362 3434 
Q 1159 2731 1159 2009 
Q 1159 1288 1364 580 
Q 1569 -128 1984 -844 
L 1484 -844 
Q 1016 -109 783 600 
Q 550 1309 550 2009 
Q 550 2706 781 3412 
Q 1013 4119 1484 4856 
L 1984 4856 
z
" transform="scale(0.015625)"/>
       <path id="DejaVuSans-29" d="M 513 4856 
L 1013 4856 
Q 1481 4119 1714 3412 
Q 1947 2706 1947 2009 
Q 1947 1309 1714 600 
Q 1481 -109 1013 -844 
L 513 -844 
Q 928 -128 1133 580 
Q 1338 1288 1338 2009 
Q 1338 2731 1133 3434 
Q 928 4138 513 4856 
z
" transform="scale(0.015625)"/>
      </defs>
      <use xlink:href="#DejaVuSans-41"/>
      <use xlink:href="#DejaVuSans-63" x="66.658203"/>
      <use xlink:href="#DejaVuSans-63" x="121.638672"/>
      <use xlink:href="#DejaVuSans-75" x="176.619141"/>
      <use xlink:href="#DejaVuSans-72" x="239.998047"/>
      <use xlink:href="#DejaVuSans-61" x="281.111328"/>
      <use xlink:href="#DejaVuSans-63" x="342.390625"/>
      <use xlink:href="#DejaVuSans-79" x="397.371094"/>
      <use xlink:href="#DejaVuSans-20" x="456.550781"/>
      <use xlink:href="#DejaVuSans-28" x="488.337891"/>
      <use xlink:href="#DejaVuSans-25" x="527.351562"/>
      <use xlink:href="#DejaVuSans-29" x="622.371094"/>
     </g>
    </g>
   </g>
   <g id="line2d_1">
    <path d="M 60.32 219.089232 
L 60.406396 219.089232 
L 60.579188 215.543067 
L 60.665584 215.543067 
L 60.838376 219.089232 
L 60.924772 219.089232 
L 61.097564 236.82 
L 61.270356 222.635375 
L 61.356752 226.181539 
L 61.61594 211.996925 
L 61.961524 201.358453 
L 62.04792 201.358453 
L 62.134316 204.904617 
L 62.393504 197.81231 
L 62.566296 201.358453 
L 62.739088 201.358453 
L 62.825484 204.904617 
L 63.084672 197.81231 
L 63.257464 197.81231 
L 63.430256 208.45076 
L 63.516652 204.904617 
L 63.689444 197.81231 
L 63.862236 201.358453 
L 64.035028 194.266146 
L 64.380612 194.266146 
L 64.553404 183.627695 
L 64.6398 183.627695 
L 64.812592 165.896916 
L 64.985384 169.443081 
L 65.07178 169.443081 
L 65.158176 165.896916 
L 65.330968 172.989224 
L 65.417364 162.350774 
L 65.50376 165.896916 
L 65.590156 158.804609 
L 65.676552 162.350774 
L 65.762948 155.258466 
L 65.849344 158.804609 
L 65.93574 155.258466 
L 66.022136 165.896916 
L 66.194928 162.350774 
L 66.281324 144.619995 
L 66.36772 148.166159 
L 66.540512 133.981544 
L 66.713304 141.073852 
L 66.886096 133.981544 
L 67.058888 133.981544 
L 67.23168 123.343073 
L 67.318076 130.43538 
L 67.404472 126.889237 
L 67.490868 137.527687 
L 67.66366 130.43538 
L 67.750056 126.889237 
L 67.836452 130.43538 
L 67.922848 126.889237 
L 68.009244 130.43538 
L 68.09564 119.79693 
L 68.268432 123.343073 
L 68.354828 123.343073 
L 68.441224 126.889237 
L 68.873204 109.158458 
L 69.045996 116.250765 
L 69.132392 105.612315 
L 69.218788 112.704623 
L 69.39158 109.158458 
L 69.477976 94.973844 
L 69.650768 109.158458 
L 69.996352 98.520008 
L 70.169144 105.612315 
L 70.25554 94.973844 
L 70.514728 102.066151 
L 70.860312 91.427701 
L 70.946708 91.427701 
L 71.033104 94.973844 
L 71.1195 87.881536 
L 71.292292 91.427701 
L 71.378688 91.427701 
L 71.465084 84.335394 
L 71.724272 102.066151 
L 71.897064 84.335394 
L 71.98346 91.427701 
L 72.242648 84.335394 
L 72.329044 84.335394 
L 72.41544 77.243086 
L 72.588232 87.881536 
L 72.674628 87.881536 
L 72.84742 84.335394 
L 72.933816 84.335394 
L 73.106608 80.789229 
L 73.2794 84.335394 
L 73.452192 77.243086 
L 73.538588 84.335394 
L 73.797776 77.243086 
L 73.970568 80.789229 
L 74.056964 77.243086 
L 74.229756 84.335394 
L 74.402548 73.696922 
L 74.57534 84.335394 
L 74.748132 77.243086 
L 74.920924 84.335394 
L 75.093716 73.696922 
L 75.180112 80.789229 
L 75.4393 73.696922 
L 75.525696 73.696922 
L 75.612092 70.150779 
L 75.784884 77.243086 
L 75.957676 73.696922 
L 76.044072 84.335394 
L 76.216864 73.696922 
L 76.30326 73.696922 
L 76.476052 70.150779 
L 76.562448 73.696922 
L 76.73524 70.150779 
L 76.908032 70.150779 
L 76.994428 77.243086 
L 77.16722 70.150779 
L 77.253616 73.696922 
L 77.512804 66.604615 
L 77.771992 66.604615 
L 77.944784 70.150779 
L 78.203972 70.150779 
L 78.376764 73.696922 
L 78.46316 73.696922 
L 78.549556 63.058472 
L 78.722348 66.604615 
L 78.808744 66.604615 
L 78.981536 63.058472 
L 79.067932 63.058472 
L 79.240724 66.604615 
L 79.32712 66.604615 
L 79.499912 63.058472 
L 79.672704 63.058472 
L 79.7591 59.512307 
L 79.931892 63.058472 
L 80.018288 59.512307 
L 80.19108 63.058472 
L 80.363872 63.058472 
L 80.536664 59.512307 
L 80.62306 63.058472 
L 80.795852 59.512307 
L 82.696564 59.512307 
L 82.78296 63.058472 
L 82.869356 59.512307 
L 82.955752 63.058472 
L 83.128544 55.966164 
L 83.301336 59.512307 
L 83.733316 59.512307 
L 83.819712 55.966164 
L 83.992504 59.512307 
L 84.165296 59.512307 
L 84.251692 55.966164 
L 84.424484 59.512307 
L 84.856464 59.512307 
L 85.029256 55.966164 
L 85.115652 55.966164 
L 85.288444 59.512307 
L 85.461236 55.966164 
L 85.634028 59.512307 
L 85.720424 59.512307 
L 85.80682 55.966164 
L 85.979612 59.512307 
L 86.066008 55.966164 
L 86.2388 59.512307 
L 86.325196 59.512307 
L 86.497988 55.966164 
L 86.67078 55.966164 
L 86.757176 59.512307 
L 86.929968 55.966164 
L 87.10276 59.512307 
L 87.189156 55.966164 
L 87.275552 63.058472 
L 87.361948 59.512307 
L 87.448344 63.058472 
L 87.621136 55.966164 
L 88.225908 55.966164 
L 88.3987 59.512307 
L 88.571492 55.966164 
L 88.744284 59.512307 
L 88.83068 55.966164 
L 88.917076 59.512307 
L 89.089868 55.966164 
L 89.26266 59.512307 
L 89.435452 55.966164 
L 89.953828 55.966164 
L 90.12662 59.512307 
L 90.213016 55.966164 
L 90.385808 59.512307 
L 90.5586 55.966164 
L 90.99058 55.966164 
L 91.076976 59.512307 
L 91.249768 55.966164 
L 91.768144 55.966164 
L 91.940936 59.512307 
L 92.113728 55.966164 
L 92.7185 55.966164 
L 92.891292 52.42 
L 92.977688 52.42 
L 93.15048 55.966164 
L 93.323272 55.966164 
L 93.496064 52.42 
L 93.668856 52.42 
L 93.841648 55.966164 
L 94.01444 52.42 
L 94.100836 52.42 
L 94.273628 55.966164 
L 94.44642 52.42 
L 94.619212 52.42 
L 94.705608 55.966164 
L 94.8784 52.42 
L 96.519924 52.42 
L 96.60632 55.966164 
L 96.779112 52.42 
L 96.865508 55.966164 
L 97.0383 52.42 
L 97.124696 55.966164 
L 97.211092 52.42 
L 97.383884 55.966164 
L 97.47028 55.966164 
L 97.643072 52.42 
L 100.92612 52.42 
L 101.012516 55.966164 
L 101.185308 52.42 
L 104.81394 52.42 
L 104.900336 55.966164 
L 105.073128 52.42 
L 128.832028 52.42 
L 128.918424 55.966164 
L 129.091216 98.520008 
L 129.350404 59.512307 
L 129.4368 73.696922 
L 129.523196 55.966164 
L 129.609592 59.512307 
L 129.695988 59.512307 
L 129.782384 52.42 
L 129.86878 59.512307 
L 130.041572 52.42 
L 492.213604 52.42 
L 492.213604 52.42 
" clip-path="url(#p9c6bc26908)" style="fill: none; stroke: #1f77b4; stroke-width: 1.5; stroke-linecap: round"/>
   </g>
   <g id="line2d_2">
    <path d="M 60.32 219.362002 
L 61.529544 219.362002 
L 61.702336 177.626512 
L 62.393504 177.626512 
L 62.4799 163.714668 
L 62.652692 177.626512 
L 62.998276 177.626512 
L 63.171068 163.714668 
L 63.34386 177.626512 
L 63.430256 177.626512 
L 63.603048 191.538335 
L 63.77584 191.538335 
L 64.035028 163.714668 
L 64.294216 205.450179 
L 64.467008 191.538335 
L 64.553404 191.538335 
L 64.726196 135.891001 
L 64.812592 149.802845 
L 64.985384 135.891001 
L 65.07178 149.802845 
L 65.244572 135.891001 
L 65.417364 135.891001 
L 65.50376 121.979178 
L 65.849344 163.714668 
L 65.93574 163.714668 
L 66.022136 135.891001 
L 66.281324 163.714668 
L 66.540512 163.714668 
L 66.626908 177.626512 
L 66.7997 163.714668 
L 66.886096 177.626512 
L 67.058888 149.802845 
L 67.23168 177.626512 
L 67.404472 149.802845 
L 67.490868 163.714668 
L 67.577264 135.891001 
L 67.750056 149.802845 
L 67.922848 149.802845 
L 68.09564 121.979178 
L 68.354828 149.802845 
L 68.441224 121.979178 
L 68.52762 163.714668 
L 68.700412 121.979178 
L 68.786808 121.979178 
L 68.873204 149.802845 
L 69.045996 121.979178 
L 69.305184 121.979178 
L 69.477976 135.891001 
L 69.564372 135.891001 
L 69.737164 108.067334 
L 69.909956 135.891001 
L 70.082748 108.067334 
L 70.341936 135.891001 
L 70.428332 135.891001 
L 70.601124 108.067334 
L 70.773916 108.067334 
L 70.860312 121.979178 
L 71.033104 108.067334 
L 71.1195 108.067334 
L 71.205896 121.979178 
L 71.378688 108.067334 
L 71.465084 121.979178 
L 71.55148 108.067334 
L 71.637876 135.891001 
L 71.724272 108.067334 
L 71.810668 121.979178 
L 71.897064 108.067334 
L 71.98346 121.979178 
L 72.156252 108.067334 
L 72.41544 108.067334 
L 72.501836 121.979178 
L 72.674628 108.067334 
L 74.402548 108.067334 
L 74.488944 121.979178 
L 74.661736 108.067334 
L 74.748132 108.067334 
L 74.834528 121.979178 
L 75.00732 108.067334 
L 77.771992 108.067334 
L 77.858388 121.979178 
L 78.03118 108.067334 
L 82.696564 108.067334 
L 82.78296 121.979178 
L 82.869356 108.067334 
L 82.955752 121.979178 
L 83.042148 108.067334 
L 83.21494 121.979178 
L 83.301336 121.979178 
L 83.474128 108.067334 
L 84.338088 108.067334 
L 84.424484 121.979178 
L 84.597276 108.067334 
L 85.115652 108.067334 
L 85.202048 121.979178 
L 85.37484 108.067334 
L 85.461236 108.067334 
L 85.547632 121.979178 
L 85.720424 108.067334 
L 85.893216 121.979178 
L 86.066008 108.067334 
L 86.152404 108.067334 
L 86.325196 121.979178 
L 86.67078 121.979178 
L 86.757176 108.067334 
L 86.929968 121.979178 
L 87.448344 121.979178 
L 87.621136 108.067334 
L 87.707532 108.067334 
L 87.880324 121.979178 
L 88.3987 121.979178 
L 88.485096 108.067334 
L 88.657888 121.979178 
L 88.744284 108.067334 
L 88.917076 121.979178 
L 89.089868 108.067334 
L 89.176264 121.979178 
L 89.349056 108.067334 
L 89.521848 108.067334 
L 89.69464 121.979178 
L 90.385808 121.979178 
L 90.5586 108.067334 
L 90.731392 121.979178 
L 91.076976 121.979178 
L 91.163372 108.067334 
L 91.336164 121.979178 
L 91.595352 121.979178 
L 91.681748 108.067334 
L 91.85454 121.979178 
L 97.0383 121.979178 
L 97.124696 135.891001 
L 97.297488 121.979178 
L 100.839724 121.979178 
L 100.92612 135.891001 
L 101.098912 121.979178 
L 104.727544 121.979178 
L 104.81394 135.891001 
L 104.986732 121.979178 
L 108.356176 121.979178 
L 108.442572 135.891001 
L 108.615364 121.979178 
L 128.832028 121.979178 
L 129.00482 135.891001 
L 129.091216 135.891001 
L 129.177612 149.802845 
L 129.350404 135.891001 
L 129.4368 149.802845 
L 129.609592 121.979178 
L 323.8278 121.979178 
L 324.000592 135.891001 
L 324.173384 121.979178 
L 354.671172 121.979178 
L 354.757568 135.891001 
L 354.93036 121.979178 
L 364.088336 121.979178 
L 364.174732 135.891001 
L 364.347524 121.979178 
L 366.766612 121.979178 
L 366.853008 135.891001 
L 367.0258 121.979178 
L 369.704076 121.979178 
L 369.876868 135.891001 
L 370.04966 121.979178 
L 383.786624 121.979178 
L 383.87302 135.891001 
L 384.045812 121.979178 
L 386.4649 121.979178 
L 386.551296 135.891001 
L 386.724088 121.979178 
L 388.797592 121.979178 
L 388.970384 135.891001 
L 389.05678 135.891001 
L 389.229572 121.979178 
L 391.043888 121.979178 
L 391.130284 135.891001 
L 391.303076 121.979178 
L 392.51262 121.979178 
L 392.599016 135.891001 
L 392.771808 121.979178 
L 395.1045 121.979178 
L 395.277292 135.891001 
L 395.53648 135.891001 
L 395.709272 121.979178 
L 395.96846 121.979178 
L 396.141252 135.891001 
L 396.314044 121.979178 
L 397.2644 121.979178 
L 397.437192 135.891001 
L 397.523588 135.891001 
L 397.69638 121.979178 
L 398.12836 121.979178 
L 398.301152 135.891001 
L 398.473944 121.979178 
L 399.942676 121.979178 
L 400.029072 135.891001 
L 400.201864 121.979178 
L 401.5842 121.979178 
L 401.756992 135.891001 
L 401.929784 121.979178 
L 402.188972 121.979178 
L 402.275368 135.891001 
L 402.44816 121.979178 
L 402.793744 121.979178 
L 402.966536 135.891001 
L 403.139328 121.979178 
L 404.521664 121.979178 
L 404.694456 135.891001 
L 404.780852 135.891001 
L 404.953644 121.979178 
L 405.990396 121.979178 
L 406.163188 135.891001 
L 406.33598 121.979178 
L 408.582276 121.979178 
L 408.755068 135.891001 
L 409.187048 135.891001 
L 409.35984 121.979178 
L 409.79182 121.979178 
L 409.964612 135.891001 
L 410.137404 121.979178 
L 410.310196 121.979178 
L 410.482988 135.891001 
L 410.65578 121.979178 
L 411.001364 121.979178 
L 411.174156 135.891001 
L 411.260552 135.891001 
L 411.433344 121.979178 
L 411.865324 121.979178 
L 412.038116 135.891001 
L 412.210908 121.979178 
L 412.470096 121.979178 
L 412.642888 135.891001 
L 412.729284 135.891001 
L 412.902076 121.979178 
L 414.629996 121.979178 
L 414.802788 135.891001 
L 414.889184 135.891001 
L 415.061976 121.979178 
L 415.925936 121.979178 
L 416.012332 135.891001 
L 416.098728 121.979178 
L 416.27152 135.891001 
L 416.444312 135.891001 
L 416.617104 121.979178 
L 416.7035 121.979178 
L 416.876292 135.891001 
L 416.962688 135.891001 
L 417.13548 121.979178 
L 418.949796 121.979178 
L 419.122588 135.891001 
L 419.208984 135.891001 
L 419.381776 121.979178 
L 419.900152 121.979178 
L 420.072944 135.891001 
L 420.504924 135.891001 
L 420.677716 121.979178 
L 420.850508 135.891001 
L 421.0233 121.979178 
L 422.146448 121.979178 
L 422.31924 135.891001 
L 422.492032 121.979178 
L 423.096804 121.979178 
L 423.269596 135.891001 
L 423.355992 135.891001 
L 423.528784 121.979178 
L 424.219952 121.979178 
L 424.392744 135.891001 
L 424.565536 135.891001 
L 424.738328 121.979178 
L 425.170308 121.979178 
L 425.256704 135.891001 
L 425.429496 121.979178 
L 425.861476 121.979178 
L 425.947872 135.891001 
L 426.120664 121.979178 
L 426.379852 121.979178 
L 426.552644 135.891001 
L 426.898228 135.891001 
L 426.984624 121.979178 
L 427.157416 135.891001 
L 427.330208 121.979178 
L 427.503 135.891001 
L 427.93498 135.891001 
L 428.107772 121.979178 
L 428.79894 121.979178 
L 428.971732 135.891001 
L 429.23092 135.891001 
L 429.403712 121.979178 
L 430.09488 121.979178 
L 430.267672 135.891001 
L 430.440464 121.979178 
L 430.786048 121.979178 
L 430.95884 135.891001 
L 431.218028 135.891001 
L 431.39082 121.979178 
L 431.477216 121.979178 
L 431.650008 135.891001 
L 431.8228 135.891001 
L 431.995592 121.979178 
L 432.081988 121.979178 
L 432.25478 135.891001 
L 432.341176 135.891001 
L 432.513968 121.979178 
L 432.773156 121.979178 
L 432.945948 135.891001 
L 433.205136 135.891001 
L 433.291532 121.979178 
L 433.464324 135.891001 
L 433.637116 121.979178 
L 433.809908 135.891001 
L 433.9827 135.891001 
L 434.155492 121.979178 
L 434.41468 121.979178 
L 434.587472 135.891001 
L 434.673868 135.891001 
L 434.84666 121.979178 
L 435.105848 121.979178 
L 435.27864 135.891001 
L 435.451432 121.979178 
L 435.969808 121.979178 
L 436.1426 135.891001 
L 436.315392 121.979178 
L 437.179352 121.979178 
L 437.352144 135.891001 
L 437.524936 135.891001 
L 437.697728 121.979178 
L 438.216104 121.979178 
L 438.388896 135.891001 
L 438.561688 121.979178 
L 438.73448 121.979178 
L 438.907272 135.891001 
L 439.080064 135.891001 
L 439.252856 121.979178 
L 439.339252 121.979178 
L 439.425648 135.891001 
L 439.59844 121.979178 
L 439.771232 121.979178 
L 439.944024 135.891001 
L 440.4624 135.891001 
L 440.635192 121.979178 
L 440.89438 121.979178 
L 440.980776 135.891001 
L 441.153568 121.979178 
L 441.585548 121.979178 
L 441.75834 135.891001 
L 441.931132 121.979178 
L 442.19032 121.979178 
L 442.363112 135.891001 
L 442.535904 121.979178 
L 442.881488 121.979178 
L 442.967884 135.891001 
L 443.140676 121.979178 
L 443.572656 121.979178 
L 443.745448 135.891001 
L 443.91824 135.891001 
L 444.091032 121.979178 
L 444.954992 121.979178 
L 445.127784 135.891001 
L 445.21418 135.891001 
L 445.386972 121.979178 
L 445.473368 121.979178 
L 445.64616 135.891001 
L 445.732556 135.891001 
L 445.905348 121.979178 
L 446.337328 121.979178 
L 446.51012 135.891001 
L 448.410832 135.891001 
L 448.583624 121.979178 
L 448.842812 121.979178 
L 449.015604 135.891001 
L 450.39794 135.891001 
L 450.570732 121.979178 
L 450.743524 121.979178 
L 450.916316 135.891001 
L 451.348296 135.891001 
L 451.521088 121.979178 
L 451.69388 121.979178 
L 451.866672 135.891001 
L 452.12586 135.891001 
L 452.298652 121.979178 
L 452.730632 121.979178 
L 452.903424 135.891001 
L 453.85378 135.891001 
L 454.026572 121.979178 
L 454.112968 121.979178 
L 454.28576 135.891001 
L 455.5817 135.891001 
L 455.754492 121.979178 
L 456.87764 121.979178 
L 457.050432 135.891001 
L 457.568808 135.891001 
L 457.7416 121.979178 
L 458.087184 121.979178 
L 458.259976 135.891001 
L 458.691956 135.891001 
L 458.864748 121.979178 
L 458.951144 121.979178 
L 459.123936 135.891001 
L 459.210332 135.891001 
L 459.383124 121.979178 
L 459.728708 121.979178 
L 459.9015 135.891001 
L 460.679064 135.891001 
L 460.851856 121.979178 
L 461.024648 135.891001 
L 461.19744 135.891001 
L 461.370232 121.979178 
L 461.456628 121.979178 
L 461.62942 135.891001 
L 461.888608 135.891001 
L 462.0614 121.979178 
L 462.234192 121.979178 
L 462.406984 135.891001 
L 462.92536 135.891001 
L 463.098152 121.979178 
L 463.270944 135.891001 
L 463.530132 135.891001 
L 463.616528 121.979178 
L 463.78932 135.891001 
L 464.739676 135.891001 
L 464.912468 121.979178 
L 465.08526 135.891001 
L 466.208408 135.891001 
L 466.3812 121.979178 
L 466.467596 121.979178 
L 466.640388 135.891001 
L 467.417952 135.891001 
L 467.504348 121.979178 
L 467.590744 135.891001 
L 467.763536 121.979178 
L 468.368308 121.979178 
L 468.5411 135.891001 
L 468.713892 121.979178 
L 468.886684 121.979178 
L 468.97308 135.891001 
L 469.145872 121.979178 
L 469.232268 121.979178 
L 469.40506 135.891001 
L 469.923436 135.891001 
L 470.096228 121.979178 
L 470.182624 121.979178 
L 470.355416 135.891001 
L 471.13298 135.891001 
L 471.305772 121.979178 
L 471.392168 121.979178 
L 471.56496 135.891001 
L 471.651356 135.891001 
L 471.824148 121.979178 
L 472.169732 121.979178 
L 472.342524 135.891001 
L 472.8609 135.891001 
L 472.947296 121.979178 
L 473.120088 135.891001 
L 474.416028 135.891001 
L 474.58882 121.979178 
L 474.761612 135.891001 
L 474.848008 135.891001 
L 475.0208 121.979178 
L 475.279988 121.979178 
L 475.45278 135.891001 
L 476.835116 135.891001 
L 477.007908 121.979178 
L 477.267096 121.979178 
L 477.439888 135.891001 
L 478.217452 135.891001 
L 478.303848 121.979178 
L 478.47664 135.891001 
L 480.031768 135.891001 
L 480.20456 121.979178 
L 480.377352 135.891001 
L 482.278064 135.891001 
L 482.36446 121.979178 
L 482.537252 135.891001 
L 483.6604 135.891001 
L 483.746796 121.979178 
L 483.919588 135.891001 
L 492.213604 135.891001 
L 492.213604 135.891001 
" clip-path="url(#p9c6bc26908)" style="fill: none; stroke-dasharray: 5.55,2.4; stroke-dashoffset: 0; stroke: #ff7f0e; stroke-width: 1.5"/>
   </g>
   <g id="patch_3">
    <path d="M 60.32 246.04 
L 60.32 43.2 
" style="fill: none; stroke: #262626; stroke-width: 0.8; stroke-linejoin: miter; stroke-linecap: square"/>
   </g>
   <g id="patch_4">
    <path d="M 60.32 246.04 
L 492.3 246.04 
" style="fill: none; stroke: #262626; stroke-width: 0.8; stroke-linejoin: miter; stroke-linecap: square"/>
   </g>
   <g id="text_15">
    <!-- Accuracy -->
    <g style="fill: #262626" transform="translate(248.91625 37.2) scale(0.12 -0.12)">
     <use xlink:href="#DejaVuSans-41"/>
     <use xlink:href="#DejaVuSans-63" x="66.658203"/>
     <use xlink:href="#DejaVuSans-63" x="121.638672"/>
     <use xlink:href="#DejaVuSans-75" x="176.619141"/>
     <use xlink:href="#DejaVuSans-72" x="239.998047"/>
     <use xlink:href="#DejaVuSans-61" x="281.111328"/>
     <use xlink:href="#DejaVuSans-63" x="342.390625"/>
     <use xlink:href="#DejaVuSans-79" x="397.371094"/>
    </g>
   </g>
   <g id="legend_1">
    <g id="patch_5">
     <path d="M 67.32 241.04 
L 123.3075 241.04 
Q 125.3075 241.04 125.3075 239.04 
L 125.3075 210.68375 
Q 125.3075 208.68375 123.3075 208.68375 
L 67.32 208.68375 
Q 65.32 208.68375 65.32 210.68375 
L 65.32 239.04 
Q 65.32 241.04 67.32 241.04 
z
" style="fill: #ffffff; opacity: 0.8; stroke: #cccccc; stroke-linejoin: miter"/>
    </g>
    <g id="line2d_3">
     <path d="M 69.32 216.782187 
L 79.32 216.782187 
L 89.32 216.782187 
" style="fill: none; stroke: #1f77b4; stroke-width: 1.5; stroke-linecap: round"/>
    </g>
    <g id="text_16">
     <!-- Train -->
     <g style="fill: #262626" transform="translate(97.32 220.282187) scale(0.1 -0.1)">
      <defs>
       <path id="DejaVuSans-54" d="M -19 4666 
L 3928 4666 
L 3928 4134 
L 2272 4134 
L 2272 0 
L 1638 0 
L 1638 4134 
L -19 4134 
L -19 4666 
z
" transform="scale(0.015625)"/>
       <path id="DejaVuSans-69" d="M 603 3500 
L 1178 3500 
L 1178 0 
L 603 0 
L 603 3500 
z
M 603 4863 
L 1178 4863 
L 1178 4134 
L 603 4134 
L 603 4863 
z
" transform="scale(0.015625)"/>
       <path id="DejaVuSans-6e" d="M 3513 2113 
L 3513 0 
L 2938 0 
L 2938 2094 
Q 2938 2591 2744 2837 
Q 2550 3084 2163 3084 
Q 1697 3084 1428 2787 
Q 1159 2491 1159 1978 
L 1159 0 
L 581 0 
L 581 3500 
L 1159 3500 
L 1159 2956 
Q 1366 3272 1645 3428 
Q 1925 3584 2291 3584 
Q 2894 3584 3203 3211 
Q 3513 2838 3513 2113 
z
" transform="scale(0.015625)"/>
      </defs>
      <use xlink:href="#DejaVuSans-54"/>
      <use xlink:href="#DejaVuSans-72" x="46.333984"/>
      <use xlink:href="#DejaVuSans-61" x="87.447266"/>
      <use xlink:href="#DejaVuSans-69" x="148.726562"/>
      <use xlink:href="#DejaVuSans-6e" x="176.509766"/>
     </g>
    </g>
    <g id="line2d_4">
     <path d="M 69.32 231.460312 
L 79.32 231.460312 
L 89.32 231.460312 
" style="fill: none; stroke-dasharray: 5.55,2.4; stroke-dashoffset: 0; stroke: #ff7f0e; stroke-width: 1.5"/>
    </g>
    <g id="text_17">
     <!-- Test -->
     <g style="fill: #262626" transform="translate(97.32 234.960312) scale(0.1 -0.1)">
      <defs>
       <path id="DejaVuSans-65" d="M 3597 1894 
L 3597 1613 
L 953 1613 
Q 991 1019 1311 708 
Q 1631 397 2203 397 
Q 2534 397 2845 478 
Q 3156 559 3463 722 
L 3463 178 
Q 3153 47 2828 -22 
Q 2503 -91 2169 -91 
Q 1331 -91 842 396 
Q 353 884 353 1716 
Q 353 2575 817 3079 
Q 1281 3584 2069 3584 
Q 2775 3584 3186 3129 
Q 3597 2675 3597 1894 
z
M 3022 2063 
Q 3016 2534 2758 2815 
Q 2500 3097 2075 3097 
Q 1594 3097 1305 2825 
Q 1016 2553 972 2059 
L 3022 2063 
z
" transform="scale(0.015625)"/>
       <path id="DejaVuSans-73" d="M 2834 3397 
L 2834 2853 
Q 2591 2978 2328 3040 
Q 2066 3103 1784 3103 
Q 1356 3103 1142 2972 
Q 928 2841 928 2578 
Q 928 2378 1081 2264 
Q 1234 2150 1697 2047 
L 1894 2003 
Q 2506 1872 2764 1633 
Q 3022 1394 3022 966 
Q 3022 478 2636 193 
Q 2250 -91 1575 -91 
Q 1294 -91 989 -36 
Q 684 19 347 128 
L 347 722 
Q 666 556 975 473 
Q 1284 391 1588 391 
Q 1994 391 2212 530 
Q 2431 669 2431 922 
Q 2431 1156 2273 1281 
Q 2116 1406 1581 1522 
L 1381 1569 
Q 847 1681 609 1914 
Q 372 2147 372 2553 
Q 372 3047 722 3315 
Q 1072 3584 1716 3584 
Q 2034 3584 2315 3537 
Q 2597 3491 2834 3397 
z
" transform="scale(0.015625)"/>
       <path id="DejaVuSans-74" d="M 1172 4494 
L 1172 3500 
L 2356 3500 
L 2356 3053 
L 1172 3053 
L 1172 1153 
Q 1172 725 1289 603 
Q 1406 481 1766 481 
L 2356 481 
L 2356 0 
L 1766 0 
Q 1100 0 847 248 
Q 594 497 594 1153 
L 594 3053 
L 172 3053 
L 172 3500 
L 594 3500 
L 594 4494 
L 1172 4494 
z
" transform="scale(0.015625)"/>
      </defs>
      <use xlink:href="#DejaVuSans-54"/>
      <use xlink:href="#DejaVuSans-65" x="44.083984"/>
      <use xlink:href="#DejaVuSans-73" x="105.607422"/>
      <use xlink:href="#DejaVuSans-74" x="157.707031"/>
     </g>
    </g>
   </g>
  </g>
  <g id="axes_2">
   <g id="patch_6">
    <path d="M 552.62 246.04 
L 984.6 246.04 
L 984.6 43.2 
L 552.62 43.2 
z
" style="fill: #ffffff"/>
   </g>
   <g id="matplotlib.axis_3">
    <g id="xtick_7">
     <g id="text_18">
      <!-- 0 -->
      <g style="fill: #262626" transform="translate(549.43875 260.638438) scale(0.1 -0.1)">
       <use xlink:href="#DejaVuSans-30"/>
      </g>
     </g>
    </g>
    <g id="xtick_8">
     <g id="text_19">
      <!-- 1000 -->
      <g style="fill: #262626" transform="translate(626.291 260.638438) scale(0.1 -0.1)">
       <use xlink:href="#DejaVuSans-31"/>
       <use xlink:href="#DejaVuSans-30" x="63.623047"/>
       <use xlink:href="#DejaVuSans-30" x="127.246094"/>
       <use xlink:href="#DejaVuSans-30" x="190.869141"/>
      </g>
     </g>
    </g>
    <g id="xtick_9">
     <g id="text_20">
      <!-- 2000 -->
      <g style="fill: #262626" transform="translate(712.687 260.638438) scale(0.1 -0.1)">
       <use xlink:href="#DejaVuSans-32"/>
       <use xlink:href="#DejaVuSans-30" x="63.623047"/>
       <use xlink:href="#DejaVuSans-30" x="127.246094"/>
       <use xlink:href="#DejaVuSans-30" x="190.869141"/>
      </g>
     </g>
    </g>
    <g id="xtick_10">
     <g id="text_21">
      <!-- 3000 -->
      <g style="fill: #262626" transform="translate(799.083 260.638438) scale(0.1 -0.1)">
       <use xlink:href="#DejaVuSans-33"/>
       <use xlink:href="#DejaVuSans-30" x="63.623047"/>
       <use xlink:href="#DejaVuSans-30" x="127.246094"/>
       <use xlink:href="#DejaVuSans-30" x="190.869141"/>
      </g>
     </g>
    </g>
    <g id="xtick_11">
     <g id="text_22">
      <!-- 4000 -->
      <g style="fill: #262626" transform="translate(885.479 260.638438) scale(0.1 -0.1)">
       <use xlink:href="#DejaVuSans-34"/>
       <use xlink:href="#DejaVuSans-30" x="63.623047"/>
       <use xlink:href="#DejaVuSans-30" x="127.246094"/>
       <use xlink:href="#DejaVuSans-30" x="190.869141"/>
      </g>
     </g>
    </g>
    <g id="xtick_12">
     <g id="text_23">
      <!-- 5000 -->
      <g style="fill: #262626" transform="translate(971.875 260.638438) scale(0.1 -0.1)">
       <use xlink:href="#DejaVuSans-35"/>
       <use xlink:href="#DejaVuSans-30" x="63.623047"/>
       <use xlink:href="#DejaVuSans-30" x="127.246094"/>
       <use xlink:href="#DejaVuSans-30" x="190.869141"/>
      </g>
     </g>
    </g>
    <g id="text_24">
     <!-- Epoch -->
     <g style="fill: #262626" transform="translate(753.299063 274.316562) scale(0.1 -0.1)">
      <use xlink:href="#DejaVuSans-45"/>
      <use xlink:href="#DejaVuSans-70" x="63.183594"/>
      <use xlink:href="#DejaVuSans-6f" x="126.660156"/>
      <use xlink:href="#DejaVuSans-63" x="187.841797"/>
      <use xlink:href="#DejaVuSans-68" x="242.822266"/>
     </g>
    </g>
   </g>
   <g id="matplotlib.axis_4">
    <g id="ytick_7">
     <g id="text_25">
      <!-- 0.5 -->
      <g style="fill: #262626" transform="translate(529.716875 242.988848) scale(0.1 -0.1)">
       <defs>
        <path id="DejaVuSans-2e" d="M 684 794 
L 1344 794 
L 1344 0 
L 684 0 
L 684 794 
z
" transform="scale(0.015625)"/>
       </defs>
       <use xlink:href="#DejaVuSans-30"/>
       <use xlink:href="#DejaVuSans-2e" x="63.623047"/>
       <use xlink:href="#DejaVuSans-35" x="95.410156"/>
      </g>
     </g>
    </g>
    <g id="ytick_8">
     <g id="text_26">
      <!-- 0.6 -->
      <g style="fill: #262626" transform="translate(529.716875 205.634922) scale(0.1 -0.1)">
       <use xlink:href="#DejaVuSans-30"/>
       <use xlink:href="#DejaVuSans-2e" x="63.623047"/>
       <use xlink:href="#DejaVuSans-36" x="95.410156"/>
      </g>
     </g>
    </g>
    <g id="ytick_9">
     <g id="text_27">
      <!-- 0.7 -->
      <g style="fill: #262626" transform="translate(529.716875 168.280996) scale(0.1 -0.1)">
       <use xlink:href="#DejaVuSans-30"/>
       <use xlink:href="#DejaVuSans-2e" x="63.623047"/>
       <use xlink:href="#DejaVuSans-37" x="95.410156"/>
      </g>
     </g>
    </g>
    <g id="ytick_10">
     <g id="text_28">
      <!-- 0.8 -->
      <g style="fill: #262626" transform="translate(529.716875 130.92707) scale(0.1 -0.1)">
       <use xlink:href="#DejaVuSans-30"/>
       <use xlink:href="#DejaVuSans-2e" x="63.623047"/>
       <use xlink:href="#DejaVuSans-38" x="95.410156"/>
      </g>
     </g>
    </g>
    <g id="ytick_11">
     <g id="text_29">
      <!-- 0.9 -->
      <g style="fill: #262626" transform="translate(529.716875 93.573145) scale(0.1 -0.1)">
       <use xlink:href="#DejaVuSans-30"/>
       <use xlink:href="#DejaVuSans-2e" x="63.623047"/>
       <use xlink:href="#DejaVuSans-39" x="95.410156"/>
      </g>
     </g>
    </g>
    <g id="ytick_12">
     <g id="text_30">
      <!-- 1.0 -->
      <g style="fill: #262626" transform="translate(529.716875 56.219219) scale(0.1 -0.1)">
       <use xlink:href="#DejaVuSans-31"/>
       <use xlink:href="#DejaVuSans-2e" x="63.623047"/>
       <use xlink:href="#DejaVuSans-30" x="95.410156"/>
      </g>
     </g>
    </g>
    <g id="text_31">
     <!-- AUC -->
     <g style="fill: #262626" transform="translate(523.637187 155.191094) rotate(-90) scale(0.1 -0.1)">
      <defs>
       <path id="DejaVuSans-55" d="M 556 4666 
L 1191 4666 
L 1191 1831 
Q 1191 1081 1462 751 
Q 1734 422 2344 422 
Q 2950 422 3222 751 
Q 3494 1081 3494 1831 
L 3494 4666 
L 4128 4666 
L 4128 1753 
Q 4128 841 3676 375 
Q 3225 -91 2344 -91 
Q 1459 -91 1007 375 
Q 556 841 556 1753 
L 556 4666 
z
" transform="scale(0.015625)"/>
       <path id="DejaVuSans-43" d="M 4122 4306 
L 4122 3641 
Q 3803 3938 3442 4084 
Q 3081 4231 2675 4231 
Q 1875 4231 1450 3742 
Q 1025 3253 1025 2328 
Q 1025 1406 1450 917 
Q 1875 428 2675 428 
Q 3081 428 3442 575 
Q 3803 722 4122 1019 
L 4122 359 
Q 3791 134 3420 21 
Q 3050 -91 2638 -91 
Q 1578 -91 968 557 
Q 359 1206 359 2328 
Q 359 3453 968 4101 
Q 1578 4750 2638 4750 
Q 3056 4750 3426 4639 
Q 3797 4528 4122 4306 
z
" transform="scale(0.015625)"/>
      </defs>
      <use xlink:href="#DejaVuSans-41"/>
      <use xlink:href="#DejaVuSans-55" x="68.408203"/>
      <use xlink:href="#DejaVuSans-43" x="141.601562"/>
     </g>
    </g>
   </g>
   <g id="line2d_5">
    <path d="M 552.62 236.82 
L 552.879188 226.192581 
L 552.965584 227.197875 
L 553.397564 216.498675 
L 553.656752 210.466885 
L 553.743148 214.344456 
L 553.829544 207.163765 
L 553.91594 207.881845 
L 554.175128 197.182622 
L 554.261524 201.634645 
L 554.434316 195.028404 
L 554.607108 193.305051 
L 554.693504 189.571087 
L 554.7799 191.725306 
L 555.039088 183.682927 
L 555.125484 188.422163 
L 555.298276 182.031378 
L 555.384672 185.190869 
L 555.989444 169.177959 
L 556.07584 169.752409 
L 556.162236 169.24974 
L 556.421424 159.699419 
L 556.680612 151.800669 
L 556.9398 147.994946 
L 557.026196 148.282161 
L 557.112592 148.066728 
L 557.198988 147.276866 
L 557.544572 136.434014 
L 557.80376 130.617657 
L 558.062948 131.551148 
L 558.23574 128.894304 
L 558.322136 131.335715 
L 558.408532 126.811889 
L 558.494928 127.386362 
L 558.66772 124.873126 
L 558.754116 122.862514 
L 558.926908 123.867831 
L 559.0997 120.205671 
L 559.186096 122.000827 
L 559.358888 114.31751 
L 559.618076 120.205693 
L 559.704472 117.548805 
L 559.877264 99.597109 
L 559.96366 106.777779 
L 560.050056 105.341663 
L 560.222848 92.057378 
L 560.39564 95.073261 
L 560.482036 94.211596 
L 560.654828 84.733079 
L 560.741224 85.881981 
L 560.82762 84.445865 
L 560.914016 80.927333 
L 561.086808 88.96969 
L 561.2596 78.557682 
L 561.432392 83.296963 
L 561.605184 77.839602 
L 561.69158 76.331682 
L 561.777976 76.834329 
L 562.12356 70.874343 
L 562.209956 76.331682 
L 562.469144 70.515347 
L 562.55554 72.310503 
L 562.728332 71.233383 
L 562.901124 69.725441 
L 562.98752 70.443521 
L 563.073916 68.217499 
L 563.160312 69.366401 
L 563.246708 69.079187 
L 563.333104 67.212205 
L 563.505896 70.299914 
L 563.678688 66.422343 
L 563.765084 66.56595 
L 563.85148 68.648365 
L 563.937876 67.427615 
L 564.024272 64.268124 
L 564.197064 66.063281 
L 564.369856 63.909084 
L 564.456252 64.914401 
L 564.542648 63.047397 
L 564.629044 63.478241 
L 564.71544 62.688379 
L 564.801836 64.555361 
L 564.888232 63.837281 
L 565.061024 61.754866 
L 565.14742 62.113928 
L 565.233816 61.611281 
L 565.320212 60.175142 
L 565.406608 60.534183 
L 565.493004 60.462357 
L 565.5794 59.313455 
L 565.665796 61.539477 
L 565.752192 60.462379 
L 565.838588 61.324044 
L 566.01138 58.236357 
L 566.097776 57.94912 
L 566.270568 58.451768 
L 566.356964 57.877317 
L 566.44336 58.09275 
L 566.529756 59.098022 
L 566.702548 56.728415 
L 566.87534 58.379986 
L 567.048132 57.015652 
L 567.134528 59.169848 
L 567.30732 56.369375 
L 567.393716 56.441178 
L 567.566508 57.302866 
L 567.7393 56.656611 
L 567.825696 56.656589 
L 567.912092 56.153986 
L 567.998488 56.513004 
L 568.084884 56.082138 
L 568.17128 56.872044 
L 568.257676 56.441178 
L 568.344072 57.015629 
L 568.516864 55.36408 
L 568.60326 55.651317 
L 568.776052 56.153942 
L 568.862448 55.579491 
L 569.03524 56.441178 
L 569.208032 54.717804 
L 569.380824 56.656611 
L 569.553616 55.148669 
L 569.640012 55.148647 
L 569.726408 54.28696 
L 569.8992 55.00504 
L 569.985596 54.646022 
L 570.071992 55.292277 
L 570.158388 54.861433 
L 570.33118 55.651317 
L 570.417576 55.292277 
L 570.503972 53.999745 
L 570.590368 54.143353 
L 570.76316 53.856138 
L 570.935952 55.00504 
L 571.022348 54.861433 
L 571.281536 53.712509 
L 571.367932 53.927942 
L 571.454328 55.148647 
L 571.62712 53.712531 
L 571.713516 53.856116 
L 571.799912 53.999745 
L 572.0591 53.712509 
L 572.231892 54.286982 
L 572.318288 53.999745 
L 572.404684 54.143353 
L 572.49108 53.856116 
L 572.577476 53.999723 
L 572.750268 53.568924 
L 572.836664 53.712509 
L 572.92306 53.856116 
L 573.009456 53.353491 
L 573.095852 53.640728 
L 573.182248 53.497098 
L 573.35504 53.927942 
L 573.441436 53.568902 
L 573.527832 53.640683 
L 573.78702 53.425317 
L 573.873416 53.640705 
L 573.959812 53.568902 
L 574.046208 53.425295 
L 574.219 53.568902 
L 574.478188 53.209862 
L 574.65098 53.281665 
L 574.737376 53.497098 
L 574.910168 53.066254 
L 575.08296 54.215156 
L 575.169356 53.856116 
L 575.342148 53.425272 
L 575.428544 53.568902 
L 575.601336 53.066254 
L 575.687732 53.281687 
L 575.774128 53.209862 
L 575.860524 53.209884 
L 575.94692 53.066254 
L 576.033316 53.209862 
L 576.119712 52.994451 
L 576.206108 53.066254 
L 576.292504 53.209862 
L 576.3789 52.994451 
L 576.551692 53.281665 
L 576.638088 52.994451 
L 576.81088 53.138036 
L 576.897276 53.13808 
L 576.983672 52.994451 
L 577.070068 53.13808 
L 577.24286 52.994473 
L 577.588444 52.994473 
L 577.67484 53.640705 
L 577.934028 52.994451 
L 578.020424 53.138058 
L 578.10682 53.066254 
L 578.193216 52.994451 
L 578.452404 53.281687 
L 578.625196 52.994473 
L 578.797988 53.13808 
L 578.884384 52.922647 
L 578.97078 52.994451 
L 579.057176 52.994429 
L 579.229968 53.138058 
L 579.40276 52.707237 
L 579.575552 53.999723 
L 579.748344 52.77904 
L 579.921136 53.138058 
L 580.007532 52.922647 
L 580.093928 52.994451 
L 580.26672 52.850821 
L 580.439512 52.850866 
L 580.612304 52.850821 
L 580.785096 53.209884 
L 580.871492 52.707214 
L 580.957888 52.850844 
L 581.044284 52.779018 
L 581.13068 52.994473 
L 581.303472 52.707237 
L 581.389868 52.994473 
L 581.476264 52.563607 
L 581.56266 52.635433 
L 581.908244 52.850821 
L 582.081036 52.563607 
L 582.253828 52.77904 
L 582.42662 52.563607 
L 582.513016 52.779018 
L 582.599412 52.707214 
L 582.772204 52.563629 
L 582.944996 52.707214 
L 583.117788 52.563607 
L 583.204184 52.707237 
L 583.376976 52.491826 
L 583.636164 52.42 
L 583.808956 52.707214 
L 583.981748 52.42 
L 584.068144 52.850844 
L 584.240936 52.42 
L 584.932104 52.42 
L 585.0185 52.563607 
L 585.191292 52.42 
L 621.218424 52.42 
L 621.477612 86.169239 
L 621.650404 53.353491 
L 621.7368 60.246946 
L 621.909592 52.42 
L 621.995988 53.425272 
L 622.082384 52.42 
L 622.16878 52.563607 
L 622.341572 52.42 
L 984.513604 52.42 
L 984.513604 52.42 
" clip-path="url(#pa68f5c7789)" style="fill: none; stroke: #1f77b4; stroke-width: 1.5; stroke-linecap: round"/>
   </g>
   <g id="line2d_6">
    <path d="M 552.62 198.299218 
L 552.879188 185.037487 
L 552.965584 189.458094 
L 553.05198 179.511773 
L 553.138376 180.616903 
L 553.224772 179.511773 
L 553.311168 183.932358 
L 553.48396 167.355172 
L 553.656752 167.35515 
L 553.743148 168.460279 
L 554.175128 148.567683 
L 554.261524 156.303678 
L 554.34792 155.198548 
L 554.520712 126.464761 
L 554.607108 128.675042 
L 554.7799 122.044176 
L 554.866296 125.359609 
L 555.21188 106.572142 
L 555.298276 122.044176 
L 555.384672 120.939047 
L 555.557464 102.151558 
L 555.64386 104.361861 
L 555.730256 104.361839 
L 555.816652 97.730973 
L 555.989444 103.256709 
L 556.07584 101.046406 
L 556.162236 95.520692 
L 556.248632 101.046406 
L 556.335028 98.836125 
L 556.594216 87.784675 
L 556.767008 85.574372 
L 556.9398 91.100108 
L 557.026196 91.100086 
L 557.112592 89.994934 
L 557.285384 95.52067 
L 557.544572 88.889805 
L 557.717364 92.205237 
L 558.149344 98.836125 
L 558.23574 97.730973 
L 558.408532 96.625822 
L 558.581324 98.836125 
L 558.754116 98.836125 
L 558.926908 103.256687 
L 559.013304 103.256709 
L 559.0997 107.677272 
L 559.186096 106.572142 
L 559.358888 105.467013 
L 559.445284 105.467013 
L 559.618076 113.203008 
L 559.790868 94.415541 
L 559.96366 108.782423 
L 560.136452 92.20526 
L 560.39564 112.097878 
L 560.568432 98.836147 
L 560.914016 113.203008 
L 561.000412 134.200778 
L 561.2596 101.046428 
L 561.345996 112.097878 
L 561.432392 108.782445 
L 561.777976 118.728744 
L 561.864372 120.939047 
L 562.037164 105.46699 
L 562.12356 115.413311 
L 562.382748 107.677272 
L 562.55554 120.939047 
L 562.641936 110.992749 
L 562.728332 118.728721 
L 562.901124 112.097878 
L 562.98752 109.887575 
L 563.073916 118.728744 
L 563.333104 109.887575 
L 563.4195 114.308159 
L 563.505896 113.203008 
L 563.592292 109.887575 
L 563.765084 114.308159 
L 563.85148 112.097878 
L 563.937876 95.52067 
L 564.110668 117.623614 
L 564.28346 98.836125 
L 564.369856 110.992726 
L 564.456252 108.782423 
L 564.542648 105.467013 
L 564.801836 116.51844 
L 564.974628 112.097878 
L 565.14742 114.308159 
L 565.5794 101.046406 
L 565.838588 109.887575 
L 565.924984 102.151535 
L 566.01138 103.256709 
L 566.097776 103.256709 
L 566.184172 105.467013 
L 566.356964 101.046406 
L 566.44336 108.782445 
L 566.616152 98.836125 
L 566.702548 99.941254 
L 566.788944 112.097856 
L 566.961736 102.151535 
L 567.134528 109.887575 
L 567.30732 96.625844 
L 567.480112 107.677294 
L 567.652904 101.046406 
L 567.7393 102.151535 
L 567.825696 98.836125 
L 567.998488 102.15158 
L 568.257676 94.415541 
L 568.430468 98.836103 
L 568.516864 97.730973 
L 568.689656 103.256732 
L 568.862448 96.625844 
L 568.948844 102.15158 
L 569.03524 101.046406 
L 569.121636 99.941277 
L 569.208032 101.046406 
L 569.294428 104.361839 
L 569.46722 101.046406 
L 569.726408 96.625844 
L 569.8992 97.730973 
L 570.158388 93.310411 
L 570.244784 97.730973 
L 570.33118 109.887575 
L 570.590368 92.20526 
L 570.849556 99.941277 
L 570.935952 98.836103 
L 571.022348 94.415541 
L 571.19514 99.941277 
L 571.281536 94.415541 
L 571.454328 103.256709 
L 571.540724 94.415541 
L 571.713516 102.15158 
L 572.0591 97.730973 
L 572.145496 98.836125 
L 572.231892 94.415541 
L 572.318288 101.046406 
L 572.404684 98.836103 
L 572.49108 99.941254 
L 572.577476 96.625844 
L 572.750268 104.361839 
L 572.92306 101.046406 
L 573.095852 104.361861 
L 573.268644 99.941277 
L 573.35504 103.256687 
L 573.441436 99.941254 
L 573.527832 103.256687 
L 573.700624 102.151558 
L 573.873416 105.46699 
L 573.959812 105.46699 
L 574.132604 104.361839 
L 574.219 104.361861 
L 574.305396 102.151535 
L 574.391792 104.361839 
L 574.478188 102.151558 
L 574.65098 105.467013 
L 574.737376 106.572142 
L 574.910168 103.256709 
L 575.08296 105.467013 
L 575.255752 99.941277 
L 575.428544 105.467013 
L 575.51494 106.572164 
L 575.601336 105.467013 
L 575.687732 107.677272 
L 575.860524 106.572142 
L 576.033316 108.782445 
L 576.119712 104.361861 
L 576.206108 105.46699 
L 576.292504 105.467013 
L 576.3789 106.57212 
L 576.551692 109.887597 
L 576.724484 106.572142 
L 576.81088 107.677294 
L 576.983672 110.992749 
L 577.070068 107.677294 
L 577.156464 108.782445 
L 577.24286 107.677272 
L 577.329256 109.887575 
L 577.502048 106.572142 
L 577.67484 108.782445 
L 577.761236 106.572142 
L 578.020424 108.782445 
L 578.10682 106.572142 
L 578.279612 109.887575 
L 578.366008 112.097878 
L 578.5388 108.782423 
L 578.797988 105.467013 
L 579.229968 110.992726 
L 579.316364 108.782423 
L 579.40276 110.992704 
L 579.489156 116.51844 
L 579.575552 105.467013 
L 579.661948 109.887575 
L 579.748344 107.677316 
L 579.83474 112.097878 
L 579.921136 110.992726 
L 580.093928 107.677272 
L 580.26672 114.308159 
L 580.353116 113.203008 
L 580.439512 116.518463 
L 580.612304 109.887575 
L 580.6987 112.097878 
L 580.871492 113.20303 
L 580.957888 113.20303 
L 581.044284 116.51844 
L 581.217076 112.097856 
L 581.389868 117.623614 
L 581.476264 109.887575 
L 581.56266 117.623614 
L 581.649056 116.51844 
L 581.735452 115.413311 
L 581.821848 118.728744 
L 581.99464 113.203008 
L 582.081036 116.518463 
L 582.167432 115.413311 
L 582.253828 112.097878 
L 582.513016 116.518463 
L 582.685808 110.992749 
L 582.772204 120.939047 
L 582.8586 119.833918 
L 583.031392 115.413311 
L 583.29058 115.413311 
L 583.463372 120.939047 
L 583.549768 118.728744 
L 583.636164 119.833873 
L 583.808956 114.308159 
L 583.895352 115.413311 
L 584.068144 118.728744 
L 584.15454 115.413311 
L 584.327332 119.833873 
L 584.413728 118.728766 
L 584.58652 113.20303 
L 584.759312 117.623614 
L 584.845708 116.51844 
L 584.932104 120.939025 
L 585.191292 113.20303 
L 585.364084 122.044176 
L 585.45048 119.833873 
L 585.536876 119.833873 
L 585.623272 116.51844 
L 585.709668 129.780171 
L 585.88246 118.728744 
L 585.968856 119.833873 
L 586.055252 128.675064 
L 586.228044 118.728744 
L 586.31444 129.780193 
L 586.400836 128.675042 
L 586.573628 125.359631 
L 586.660024 130.885345 
L 586.74642 126.464761 
L 586.832816 127.569912 
L 586.919212 131.990497 
L 587.005608 127.569912 
L 587.092004 128.675042 
L 587.1784 127.569912 
L 587.351192 130.885345 
L 587.437588 129.780216 
L 587.61038 126.464783 
L 587.783172 127.569912 
L 587.869568 127.569912 
L 587.955964 125.359609 
L 588.215152 129.780216 
L 588.301548 128.675064 
L 588.387944 125.359631 
L 588.47434 129.780193 
L 588.560736 128.675042 
L 588.647132 125.359609 
L 588.733528 126.464783 
L 588.819924 129.780193 
L 588.90632 127.569912 
L 588.992716 128.675064 
L 589.079112 131.990497 
L 589.165508 128.675042 
L 589.251904 134.200778 
L 589.424696 124.25448 
L 589.511092 133.095648 
L 589.683884 123.149328 
L 589.77028 135.305907 
L 589.856676 131.990475 
L 590.029468 131.990475 
L 590.115864 124.25448 
L 590.288656 130.885367 
L 590.375052 125.359631 
L 590.547844 134.200778 
L 590.720636 130.885345 
L 590.893428 133.095604 
L 591.06622 130.885345 
L 591.152616 130.885345 
L 591.325408 133.095626 
L 591.411804 131.990475 
L 591.4982 133.095604 
L 591.670992 131.990475 
L 591.843784 133.095604 
L 591.93018 133.095626 
L 592.102972 129.780193 
L 592.275764 127.569912 
L 592.36216 127.569912 
L 592.707744 134.200778 
L 592.79414 129.780193 
L 592.880536 131.990475 
L 592.966932 130.885345 
L 593.053328 134.200778 
L 593.139724 131.990475 
L 593.22612 135.305907 
L 593.312516 134.200778 
L 593.398912 140.831643 
L 593.571704 130.885323 
L 593.6581 136.411037 
L 593.830892 131.990475 
L 593.917288 136.411037 
L 594.09008 127.569868 
L 594.176476 127.56989 
L 594.262872 128.675042 
L 594.435664 136.411081 
L 594.608456 133.095648 
L 594.694852 134.200778 
L 594.781248 136.411081 
L 594.95404 135.305907 
L 595.126832 130.885301 
L 595.38602 130.885301 
L 595.558812 131.990475 
L 595.645208 143.041924 
L 595.904396 129.780171 
L 595.990792 127.56989 
L 596.336376 137.516211 
L 596.509168 135.305907 
L 596.595564 135.305907 
L 596.68196 134.200778 
L 596.941148 137.516211 
L 597.11394 145.252228 
L 597.286732 128.675042 
L 597.54592 143.041947 
L 597.632316 143.041947 
L 597.805108 130.885323 
L 597.9779 130.885323 
L 598.237088 128.675042 
L 598.323484 129.780171 
L 598.496276 133.095604 
L 598.669068 135.305907 
L 598.755464 135.305907 
L 598.928256 127.569912 
L 599.101048 127.569912 
L 599.27384 129.780216 
L 599.360236 140.831643 
L 599.446632 139.726514 
L 599.533028 127.569912 
L 599.70582 134.200756 
L 599.878612 122.044154 
L 600.051404 139.726514 
L 600.1378 140.831666 
L 600.310592 124.254457 
L 600.396988 135.305907 
L 600.483384 134.200778 
L 600.56978 135.305907 
L 600.656176 146.357379 
L 600.828968 128.675042 
L 600.915364 131.990475 
L 601.088156 134.200756 
L 601.174552 122.044132 
L 601.347344 146.357379 
L 601.520136 134.200756 
L 601.692928 146.357379 
L 601.86572 146.357357 
L 602.038512 139.726514 
L 602.211304 146.357379 
L 602.384096 134.200756 
L 602.556888 146.357357 
L 603.075264 146.357357 
L 603.248056 140.831643 
L 603.507244 140.831643 
L 603.680036 135.30593 
L 603.852828 140.831643 
L 603.939224 135.30593 
L 604.112016 140.831643 
L 604.371204 140.831643 
L 604.543996 135.30593 
L 604.88958 135.30593 
L 605.062372 140.831643 
L 605.148768 140.831643 
L 605.32156 135.30593 
L 605.667144 135.30593 
L 605.839936 140.831666 
L 606.18552 140.831643 
L 606.358312 135.30593 
L 621.132028 135.30593 
L 621.218424 125.359609 
L 621.477612 160.724284 
L 621.564008 146.357379 
L 621.7368 159.619133 
L 621.909592 135.30593 
L 621.995988 157.408807 
L 622.16878 146.357357 
L 622.341572 162.934565 
L 622.687156 146.357379 
L 622.773552 146.357379 
L 622.946344 151.883138 
L 623.119136 151.883138 
L 623.378324 140.831643 
L 625.19264 140.831643 
L 625.365432 135.30593 
L 625.538224 135.30593 
L 625.62462 140.831643 
L 625.797412 135.30593 
L 641.1759 135.30593 
L 641.262296 129.780193 
L 641.435088 135.30593 
L 642.644632 135.30593 
L 642.817424 129.780193 
L 642.990216 135.30593 
L 643.163008 135.30593 
L 643.3358 129.780193 
L 643.681384 129.780193 
L 643.854176 135.30593 
L 644.19976 135.30593 
L 644.372552 129.780193 
L 658.88708 129.780193 
L 658.973476 124.25448 
L 659.146268 129.780193 
L 662.602108 129.780193 
L 662.688504 124.25448 
L 662.861296 129.780193 
L 664.157236 129.780193 
L 664.330028 124.25448 
L 664.50282 124.25448 
L 664.675612 129.780193 
L 665.625968 129.780193 
L 665.79876 124.25448 
L 665.971552 129.780193 
L 666.576324 129.780193 
L 666.749116 124.25448 
L 666.921908 129.780193 
L 667.0947 124.25448 
L 667.440284 124.25448 
L 667.52668 129.780193 
L 667.613076 124.25448 
L 667.785868 129.780193 
L 668.045056 129.780193 
L 668.217848 124.25448 
L 668.477036 124.25448 
L 668.649828 129.780193 
L 668.909016 129.780193 
L 669.081808 124.25448 
L 669.859372 124.25448 
L 670.032164 129.780193 
L 670.204956 129.780193 
L 670.377748 124.25448 
L 672.192064 124.25448 
L 672.364856 129.780193 
L 672.451252 129.780193 
L 672.624044 124.25448 
L 672.796836 124.25448 
L 672.969628 129.780193 
L 673.056024 129.780193 
L 673.228816 124.25448 
L 673.315212 124.25448 
L 673.488004 129.780193 
L 673.5744 129.780193 
L 673.747192 124.25448 
L 677.721408 124.25448 
L 677.8942 129.780193 
L 678.066992 124.25448 
L 984.513604 124.25448 
L 984.513604 124.25448 
" clip-path="url(#pa68f5c7789)" style="fill: none; stroke-dasharray: 5.55,2.4; stroke-dashoffset: 0; stroke: #ff7f0e; stroke-width: 1.5"/>
   </g>
   <g id="patch_7">
    <path d="M 552.62 246.04 
L 552.62 43.2 
" style="fill: none; stroke: #262626; stroke-width: 0.8; stroke-linejoin: miter; stroke-linecap: square"/>
   </g>
   <g id="patch_8">
    <path d="M 552.62 246.04 
L 984.6 246.04 
" style="fill: none; stroke: #262626; stroke-width: 0.8; stroke-linejoin: miter; stroke-linecap: square"/>
   </g>
   <g id="text_32">
    <!-- ROC Area under the Curve -->
    <g style="fill: #262626" transform="translate(688.975 37.2) scale(0.12 -0.12)">
     <defs>
      <path id="DejaVuSans-52" d="M 2841 2188 
Q 3044 2119 3236 1894 
Q 3428 1669 3622 1275 
L 4263 0 
L 3584 0 
L 2988 1197 
Q 2756 1666 2539 1819 
Q 2322 1972 1947 1972 
L 1259 1972 
L 1259 0 
L 628 0 
L 628 4666 
L 2053 4666 
Q 2853 4666 3247 4331 
Q 3641 3997 3641 3322 
Q 3641 2881 3436 2590 
Q 3231 2300 2841 2188 
z
M 1259 4147 
L 1259 2491 
L 2053 2491 
Q 2509 2491 2742 2702 
Q 2975 2913 2975 3322 
Q 2975 3731 2742 3939 
Q 2509 4147 2053 4147 
L 1259 4147 
z
" transform="scale(0.015625)"/>
      <path id="DejaVuSans-4f" d="M 2522 4238 
Q 1834 4238 1429 3725 
Q 1025 3213 1025 2328 
Q 1025 1447 1429 934 
Q 1834 422 2522 422 
Q 3209 422 3611 934 
Q 4013 1447 4013 2328 
Q 4013 3213 3611 3725 
Q 3209 4238 2522 4238 
z
M 2522 4750 
Q 3503 4750 4090 4092 
Q 4678 3434 4678 2328 
Q 4678 1225 4090 567 
Q 3503 -91 2522 -91 
Q 1538 -91 948 565 
Q 359 1222 359 2328 
Q 359 3434 948 4092 
Q 1538 4750 2522 4750 
z
" transform="scale(0.015625)"/>
      <path id="DejaVuSans-64" d="M 2906 2969 
L 2906 4863 
L 3481 4863 
L 3481 0 
L 2906 0 
L 2906 525 
Q 2725 213 2448 61 
Q 2172 -91 1784 -91 
Q 1150 -91 751 415 
Q 353 922 353 1747 
Q 353 2572 751 3078 
Q 1150 3584 1784 3584 
Q 2172 3584 2448 3432 
Q 2725 3281 2906 2969 
z
M 947 1747 
Q 947 1113 1208 752 
Q 1469 391 1925 391 
Q 2381 391 2643 752 
Q 2906 1113 2906 1747 
Q 2906 2381 2643 2742 
Q 2381 3103 1925 3103 
Q 1469 3103 1208 2742 
Q 947 2381 947 1747 
z
" transform="scale(0.015625)"/>
      <path id="DejaVuSans-76" d="M 191 3500 
L 800 3500 
L 1894 563 
L 2988 3500 
L 3597 3500 
L 2284 0 
L 1503 0 
L 191 3500 
z
" transform="scale(0.015625)"/>
     </defs>
     <use xlink:href="#DejaVuSans-52"/>
     <use xlink:href="#DejaVuSans-4f" x="69.482422"/>
     <use xlink:href="#DejaVuSans-43" x="148.193359"/>
     <use xlink:href="#DejaVuSans-20" x="218.017578"/>
     <use xlink:href="#DejaVuSans-41" x="249.804688"/>
     <use xlink:href="#DejaVuSans-72" x="318.212891"/>
     <use xlink:href="#DejaVuSans-65" x="357.076172"/>
     <use xlink:href="#DejaVuSans-61" x="418.599609"/>
     <use xlink:href="#DejaVuSans-20" x="479.878906"/>
     <use xlink:href="#DejaVuSans-75" x="511.666016"/>
     <use xlink:href="#DejaVuSans-6e" x="575.044922"/>
     <use xlink:href="#DejaVuSans-64" x="638.423828"/>
     <use xlink:href="#DejaVuSans-65" x="701.900391"/>
     <use xlink:href="#DejaVuSans-72" x="763.423828"/>
     <use xlink:href="#DejaVuSans-20" x="804.537109"/>
     <use xlink:href="#DejaVuSans-74" x="836.324219"/>
     <use xlink:href="#DejaVuSans-68" x="875.533203"/>
     <use xlink:href="#DejaVuSans-65" x="938.912109"/>
     <use xlink:href="#DejaVuSans-20" x="1000.435547"/>
     <use xlink:href="#DejaVuSans-43" x="1032.222656"/>
     <use xlink:href="#DejaVuSans-75" x="1102.046875"/>
     <use xlink:href="#DejaVuSans-72" x="1165.425781"/>
     <use xlink:href="#DejaVuSans-76" x="1206.539062"/>
     <use xlink:href="#DejaVuSans-65" x="1265.71875"/>
    </g>
   </g>
   <g id="legend_2">
    <g id="patch_9">
     <path d="M 559.62 241.04 
L 615.6075 241.04 
Q 617.6075 241.04 617.6075 239.04 
L 617.6075 210.68375 
Q 617.6075 208.68375 615.6075 208.68375 
L 559.62 208.68375 
Q 557.62 208.68375 557.62 210.68375 
L 557.62 239.04 
Q 557.62 241.04 559.62 241.04 
z
" style="fill: #ffffff; opacity: 0.8; stroke: #cccccc; stroke-linejoin: miter"/>
    </g>
    <g id="line2d_7">
     <path d="M 561.62 216.782187 
L 571.62 216.782187 
L 581.62 216.782187 
" style="fill: none; stroke: #1f77b4; stroke-width: 1.5; stroke-linecap: round"/>
    </g>
    <g id="text_33">
     <!-- Train -->
     <g style="fill: #262626" transform="translate(589.62 220.282187) scale(0.1 -0.1)">
      <use xlink:href="#DejaVuSans-54"/>
      <use xlink:href="#DejaVuSans-72" x="46.333984"/>
      <use xlink:href="#DejaVuSans-61" x="87.447266"/>
      <use xlink:href="#DejaVuSans-69" x="148.726562"/>
      <use xlink:href="#DejaVuSans-6e" x="176.509766"/>
     </g>
    </g>
    <g id="line2d_8">
     <path d="M 561.62 231.460312 
L 571.62 231.460312 
L 581.62 231.460312 
" style="fill: none; stroke-dasharray: 5.55,2.4; stroke-dashoffset: 0; stroke: #ff7f0e; stroke-width: 1.5"/>
    </g>
    <g id="text_34">
     <!-- Test -->
     <g style="fill: #262626" transform="translate(589.62 234.960312) scale(0.1 -0.1)">
      <use xlink:href="#DejaVuSans-54"/>
      <use xlink:href="#DejaVuSans-65" x="44.083984"/>
      <use xlink:href="#DejaVuSans-73" x="105.607422"/>
      <use xlink:href="#DejaVuSans-74" x="157.707031"/>
     </g>
    </g>
   </g>
  </g>
  <g id="text_35">
   <!-- Assessing Fidelity: Time Series Classification Performance -->
   <g style="fill: #262626" transform="translate(302.203125 16.397812) scale(0.14 -0.14)">
    <defs>
     <path id="DejaVuSans-67" d="M 2906 1791 
Q 2906 2416 2648 2759 
Q 2391 3103 1925 3103 
Q 1463 3103 1205 2759 
Q 947 2416 947 1791 
Q 947 1169 1205 825 
Q 1463 481 1925 481 
Q 2391 481 2648 825 
Q 2906 1169 2906 1791 
z
M 3481 434 
Q 3481 -459 3084 -895 
Q 2688 -1331 1869 -1331 
Q 1566 -1331 1297 -1286 
Q 1028 -1241 775 -1147 
L 775 -588 
Q 1028 -725 1275 -790 
Q 1522 -856 1778 -856 
Q 2344 -856 2625 -561 
Q 2906 -266 2906 331 
L 2906 616 
Q 2728 306 2450 153 
Q 2172 0 1784 0 
Q 1141 0 747 490 
Q 353 981 353 1791 
Q 353 2603 747 3093 
Q 1141 3584 1784 3584 
Q 2172 3584 2450 3431 
Q 2728 3278 2906 2969 
L 2906 3500 
L 3481 3500 
L 3481 434 
z
" transform="scale(0.015625)"/>
     <path id="DejaVuSans-46" d="M 628 4666 
L 3309 4666 
L 3309 4134 
L 1259 4134 
L 1259 2759 
L 3109 2759 
L 3109 2228 
L 1259 2228 
L 1259 0 
L 628 0 
L 628 4666 
z
" transform="scale(0.015625)"/>
     <path id="DejaVuSans-6c" d="M 603 4863 
L 1178 4863 
L 1178 0 
L 603 0 
L 603 4863 
z
" transform="scale(0.015625)"/>
     <path id="DejaVuSans-3a" d="M 750 794 
L 1409 794 
L 1409 0 
L 750 0 
L 750 794 
z
M 750 3309 
L 1409 3309 
L 1409 2516 
L 750 2516 
L 750 3309 
z
" transform="scale(0.015625)"/>
     <path id="DejaVuSans-6d" d="M 3328 2828 
Q 3544 3216 3844 3400 
Q 4144 3584 4550 3584 
Q 5097 3584 5394 3201 
Q 5691 2819 5691 2113 
L 5691 0 
L 5113 0 
L 5113 2094 
Q 5113 2597 4934 2840 
Q 4756 3084 4391 3084 
Q 3944 3084 3684 2787 
Q 3425 2491 3425 1978 
L 3425 0 
L 2847 0 
L 2847 2094 
Q 2847 2600 2669 2842 
Q 2491 3084 2119 3084 
Q 1678 3084 1418 2786 
Q 1159 2488 1159 1978 
L 1159 0 
L 581 0 
L 581 3500 
L 1159 3500 
L 1159 2956 
Q 1356 3278 1631 3431 
Q 1906 3584 2284 3584 
Q 2666 3584 2933 3390 
Q 3200 3197 3328 2828 
z
" transform="scale(0.015625)"/>
     <path id="DejaVuSans-53" d="M 3425 4513 
L 3425 3897 
Q 3066 4069 2747 4153 
Q 2428 4238 2131 4238 
Q 1616 4238 1336 4038 
Q 1056 3838 1056 3469 
Q 1056 3159 1242 3001 
Q 1428 2844 1947 2747 
L 2328 2669 
Q 3034 2534 3370 2195 
Q 3706 1856 3706 1288 
Q 3706 609 3251 259 
Q 2797 -91 1919 -91 
Q 1588 -91 1214 -16 
Q 841 59 441 206 
L 441 856 
Q 825 641 1194 531 
Q 1563 422 1919 422 
Q 2459 422 2753 634 
Q 3047 847 3047 1241 
Q 3047 1584 2836 1778 
Q 2625 1972 2144 2069 
L 1759 2144 
Q 1053 2284 737 2584 
Q 422 2884 422 3419 
Q 422 4038 858 4394 
Q 1294 4750 2059 4750 
Q 2388 4750 2728 4690 
Q 3069 4631 3425 4513 
z
" transform="scale(0.015625)"/>
     <path id="DejaVuSans-66" d="M 2375 4863 
L 2375 4384 
L 1825 4384 
Q 1516 4384 1395 4259 
Q 1275 4134 1275 3809 
L 1275 3500 
L 2222 3500 
L 2222 3053 
L 1275 3053 
L 1275 0 
L 697 0 
L 697 3053 
L 147 3053 
L 147 3500 
L 697 3500 
L 697 3744 
Q 697 4328 969 4595 
Q 1241 4863 1831 4863 
L 2375 4863 
z
" transform="scale(0.015625)"/>
     <path id="DejaVuSans-50" d="M 1259 4147 
L 1259 2394 
L 2053 2394 
Q 2494 2394 2734 2622 
Q 2975 2850 2975 3272 
Q 2975 3691 2734 3919 
Q 2494 4147 2053 4147 
L 1259 4147 
z
M 628 4666 
L 2053 4666 
Q 2838 4666 3239 4311 
Q 3641 3956 3641 3272 
Q 3641 2581 3239 2228 
Q 2838 1875 2053 1875 
L 1259 1875 
L 1259 0 
L 628 0 
L 628 4666 
z
" transform="scale(0.015625)"/>
    </defs>
    <use xlink:href="#DejaVuSans-41"/>
    <use xlink:href="#DejaVuSans-73" x="68.408203"/>
    <use xlink:href="#DejaVuSans-73" x="120.507812"/>
    <use xlink:href="#DejaVuSans-65" x="172.607422"/>
    <use xlink:href="#DejaVuSans-73" x="234.130859"/>
    <use xlink:href="#DejaVuSans-73" x="286.230469"/>
    <use xlink:href="#DejaVuSans-69" x="338.330078"/>
    <use xlink:href="#DejaVuSans-6e" x="366.113281"/>
    <use xlink:href="#DejaVuSans-67" x="429.492188"/>
    <use xlink:href="#DejaVuSans-20" x="492.96875"/>
    <use xlink:href="#DejaVuSans-46" x="524.755859"/>
    <use xlink:href="#DejaVuSans-69" x="575.025391"/>
    <use xlink:href="#DejaVuSans-64" x="602.808594"/>
    <use xlink:href="#DejaVuSans-65" x="666.285156"/>
    <use xlink:href="#DejaVuSans-6c" x="727.808594"/>
    <use xlink:href="#DejaVuSans-69" x="755.591797"/>
    <use xlink:href="#DejaVuSans-74" x="783.375"/>
    <use xlink:href="#DejaVuSans-79" x="822.583984"/>
    <use xlink:href="#DejaVuSans-3a" x="874.513672"/>
    <use xlink:href="#DejaVuSans-20" x="908.205078"/>
    <use xlink:href="#DejaVuSans-54" x="939.992188"/>
    <use xlink:href="#DejaVuSans-69" x="997.951172"/>
    <use xlink:href="#DejaVuSans-6d" x="1025.734375"/>
    <use xlink:href="#DejaVuSans-65" x="1123.146484"/>
    <use xlink:href="#DejaVuSans-20" x="1184.669922"/>
    <use xlink:href="#DejaVuSans-53" x="1216.457031"/>
    <use xlink:href="#DejaVuSans-65" x="1279.933594"/>
    <use xlink:href="#DejaVuSans-72" x="1341.457031"/>
    <use xlink:href="#DejaVuSans-69" x="1382.570312"/>
    <use xlink:href="#DejaVuSans-65" x="1410.353516"/>
    <use xlink:href="#DejaVuSans-73" x="1471.876953"/>
    <use xlink:href="#DejaVuSans-20" x="1523.976562"/>
    <use xlink:href="#DejaVuSans-43" x="1555.763672"/>
    <use xlink:href="#DejaVuSans-6c" x="1625.587891"/>
    <use xlink:href="#DejaVuSans-61" x="1653.371094"/>
    <use xlink:href="#DejaVuSans-73" x="1714.650391"/>
    <use xlink:href="#DejaVuSans-73" x="1766.75"/>
    <use xlink:href="#DejaVuSans-69" x="1818.849609"/>
    <use xlink:href="#DejaVuSans-66" x="1846.632812"/>
    <use xlink:href="#DejaVuSans-69" x="1881.837891"/>
    <use xlink:href="#DejaVuSans-63" x="1909.621094"/>
    <use xlink:href="#DejaVuSans-61" x="1964.601562"/>
    <use xlink:href="#DejaVuSans-74" x="2025.880859"/>
    <use xlink:href="#DejaVuSans-69" x="2065.089844"/>
    <use xlink:href="#DejaVuSans-6f" x="2092.873047"/>
    <use xlink:href="#DejaVuSans-6e" x="2154.054688"/>
    <use xlink:href="#DejaVuSans-20" x="2217.433594"/>
    <use xlink:href="#DejaVuSans-50" x="2249.220703"/>
    <use xlink:href="#DejaVuSans-65" x="2305.898438"/>
    <use xlink:href="#DejaVuSans-72" x="2367.421875"/>
    <use xlink:href="#DejaVuSans-66" x="2408.535156"/>
    <use xlink:href="#DejaVuSans-6f" x="2443.740234"/>
    <use xlink:href="#DejaVuSans-72" x="2504.921875"/>
    <use xlink:href="#DejaVuSans-6d" x="2544.285156"/>
    <use xlink:href="#DejaVuSans-61" x="2641.697266"/>
    <use xlink:href="#DejaVuSans-6e" x="2702.976562"/>
    <use xlink:href="#DejaVuSans-63" x="2766.355469"/>
    <use xlink:href="#DejaVuSans-65" x="2821.335938"/>
   </g>
  </g>
 </g>
 <defs>
  <clipPath id="p9c6bc26908">
   <rect x="60.32" y="43.2" width="431.98" height="202.84"/>
  </clipPath>
  <clipPath id="pa68f5c7789">
   <rect x="552.62" y="43.2" width="431.98" height="202.84"/>
  </clipPath>
 </defs>
</svg>
