<?xml version="1.0" encoding="utf-8" standalone="no"?>
<!DOCTYPE svg PUBLIC "-//W3C//DTD SVG 1.1//EN"
  "http://www.w3.org/Graphics/SVG/1.1/DTD/svg11.dtd">
<svg xmlns:xlink="http://www.w3.org/1999/xlink" width="576pt" height="432pt" viewBox="0 0 576 432" xmlns="http://www.w3.org/2000/svg" version="1.1">
 <metadata>
  <rdf:RDF xmlns:dc="http://purl.org/dc/elements/1.1/" xmlns:cc="http://creativecommons.org/ns#" xmlns:rdf="http://www.w3.org/1999/02/22-rdf-syntax-ns#">
   <cc:Work>
    <dc:type rdf:resource="http://purl.org/dc/dcmitype/StillImage"/>
    <dc:date>2024-11-22T14:00:12.542637</dc:date>
    <dc:format>image/svg+xml</dc:format>
    <dc:creator>
     <cc:Agent>
      <dc:title>Matplotlib v3.7.5, https://matplotlib.org/</dc:title>
     </cc:Agent>
    </dc:creator>
   </cc:Work>
  </rdf:RDF>
 </metadata>
 <defs>
  <style type="text/css">*{stroke-linejoin: round; stroke-linecap: butt}</style>
 </defs>
 <g id="figure_1">
  <g id="patch_1">
   <path d="M 0 432 
L 576 432 
L 576 0 
L 0 0 
z
" style="fill: #ffffff"/>
  </g>
  <g id="axes_1">
   <g id="patch_2">
    <path d="M 72 384.48 
L 518.4 384.48 
L 518.4 51.84 
L 72 51.84 
z
" style="fill: #ffffff"/>
   </g>
   <g id="PolyCollection_1">
    <defs>
     <path id="mbe17641e50" d="M 92.290909 -48.920868 
L 92.290909 -47.52 
L 94.330196 -47.52 
L 96.369484 -47.52 
L 98.408771 -47.52 
L 100.448058 -47.52 
L 102.487346 -47.52 
L 104.526633 -47.52 
L 106.565921 -47.52 
L 108.605208 -47.52 
L 110.644495 -47.52 
L 112.683783 -47.52 
L 114.72307 -47.52 
L 116.762357 -47.52 
L 118.801645 -47.52 
L 120.840932 -47.52 
L 122.880219 -47.52 
L 124.919507 -47.52 
L 126.958794 -47.52 
L 128.998081 -47.52 
L 131.037369 -47.52 
L 133.076656 -47.52 
L 135.115943 -47.52 
L 137.155231 -47.52 
L 139.194518 -47.52 
L 141.233805 -47.52 
L 143.273093 -47.52 
L 145.31238 -47.52 
L 147.351667 -47.52 
L 149.390955 -47.52 
L 151.430242 -47.52 
L 153.469529 -47.52 
L 155.508817 -47.52 
L 157.548104 -47.52 
L 159.587392 -47.52 
L 161.626679 -47.52 
L 163.665966 -47.52 
L 165.705254 -47.52 
L 167.744541 -47.52 
L 169.783828 -47.52 
L 171.823116 -47.52 
L 173.862403 -47.52 
L 175.90169 -47.52 
L 177.940978 -47.52 
L 179.980265 -47.52 
L 182.019552 -47.52 
L 184.05884 -47.52 
L 186.098127 -47.52 
L 188.137414 -47.52 
L 190.176702 -47.52 
L 192.215989 -47.52 
L 194.255276 -47.52 
L 196.294564 -47.52 
L 198.333851 -47.52 
L 200.373138 -47.52 
L 202.412426 -47.52 
L 204.451713 -47.52 
L 206.491 -47.52 
L 208.530288 -47.52 
L 210.569575 -47.52 
L 212.608862 -47.52 
L 214.64815 -47.52 
L 216.687437 -47.52 
L 218.726725 -47.52 
L 220.766012 -47.52 
L 222.805299 -47.52 
L 224.844587 -47.52 
L 226.883874 -47.52 
L 228.923161 -47.52 
L 230.962449 -47.52 
L 233.001736 -47.52 
L 235.041023 -47.52 
L 237.080311 -47.52 
L 239.119598 -47.52 
L 241.158885 -47.52 
L 243.198173 -47.52 
L 245.23746 -47.52 
L 247.276747 -47.52 
L 249.316035 -47.52 
L 251.355322 -47.52 
L 253.394609 -47.52 
L 255.433897 -47.52 
L 257.473184 -47.52 
L 259.512471 -47.52 
L 261.551759 -47.52 
L 263.591046 -47.52 
L 265.630333 -47.52 
L 267.669621 -47.52 
L 269.708908 -47.52 
L 271.748196 -47.52 
L 273.787483 -47.52 
L 275.82677 -47.52 
L 277.866058 -47.52 
L 279.905345 -47.52 
L 281.944632 -47.52 
L 283.98392 -47.52 
L 286.023207 -47.52 
L 288.062494 -47.52 
L 290.101782 -47.52 
L 292.141069 -47.52 
L 294.180356 -47.52 
L 296.219644 -47.52 
L 298.258931 -47.52 
L 300.298218 -47.52 
L 302.337506 -47.52 
L 304.376793 -47.52 
L 306.41608 -47.52 
L 308.455368 -47.52 
L 310.494655 -47.52 
L 312.533942 -47.52 
L 314.57323 -47.52 
L 316.612517 -47.52 
L 318.651804 -47.52 
L 320.691092 -47.52 
L 322.730379 -47.52 
L 324.769667 -47.52 
L 326.808954 -47.52 
L 328.848241 -47.52 
L 330.887529 -47.52 
L 332.926816 -47.52 
L 334.966103 -47.52 
L 337.005391 -47.52 
L 339.044678 -47.52 
L 341.083965 -47.52 
L 343.123253 -47.52 
L 345.16254 -47.52 
L 347.201827 -47.52 
L 349.241115 -47.52 
L 351.280402 -47.52 
L 353.319689 -47.52 
L 355.358977 -47.52 
L 357.398264 -47.52 
L 359.437551 -47.52 
L 361.476839 -47.52 
L 363.516126 -47.52 
L 365.555413 -47.52 
L 367.594701 -47.52 
L 369.633988 -47.52 
L 371.673275 -47.52 
L 373.712563 -47.52 
L 375.75185 -47.52 
L 377.791138 -47.52 
L 379.830425 -47.52 
L 381.869712 -47.52 
L 383.909 -47.52 
L 385.948287 -47.52 
L 387.987574 -47.52 
L 390.026862 -47.52 
L 392.066149 -47.52 
L 394.105436 -47.52 
L 396.144724 -47.52 
L 398.184011 -47.52 
L 400.223298 -47.52 
L 402.262586 -47.52 
L 404.301873 -47.52 
L 406.34116 -47.52 
L 408.380448 -47.52 
L 410.419735 -47.52 
L 412.459022 -47.52 
L 414.49831 -47.52 
L 416.537597 -47.52 
L 418.576884 -47.52 
L 420.616172 -47.52 
L 422.655459 -47.52 
L 424.694746 -47.52 
L 426.734034 -47.52 
L 428.773321 -47.52 
L 430.812608 -47.52 
L 432.851896 -47.52 
L 434.891183 -47.52 
L 436.930471 -47.52 
L 438.969758 -47.52 
L 441.009045 -47.52 
L 443.048333 -47.52 
L 445.08762 -47.52 
L 447.126907 -47.52 
L 449.166195 -47.52 
L 451.205482 -47.52 
L 453.244769 -47.52 
L 455.284057 -47.52 
L 457.323344 -47.52 
L 459.362631 -47.52 
L 461.401919 -47.52 
L 463.441206 -47.52 
L 465.480493 -47.52 
L 467.519781 -47.52 
L 469.559068 -47.52 
L 471.598355 -47.52 
L 473.637643 -47.52 
L 475.67693 -47.52 
L 477.716217 -47.52 
L 479.755505 -47.52 
L 481.794792 -47.52 
L 483.834079 -47.52 
L 485.873367 -47.52 
L 487.912654 -47.52 
L 489.951942 -47.52 
L 491.991229 -47.52 
L 494.030516 -47.52 
L 496.069804 -47.52 
L 498.109091 -47.52 
L 498.109091 -47.522587 
L 498.109091 -47.522587 
L 496.069804 -47.525038 
L 494.030516 -47.5293 
L 491.991229 -47.536276 
L 489.951942 -47.547003 
L 487.912654 -47.562473 
L 485.873367 -47.583332 
L 483.834079 -47.609527 
L 481.794792 -47.639979 
L 479.755505 -47.672433 
L 477.716217 -47.703598 
L 475.67693 -47.729642 
L 473.637643 -47.746938 
L 471.598355 -47.752893 
L 469.559068 -47.746581 
L 467.519781 -47.728983 
L 465.480493 -47.702733 
L 463.441206 -47.671476 
L 461.401919 -47.639041 
L 459.362631 -47.608692 
L 457.323344 -47.582655 
L 455.284057 -47.561988 
L 453.244769 -47.546742 
L 451.205482 -47.536305 
L 449.166195 -47.529785 
L 447.126907 -47.52633 
L 445.08762 -47.525365 
L 443.048333 -47.526709 
L 441.009045 -47.530618 
L 438.969758 -47.537743 
L 436.930471 -47.548994 
L 434.891183 -47.565319 
L 432.851896 -47.587393 
L 430.812608 -47.615277 
L 428.773321 -47.648144 
L 426.734034 -47.684201 
L 424.694746 -47.72089 
L 422.655459 -47.755364 
L 420.616172 -47.785119 
L 418.576884 -47.808545 
L 416.537597 -47.825178 
L 414.49831 -47.835525 
L 412.459022 -47.840526 
L 410.419735 -47.840916 
L 408.380448 -47.83676 
L 406.34116 -47.827421 
L 404.301873 -47.811947 
L 402.262586 -47.78971 
L 400.223298 -47.760979 
L 398.184011 -47.727171 
L 396.144724 -47.690665 
L 394.105436 -47.654296 
L 392.066149 -47.620713 
L 390.026862 -47.591864 
L 387.987574 -47.568744 
L 385.948287 -47.551422 
L 383.909 -47.539295 
L 381.869712 -47.531412 
L 379.830425 -47.526799 
L 377.791138 -47.524706 
L 375.75185 -47.52477 
L 373.712563 -47.527127 
L 371.673275 -47.532478 
L 369.633988 -47.542116 
L 367.594701 -47.557892 
L 365.555413 -47.582061 
L 363.516126 -47.616974 
L 361.476839 -47.664627 
L 359.437551 -47.726108 
L 357.398264 -47.801098 
L 355.358977 -47.887555 
L 353.319689 -47.981729 
L 351.280402 -48.078515 
L 349.241115 -48.172057 
L 347.201827 -48.25644 
L 345.16254 -48.326277 
L 343.123253 -48.377112 
L 341.083965 -48.405645 
L 339.044678 -48.409887 
L 337.005391 -48.389335 
L 334.966103 -48.345179 
L 332.926816 -48.280474 
L 330.887529 -48.200154 
L 328.848241 -48.110779 
L 326.808954 -48.019998 
L 324.769667 -47.935789 
L 322.730379 -47.865589 
L 320.691092 -47.81542 
L 318.651804 -47.789119 
L 316.612517 -47.787739 
L 314.57323 -47.809242 
L 312.533942 -47.848609 
L 310.494655 -47.898515 
L 308.455368 -47.950582 
L 306.41608 -47.997075 
L 304.376793 -48.032654 
L 302.337506 -48.055655 
L 300.298218 -48.068396 
L 298.258931 -48.076289 
L 296.219644 -48.085909 
L 294.180356 -48.102601 
L 292.141069 -48.128406 
L 290.101782 -48.16102 
L 288.062494 -48.19418 
L 286.023207 -48.21938 
L 283.98392 -48.228379 
L 281.944632 -48.215719 
L 279.905345 -48.180487 
L 277.866058 -48.126849 
L 275.82677 -48.063255 
L 273.787483 -48.000633 
L 271.748196 -47.950109 
L 269.708908 -47.92084 
L 267.669621 -47.918404 
L 265.630333 -47.944023 
L 263.591046 -47.994614 
L 261.551759 -48.063596 
L 259.512471 -48.142189 
L 257.473184 -48.220955 
L 255.433897 -48.291251 
L 253.394609 -48.346309 
L 251.355322 -48.381746 
L 249.316035 -48.395488 
L 247.276747 -48.38727 
L 245.23746 -48.358029 
L 243.198173 -48.309475 
L 241.158885 -48.244006 
L 239.119598 -48.164868 
L 237.080311 -48.076339 
L 235.041023 -47.983678 
L 233.001736 -47.892711 
L 230.962449 -47.809144 
L 228.923161 -47.737843 
L 226.883874 -47.682321 
L 224.844587 -47.644573 
L 222.805299 -47.625246 
L 220.766012 -47.623982 
L 218.726725 -47.639756 
L 216.687437 -47.671112 
L 214.64815 -47.716262 
L 212.608862 -47.773136 
L 210.569575 -47.839453 
L 208.530288 -47.91288 
L 206.491 -47.991257 
L 204.451713 -48.072874 
L 202.412426 -48.156777 
L 200.373138 -48.243076 
L 198.333851 -48.333238 
L 196.294564 -48.430252 
L 194.255276 -48.538506 
L 192.215989 -48.663199 
L 190.176702 -48.809252 
L 188.137414 -48.979888 
L 186.098127 -49.175321 
L 184.05884 -49.39205 
L 182.019552 -49.623136 
L 179.980265 -49.859477 
L 177.940978 -50.091684 
L 175.90169 -50.311937 
L 173.862403 -50.515248 
L 171.823116 -50.699885 
L 169.783828 -50.867165 
L 167.744541 -51.021076 
L 165.705254 -51.168234 
L 163.665966 -51.318438 
L 161.626679 -51.485809 
L 159.587392 -51.690376 
L 157.548104 -51.959996 
L 155.508817 -52.332769 
L 153.469529 -52.860484 
L 151.430242 -53.614111 
L 149.390955 -54.692764 
L 147.351667 -56.237552 
L 145.31238 -58.450385 
L 143.273093 -61.614297 
L 141.233805 -66.106063 
L 139.194518 -72.3853 
L 137.155231 -80.940869 
L 135.115943 -92.180264 
L 133.076656 -106.264765 
L 131.037369 -122.920967 
L 128.998081 -141.28869 
L 126.958794 -159.88036 
L 124.919507 -176.712549 
L 122.880219 -189.621502 
L 120.840932 -196.704434 
L 118.801645 -196.766224 
L 116.762357 -189.628892 
L 114.72307 -176.196168 
L 112.683783 -158.247052 
L 110.644495 -138.026335 
L 108.605208 -117.765104 
L 106.565921 -99.274074 
L 104.526633 -83.708565 
L 102.487346 -71.531744 
L 100.448058 -62.636245 
L 98.408771 -56.547879 
L 96.369484 -52.634599 
L 94.330196 -50.268468 
L 92.290909 -48.920868 
z
" style="stroke: #1f77b4"/>
    </defs>
    <g clip-path="url(#pf9a28a52f2)">
     <use xlink:href="#mbe17641e50" x="0" y="432" style="fill: #1f77b4; fill-opacity: 0.5; stroke: #1f77b4"/>
    </g>
   </g>
   <g id="PolyCollection_2">
    <defs>
     <path id="m2ad21f745e" d="M 106.028565 -50.497361 
L 106.028565 -47.52 
L 106.799509 -47.52 
L 107.570454 -47.52 
L 108.341399 -47.52 
L 109.112344 -47.52 
L 109.883289 -47.52 
L 110.654233 -47.52 
L 111.425178 -47.52 
L 112.196123 -47.52 
L 112.967068 -47.52 
L 113.738012 -47.52 
L 114.508957 -47.52 
L 115.279902 -47.52 
L 116.050847 -47.52 
L 116.821792 -47.52 
L 117.592736 -47.52 
L 118.363681 -47.52 
L 119.134626 -47.52 
L 119.905571 -47.52 
L 120.676516 -47.52 
L 121.44746 -47.52 
L 122.218405 -47.52 
L 122.98935 -47.52 
L 123.760295 -47.52 
L 124.53124 -47.52 
L 125.302184 -47.52 
L 126.073129 -47.52 
L 126.844074 -47.52 
L 127.615019 -47.52 
L 128.385964 -47.52 
L 129.156908 -47.52 
L 129.927853 -47.52 
L 130.698798 -47.52 
L 131.469743 -47.52 
L 132.240687 -47.52 
L 133.011632 -47.52 
L 133.782577 -47.52 
L 134.553522 -47.52 
L 135.324467 -47.52 
L 136.095411 -47.52 
L 136.866356 -47.52 
L 137.637301 -47.52 
L 138.408246 -47.52 
L 139.179191 -47.52 
L 139.950135 -47.52 
L 140.72108 -47.52 
L 141.492025 -47.52 
L 142.26297 -47.52 
L 143.033915 -47.52 
L 143.804859 -47.52 
L 144.575804 -47.52 
L 145.346749 -47.52 
L 146.117694 -47.52 
L 146.888639 -47.52 
L 147.659583 -47.52 
L 148.430528 -47.52 
L 149.201473 -47.52 
L 149.972418 -47.52 
L 150.743363 -47.52 
L 151.514307 -47.52 
L 152.285252 -47.52 
L 153.056197 -47.52 
L 153.827142 -47.52 
L 154.598086 -47.52 
L 155.369031 -47.52 
L 156.139976 -47.52 
L 156.910921 -47.52 
L 157.681866 -47.52 
L 158.45281 -47.52 
L 159.223755 -47.52 
L 159.9947 -47.52 
L 160.765645 -47.52 
L 161.53659 -47.52 
L 162.307534 -47.52 
L 163.078479 -47.52 
L 163.849424 -47.52 
L 164.620369 -47.52 
L 165.391314 -47.52 
L 166.162258 -47.52 
L 166.933203 -47.52 
L 167.704148 -47.52 
L 168.475093 -47.52 
L 169.246038 -47.52 
L 170.016982 -47.52 
L 170.787927 -47.52 
L 171.558872 -47.52 
L 172.329817 -47.52 
L 173.100762 -47.52 
L 173.871706 -47.52 
L 174.642651 -47.52 
L 175.413596 -47.52 
L 176.184541 -47.52 
L 176.955485 -47.52 
L 177.72643 -47.52 
L 178.497375 -47.52 
L 179.26832 -47.52 
L 180.039265 -47.52 
L 180.810209 -47.52 
L 181.581154 -47.52 
L 182.352099 -47.52 
L 183.123044 -47.52 
L 183.893989 -47.52 
L 184.664933 -47.52 
L 185.435878 -47.52 
L 186.206823 -47.52 
L 186.977768 -47.52 
L 187.748713 -47.52 
L 188.519657 -47.52 
L 189.290602 -47.52 
L 190.061547 -47.52 
L 190.832492 -47.52 
L 191.603437 -47.52 
L 192.374381 -47.52 
L 193.145326 -47.52 
L 193.916271 -47.52 
L 194.687216 -47.52 
L 195.45816 -47.52 
L 196.229105 -47.52 
L 197.00005 -47.52 
L 197.770995 -47.52 
L 198.54194 -47.52 
L 199.312884 -47.52 
L 200.083829 -47.52 
L 200.854774 -47.52 
L 201.625719 -47.52 
L 202.396664 -47.52 
L 203.167608 -47.52 
L 203.938553 -47.52 
L 204.709498 -47.52 
L 205.480443 -47.52 
L 206.251388 -47.52 
L 207.022332 -47.52 
L 207.793277 -47.52 
L 208.564222 -47.52 
L 209.335167 -47.52 
L 210.106112 -47.52 
L 210.877056 -47.52 
L 211.648001 -47.52 
L 212.418946 -47.52 
L 213.189891 -47.52 
L 213.960836 -47.52 
L 214.73178 -47.52 
L 215.502725 -47.52 
L 216.27367 -47.52 
L 217.044615 -47.52 
L 217.815559 -47.52 
L 218.586504 -47.52 
L 219.357449 -47.52 
L 220.128394 -47.52 
L 220.899339 -47.52 
L 221.670283 -47.52 
L 222.441228 -47.52 
L 223.212173 -47.52 
L 223.983118 -47.52 
L 224.754063 -47.52 
L 225.525007 -47.52 
L 226.295952 -47.52 
L 227.066897 -47.52 
L 227.837842 -47.52 
L 228.608787 -47.52 
L 229.379731 -47.52 
L 230.150676 -47.52 
L 230.921621 -47.52 
L 231.692566 -47.52 
L 232.463511 -47.52 
L 233.234455 -47.52 
L 234.0054 -47.52 
L 234.776345 -47.52 
L 235.54729 -47.52 
L 236.318235 -47.52 
L 237.089179 -47.52 
L 237.860124 -47.52 
L 238.631069 -47.52 
L 239.402014 -47.52 
L 240.172958 -47.52 
L 240.943903 -47.52 
L 241.714848 -47.52 
L 242.485793 -47.52 
L 243.256738 -47.52 
L 244.027682 -47.52 
L 244.798627 -47.52 
L 245.569572 -47.52 
L 246.340517 -47.52 
L 247.111462 -47.52 
L 247.882406 -47.52 
L 248.653351 -47.52 
L 249.424296 -47.52 
L 250.195241 -47.52 
L 250.966186 -47.52 
L 251.73713 -47.52 
L 252.508075 -47.52 
L 253.27902 -47.52 
L 254.049965 -47.52 
L 254.82091 -47.52 
L 255.591854 -47.52 
L 256.362799 -47.52 
L 257.133744 -47.52 
L 257.904689 -47.52 
L 258.675633 -47.52 
L 259.446578 -47.52 
L 259.446578 -47.54066 
L 259.446578 -47.54066 
L 258.675633 -47.55572 
L 257.904689 -47.579788 
L 257.133744 -47.616878 
L 256.362799 -47.671971 
L 255.591854 -47.750792 
L 254.82091 -47.859321 
L 254.049965 -48.002984 
L 253.27902 -48.185566 
L 252.508075 -48.407946 
L 251.73713 -48.666894 
L 250.966186 -48.954179 
L 250.195241 -49.256317 
L 249.424296 -49.555179 
L 248.653351 -49.829542 
L 247.882406 -50.057468 
L 247.111462 -50.219158 
L 246.340517 -50.299779 
L 245.569572 -50.291708 
L 244.798627 -50.195722 
L 244.027682 -50.020869 
L 243.256738 -49.78307 
L 242.485793 -49.502724 
L 241.714848 -49.201835 
L 240.943903 -48.901215 
L 240.172958 -48.618234 
L 239.402014 -48.365442 
L 238.631069 -48.150124 
L 237.860124 -47.974697 
L 237.089179 -47.837664 
L 236.318235 -47.734864 
L 235.54729 -47.660704 
L 234.776345 -47.609206 
L 234.0054 -47.574755 
L 233.234455 -47.552538 
L 232.463511 -47.53872 
L 231.692566 -47.530427 
L 230.921621 -47.525622 
L 230.150676 -47.522935 
L 229.379731 -47.521483 
L 228.608787 -47.520726 
L 227.837842 -47.520344 
L 227.066897 -47.520158 
L 226.295952 -47.52007 
L 225.525007 -47.52003 
L 224.754063 -47.520013 
L 223.983118 -47.520005 
L 223.212173 -47.520002 
L 222.441228 -47.520001 
L 221.670283 -47.520001 
L 220.899339 -47.520001 
L 220.128394 -47.520002 
L 219.357449 -47.520006 
L 218.586504 -47.520014 
L 217.815559 -47.520033 
L 217.044615 -47.520073 
L 216.27367 -47.520158 
L 215.502725 -47.520332 
L 214.73178 -47.520672 
L 213.960836 -47.52132 
L 213.189891 -47.522506 
L 212.418946 -47.524604 
L 211.648001 -47.528185 
L 210.877056 -47.53408 
L 210.106112 -47.543434 
L 209.335167 -47.557741 
L 208.564222 -47.578812 
L 207.793277 -47.608677 
L 207.022332 -47.649374 
L 206.251388 -47.702633 
L 205.480443 -47.769463 
L 204.709498 -47.849704 
L 203.938553 -47.941636 
L 203.167608 -48.041728 
L 202.396664 -48.144661 
L 201.625719 -48.243667 
L 200.854774 -48.3312 
L 200.083829 -48.399856 
L 199.312884 -48.443406 
L 198.54194 -48.457725 
L 197.770995 -48.441448 
L 197.00005 -48.396195 
L 196.229105 -48.32634 
L 195.45816 -48.238357 
L 194.687216 -48.139912 
L 193.916271 -48.038898 
L 193.145326 -47.942591 
L 192.374381 -47.857096 
L 191.603437 -47.787133 
L 190.832492 -47.736139 
L 190.061547 -47.706606 
L 189.290602 -47.700506 
L 188.519657 -47.719665 
L 187.748713 -47.765975 
L 186.977768 -47.841367 
L 186.206823 -47.94754 
L 185.435878 -48.085491 
L 184.664933 -48.254956 
L 183.893989 -48.453884 
L 183.123044 -48.678083 
L 182.352099 -48.921128 
L 181.581154 -49.174603 
L 180.810209 -49.428642 
L 180.039265 -49.672677 
L 179.26832 -49.896288 
L 178.497375 -50.089998 
L 177.72643 -50.245908 
L 176.955485 -50.358124 
L 176.184541 -50.422993 
L 175.413596 -50.439186 
L 174.642651 -50.407734 
L 173.871706 -50.332048 
L 173.100762 -50.217942 
L 172.329817 -50.073596 
L 171.558872 -49.909381 
L 170.787927 -49.737431 
L 170.016982 -49.570927 
L 169.246038 -49.423079 
L 168.475093 -49.305932 
L 167.704148 -49.229132 
L 166.933203 -49.198851 
L 166.162258 -49.217054 
L 165.391314 -49.281211 
L 164.620369 -49.384499 
L 163.849424 -49.516479 
L 163.078479 -49.66413 
L 162.307534 -49.813157 
L 161.53659 -49.949403 
L 160.765645 -50.060261 
L 159.9947 -50.135919 
L 159.223755 -50.170297 
L 158.45281 -50.161543 
L 157.681866 -50.111996 
L 156.910921 -50.027601 
L 156.139976 -49.91688 
L 155.369031 -49.789657 
L 154.598086 -49.655821 
L 153.827142 -49.524379 
L 153.056197 -49.402986 
L 152.285252 -49.297982 
L 151.514307 -49.214796 
L 150.743363 -49.158479 
L 149.972418 -49.134074 
L 149.201473 -49.146605 
L 148.430528 -49.200641 
L 147.659583 -49.299536 
L 146.888639 -49.444633 
L 146.117694 -49.634789 
L 145.346749 -49.866553 
L 144.575804 -50.135203 
L 143.804859 -50.436661 
L 143.033915 -50.770066 
L 142.26297 -51.140576 
L 141.492025 -51.561826 
L 140.72108 -52.057366 
L 139.950135 -52.660502 
L 139.179191 -53.412098 
L 138.408246 -54.356319 
L 137.637301 -55.534762 
L 136.866356 -56.980088 
L 136.095411 -58.7109 
L 135.324467 -60.73009 
L 134.553522 -63.029023 
L 133.782577 -65.599502 
L 133.011632 -68.454384 
L 132.240687 -71.655934 
L 131.469743 -75.348637 
L 130.698798 -79.79053 
L 129.927853 -85.374637 
L 129.156908 -92.630495 
L 128.385964 -102.195777 
L 127.615019 -114.750668 
L 126.844074 -130.913283 
L 126.073129 -151.103158 
L 125.302184 -175.390372 
L 124.53124 -203.357954 
L 123.760295 -234.011469 
L 122.98935 -265.768837 
L 122.218405 -296.553206 
L 121.44746 -323.992603 
L 120.676516 -345.705509 
L 119.905571 -359.627702 
L 119.134626 -364.32 
L 118.363681 -359.194628 
L 117.592736 -344.611938 
L 116.821792 -321.826308 
L 116.050847 -292.79307 
L 115.279902 -259.878035 
L 114.508957 -225.529641 
L 113.738012 -191.976416 
L 112.967068 -160.999992 
L 112.196123 -133.811423 
L 111.425178 -111.033065 
L 110.654233 -92.767052 
L 109.883289 -78.718706 
L 109.112344 -68.340507 
L 108.341399 -60.96762 
L 107.570454 -55.926034 
L 106.799509 -52.605362 
L 106.028565 -50.497361 
z
" style="stroke: #ff7f0e"/>
    </defs>
    <g clip-path="url(#pf9a28a52f2)">
     <use xlink:href="#m2ad21f745e" x="0" y="432" style="fill: #ff7f0e; fill-opacity: 0.5; stroke: #ff7f0e"/>
    </g>
   </g>
   <g id="matplotlib.axis_1">
    <g id="xtick_1">
     <g id="line2d_1">
      <defs>
       <path id="mad174bb94e" d="M 0 0 
L 0 3.5 
" style="stroke: #000000; stroke-width: 0.8"/>
      </defs>
      <g>
       <use xlink:href="#mad174bb94e" x="118.77156" y="384.48" style="stroke: #000000; stroke-width: 0.8"/>
      </g>
     </g>
     <g id="text_1">
      <!-- 0.0 -->
      <g transform="translate(110.819997 399.078438) scale(0.1 -0.1)">
       <defs>
        <path id="DejaVuSans-30" d="M 2034 4250 
Q 1547 4250 1301 3770 
Q 1056 3291 1056 2328 
Q 1056 1369 1301 889 
Q 1547 409 2034 409 
Q 2525 409 2770 889 
Q 3016 1369 3016 2328 
Q 3016 3291 2770 3770 
Q 2525 4250 2034 4250 
z
M 2034 4750 
Q 2819 4750 3233 4129 
Q 3647 3509 3647 2328 
Q 3647 1150 3233 529 
Q 2819 -91 2034 -91 
Q 1250 -91 836 529 
Q 422 1150 422 2328 
Q 422 3509 836 4129 
Q 1250 4750 2034 4750 
z
" transform="scale(0.015625)"/>
        <path id="DejaVuSans-2e" d="M 684 794 
L 1344 794 
L 1344 0 
L 684 0 
L 684 794 
z
" transform="scale(0.015625)"/>
       </defs>
       <use xlink:href="#DejaVuSans-30"/>
       <use xlink:href="#DejaVuSans-2e" x="63.623047"/>
       <use xlink:href="#DejaVuSans-30" x="95.410156"/>
      </g>
     </g>
    </g>
    <g id="xtick_2">
     <g id="line2d_2">
      <g>
       <use xlink:href="#mad174bb94e" x="189.342936" y="384.48" style="stroke: #000000; stroke-width: 0.8"/>
      </g>
     </g>
     <g id="text_2">
      <!-- 0.2 -->
      <g transform="translate(181.391373 399.078438) scale(0.1 -0.1)">
       <defs>
        <path id="DejaVuSans-32" d="M 1228 531 
L 3431 531 
L 3431 0 
L 469 0 
L 469 531 
Q 828 903 1448 1529 
Q 2069 2156 2228 2338 
Q 2531 2678 2651 2914 
Q 2772 3150 2772 3378 
Q 2772 3750 2511 3984 
Q 2250 4219 1831 4219 
Q 1534 4219 1204 4116 
Q 875 4013 500 3803 
L 500 4441 
Q 881 4594 1212 4672 
Q 1544 4750 1819 4750 
Q 2544 4750 2975 4387 
Q 3406 4025 3406 3419 
Q 3406 3131 3298 2873 
Q 3191 2616 2906 2266 
Q 2828 2175 2409 1742 
Q 1991 1309 1228 531 
z
" transform="scale(0.015625)"/>
       </defs>
       <use xlink:href="#DejaVuSans-30"/>
       <use xlink:href="#DejaVuSans-2e" x="63.623047"/>
       <use xlink:href="#DejaVuSans-32" x="95.410156"/>
      </g>
     </g>
    </g>
    <g id="xtick_3">
     <g id="line2d_3">
      <g>
       <use xlink:href="#mad174bb94e" x="259.914312" y="384.48" style="stroke: #000000; stroke-width: 0.8"/>
      </g>
     </g>
     <g id="text_3">
      <!-- 0.4 -->
      <g transform="translate(251.962749 399.078438) scale(0.1 -0.1)">
       <defs>
        <path id="DejaVuSans-34" d="M 2419 4116 
L 825 1625 
L 2419 1625 
L 2419 4116 
z
M 2253 4666 
L 3047 4666 
L 3047 1625 
L 3713 1625 
L 3713 1100 
L 3047 1100 
L 3047 0 
L 2419 0 
L 2419 1100 
L 313 1100 
L 313 1709 
L 2253 4666 
z
" transform="scale(0.015625)"/>
       </defs>
       <use xlink:href="#DejaVuSans-30"/>
       <use xlink:href="#DejaVuSans-2e" x="63.623047"/>
       <use xlink:href="#DejaVuSans-34" x="95.410156"/>
      </g>
     </g>
    </g>
    <g id="xtick_4">
     <g id="line2d_4">
      <g>
       <use xlink:href="#mad174bb94e" x="330.485688" y="384.48" style="stroke: #000000; stroke-width: 0.8"/>
      </g>
     </g>
     <g id="text_4">
      <!-- 0.6 -->
      <g transform="translate(322.534126 399.078438) scale(0.1 -0.1)">
       <defs>
        <path id="DejaVuSans-36" d="M 2113 2584 
Q 1688 2584 1439 2293 
Q 1191 2003 1191 1497 
Q 1191 994 1439 701 
Q 1688 409 2113 409 
Q 2538 409 2786 701 
Q 3034 994 3034 1497 
Q 3034 2003 2786 2293 
Q 2538 2584 2113 2584 
z
M 3366 4563 
L 3366 3988 
Q 3128 4100 2886 4159 
Q 2644 4219 2406 4219 
Q 1781 4219 1451 3797 
Q 1122 3375 1075 2522 
Q 1259 2794 1537 2939 
Q 1816 3084 2150 3084 
Q 2853 3084 3261 2657 
Q 3669 2231 3669 1497 
Q 3669 778 3244 343 
Q 2819 -91 2113 -91 
Q 1303 -91 875 529 
Q 447 1150 447 2328 
Q 447 3434 972 4092 
Q 1497 4750 2381 4750 
Q 2619 4750 2861 4703 
Q 3103 4656 3366 4563 
z
" transform="scale(0.015625)"/>
       </defs>
       <use xlink:href="#DejaVuSans-30"/>
       <use xlink:href="#DejaVuSans-2e" x="63.623047"/>
       <use xlink:href="#DejaVuSans-36" x="95.410156"/>
      </g>
     </g>
    </g>
    <g id="xtick_5">
     <g id="line2d_5">
      <g>
       <use xlink:href="#mad174bb94e" x="401.057064" y="384.48" style="stroke: #000000; stroke-width: 0.8"/>
      </g>
     </g>
     <g id="text_5">
      <!-- 0.8 -->
      <g transform="translate(393.105502 399.078438) scale(0.1 -0.1)">
       <defs>
        <path id="DejaVuSans-38" d="M 2034 2216 
Q 1584 2216 1326 1975 
Q 1069 1734 1069 1313 
Q 1069 891 1326 650 
Q 1584 409 2034 409 
Q 2484 409 2743 651 
Q 3003 894 3003 1313 
Q 3003 1734 2745 1975 
Q 2488 2216 2034 2216 
z
M 1403 2484 
Q 997 2584 770 2862 
Q 544 3141 544 3541 
Q 544 4100 942 4425 
Q 1341 4750 2034 4750 
Q 2731 4750 3128 4425 
Q 3525 4100 3525 3541 
Q 3525 3141 3298 2862 
Q 3072 2584 2669 2484 
Q 3125 2378 3379 2068 
Q 3634 1759 3634 1313 
Q 3634 634 3220 271 
Q 2806 -91 2034 -91 
Q 1263 -91 848 271 
Q 434 634 434 1313 
Q 434 1759 690 2068 
Q 947 2378 1403 2484 
z
M 1172 3481 
Q 1172 3119 1398 2916 
Q 1625 2713 2034 2713 
Q 2441 2713 2670 2916 
Q 2900 3119 2900 3481 
Q 2900 3844 2670 4047 
Q 2441 4250 2034 4250 
Q 1625 4250 1398 4047 
Q 1172 3844 1172 3481 
z
" transform="scale(0.015625)"/>
       </defs>
       <use xlink:href="#DejaVuSans-30"/>
       <use xlink:href="#DejaVuSans-2e" x="63.623047"/>
       <use xlink:href="#DejaVuSans-38" x="95.410156"/>
      </g>
     </g>
    </g>
    <g id="xtick_6">
     <g id="line2d_6">
      <g>
       <use xlink:href="#mad174bb94e" x="471.62844" y="384.48" style="stroke: #000000; stroke-width: 0.8"/>
      </g>
     </g>
     <g id="text_6">
      <!-- 1.0 -->
      <g transform="translate(463.676878 399.078438) scale(0.1 -0.1)">
       <defs>
        <path id="DejaVuSans-31" d="M 794 531 
L 1825 531 
L 1825 4091 
L 703 3866 
L 703 4441 
L 1819 4666 
L 2450 4666 
L 2450 531 
L 3481 531 
L 3481 0 
L 794 0 
L 794 531 
z
" transform="scale(0.015625)"/>
       </defs>
       <use xlink:href="#DejaVuSans-31"/>
       <use xlink:href="#DejaVuSans-2e" x="63.623047"/>
       <use xlink:href="#DejaVuSans-30" x="95.410156"/>
      </g>
     </g>
    </g>
    <g id="text_7">
     <!-- GFAP -->
     <g transform="translate(282.471094 412.756563) scale(0.1 -0.1)">
      <defs>
       <path id="DejaVuSans-47" d="M 3809 666 
L 3809 1919 
L 2778 1919 
L 2778 2438 
L 4434 2438 
L 4434 434 
Q 4069 175 3628 42 
Q 3188 -91 2688 -91 
Q 1594 -91 976 548 
Q 359 1188 359 2328 
Q 359 3472 976 4111 
Q 1594 4750 2688 4750 
Q 3144 4750 3555 4637 
Q 3966 4525 4313 4306 
L 4313 3634 
Q 3963 3931 3569 4081 
Q 3175 4231 2741 4231 
Q 1884 4231 1454 3753 
Q 1025 3275 1025 2328 
Q 1025 1384 1454 906 
Q 1884 428 2741 428 
Q 3075 428 3337 486 
Q 3600 544 3809 666 
z
" transform="scale(0.015625)"/>
       <path id="DejaVuSans-46" d="M 628 4666 
L 3309 4666 
L 3309 4134 
L 1259 4134 
L 1259 2759 
L 3109 2759 
L 3109 2228 
L 1259 2228 
L 1259 0 
L 628 0 
L 628 4666 
z
" transform="scale(0.015625)"/>
       <path id="DejaVuSans-41" d="M 2188 4044 
L 1331 1722 
L 3047 1722 
L 2188 4044 
z
M 1831 4666 
L 2547 4666 
L 4325 0 
L 3669 0 
L 3244 1197 
L 1141 1197 
L 716 0 
L 50 0 
L 1831 4666 
z
" transform="scale(0.015625)"/>
       <path id="DejaVuSans-50" d="M 1259 4147 
L 1259 2394 
L 2053 2394 
Q 2494 2394 2734 2622 
Q 2975 2850 2975 3272 
Q 2975 3691 2734 3919 
Q 2494 4147 2053 4147 
L 1259 4147 
z
M 628 4666 
L 2053 4666 
Q 2838 4666 3239 4311 
Q 3641 3956 3641 3272 
Q 3641 2581 3239 2228 
Q 2838 1875 2053 1875 
L 1259 1875 
L 1259 0 
L 628 0 
L 628 4666 
z
" transform="scale(0.015625)"/>
      </defs>
      <use xlink:href="#DejaVuSans-47"/>
      <use xlink:href="#DejaVuSans-46" x="77.490234"/>
      <use xlink:href="#DejaVuSans-41" x="125.884766"/>
      <use xlink:href="#DejaVuSans-50" x="194.292969"/>
     </g>
    </g>
   </g>
   <g id="matplotlib.axis_2">
    <g id="ytick_1">
     <g id="line2d_7">
      <defs>
       <path id="m0ec0637705" d="M 0 0 
L -3.5 0 
" style="stroke: #000000; stroke-width: 0.8"/>
      </defs>
      <g>
       <use xlink:href="#m0ec0637705" x="72" y="384.48" style="stroke: #000000; stroke-width: 0.8"/>
      </g>
     </g>
     <g id="text_8">
      <!-- 0 -->
      <g transform="translate(58.6375 388.279219) scale(0.1 -0.1)">
       <use xlink:href="#DejaVuSans-30"/>
      </g>
     </g>
    </g>
    <g id="ytick_2">
     <g id="line2d_8">
      <g>
       <use xlink:href="#m0ec0637705" x="72" y="330.154969" style="stroke: #000000; stroke-width: 0.8"/>
      </g>
     </g>
     <g id="text_9">
      <!-- 5 -->
      <g transform="translate(58.6375 333.954188) scale(0.1 -0.1)">
       <defs>
        <path id="DejaVuSans-35" d="M 691 4666 
L 3169 4666 
L 3169 4134 
L 1269 4134 
L 1269 2991 
Q 1406 3038 1543 3061 
Q 1681 3084 1819 3084 
Q 2600 3084 3056 2656 
Q 3513 2228 3513 1497 
Q 3513 744 3044 326 
Q 2575 -91 1722 -91 
Q 1428 -91 1123 -41 
Q 819 9 494 109 
L 494 744 
Q 775 591 1075 516 
Q 1375 441 1709 441 
Q 2250 441 2565 725 
Q 2881 1009 2881 1497 
Q 2881 1984 2565 2268 
Q 2250 2553 1709 2553 
Q 1456 2553 1204 2497 
Q 953 2441 691 2322 
L 691 4666 
z
" transform="scale(0.015625)"/>
       </defs>
       <use xlink:href="#DejaVuSans-35"/>
      </g>
     </g>
    </g>
    <g id="ytick_3">
     <g id="line2d_9">
      <g>
       <use xlink:href="#m0ec0637705" x="72" y="275.829939" style="stroke: #000000; stroke-width: 0.8"/>
      </g>
     </g>
     <g id="text_10">
      <!-- 10 -->
      <g transform="translate(52.275 279.629158) scale(0.1 -0.1)">
       <use xlink:href="#DejaVuSans-31"/>
       <use xlink:href="#DejaVuSans-30" x="63.623047"/>
      </g>
     </g>
    </g>
    <g id="ytick_4">
     <g id="line2d_10">
      <g>
       <use xlink:href="#m0ec0637705" x="72" y="221.504908" style="stroke: #000000; stroke-width: 0.8"/>
      </g>
     </g>
     <g id="text_11">
      <!-- 15 -->
      <g transform="translate(52.275 225.304127) scale(0.1 -0.1)">
       <use xlink:href="#DejaVuSans-31"/>
       <use xlink:href="#DejaVuSans-35" x="63.623047"/>
      </g>
     </g>
    </g>
    <g id="ytick_5">
     <g id="line2d_11">
      <g>
       <use xlink:href="#m0ec0637705" x="72" y="167.179878" style="stroke: #000000; stroke-width: 0.8"/>
      </g>
     </g>
     <g id="text_12">
      <!-- 20 -->
      <g transform="translate(52.275 170.979096) scale(0.1 -0.1)">
       <use xlink:href="#DejaVuSans-32"/>
       <use xlink:href="#DejaVuSans-30" x="63.623047"/>
      </g>
     </g>
    </g>
    <g id="ytick_6">
     <g id="line2d_12">
      <g>
       <use xlink:href="#m0ec0637705" x="72" y="112.854847" style="stroke: #000000; stroke-width: 0.8"/>
      </g>
     </g>
     <g id="text_13">
      <!-- 25 -->
      <g transform="translate(52.275 116.654066) scale(0.1 -0.1)">
       <use xlink:href="#DejaVuSans-32"/>
       <use xlink:href="#DejaVuSans-35" x="63.623047"/>
      </g>
     </g>
    </g>
    <g id="ytick_7">
     <g id="line2d_13">
      <g>
       <use xlink:href="#m0ec0637705" x="72" y="58.529816" style="stroke: #000000; stroke-width: 0.8"/>
      </g>
     </g>
     <g id="text_14">
      <!-- 30 -->
      <g transform="translate(52.275 62.329035) scale(0.1 -0.1)">
       <defs>
        <path id="DejaVuSans-33" d="M 2597 2516 
Q 3050 2419 3304 2112 
Q 3559 1806 3559 1356 
Q 3559 666 3084 287 
Q 2609 -91 1734 -91 
Q 1441 -91 1130 -33 
Q 819 25 488 141 
L 488 750 
Q 750 597 1062 519 
Q 1375 441 1716 441 
Q 2309 441 2620 675 
Q 2931 909 2931 1356 
Q 2931 1769 2642 2001 
Q 2353 2234 1838 2234 
L 1294 2234 
L 1294 2753 
L 1863 2753 
Q 2328 2753 2575 2939 
Q 2822 3125 2822 3475 
Q 2822 3834 2567 4026 
Q 2313 4219 1838 4219 
Q 1578 4219 1281 4162 
Q 984 4106 628 3988 
L 628 4550 
Q 988 4650 1302 4700 
Q 1616 4750 1894 4750 
Q 2613 4750 3031 4423 
Q 3450 4097 3450 3541 
Q 3450 3153 3228 2886 
Q 3006 2619 2597 2516 
z
" transform="scale(0.015625)"/>
       </defs>
       <use xlink:href="#DejaVuSans-33"/>
       <use xlink:href="#DejaVuSans-30" x="63.623047"/>
      </g>
     </g>
    </g>
    <g id="text_15">
     <!-- Density -->
     <g transform="translate(46.195312 237.168594) rotate(-90) scale(0.1 -0.1)">
      <defs>
       <path id="DejaVuSans-44" d="M 1259 4147 
L 1259 519 
L 2022 519 
Q 2988 519 3436 956 
Q 3884 1394 3884 2338 
Q 3884 3275 3436 3711 
Q 2988 4147 2022 4147 
L 1259 4147 
z
M 628 4666 
L 1925 4666 
Q 3281 4666 3915 4102 
Q 4550 3538 4550 2338 
Q 4550 1131 3912 565 
Q 3275 0 1925 0 
L 628 0 
L 628 4666 
z
" transform="scale(0.015625)"/>
       <path id="DejaVuSans-65" d="M 3597 1894 
L 3597 1613 
L 953 1613 
Q 991 1019 1311 708 
Q 1631 397 2203 397 
Q 2534 397 2845 478 
Q 3156 559 3463 722 
L 3463 178 
Q 3153 47 2828 -22 
Q 2503 -91 2169 -91 
Q 1331 -91 842 396 
Q 353 884 353 1716 
Q 353 2575 817 3079 
Q 1281 3584 2069 3584 
Q 2775 3584 3186 3129 
Q 3597 2675 3597 1894 
z
M 3022 2063 
Q 3016 2534 2758 2815 
Q 2500 3097 2075 3097 
Q 1594 3097 1305 2825 
Q 1016 2553 972 2059 
L 3022 2063 
z
" transform="scale(0.015625)"/>
       <path id="DejaVuSans-6e" d="M 3513 2113 
L 3513 0 
L 2938 0 
L 2938 2094 
Q 2938 2591 2744 2837 
Q 2550 3084 2163 3084 
Q 1697 3084 1428 2787 
Q 1159 2491 1159 1978 
L 1159 0 
L 581 0 
L 581 3500 
L 1159 3500 
L 1159 2956 
Q 1366 3272 1645 3428 
Q 1925 3584 2291 3584 
Q 2894 3584 3203 3211 
Q 3513 2838 3513 2113 
z
" transform="scale(0.015625)"/>
       <path id="DejaVuSans-73" d="M 2834 3397 
L 2834 2853 
Q 2591 2978 2328 3040 
Q 2066 3103 1784 3103 
Q 1356 3103 1142 2972 
Q 928 2841 928 2578 
Q 928 2378 1081 2264 
Q 1234 2150 1697 2047 
L 1894 2003 
Q 2506 1872 2764 1633 
Q 3022 1394 3022 966 
Q 3022 478 2636 193 
Q 2250 -91 1575 -91 
Q 1294 -91 989 -36 
Q 684 19 347 128 
L 347 722 
Q 666 556 975 473 
Q 1284 391 1588 391 
Q 1994 391 2212 530 
Q 2431 669 2431 922 
Q 2431 1156 2273 1281 
Q 2116 1406 1581 1522 
L 1381 1569 
Q 847 1681 609 1914 
Q 372 2147 372 2553 
Q 372 3047 722 3315 
Q 1072 3584 1716 3584 
Q 2034 3584 2315 3537 
Q 2597 3491 2834 3397 
z
" transform="scale(0.015625)"/>
       <path id="DejaVuSans-69" d="M 603 3500 
L 1178 3500 
L 1178 0 
L 603 0 
L 603 3500 
z
M 603 4863 
L 1178 4863 
L 1178 4134 
L 603 4134 
L 603 4863 
z
" transform="scale(0.015625)"/>
       <path id="DejaVuSans-74" d="M 1172 4494 
L 1172 3500 
L 2356 3500 
L 2356 3053 
L 1172 3053 
L 1172 1153 
Q 1172 725 1289 603 
Q 1406 481 1766 481 
L 2356 481 
L 2356 0 
L 1766 0 
Q 1100 0 847 248 
Q 594 497 594 1153 
L 594 3053 
L 172 3053 
L 172 3500 
L 594 3500 
L 594 4494 
L 1172 4494 
z
" transform="scale(0.015625)"/>
       <path id="DejaVuSans-79" d="M 2059 -325 
Q 1816 -950 1584 -1140 
Q 1353 -1331 966 -1331 
L 506 -1331 
L 506 -850 
L 844 -850 
Q 1081 -850 1212 -737 
Q 1344 -625 1503 -206 
L 1606 56 
L 191 3500 
L 800 3500 
L 1894 763 
L 2988 3500 
L 3597 3500 
L 2059 -325 
z
" transform="scale(0.015625)"/>
      </defs>
      <use xlink:href="#DejaVuSans-44"/>
      <use xlink:href="#DejaVuSans-65" x="77.001953"/>
      <use xlink:href="#DejaVuSans-6e" x="138.525391"/>
      <use xlink:href="#DejaVuSans-73" x="201.904297"/>
      <use xlink:href="#DejaVuSans-69" x="254.003906"/>
      <use xlink:href="#DejaVuSans-74" x="281.787109"/>
      <use xlink:href="#DejaVuSans-79" x="320.996094"/>
     </g>
    </g>
   </g>
   <g id="patch_3">
    <path d="M 72 384.48 
L 72 51.84 
" style="fill: none; stroke: #000000; stroke-width: 0.8; stroke-linejoin: miter; stroke-linecap: square"/>
   </g>
   <g id="patch_4">
    <path d="M 518.4 384.48 
L 518.4 51.84 
" style="fill: none; stroke: #000000; stroke-width: 0.8; stroke-linejoin: miter; stroke-linecap: square"/>
   </g>
   <g id="patch_5">
    <path d="M 72 384.48 
L 518.4 384.48 
" style="fill: none; stroke: #000000; stroke-width: 0.8; stroke-linejoin: miter; stroke-linecap: square"/>
   </g>
   <g id="patch_6">
    <path d="M 72 51.84 
L 518.4 51.84 
" style="fill: none; stroke: #000000; stroke-width: 0.8; stroke-linejoin: miter; stroke-linecap: square"/>
   </g>
   <g id="text_16">
    <!-- KDE Plot of GFAP (Real vs Synthetic) -->
    <g transform="translate(186.425625 45.84) scale(0.12 -0.12)">
     <defs>
      <path id="DejaVuSans-4b" d="M 628 4666 
L 1259 4666 
L 1259 2694 
L 3353 4666 
L 4166 4666 
L 1850 2491 
L 4331 0 
L 3500 0 
L 1259 2247 
L 1259 0 
L 628 0 
L 628 4666 
z
" transform="scale(0.015625)"/>
      <path id="DejaVuSans-45" d="M 628 4666 
L 3578 4666 
L 3578 4134 
L 1259 4134 
L 1259 2753 
L 3481 2753 
L 3481 2222 
L 1259 2222 
L 1259 531 
L 3634 531 
L 3634 0 
L 628 0 
L 628 4666 
z
" transform="scale(0.015625)"/>
      <path id="DejaVuSans-20" transform="scale(0.015625)"/>
      <path id="DejaVuSans-6c" d="M 603 4863 
L 1178 4863 
L 1178 0 
L 603 0 
L 603 4863 
z
" transform="scale(0.015625)"/>
      <path id="DejaVuSans-6f" d="M 1959 3097 
Q 1497 3097 1228 2736 
Q 959 2375 959 1747 
Q 959 1119 1226 758 
Q 1494 397 1959 397 
Q 2419 397 2687 759 
Q 2956 1122 2956 1747 
Q 2956 2369 2687 2733 
Q 2419 3097 1959 3097 
z
M 1959 3584 
Q 2709 3584 3137 3096 
Q 3566 2609 3566 1747 
Q 3566 888 3137 398 
Q 2709 -91 1959 -91 
Q 1206 -91 779 398 
Q 353 888 353 1747 
Q 353 2609 779 3096 
Q 1206 3584 1959 3584 
z
" transform="scale(0.015625)"/>
      <path id="DejaVuSans-66" d="M 2375 4863 
L 2375 4384 
L 1825 4384 
Q 1516 4384 1395 4259 
Q 1275 4134 1275 3809 
L 1275 3500 
L 2222 3500 
L 2222 3053 
L 1275 3053 
L 1275 0 
L 697 0 
L 697 3053 
L 147 3053 
L 147 3500 
L 697 3500 
L 697 3744 
Q 697 4328 969 4595 
Q 1241 4863 1831 4863 
L 2375 4863 
z
" transform="scale(0.015625)"/>
      <path id="DejaVuSans-28" d="M 1984 4856 
Q 1566 4138 1362 3434 
Q 1159 2731 1159 2009 
Q 1159 1288 1364 580 
Q 1569 -128 1984 -844 
L 1484 -844 
Q 1016 -109 783 600 
Q 550 1309 550 2009 
Q 550 2706 781 3412 
Q 1013 4119 1484 4856 
L 1984 4856 
z
" transform="scale(0.015625)"/>
      <path id="DejaVuSans-52" d="M 2841 2188 
Q 3044 2119 3236 1894 
Q 3428 1669 3622 1275 
L 4263 0 
L 3584 0 
L 2988 1197 
Q 2756 1666 2539 1819 
Q 2322 1972 1947 1972 
L 1259 1972 
L 1259 0 
L 628 0 
L 628 4666 
L 2053 4666 
Q 2853 4666 3247 4331 
Q 3641 3997 3641 3322 
Q 3641 2881 3436 2590 
Q 3231 2300 2841 2188 
z
M 1259 4147 
L 1259 2491 
L 2053 2491 
Q 2509 2491 2742 2702 
Q 2975 2913 2975 3322 
Q 2975 3731 2742 3939 
Q 2509 4147 2053 4147 
L 1259 4147 
z
" transform="scale(0.015625)"/>
      <path id="DejaVuSans-61" d="M 2194 1759 
Q 1497 1759 1228 1600 
Q 959 1441 959 1056 
Q 959 750 1161 570 
Q 1363 391 1709 391 
Q 2188 391 2477 730 
Q 2766 1069 2766 1631 
L 2766 1759 
L 2194 1759 
z
M 3341 1997 
L 3341 0 
L 2766 0 
L 2766 531 
Q 2569 213 2275 61 
Q 1981 -91 1556 -91 
Q 1019 -91 701 211 
Q 384 513 384 1019 
Q 384 1609 779 1909 
Q 1175 2209 1959 2209 
L 2766 2209 
L 2766 2266 
Q 2766 2663 2505 2880 
Q 2244 3097 1772 3097 
Q 1472 3097 1187 3025 
Q 903 2953 641 2809 
L 641 3341 
Q 956 3463 1253 3523 
Q 1550 3584 1831 3584 
Q 2591 3584 2966 3190 
Q 3341 2797 3341 1997 
z
" transform="scale(0.015625)"/>
      <path id="DejaVuSans-76" d="M 191 3500 
L 800 3500 
L 1894 563 
L 2988 3500 
L 3597 3500 
L 2284 0 
L 1503 0 
L 191 3500 
z
" transform="scale(0.015625)"/>
      <path id="DejaVuSans-53" d="M 3425 4513 
L 3425 3897 
Q 3066 4069 2747 4153 
Q 2428 4238 2131 4238 
Q 1616 4238 1336 4038 
Q 1056 3838 1056 3469 
Q 1056 3159 1242 3001 
Q 1428 2844 1947 2747 
L 2328 2669 
Q 3034 2534 3370 2195 
Q 3706 1856 3706 1288 
Q 3706 609 3251 259 
Q 2797 -91 1919 -91 
Q 1588 -91 1214 -16 
Q 841 59 441 206 
L 441 856 
Q 825 641 1194 531 
Q 1563 422 1919 422 
Q 2459 422 2753 634 
Q 3047 847 3047 1241 
Q 3047 1584 2836 1778 
Q 2625 1972 2144 2069 
L 1759 2144 
Q 1053 2284 737 2584 
Q 422 2884 422 3419 
Q 422 4038 858 4394 
Q 1294 4750 2059 4750 
Q 2388 4750 2728 4690 
Q 3069 4631 3425 4513 
z
" transform="scale(0.015625)"/>
      <path id="DejaVuSans-68" d="M 3513 2113 
L 3513 0 
L 2938 0 
L 2938 2094 
Q 2938 2591 2744 2837 
Q 2550 3084 2163 3084 
Q 1697 3084 1428 2787 
Q 1159 2491 1159 1978 
L 1159 0 
L 581 0 
L 581 4863 
L 1159 4863 
L 1159 2956 
Q 1366 3272 1645 3428 
Q 1925 3584 2291 3584 
Q 2894 3584 3203 3211 
Q 3513 2838 3513 2113 
z
" transform="scale(0.015625)"/>
      <path id="DejaVuSans-63" d="M 3122 3366 
L 3122 2828 
Q 2878 2963 2633 3030 
Q 2388 3097 2138 3097 
Q 1578 3097 1268 2742 
Q 959 2388 959 1747 
Q 959 1106 1268 751 
Q 1578 397 2138 397 
Q 2388 397 2633 464 
Q 2878 531 3122 666 
L 3122 134 
Q 2881 22 2623 -34 
Q 2366 -91 2075 -91 
Q 1284 -91 818 406 
Q 353 903 353 1747 
Q 353 2603 823 3093 
Q 1294 3584 2113 3584 
Q 2378 3584 2631 3529 
Q 2884 3475 3122 3366 
z
" transform="scale(0.015625)"/>
      <path id="DejaVuSans-29" d="M 513 4856 
L 1013 4856 
Q 1481 4119 1714 3412 
Q 1947 2706 1947 2009 
Q 1947 1309 1714 600 
Q 1481 -109 1013 -844 
L 513 -844 
Q 928 -128 1133 580 
Q 1338 1288 1338 2009 
Q 1338 2731 1133 3434 
Q 928 4138 513 4856 
z
" transform="scale(0.015625)"/>
     </defs>
     <use xlink:href="#DejaVuSans-4b"/>
     <use xlink:href="#DejaVuSans-44" x="65.576172"/>
     <use xlink:href="#DejaVuSans-45" x="142.578125"/>
     <use xlink:href="#DejaVuSans-20" x="205.761719"/>
     <use xlink:href="#DejaVuSans-50" x="237.548828"/>
     <use xlink:href="#DejaVuSans-6c" x="297.851562"/>
     <use xlink:href="#DejaVuSans-6f" x="325.634766"/>
     <use xlink:href="#DejaVuSans-74" x="386.816406"/>
     <use xlink:href="#DejaVuSans-20" x="426.025391"/>
     <use xlink:href="#DejaVuSans-6f" x="457.8125"/>
     <use xlink:href="#DejaVuSans-66" x="518.994141"/>
     <use xlink:href="#DejaVuSans-20" x="554.199219"/>
     <use xlink:href="#DejaVuSans-47" x="585.986328"/>
     <use xlink:href="#DejaVuSans-46" x="663.476562"/>
     <use xlink:href="#DejaVuSans-41" x="711.871094"/>
     <use xlink:href="#DejaVuSans-50" x="780.279297"/>
     <use xlink:href="#DejaVuSans-20" x="840.582031"/>
     <use xlink:href="#DejaVuSans-28" x="872.369141"/>
     <use xlink:href="#DejaVuSans-52" x="911.382812"/>
     <use xlink:href="#DejaVuSans-65" x="976.365234"/>
     <use xlink:href="#DejaVuSans-61" x="1037.888672"/>
     <use xlink:href="#DejaVuSans-6c" x="1099.167969"/>
     <use xlink:href="#DejaVuSans-20" x="1126.951172"/>
     <use xlink:href="#DejaVuSans-76" x="1158.738281"/>
     <use xlink:href="#DejaVuSans-73" x="1217.917969"/>
     <use xlink:href="#DejaVuSans-20" x="1270.017578"/>
     <use xlink:href="#DejaVuSans-53" x="1301.804688"/>
     <use xlink:href="#DejaVuSans-79" x="1365.28125"/>
     <use xlink:href="#DejaVuSans-6e" x="1424.460938"/>
     <use xlink:href="#DejaVuSans-74" x="1487.839844"/>
     <use xlink:href="#DejaVuSans-68" x="1527.048828"/>
     <use xlink:href="#DejaVuSans-65" x="1590.427734"/>
     <use xlink:href="#DejaVuSans-74" x="1651.951172"/>
     <use xlink:href="#DejaVuSans-69" x="1691.160156"/>
     <use xlink:href="#DejaVuSans-63" x="1718.943359"/>
     <use xlink:href="#DejaVuSans-29" x="1773.923828"/>
    </g>
   </g>
   <g id="legend_1">
    <g id="patch_7">
     <path d="M 405.132812 89.19625 
L 511.4 89.19625 
Q 513.4 89.19625 513.4 87.19625 
L 513.4 58.84 
Q 513.4 56.84 511.4 56.84 
L 405.132812 56.84 
Q 403.132812 56.84 403.132812 58.84 
L 403.132812 87.19625 
Q 403.132812 89.19625 405.132812 89.19625 
z
" style="fill: #ffffff; opacity: 0.8; stroke: #cccccc; stroke-linejoin: miter"/>
    </g>
    <g id="patch_8">
     <path d="M 407.132812 68.438437 
L 427.132812 68.438437 
L 427.132812 61.438437 
L 407.132812 61.438437 
z
" style="fill: #1f77b4; fill-opacity: 0.5; stroke: #1f77b4; stroke-linejoin: miter"/>
    </g>
    <g id="text_17">
     <!-- Real Data -->
     <g transform="translate(435.132812 68.438437) scale(0.1 -0.1)">
      <use xlink:href="#DejaVuSans-52"/>
      <use xlink:href="#DejaVuSans-65" x="64.982422"/>
      <use xlink:href="#DejaVuSans-61" x="126.505859"/>
      <use xlink:href="#DejaVuSans-6c" x="187.785156"/>
      <use xlink:href="#DejaVuSans-20" x="215.568359"/>
      <use xlink:href="#DejaVuSans-44" x="247.355469"/>
      <use xlink:href="#DejaVuSans-61" x="324.357422"/>
      <use xlink:href="#DejaVuSans-74" x="385.636719"/>
      <use xlink:href="#DejaVuSans-61" x="424.845703"/>
     </g>
    </g>
    <g id="patch_9">
     <path d="M 407.132812 83.116562 
L 427.132812 83.116562 
L 427.132812 76.116562 
L 407.132812 76.116562 
z
" style="fill: #ff7f0e; fill-opacity: 0.5; stroke: #ff7f0e; stroke-linejoin: miter"/>
    </g>
    <g id="text_18">
     <!-- Synthetic Data -->
     <g transform="translate(435.132812 83.116562) scale(0.1 -0.1)">
      <use xlink:href="#DejaVuSans-53"/>
      <use xlink:href="#DejaVuSans-79" x="63.476562"/>
      <use xlink:href="#DejaVuSans-6e" x="122.65625"/>
      <use xlink:href="#DejaVuSans-74" x="186.035156"/>
      <use xlink:href="#DejaVuSans-68" x="225.244141"/>
      <use xlink:href="#DejaVuSans-65" x="288.623047"/>
      <use xlink:href="#DejaVuSans-74" x="350.146484"/>
      <use xlink:href="#DejaVuSans-69" x="389.355469"/>
      <use xlink:href="#DejaVuSans-63" x="417.138672"/>
      <use xlink:href="#DejaVuSans-20" x="472.119141"/>
      <use xlink:href="#DejaVuSans-44" x="503.90625"/>
      <use xlink:href="#DejaVuSans-61" x="580.908203"/>
      <use xlink:href="#DejaVuSans-74" x="642.1875"/>
      <use xlink:href="#DejaVuSans-61" x="681.396484"/>
     </g>
    </g>
   </g>
  </g>
 </g>
 <defs>
  <clipPath id="pf9a28a52f2">
   <rect x="72" y="51.84" width="446.4" height="332.64"/>
  </clipPath>
 </defs>
</svg>
