<?xml version="1.0" encoding="utf-8" standalone="no"?>
<!DOCTYPE svg PUBLIC "-//W3C//DTD SVG 1.1//EN"
  "http://www.w3.org/Graphics/SVG/1.1/DTD/svg11.dtd">
<svg xmlns:xlink="http://www.w3.org/1999/xlink" width="576pt" height="432pt" viewBox="0 0 576 432" xmlns="http://www.w3.org/2000/svg" version="1.1">
 <metadata>
  <rdf:RDF xmlns:dc="http://purl.org/dc/elements/1.1/" xmlns:cc="http://creativecommons.org/ns#" xmlns:rdf="http://www.w3.org/1999/02/22-rdf-syntax-ns#">
   <cc:Work>
    <dc:type rdf:resource="http://purl.org/dc/dcmitype/StillImage"/>
    <dc:date>2024-11-22T14:00:12.765031</dc:date>
    <dc:format>image/svg+xml</dc:format>
    <dc:creator>
     <cc:Agent>
      <dc:title>Matplotlib v3.7.5, https://matplotlib.org/</dc:title>
     </cc:Agent>
    </dc:creator>
   </cc:Work>
  </rdf:RDF>
 </metadata>
 <defs>
  <style type="text/css">*{stroke-linejoin: round; stroke-linecap: butt}</style>
 </defs>
 <g id="figure_1">
  <g id="patch_1">
   <path d="M 0 432 
L 576 432 
L 576 0 
L 0 0 
z
" style="fill: #ffffff"/>
  </g>
  <g id="axes_1">
   <g id="patch_2">
    <path d="M 72 384.48 
L 518.4 384.48 
L 518.4 51.84 
L 72 51.84 
z
" style="fill: #ffffff"/>
   </g>
   <g id="PolyCollection_1">
    <defs>
     <path id="m9a2dcc0265" d="M 92.290909 -47.881495 
L 92.290909 -47.52 
L 94.330196 -47.52 
L 96.369484 -47.52 
L 98.408771 -47.52 
L 100.448058 -47.52 
L 102.487346 -47.52 
L 104.526633 -47.52 
L 106.565921 -47.52 
L 108.605208 -47.52 
L 110.644495 -47.52 
L 112.683783 -47.52 
L 114.72307 -47.52 
L 116.762357 -47.52 
L 118.801645 -47.52 
L 120.840932 -47.52 
L 122.880219 -47.52 
L 124.919507 -47.52 
L 126.958794 -47.52 
L 128.998081 -47.52 
L 131.037369 -47.52 
L 133.076656 -47.52 
L 135.115943 -47.52 
L 137.155231 -47.52 
L 139.194518 -47.52 
L 141.233805 -47.52 
L 143.273093 -47.52 
L 145.31238 -47.52 
L 147.351667 -47.52 
L 149.390955 -47.52 
L 151.430242 -47.52 
L 153.469529 -47.52 
L 155.508817 -47.52 
L 157.548104 -47.52 
L 159.587392 -47.52 
L 161.626679 -47.52 
L 163.665966 -47.52 
L 165.705254 -47.52 
L 167.744541 -47.52 
L 169.783828 -47.52 
L 171.823116 -47.52 
L 173.862403 -47.52 
L 175.90169 -47.52 
L 177.940978 -47.52 
L 179.980265 -47.52 
L 182.019552 -47.52 
L 184.05884 -47.52 
L 186.098127 -47.52 
L 188.137414 -47.52 
L 190.176702 -47.52 
L 192.215989 -47.52 
L 194.255276 -47.52 
L 196.294564 -47.52 
L 198.333851 -47.52 
L 200.373138 -47.52 
L 202.412426 -47.52 
L 204.451713 -47.52 
L 206.491 -47.52 
L 208.530288 -47.52 
L 210.569575 -47.52 
L 212.608862 -47.52 
L 214.64815 -47.52 
L 216.687437 -47.52 
L 218.726725 -47.52 
L 220.766012 -47.52 
L 222.805299 -47.52 
L 224.844587 -47.52 
L 226.883874 -47.52 
L 228.923161 -47.52 
L 230.962449 -47.52 
L 233.001736 -47.52 
L 235.041023 -47.52 
L 237.080311 -47.52 
L 239.119598 -47.52 
L 241.158885 -47.52 
L 243.198173 -47.52 
L 245.23746 -47.52 
L 247.276747 -47.52 
L 249.316035 -47.52 
L 251.355322 -47.52 
L 253.394609 -47.52 
L 255.433897 -47.52 
L 257.473184 -47.52 
L 259.512471 -47.52 
L 261.551759 -47.52 
L 263.591046 -47.52 
L 265.630333 -47.52 
L 267.669621 -47.52 
L 269.708908 -47.52 
L 271.748196 -47.52 
L 273.787483 -47.52 
L 275.82677 -47.52 
L 277.866058 -47.52 
L 279.905345 -47.52 
L 281.944632 -47.52 
L 283.98392 -47.52 
L 286.023207 -47.52 
L 288.062494 -47.52 
L 290.101782 -47.52 
L 292.141069 -47.52 
L 294.180356 -47.52 
L 296.219644 -47.52 
L 298.258931 -47.52 
L 300.298218 -47.52 
L 302.337506 -47.52 
L 304.376793 -47.52 
L 306.41608 -47.52 
L 308.455368 -47.52 
L 310.494655 -47.52 
L 312.533942 -47.52 
L 314.57323 -47.52 
L 316.612517 -47.52 
L 318.651804 -47.52 
L 320.691092 -47.52 
L 322.730379 -47.52 
L 324.769667 -47.52 
L 326.808954 -47.52 
L 328.848241 -47.52 
L 330.887529 -47.52 
L 332.926816 -47.52 
L 334.966103 -47.52 
L 337.005391 -47.52 
L 339.044678 -47.52 
L 341.083965 -47.52 
L 343.123253 -47.52 
L 345.16254 -47.52 
L 347.201827 -47.52 
L 349.241115 -47.52 
L 351.280402 -47.52 
L 353.319689 -47.52 
L 355.358977 -47.52 
L 357.398264 -47.52 
L 359.437551 -47.52 
L 361.476839 -47.52 
L 363.516126 -47.52 
L 365.555413 -47.52 
L 367.594701 -47.52 
L 369.633988 -47.52 
L 371.673275 -47.52 
L 373.712563 -47.52 
L 375.75185 -47.52 
L 377.791138 -47.52 
L 379.830425 -47.52 
L 381.869712 -47.52 
L 383.909 -47.52 
L 385.948287 -47.52 
L 387.987574 -47.52 
L 390.026862 -47.52 
L 392.066149 -47.52 
L 394.105436 -47.52 
L 396.144724 -47.52 
L 398.184011 -47.52 
L 400.223298 -47.52 
L 402.262586 -47.52 
L 404.301873 -47.52 
L 406.34116 -47.52 
L 408.380448 -47.52 
L 410.419735 -47.52 
L 412.459022 -47.52 
L 414.49831 -47.52 
L 416.537597 -47.52 
L 418.576884 -47.52 
L 420.616172 -47.52 
L 422.655459 -47.52 
L 424.694746 -47.52 
L 426.734034 -47.52 
L 428.773321 -47.52 
L 430.812608 -47.52 
L 432.851896 -47.52 
L 434.891183 -47.52 
L 436.930471 -47.52 
L 438.969758 -47.52 
L 441.009045 -47.52 
L 443.048333 -47.52 
L 445.08762 -47.52 
L 447.126907 -47.52 
L 449.166195 -47.52 
L 451.205482 -47.52 
L 453.244769 -47.52 
L 455.284057 -47.52 
L 457.323344 -47.52 
L 459.362631 -47.52 
L 461.401919 -47.52 
L 463.441206 -47.52 
L 465.480493 -47.52 
L 467.519781 -47.52 
L 469.559068 -47.52 
L 471.598355 -47.52 
L 473.637643 -47.52 
L 475.67693 -47.52 
L 477.716217 -47.52 
L 479.755505 -47.52 
L 481.794792 -47.52 
L 483.834079 -47.52 
L 485.873367 -47.52 
L 487.912654 -47.52 
L 489.951942 -47.52 
L 491.991229 -47.52 
L 494.030516 -47.52 
L 496.069804 -47.52 
L 498.109091 -47.52 
L 498.109091 -47.522217 
L 498.109091 -47.522217 
L 496.069804 -47.525071 
L 494.030516 -47.530665 
L 491.991229 -47.540624 
L 489.951942 -47.556668 
L 487.912654 -47.579942 
L 485.873367 -47.610095 
L 483.834079 -47.644508 
L 481.794792 -47.678203 
L 479.755505 -47.704824 
L 477.716217 -47.71853 
L 475.67693 -47.716073 
L 473.637643 -47.698047 
L 471.598355 -47.668654 
L 469.559068 -47.634115 
L 467.519781 -47.600544 
L 465.480493 -47.57227 
L 463.441206 -47.551188 
L 461.401919 -47.53711 
L 459.362631 -47.528631 
L 457.323344 -47.524003 
L 455.284057 -47.521707 
L 453.244769 -47.520669 
L 451.205482 -47.520241 
L 449.166195 -47.52008 
L 447.126907 -47.520024 
L 445.08762 -47.520007 
L 443.048333 -47.520002 
L 441.009045 -47.52 
L 438.969758 -47.52 
L 436.930471 -47.52 
L 434.891183 -47.520002 
L 432.851896 -47.520007 
L 430.812608 -47.520026 
L 428.773321 -47.520086 
L 426.734034 -47.520257 
L 424.694746 -47.52071 
L 422.655459 -47.521801 
L 420.616172 -47.524202 
L 418.576884 -47.529015 
L 416.537597 -47.537784 
L 414.49831 -47.55226 
L 412.459022 -47.573816 
L 410.419735 -47.60258 
L 408.380448 -47.636615 
L 406.34116 -47.671691 
L 404.301873 -47.702106 
L 402.262586 -47.722551 
L 400.223298 -47.730327 
L 398.184011 -47.726826 
L 396.144724 -47.717341 
L 394.105436 -47.709101 
L 392.066149 -47.708368 
L 390.026862 -47.718013 
L 387.987574 -47.736707 
L 385.948287 -47.76001 
L 383.909 -47.782586 
L 381.869712 -47.800235 
L 379.830425 -47.810694 
L 377.791138 -47.813096 
L 375.75185 -47.806911 
L 373.712563 -47.791435 
L 371.673275 -47.766267 
L 369.633988 -47.732323 
L 367.594701 -47.692442 
L 365.555413 -47.650978 
L 363.516126 -47.612529 
L 361.476839 -47.580561 
L 359.437551 -47.556626 
L 357.398264 -47.540431 
L 355.358977 -47.530501 
L 353.319689 -47.524969 
L 351.280402 -47.522163 
L 349.241115 -47.520867 
L 347.201827 -47.520319 
L 345.16254 -47.520108 
L 343.123253 -47.520034 
L 341.083965 -47.52001 
L 339.044678 -47.520003 
L 337.005391 -47.520001 
L 334.966103 -47.52 
L 332.926816 -47.52 
L 330.887529 -47.52 
L 328.848241 -47.52 
L 326.808954 -47.52 
L 324.769667 -47.52 
L 322.730379 -47.52 
L 320.691092 -47.52 
L 318.651804 -47.52 
L 316.612517 -47.52 
L 314.57323 -47.520001 
L 312.533942 -47.520005 
L 310.494655 -47.520019 
L 308.455368 -47.520064 
L 306.41608 -47.520198 
L 304.376793 -47.520557 
L 302.337506 -47.521443 
L 300.298218 -47.523436 
L 298.258931 -47.527526 
L 296.219644 -47.535157 
L 294.180356 -47.548063 
L 292.141069 -47.567775 
L 290.101782 -47.59478 
L 288.062494 -47.627621 
L 286.023207 -47.662407 
L 283.98392 -47.693257 
L 281.944632 -47.71381 
L 279.905345 -47.719335 
L 277.866058 -47.708503 
L 275.82677 -47.683899 
L 273.787483 -47.651027 
L 271.748196 -47.616311 
L 269.708908 -47.585096 
L 267.669621 -47.560474 
L 265.630333 -47.543204 
L 263.591046 -47.532433 
L 261.551759 -47.526689 
L 259.512471 -47.524742 
L 257.473184 -47.526178 
L 255.433897 -47.531722 
L 253.394609 -47.543372 
L 251.355322 -47.564301 
L 249.316035 -47.598399 
L 247.276747 -47.649333 
L 245.23746 -47.719183 
L 243.198173 -47.807007 
L 241.158885 -47.907916 
L 239.119598 -48.013258 
L 237.080311 -48.112109 
L 235.041023 -48.193718 
L 233.001736 -48.250021 
L 230.962449 -48.277314 
L 228.923161 -48.276609 
L 226.883874 -48.252938 
L 224.844587 -48.214232 
L 222.805299 -48.17019 
L 220.766012 -48.131053 
L 218.726725 -48.105966 
L 216.687437 -48.101002 
L 214.64815 -48.117594 
L 212.608862 -48.152314 
L 210.569575 -48.198294 
L 208.530288 -48.247625 
L 206.491 -48.293505 
L 204.451713 -48.331284 
L 202.412426 -48.358467 
L 200.373138 -48.374363 
L 198.333851 -48.380023 
L 196.294564 -48.378501 
L 194.255276 -48.375047 
L 192.215989 -48.376849 
L 190.176702 -48.392303 
L 188.137414 -48.430007 
L 186.098127 -48.497624 
L 184.05884 -48.600571 
L 182.019552 -48.740528 
L 179.980265 -48.914086 
L 177.940978 -49.112234 
L 175.90169 -49.321495 
L 173.862403 -49.527046 
L 171.823116 -49.717196 
L 169.783828 -49.887828 
L 167.744541 -50.04532 
L 165.705254 -50.207219 
L 163.665966 -50.401014 
L 161.626679 -50.661921 
L 159.587392 -51.030518 
L 157.548104 -51.550749 
L 155.508817 -52.269033 
L 153.469529 -53.236111 
L 151.430242 -54.514522 
L 149.390955 -56.194943 
L 147.351667 -58.422256 
L 145.31238 -61.425395 
L 143.273093 -65.533771 
L 141.233805 -71.1522 
L 139.194518 -78.665711 
L 137.155231 -88.266615 
L 135.115943 -99.741421 
L 133.076656 -112.308088 
L 131.037369 -124.618746 
L 128.998081 -135.002184 
L 126.958794 -141.908996 
L 124.919507 -144.391252 
L 122.880219 -142.387899 
L 120.840932 -136.662544 
L 118.801645 -128.427139 
L 116.762357 -118.865071 
L 114.72307 -108.810614 
L 112.683783 -98.715515 
L 110.644495 -88.834927 
L 108.605208 -79.442069 
L 106.565921 -70.91068 
L 104.526633 -63.637087 
L 102.487346 -57.892937 
L 100.448058 -53.724831 
L 98.408771 -50.957546 
L 96.369484 -49.279598 
L 94.330196 -48.350848 
L 92.290909 -47.881495 
z
" style="stroke: #1f77b4"/>
    </defs>
    <g clip-path="url(#p40bd61286a)">
     <use xlink:href="#m9a2dcc0265" x="0" y="432" style="fill: #1f77b4; fill-opacity: 0.5; stroke: #1f77b4"/>
    </g>
   </g>
   <g id="PolyCollection_2">
    <defs>
     <path id="m5f28d6bc80" d="M 114.514595 -47.573102 
L 114.514595 -47.52 
L 114.793253 -47.52 
L 115.071911 -47.52 
L 115.350568 -47.52 
L 115.629226 -47.52 
L 115.907883 -47.52 
L 116.186541 -47.52 
L 116.465198 -47.52 
L 116.743856 -47.52 
L 117.022514 -47.52 
L 117.301171 -47.52 
L 117.579829 -47.52 
L 117.858486 -47.52 
L 118.137144 -47.52 
L 118.415801 -47.52 
L 118.694459 -47.52 
L 118.973117 -47.52 
L 119.251774 -47.52 
L 119.530432 -47.52 
L 119.809089 -47.52 
L 120.087747 -47.52 
L 120.366404 -47.52 
L 120.645062 -47.52 
L 120.923719 -47.52 
L 121.202377 -47.52 
L 121.481035 -47.52 
L 121.759692 -47.52 
L 122.03835 -47.52 
L 122.317007 -47.52 
L 122.595665 -47.52 
L 122.874322 -47.52 
L 123.15298 -47.52 
L 123.431638 -47.52 
L 123.710295 -47.52 
L 123.988953 -47.52 
L 124.26761 -47.52 
L 124.546268 -47.52 
L 124.824925 -47.52 
L 125.103583 -47.52 
L 125.382241 -47.52 
L 125.660898 -47.52 
L 125.939556 -47.52 
L 126.218213 -47.52 
L 126.496871 -47.52 
L 126.775528 -47.52 
L 127.054186 -47.52 
L 127.332843 -47.52 
L 127.611501 -47.52 
L 127.890159 -47.52 
L 128.168816 -47.52 
L 128.447474 -47.52 
L 128.726131 -47.52 
L 129.004789 -47.52 
L 129.283446 -47.52 
L 129.562104 -47.52 
L 129.840762 -47.52 
L 130.119419 -47.52 
L 130.398077 -47.52 
L 130.676734 -47.52 
L 130.955392 -47.52 
L 131.234049 -47.52 
L 131.512707 -47.52 
L 131.791365 -47.52 
L 132.070022 -47.52 
L 132.34868 -47.52 
L 132.627337 -47.52 
L 132.905995 -47.52 
L 133.184652 -47.52 
L 133.46331 -47.52 
L 133.741968 -47.52 
L 134.020625 -47.52 
L 134.299283 -47.52 
L 134.57794 -47.52 
L 134.856598 -47.52 
L 135.135255 -47.52 
L 135.413913 -47.52 
L 135.69257 -47.52 
L 135.971228 -47.52 
L 136.249886 -47.52 
L 136.528543 -47.52 
L 136.807201 -47.52 
L 137.085858 -47.52 
L 137.364516 -47.52 
L 137.643173 -47.52 
L 137.921831 -47.52 
L 138.200489 -47.52 
L 138.479146 -47.52 
L 138.757804 -47.52 
L 139.036461 -47.52 
L 139.315119 -47.52 
L 139.593776 -47.52 
L 139.872434 -47.52 
L 140.151092 -47.52 
L 140.429749 -47.52 
L 140.708407 -47.52 
L 140.987064 -47.52 
L 141.265722 -47.52 
L 141.544379 -47.52 
L 141.823037 -47.52 
L 142.101694 -47.52 
L 142.380352 -47.52 
L 142.65901 -47.52 
L 142.937667 -47.52 
L 143.216325 -47.52 
L 143.494982 -47.52 
L 143.77364 -47.52 
L 144.052297 -47.52 
L 144.330955 -47.52 
L 144.609613 -47.52 
L 144.88827 -47.52 
L 145.166928 -47.52 
L 145.445585 -47.52 
L 145.724243 -47.52 
L 146.0029 -47.52 
L 146.281558 -47.52 
L 146.560216 -47.52 
L 146.838873 -47.52 
L 147.117531 -47.52 
L 147.396188 -47.52 
L 147.674846 -47.52 
L 147.953503 -47.52 
L 148.232161 -47.52 
L 148.510818 -47.52 
L 148.789476 -47.52 
L 149.068134 -47.52 
L 149.346791 -47.52 
L 149.625449 -47.52 
L 149.904106 -47.52 
L 150.182764 -47.52 
L 150.461421 -47.52 
L 150.740079 -47.52 
L 151.018737 -47.52 
L 151.297394 -47.52 
L 151.576052 -47.52 
L 151.854709 -47.52 
L 152.133367 -47.52 
L 152.412024 -47.52 
L 152.690682 -47.52 
L 152.96934 -47.52 
L 153.247997 -47.52 
L 153.526655 -47.52 
L 153.805312 -47.52 
L 154.08397 -47.52 
L 154.362627 -47.52 
L 154.641285 -47.52 
L 154.919942 -47.52 
L 155.1986 -47.52 
L 155.477258 -47.52 
L 155.755915 -47.52 
L 156.034573 -47.52 
L 156.31323 -47.52 
L 156.591888 -47.52 
L 156.870545 -47.52 
L 157.149203 -47.52 
L 157.427861 -47.52 
L 157.706518 -47.52 
L 157.985176 -47.52 
L 158.263833 -47.52 
L 158.542491 -47.52 
L 158.821148 -47.52 
L 159.099806 -47.52 
L 159.378464 -47.52 
L 159.657121 -47.52 
L 159.935779 -47.52 
L 160.214436 -47.52 
L 160.493094 -47.52 
L 160.771751 -47.52 
L 161.050409 -47.52 
L 161.329066 -47.52 
L 161.607724 -47.52 
L 161.886382 -47.52 
L 162.165039 -47.52 
L 162.443697 -47.52 
L 162.722354 -47.52 
L 163.001012 -47.52 
L 163.279669 -47.52 
L 163.558327 -47.52 
L 163.836985 -47.52 
L 164.115642 -47.52 
L 164.3943 -47.52 
L 164.672957 -47.52 
L 164.951615 -47.52 
L 165.230272 -47.52 
L 165.50893 -47.52 
L 165.787588 -47.52 
L 166.066245 -47.52 
L 166.344903 -47.52 
L 166.62356 -47.52 
L 166.902218 -47.52 
L 167.180875 -47.52 
L 167.459533 -47.52 
L 167.73819 -47.52 
L 168.016848 -47.52 
L 168.295506 -47.52 
L 168.574163 -47.52 
L 168.852821 -47.52 
L 169.131478 -47.52 
L 169.410136 -47.52 
L 169.688793 -47.52 
L 169.967451 -47.52 
L 169.967451 -47.537276 
L 169.967451 -47.537276 
L 169.688793 -47.547507 
L 169.410136 -47.562701 
L 169.131478 -47.584627 
L 168.852821 -47.61536 
L 168.574163 -47.657184 
L 168.295506 -47.712408 
L 168.016848 -47.783104 
L 167.73819 -47.870763 
L 167.459533 -47.975915 
L 167.180875 -48.097747 
L 166.902218 -48.233798 
L 166.62356 -48.379803 
L 166.344903 -48.529742 
L 166.066245 -48.676148 
L 165.787588 -48.810671 
L 165.50893 -48.924844 
L 165.230272 -49.010985 
L 164.951615 -49.06308 
L 164.672957 -49.077544 
L 164.3943 -49.053721 
L 164.115642 -48.994052 
L 163.836985 -48.903886 
L 163.558327 -48.790972 
L 163.279669 -48.664715 
L 163.001012 -48.535314 
L 162.722354 -48.412889 
L 162.443697 -48.306711 
L 162.165039 -48.224575 
L 161.886382 -48.172355 
L 161.607724 -48.153712 
L 161.329066 -48.169939 
L 161.050409 -48.21991 
L 160.771751 -48.300126 
L 160.493094 -48.404861 
L 160.214436 -48.52644 
L 159.935779 -48.655679 
L 159.657121 -48.782491 
L 159.378464 -48.896659 
L 159.099806 -48.988695 
L 158.821148 -49.050715 
L 158.542491 -49.077192 
L 158.263833 -49.06549 
L 157.985176 -49.016085 
L 157.706518 -48.932427 
L 157.427861 -48.820478 
L 157.149203 -48.687995 
L 156.870545 -48.543667 
L 156.591888 -48.396268 
L 156.31323 -48.253917 
L 156.034573 -48.123565 
L 155.755915 -48.010728 
L 155.477258 -47.919479 
L 155.1986 -47.852625 
L 154.919942 -47.812013 
L 154.641285 -47.798846 
L 154.362627 -47.813948 
L 154.08397 -47.857905 
L 153.805312 -47.931056 
L 153.526655 -48.033338 
L 153.247997 -48.164028 
L 152.96934 -48.321435 
L 152.690682 -48.502624 
L 152.412024 -48.70324 
L 152.133367 -48.917478 
L 151.854709 -49.138239 
L 151.576052 -49.357455 
L 151.297394 -49.566561 
L 151.018737 -49.757047 
L 150.740079 -49.92104 
L 150.461421 -50.051862 
L 150.182764 -50.14451 
L 149.904106 -50.196051 
L 149.625449 -50.205918 
L 149.346791 -50.176092 
L 149.068134 -50.111187 
L 148.789476 -50.018398 
L 148.510818 -49.907321 
L 148.232161 -49.789614 
L 147.953503 -49.67851 
L 147.674846 -49.588215 
L 147.396188 -49.533248 
L 147.117531 -49.527806 
L 146.838873 -49.585259 
L 146.560216 -49.717842 
L 146.281558 -49.936604 
L 146.0029 -50.251583 
L 145.724243 -50.672154 
L 145.445585 -51.207402 
L 145.166928 -51.866363 
L 144.88827 -52.657982 
L 144.609613 -53.590668 
L 144.330955 -54.67142 
L 144.052297 -55.904619 
L 143.77364 -57.290676 
L 143.494982 -58.824826 
L 143.216325 -60.49637 
L 142.937667 -62.288648 
L 142.65901 -64.17987 
L 142.380352 -66.144776 
L 142.101694 -68.156878 
L 141.823037 -70.190854 
L 141.544379 -72.224607 
L 141.265722 -74.240498 
L 140.987064 -76.22543 
L 140.708407 -78.169728 
L 140.429749 -80.065015 
L 140.151092 -81.90154 
L 139.872434 -83.665562 
L 139.593776 -85.33739 
L 139.315119 -86.890517 
L 139.036461 -88.292101 
L 138.757804 -89.504747 
L 138.479146 -90.489356 
L 138.200489 -91.208652 
L 137.921831 -91.630958 
L 137.643173 -91.733837 
L 137.364516 -91.507253 
L 137.085858 -90.956003 
L 136.807201 -90.101211 
L 136.528543 -88.980715 
L 136.249886 -87.648212 
L 135.971228 -86.171122 
L 135.69257 -84.627214 
L 135.413913 -83.100205 
L 135.135255 -81.67473 
L 134.856598 -80.431216 
L 134.57794 -79.44128 
L 134.299283 -78.76433 
L 134.020625 -78.445896 
L 133.741968 -78.518092 
L 133.46331 -79.002319 
L 133.184652 -79.914041 
L 132.905995 -81.269125 
L 132.627337 -83.09096 
L 132.34868 -85.417323 
L 132.070022 -88.305783 
L 131.791365 -91.83648 
L 131.512707 -96.111238 
L 131.234049 -101.248397 
L 130.955392 -107.373322 
L 130.676734 -114.605308 
L 130.398077 -123.042404 
L 130.119419 -132.746325 
L 129.840762 -143.730042 
L 129.562104 -155.950455 
L 129.283446 -169.307913 
L 129.004789 -183.65304 
L 128.726131 -198.79974 
L 128.447474 -214.541611 
L 128.168816 -230.66779 
L 127.890159 -246.973889 
L 127.611501 -263.264444 
L 127.332843 -279.345178 
L 127.054186 -295.006082 
L 126.775528 -309.999227 
L 126.496871 -324.017559 
L 126.218213 -336.681956 
L 125.939556 -347.543084 
L 125.660898 -356.102001 
L 125.382241 -361.849528 
L 125.103583 -364.32 
L 124.824925 -363.151151 
L 124.546268 -358.139698 
L 124.26761 -349.282153 
L 123.988953 -336.792717 
L 123.710295 -321.094208 
L 123.431638 -302.782975 
L 123.15298 -282.57342 
L 122.874322 -261.231167 
L 122.595665 -239.505333 
L 122.317007 -218.069629 
L 122.03835 -197.479546 
L 121.759692 -178.149281 
L 121.481035 -160.348323 
L 121.202377 -144.214432 
L 120.923719 -129.77771 
L 120.645062 -116.989819 
L 120.366404 -105.752902 
L 120.087747 -95.944228 
L 119.809089 -87.434331 
L 119.530432 -80.098192 
L 119.251774 -73.82034 
L 118.973117 -68.495548 
L 118.694459 -64.027031 
L 118.415801 -60.323834 
L 118.137144 -57.298607 
L 117.858486 -54.866423 
L 117.579829 -52.944753 
L 117.301171 -51.454394 
L 117.022514 -50.320911 
L 116.743856 -49.476187 
L 116.465198 -48.859701 
L 116.186541 -48.41932 
L 115.907883 -48.111526 
L 115.629226 -47.901106 
L 115.350568 -47.76044 
L 115.071911 -47.668505 
L 114.793253 -47.609772 
L 114.514595 -47.573102 
z
" style="stroke: #ff7f0e"/>
    </defs>
    <g clip-path="url(#p40bd61286a)">
     <use xlink:href="#m5f28d6bc80" x="0" y="432" style="fill: #ff7f0e; fill-opacity: 0.5; stroke: #ff7f0e"/>
    </g>
   </g>
   <g id="matplotlib.axis_1">
    <g id="xtick_1">
     <g id="line2d_1">
      <defs>
       <path id="mf4f133353b" d="M 0 0 
L 0 3.5 
" style="stroke: #000000; stroke-width: 0.8"/>
      </defs>
      <g>
       <use xlink:href="#mf4f133353b" x="113.401102" y="384.48" style="stroke: #000000; stroke-width: 0.8"/>
      </g>
     </g>
     <g id="text_1">
      <!-- 0.0 -->
      <g transform="translate(105.449539 399.078438) scale(0.1 -0.1)">
       <defs>
        <path id="DejaVuSans-30" d="M 2034 4250 
Q 1547 4250 1301 3770 
Q 1056 3291 1056 2328 
Q 1056 1369 1301 889 
Q 1547 409 2034 409 
Q 2525 409 2770 889 
Q 3016 1369 3016 2328 
Q 3016 3291 2770 3770 
Q 2525 4250 2034 4250 
z
M 2034 4750 
Q 2819 4750 3233 4129 
Q 3647 3509 3647 2328 
Q 3647 1150 3233 529 
Q 2819 -91 2034 -91 
Q 1250 -91 836 529 
Q 422 1150 422 2328 
Q 422 3509 836 4129 
Q 1250 4750 2034 4750 
z
" transform="scale(0.015625)"/>
        <path id="DejaVuSans-2e" d="M 684 794 
L 1344 794 
L 1344 0 
L 684 0 
L 684 794 
z
" transform="scale(0.015625)"/>
       </defs>
       <use xlink:href="#DejaVuSans-30"/>
       <use xlink:href="#DejaVuSans-2e" x="63.623047"/>
       <use xlink:href="#DejaVuSans-30" x="95.410156"/>
      </g>
     </g>
    </g>
    <g id="xtick_2">
     <g id="line2d_2">
      <g>
       <use xlink:href="#mf4f133353b" x="186.120661" y="384.48" style="stroke: #000000; stroke-width: 0.8"/>
      </g>
     </g>
     <g id="text_2">
      <!-- 0.2 -->
      <g transform="translate(178.169099 399.078438) scale(0.1 -0.1)">
       <defs>
        <path id="DejaVuSans-32" d="M 1228 531 
L 3431 531 
L 3431 0 
L 469 0 
L 469 531 
Q 828 903 1448 1529 
Q 2069 2156 2228 2338 
Q 2531 2678 2651 2914 
Q 2772 3150 2772 3378 
Q 2772 3750 2511 3984 
Q 2250 4219 1831 4219 
Q 1534 4219 1204 4116 
Q 875 4013 500 3803 
L 500 4441 
Q 881 4594 1212 4672 
Q 1544 4750 1819 4750 
Q 2544 4750 2975 4387 
Q 3406 4025 3406 3419 
Q 3406 3131 3298 2873 
Q 3191 2616 2906 2266 
Q 2828 2175 2409 1742 
Q 1991 1309 1228 531 
z
" transform="scale(0.015625)"/>
       </defs>
       <use xlink:href="#DejaVuSans-30"/>
       <use xlink:href="#DejaVuSans-2e" x="63.623047"/>
       <use xlink:href="#DejaVuSans-32" x="95.410156"/>
      </g>
     </g>
    </g>
    <g id="xtick_3">
     <g id="line2d_3">
      <g>
       <use xlink:href="#mf4f133353b" x="258.84022" y="384.48" style="stroke: #000000; stroke-width: 0.8"/>
      </g>
     </g>
     <g id="text_3">
      <!-- 0.4 -->
      <g transform="translate(250.888658 399.078438) scale(0.1 -0.1)">
       <defs>
        <path id="DejaVuSans-34" d="M 2419 4116 
L 825 1625 
L 2419 1625 
L 2419 4116 
z
M 2253 4666 
L 3047 4666 
L 3047 1625 
L 3713 1625 
L 3713 1100 
L 3047 1100 
L 3047 0 
L 2419 0 
L 2419 1100 
L 313 1100 
L 313 1709 
L 2253 4666 
z
" transform="scale(0.015625)"/>
       </defs>
       <use xlink:href="#DejaVuSans-30"/>
       <use xlink:href="#DejaVuSans-2e" x="63.623047"/>
       <use xlink:href="#DejaVuSans-34" x="95.410156"/>
      </g>
     </g>
    </g>
    <g id="xtick_4">
     <g id="line2d_4">
      <g>
       <use xlink:href="#mf4f133353b" x="331.55978" y="384.48" style="stroke: #000000; stroke-width: 0.8"/>
      </g>
     </g>
     <g id="text_4">
      <!-- 0.6 -->
      <g transform="translate(323.608217 399.078438) scale(0.1 -0.1)">
       <defs>
        <path id="DejaVuSans-36" d="M 2113 2584 
Q 1688 2584 1439 2293 
Q 1191 2003 1191 1497 
Q 1191 994 1439 701 
Q 1688 409 2113 409 
Q 2538 409 2786 701 
Q 3034 994 3034 1497 
Q 3034 2003 2786 2293 
Q 2538 2584 2113 2584 
z
M 3366 4563 
L 3366 3988 
Q 3128 4100 2886 4159 
Q 2644 4219 2406 4219 
Q 1781 4219 1451 3797 
Q 1122 3375 1075 2522 
Q 1259 2794 1537 2939 
Q 1816 3084 2150 3084 
Q 2853 3084 3261 2657 
Q 3669 2231 3669 1497 
Q 3669 778 3244 343 
Q 2819 -91 2113 -91 
Q 1303 -91 875 529 
Q 447 1150 447 2328 
Q 447 3434 972 4092 
Q 1497 4750 2381 4750 
Q 2619 4750 2861 4703 
Q 3103 4656 3366 4563 
z
" transform="scale(0.015625)"/>
       </defs>
       <use xlink:href="#DejaVuSans-30"/>
       <use xlink:href="#DejaVuSans-2e" x="63.623047"/>
       <use xlink:href="#DejaVuSans-36" x="95.410156"/>
      </g>
     </g>
    </g>
    <g id="xtick_5">
     <g id="line2d_5">
      <g>
       <use xlink:href="#mf4f133353b" x="404.279339" y="384.48" style="stroke: #000000; stroke-width: 0.8"/>
      </g>
     </g>
     <g id="text_5">
      <!-- 0.8 -->
      <g transform="translate(396.327776 399.078438) scale(0.1 -0.1)">
       <defs>
        <path id="DejaVuSans-38" d="M 2034 2216 
Q 1584 2216 1326 1975 
Q 1069 1734 1069 1313 
Q 1069 891 1326 650 
Q 1584 409 2034 409 
Q 2484 409 2743 651 
Q 3003 894 3003 1313 
Q 3003 1734 2745 1975 
Q 2488 2216 2034 2216 
z
M 1403 2484 
Q 997 2584 770 2862 
Q 544 3141 544 3541 
Q 544 4100 942 4425 
Q 1341 4750 2034 4750 
Q 2731 4750 3128 4425 
Q 3525 4100 3525 3541 
Q 3525 3141 3298 2862 
Q 3072 2584 2669 2484 
Q 3125 2378 3379 2068 
Q 3634 1759 3634 1313 
Q 3634 634 3220 271 
Q 2806 -91 2034 -91 
Q 1263 -91 848 271 
Q 434 634 434 1313 
Q 434 1759 690 2068 
Q 947 2378 1403 2484 
z
M 1172 3481 
Q 1172 3119 1398 2916 
Q 1625 2713 2034 2713 
Q 2441 2713 2670 2916 
Q 2900 3119 2900 3481 
Q 2900 3844 2670 4047 
Q 2441 4250 2034 4250 
Q 1625 4250 1398 4047 
Q 1172 3844 1172 3481 
z
" transform="scale(0.015625)"/>
       </defs>
       <use xlink:href="#DejaVuSans-30"/>
       <use xlink:href="#DejaVuSans-2e" x="63.623047"/>
       <use xlink:href="#DejaVuSans-38" x="95.410156"/>
      </g>
     </g>
    </g>
    <g id="xtick_6">
     <g id="line2d_6">
      <g>
       <use xlink:href="#mf4f133353b" x="476.998898" y="384.48" style="stroke: #000000; stroke-width: 0.8"/>
      </g>
     </g>
     <g id="text_6">
      <!-- 1.0 -->
      <g transform="translate(469.047336 399.078438) scale(0.1 -0.1)">
       <defs>
        <path id="DejaVuSans-31" d="M 794 531 
L 1825 531 
L 1825 4091 
L 703 3866 
L 703 4441 
L 1819 4666 
L 2450 4666 
L 2450 531 
L 3481 531 
L 3481 0 
L 794 0 
L 794 531 
z
" transform="scale(0.015625)"/>
       </defs>
       <use xlink:href="#DejaVuSans-31"/>
       <use xlink:href="#DejaVuSans-2e" x="63.623047"/>
       <use xlink:href="#DejaVuSans-30" x="95.410156"/>
      </g>
     </g>
    </g>
    <g id="text_7">
     <!-- UCHL1 -->
     <g transform="translate(278.321875 412.756563) scale(0.1 -0.1)">
      <defs>
       <path id="DejaVuSans-55" d="M 556 4666 
L 1191 4666 
L 1191 1831 
Q 1191 1081 1462 751 
Q 1734 422 2344 422 
Q 2950 422 3222 751 
Q 3494 1081 3494 1831 
L 3494 4666 
L 4128 4666 
L 4128 1753 
Q 4128 841 3676 375 
Q 3225 -91 2344 -91 
Q 1459 -91 1007 375 
Q 556 841 556 1753 
L 556 4666 
z
" transform="scale(0.015625)"/>
       <path id="DejaVuSans-43" d="M 4122 4306 
L 4122 3641 
Q 3803 3938 3442 4084 
Q 3081 4231 2675 4231 
Q 1875 4231 1450 3742 
Q 1025 3253 1025 2328 
Q 1025 1406 1450 917 
Q 1875 428 2675 428 
Q 3081 428 3442 575 
Q 3803 722 4122 1019 
L 4122 359 
Q 3791 134 3420 21 
Q 3050 -91 2638 -91 
Q 1578 -91 968 557 
Q 359 1206 359 2328 
Q 359 3453 968 4101 
Q 1578 4750 2638 4750 
Q 3056 4750 3426 4639 
Q 3797 4528 4122 4306 
z
" transform="scale(0.015625)"/>
       <path id="DejaVuSans-48" d="M 628 4666 
L 1259 4666 
L 1259 2753 
L 3553 2753 
L 3553 4666 
L 4184 4666 
L 4184 0 
L 3553 0 
L 3553 2222 
L 1259 2222 
L 1259 0 
L 628 0 
L 628 4666 
z
" transform="scale(0.015625)"/>
       <path id="DejaVuSans-4c" d="M 628 4666 
L 1259 4666 
L 1259 531 
L 3531 531 
L 3531 0 
L 628 0 
L 628 4666 
z
" transform="scale(0.015625)"/>
      </defs>
      <use xlink:href="#DejaVuSans-55"/>
      <use xlink:href="#DejaVuSans-43" x="73.193359"/>
      <use xlink:href="#DejaVuSans-48" x="143.017578"/>
      <use xlink:href="#DejaVuSans-4c" x="218.212891"/>
      <use xlink:href="#DejaVuSans-31" x="273.925781"/>
     </g>
    </g>
   </g>
   <g id="matplotlib.axis_2">
    <g id="ytick_1">
     <g id="line2d_7">
      <defs>
       <path id="m639db810ff" d="M 0 0 
L -3.5 0 
" style="stroke: #000000; stroke-width: 0.8"/>
      </defs>
      <g>
       <use xlink:href="#m639db810ff" x="72" y="384.48" style="stroke: #000000; stroke-width: 0.8"/>
      </g>
     </g>
     <g id="text_8">
      <!-- 0 -->
      <g transform="translate(58.6375 388.279219) scale(0.1 -0.1)">
       <use xlink:href="#DejaVuSans-30"/>
      </g>
     </g>
    </g>
    <g id="ytick_2">
     <g id="line2d_8">
      <g>
       <use xlink:href="#m639db810ff" x="72" y="312.453023" style="stroke: #000000; stroke-width: 0.8"/>
      </g>
     </g>
     <g id="text_9">
      <!-- 10 -->
      <g transform="translate(52.275 316.252242) scale(0.1 -0.1)">
       <use xlink:href="#DejaVuSans-31"/>
       <use xlink:href="#DejaVuSans-30" x="63.623047"/>
      </g>
     </g>
    </g>
    <g id="ytick_3">
     <g id="line2d_9">
      <g>
       <use xlink:href="#m639db810ff" x="72" y="240.426046" style="stroke: #000000; stroke-width: 0.8"/>
      </g>
     </g>
     <g id="text_10">
      <!-- 20 -->
      <g transform="translate(52.275 244.225265) scale(0.1 -0.1)">
       <use xlink:href="#DejaVuSans-32"/>
       <use xlink:href="#DejaVuSans-30" x="63.623047"/>
      </g>
     </g>
    </g>
    <g id="ytick_4">
     <g id="line2d_10">
      <g>
       <use xlink:href="#m639db810ff" x="72" y="168.39907" style="stroke: #000000; stroke-width: 0.8"/>
      </g>
     </g>
     <g id="text_11">
      <!-- 30 -->
      <g transform="translate(52.275 172.198288) scale(0.1 -0.1)">
       <defs>
        <path id="DejaVuSans-33" d="M 2597 2516 
Q 3050 2419 3304 2112 
Q 3559 1806 3559 1356 
Q 3559 666 3084 287 
Q 2609 -91 1734 -91 
Q 1441 -91 1130 -33 
Q 819 25 488 141 
L 488 750 
Q 750 597 1062 519 
Q 1375 441 1716 441 
Q 2309 441 2620 675 
Q 2931 909 2931 1356 
Q 2931 1769 2642 2001 
Q 2353 2234 1838 2234 
L 1294 2234 
L 1294 2753 
L 1863 2753 
Q 2328 2753 2575 2939 
Q 2822 3125 2822 3475 
Q 2822 3834 2567 4026 
Q 2313 4219 1838 4219 
Q 1578 4219 1281 4162 
Q 984 4106 628 3988 
L 628 4550 
Q 988 4650 1302 4700 
Q 1616 4750 1894 4750 
Q 2613 4750 3031 4423 
Q 3450 4097 3450 3541 
Q 3450 3153 3228 2886 
Q 3006 2619 2597 2516 
z
" transform="scale(0.015625)"/>
       </defs>
       <use xlink:href="#DejaVuSans-33"/>
       <use xlink:href="#DejaVuSans-30" x="63.623047"/>
      </g>
     </g>
    </g>
    <g id="ytick_5">
     <g id="line2d_11">
      <g>
       <use xlink:href="#m639db810ff" x="72" y="96.372093" style="stroke: #000000; stroke-width: 0.8"/>
      </g>
     </g>
     <g id="text_12">
      <!-- 40 -->
      <g transform="translate(52.275 100.171312) scale(0.1 -0.1)">
       <use xlink:href="#DejaVuSans-34"/>
       <use xlink:href="#DejaVuSans-30" x="63.623047"/>
      </g>
     </g>
    </g>
    <g id="text_13">
     <!-- Density -->
     <g transform="translate(46.195312 237.168594) rotate(-90) scale(0.1 -0.1)">
      <defs>
       <path id="DejaVuSans-44" d="M 1259 4147 
L 1259 519 
L 2022 519 
Q 2988 519 3436 956 
Q 3884 1394 3884 2338 
Q 3884 3275 3436 3711 
Q 2988 4147 2022 4147 
L 1259 4147 
z
M 628 4666 
L 1925 4666 
Q 3281 4666 3915 4102 
Q 4550 3538 4550 2338 
Q 4550 1131 3912 565 
Q 3275 0 1925 0 
L 628 0 
L 628 4666 
z
" transform="scale(0.015625)"/>
       <path id="DejaVuSans-65" d="M 3597 1894 
L 3597 1613 
L 953 1613 
Q 991 1019 1311 708 
Q 1631 397 2203 397 
Q 2534 397 2845 478 
Q 3156 559 3463 722 
L 3463 178 
Q 3153 47 2828 -22 
Q 2503 -91 2169 -91 
Q 1331 -91 842 396 
Q 353 884 353 1716 
Q 353 2575 817 3079 
Q 1281 3584 2069 3584 
Q 2775 3584 3186 3129 
Q 3597 2675 3597 1894 
z
M 3022 2063 
Q 3016 2534 2758 2815 
Q 2500 3097 2075 3097 
Q 1594 3097 1305 2825 
Q 1016 2553 972 2059 
L 3022 2063 
z
" transform="scale(0.015625)"/>
       <path id="DejaVuSans-6e" d="M 3513 2113 
L 3513 0 
L 2938 0 
L 2938 2094 
Q 2938 2591 2744 2837 
Q 2550 3084 2163 3084 
Q 1697 3084 1428 2787 
Q 1159 2491 1159 1978 
L 1159 0 
L 581 0 
L 581 3500 
L 1159 3500 
L 1159 2956 
Q 1366 3272 1645 3428 
Q 1925 3584 2291 3584 
Q 2894 3584 3203 3211 
Q 3513 2838 3513 2113 
z
" transform="scale(0.015625)"/>
       <path id="DejaVuSans-73" d="M 2834 3397 
L 2834 2853 
Q 2591 2978 2328 3040 
Q 2066 3103 1784 3103 
Q 1356 3103 1142 2972 
Q 928 2841 928 2578 
Q 928 2378 1081 2264 
Q 1234 2150 1697 2047 
L 1894 2003 
Q 2506 1872 2764 1633 
Q 3022 1394 3022 966 
Q 3022 478 2636 193 
Q 2250 -91 1575 -91 
Q 1294 -91 989 -36 
Q 684 19 347 128 
L 347 722 
Q 666 556 975 473 
Q 1284 391 1588 391 
Q 1994 391 2212 530 
Q 2431 669 2431 922 
Q 2431 1156 2273 1281 
Q 2116 1406 1581 1522 
L 1381 1569 
Q 847 1681 609 1914 
Q 372 2147 372 2553 
Q 372 3047 722 3315 
Q 1072 3584 1716 3584 
Q 2034 3584 2315 3537 
Q 2597 3491 2834 3397 
z
" transform="scale(0.015625)"/>
       <path id="DejaVuSans-69" d="M 603 3500 
L 1178 3500 
L 1178 0 
L 603 0 
L 603 3500 
z
M 603 4863 
L 1178 4863 
L 1178 4134 
L 603 4134 
L 603 4863 
z
" transform="scale(0.015625)"/>
       <path id="DejaVuSans-74" d="M 1172 4494 
L 1172 3500 
L 2356 3500 
L 2356 3053 
L 1172 3053 
L 1172 1153 
Q 1172 725 1289 603 
Q 1406 481 1766 481 
L 2356 481 
L 2356 0 
L 1766 0 
Q 1100 0 847 248 
Q 594 497 594 1153 
L 594 3053 
L 172 3053 
L 172 3500 
L 594 3500 
L 594 4494 
L 1172 4494 
z
" transform="scale(0.015625)"/>
       <path id="DejaVuSans-79" d="M 2059 -325 
Q 1816 -950 1584 -1140 
Q 1353 -1331 966 -1331 
L 506 -1331 
L 506 -850 
L 844 -850 
Q 1081 -850 1212 -737 
Q 1344 -625 1503 -206 
L 1606 56 
L 191 3500 
L 800 3500 
L 1894 763 
L 2988 3500 
L 3597 3500 
L 2059 -325 
z
" transform="scale(0.015625)"/>
      </defs>
      <use xlink:href="#DejaVuSans-44"/>
      <use xlink:href="#DejaVuSans-65" x="77.001953"/>
      <use xlink:href="#DejaVuSans-6e" x="138.525391"/>
      <use xlink:href="#DejaVuSans-73" x="201.904297"/>
      <use xlink:href="#DejaVuSans-69" x="254.003906"/>
      <use xlink:href="#DejaVuSans-74" x="281.787109"/>
      <use xlink:href="#DejaVuSans-79" x="320.996094"/>
     </g>
    </g>
   </g>
   <g id="patch_3">
    <path d="M 72 384.48 
L 72 51.84 
" style="fill: none; stroke: #000000; stroke-width: 0.8; stroke-linejoin: miter; stroke-linecap: square"/>
   </g>
   <g id="patch_4">
    <path d="M 518.4 384.48 
L 518.4 51.84 
" style="fill: none; stroke: #000000; stroke-width: 0.8; stroke-linejoin: miter; stroke-linecap: square"/>
   </g>
   <g id="patch_5">
    <path d="M 72 384.48 
L 518.4 384.48 
" style="fill: none; stroke: #000000; stroke-width: 0.8; stroke-linejoin: miter; stroke-linecap: square"/>
   </g>
   <g id="patch_6">
    <path d="M 72 51.84 
L 518.4 51.84 
" style="fill: none; stroke: #000000; stroke-width: 0.8; stroke-linejoin: miter; stroke-linecap: square"/>
   </g>
   <g id="text_14">
    <!-- KDE Plot of UCHL1 (Real vs Synthetic) -->
    <g transform="translate(181.446562 45.84) scale(0.12 -0.12)">
     <defs>
      <path id="DejaVuSans-4b" d="M 628 4666 
L 1259 4666 
L 1259 2694 
L 3353 4666 
L 4166 4666 
L 1850 2491 
L 4331 0 
L 3500 0 
L 1259 2247 
L 1259 0 
L 628 0 
L 628 4666 
z
" transform="scale(0.015625)"/>
      <path id="DejaVuSans-45" d="M 628 4666 
L 3578 4666 
L 3578 4134 
L 1259 4134 
L 1259 2753 
L 3481 2753 
L 3481 2222 
L 1259 2222 
L 1259 531 
L 3634 531 
L 3634 0 
L 628 0 
L 628 4666 
z
" transform="scale(0.015625)"/>
      <path id="DejaVuSans-20" transform="scale(0.015625)"/>
      <path id="DejaVuSans-50" d="M 1259 4147 
L 1259 2394 
L 2053 2394 
Q 2494 2394 2734 2622 
Q 2975 2850 2975 3272 
Q 2975 3691 2734 3919 
Q 2494 4147 2053 4147 
L 1259 4147 
z
M 628 4666 
L 2053 4666 
Q 2838 4666 3239 4311 
Q 3641 3956 3641 3272 
Q 3641 2581 3239 2228 
Q 2838 1875 2053 1875 
L 1259 1875 
L 1259 0 
L 628 0 
L 628 4666 
z
" transform="scale(0.015625)"/>
      <path id="DejaVuSans-6c" d="M 603 4863 
L 1178 4863 
L 1178 0 
L 603 0 
L 603 4863 
z
" transform="scale(0.015625)"/>
      <path id="DejaVuSans-6f" d="M 1959 3097 
Q 1497 3097 1228 2736 
Q 959 2375 959 1747 
Q 959 1119 1226 758 
Q 1494 397 1959 397 
Q 2419 397 2687 759 
Q 2956 1122 2956 1747 
Q 2956 2369 2687 2733 
Q 2419 3097 1959 3097 
z
M 1959 3584 
Q 2709 3584 3137 3096 
Q 3566 2609 3566 1747 
Q 3566 888 3137 398 
Q 2709 -91 1959 -91 
Q 1206 -91 779 398 
Q 353 888 353 1747 
Q 353 2609 779 3096 
Q 1206 3584 1959 3584 
z
" transform="scale(0.015625)"/>
      <path id="DejaVuSans-66" d="M 2375 4863 
L 2375 4384 
L 1825 4384 
Q 1516 4384 1395 4259 
Q 1275 4134 1275 3809 
L 1275 3500 
L 2222 3500 
L 2222 3053 
L 1275 3053 
L 1275 0 
L 697 0 
L 697 3053 
L 147 3053 
L 147 3500 
L 697 3500 
L 697 3744 
Q 697 4328 969 4595 
Q 1241 4863 1831 4863 
L 2375 4863 
z
" transform="scale(0.015625)"/>
      <path id="DejaVuSans-28" d="M 1984 4856 
Q 1566 4138 1362 3434 
Q 1159 2731 1159 2009 
Q 1159 1288 1364 580 
Q 1569 -128 1984 -844 
L 1484 -844 
Q 1016 -109 783 600 
Q 550 1309 550 2009 
Q 550 2706 781 3412 
Q 1013 4119 1484 4856 
L 1984 4856 
z
" transform="scale(0.015625)"/>
      <path id="DejaVuSans-52" d="M 2841 2188 
Q 3044 2119 3236 1894 
Q 3428 1669 3622 1275 
L 4263 0 
L 3584 0 
L 2988 1197 
Q 2756 1666 2539 1819 
Q 2322 1972 1947 1972 
L 1259 1972 
L 1259 0 
L 628 0 
L 628 4666 
L 2053 4666 
Q 2853 4666 3247 4331 
Q 3641 3997 3641 3322 
Q 3641 2881 3436 2590 
Q 3231 2300 2841 2188 
z
M 1259 4147 
L 1259 2491 
L 2053 2491 
Q 2509 2491 2742 2702 
Q 2975 2913 2975 3322 
Q 2975 3731 2742 3939 
Q 2509 4147 2053 4147 
L 1259 4147 
z
" transform="scale(0.015625)"/>
      <path id="DejaVuSans-61" d="M 2194 1759 
Q 1497 1759 1228 1600 
Q 959 1441 959 1056 
Q 959 750 1161 570 
Q 1363 391 1709 391 
Q 2188 391 2477 730 
Q 2766 1069 2766 1631 
L 2766 1759 
L 2194 1759 
z
M 3341 1997 
L 3341 0 
L 2766 0 
L 2766 531 
Q 2569 213 2275 61 
Q 1981 -91 1556 -91 
Q 1019 -91 701 211 
Q 384 513 384 1019 
Q 384 1609 779 1909 
Q 1175 2209 1959 2209 
L 2766 2209 
L 2766 2266 
Q 2766 2663 2505 2880 
Q 2244 3097 1772 3097 
Q 1472 3097 1187 3025 
Q 903 2953 641 2809 
L 641 3341 
Q 956 3463 1253 3523 
Q 1550 3584 1831 3584 
Q 2591 3584 2966 3190 
Q 3341 2797 3341 1997 
z
" transform="scale(0.015625)"/>
      <path id="DejaVuSans-76" d="M 191 3500 
L 800 3500 
L 1894 563 
L 2988 3500 
L 3597 3500 
L 2284 0 
L 1503 0 
L 191 3500 
z
" transform="scale(0.015625)"/>
      <path id="DejaVuSans-53" d="M 3425 4513 
L 3425 3897 
Q 3066 4069 2747 4153 
Q 2428 4238 2131 4238 
Q 1616 4238 1336 4038 
Q 1056 3838 1056 3469 
Q 1056 3159 1242 3001 
Q 1428 2844 1947 2747 
L 2328 2669 
Q 3034 2534 3370 2195 
Q 3706 1856 3706 1288 
Q 3706 609 3251 259 
Q 2797 -91 1919 -91 
Q 1588 -91 1214 -16 
Q 841 59 441 206 
L 441 856 
Q 825 641 1194 531 
Q 1563 422 1919 422 
Q 2459 422 2753 634 
Q 3047 847 3047 1241 
Q 3047 1584 2836 1778 
Q 2625 1972 2144 2069 
L 1759 2144 
Q 1053 2284 737 2584 
Q 422 2884 422 3419 
Q 422 4038 858 4394 
Q 1294 4750 2059 4750 
Q 2388 4750 2728 4690 
Q 3069 4631 3425 4513 
z
" transform="scale(0.015625)"/>
      <path id="DejaVuSans-68" d="M 3513 2113 
L 3513 0 
L 2938 0 
L 2938 2094 
Q 2938 2591 2744 2837 
Q 2550 3084 2163 3084 
Q 1697 3084 1428 2787 
Q 1159 2491 1159 1978 
L 1159 0 
L 581 0 
L 581 4863 
L 1159 4863 
L 1159 2956 
Q 1366 3272 1645 3428 
Q 1925 3584 2291 3584 
Q 2894 3584 3203 3211 
Q 3513 2838 3513 2113 
z
" transform="scale(0.015625)"/>
      <path id="DejaVuSans-63" d="M 3122 3366 
L 3122 2828 
Q 2878 2963 2633 3030 
Q 2388 3097 2138 3097 
Q 1578 3097 1268 2742 
Q 959 2388 959 1747 
Q 959 1106 1268 751 
Q 1578 397 2138 397 
Q 2388 397 2633 464 
Q 2878 531 3122 666 
L 3122 134 
Q 2881 22 2623 -34 
Q 2366 -91 2075 -91 
Q 1284 -91 818 406 
Q 353 903 353 1747 
Q 353 2603 823 3093 
Q 1294 3584 2113 3584 
Q 2378 3584 2631 3529 
Q 2884 3475 3122 3366 
z
" transform="scale(0.015625)"/>
      <path id="DejaVuSans-29" d="M 513 4856 
L 1013 4856 
Q 1481 4119 1714 3412 
Q 1947 2706 1947 2009 
Q 1947 1309 1714 600 
Q 1481 -109 1013 -844 
L 513 -844 
Q 928 -128 1133 580 
Q 1338 1288 1338 2009 
Q 1338 2731 1133 3434 
Q 928 4138 513 4856 
z
" transform="scale(0.015625)"/>
     </defs>
     <use xlink:href="#DejaVuSans-4b"/>
     <use xlink:href="#DejaVuSans-44" x="65.576172"/>
     <use xlink:href="#DejaVuSans-45" x="142.578125"/>
     <use xlink:href="#DejaVuSans-20" x="205.761719"/>
     <use xlink:href="#DejaVuSans-50" x="237.548828"/>
     <use xlink:href="#DejaVuSans-6c" x="297.851562"/>
     <use xlink:href="#DejaVuSans-6f" x="325.634766"/>
     <use xlink:href="#DejaVuSans-74" x="386.816406"/>
     <use xlink:href="#DejaVuSans-20" x="426.025391"/>
     <use xlink:href="#DejaVuSans-6f" x="457.8125"/>
     <use xlink:href="#DejaVuSans-66" x="518.994141"/>
     <use xlink:href="#DejaVuSans-20" x="554.199219"/>
     <use xlink:href="#DejaVuSans-55" x="585.986328"/>
     <use xlink:href="#DejaVuSans-43" x="659.179688"/>
     <use xlink:href="#DejaVuSans-48" x="729.003906"/>
     <use xlink:href="#DejaVuSans-4c" x="804.199219"/>
     <use xlink:href="#DejaVuSans-31" x="859.912109"/>
     <use xlink:href="#DejaVuSans-20" x="923.535156"/>
     <use xlink:href="#DejaVuSans-28" x="955.322266"/>
     <use xlink:href="#DejaVuSans-52" x="994.335938"/>
     <use xlink:href="#DejaVuSans-65" x="1059.318359"/>
     <use xlink:href="#DejaVuSans-61" x="1120.841797"/>
     <use xlink:href="#DejaVuSans-6c" x="1182.121094"/>
     <use xlink:href="#DejaVuSans-20" x="1209.904297"/>
     <use xlink:href="#DejaVuSans-76" x="1241.691406"/>
     <use xlink:href="#DejaVuSans-73" x="1300.871094"/>
     <use xlink:href="#DejaVuSans-20" x="1352.970703"/>
     <use xlink:href="#DejaVuSans-53" x="1384.757812"/>
     <use xlink:href="#DejaVuSans-79" x="1448.234375"/>
     <use xlink:href="#DejaVuSans-6e" x="1507.414062"/>
     <use xlink:href="#DejaVuSans-74" x="1570.792969"/>
     <use xlink:href="#DejaVuSans-68" x="1610.001953"/>
     <use xlink:href="#DejaVuSans-65" x="1673.380859"/>
     <use xlink:href="#DejaVuSans-74" x="1734.904297"/>
     <use xlink:href="#DejaVuSans-69" x="1774.113281"/>
     <use xlink:href="#DejaVuSans-63" x="1801.896484"/>
     <use xlink:href="#DejaVuSans-29" x="1856.876953"/>
    </g>
   </g>
   <g id="legend_1">
    <g id="patch_7">
     <path d="M 405.132812 89.19625 
L 511.4 89.19625 
Q 513.4 89.19625 513.4 87.19625 
L 513.4 58.84 
Q 513.4 56.84 511.4 56.84 
L 405.132812 56.84 
Q 403.132812 56.84 403.132812 58.84 
L 403.132812 87.19625 
Q 403.132812 89.19625 405.132812 89.19625 
z
" style="fill: #ffffff; opacity: 0.8; stroke: #cccccc; stroke-linejoin: miter"/>
    </g>
    <g id="patch_8">
     <path d="M 407.132812 68.438437 
L 427.132812 68.438437 
L 427.132812 61.438437 
L 407.132812 61.438437 
z
" style="fill: #1f77b4; fill-opacity: 0.5; stroke: #1f77b4; stroke-linejoin: miter"/>
    </g>
    <g id="text_15">
     <!-- Real Data -->
     <g transform="translate(435.132812 68.438437) scale(0.1 -0.1)">
      <use xlink:href="#DejaVuSans-52"/>
      <use xlink:href="#DejaVuSans-65" x="64.982422"/>
      <use xlink:href="#DejaVuSans-61" x="126.505859"/>
      <use xlink:href="#DejaVuSans-6c" x="187.785156"/>
      <use xlink:href="#DejaVuSans-20" x="215.568359"/>
      <use xlink:href="#DejaVuSans-44" x="247.355469"/>
      <use xlink:href="#DejaVuSans-61" x="324.357422"/>
      <use xlink:href="#DejaVuSans-74" x="385.636719"/>
      <use xlink:href="#DejaVuSans-61" x="424.845703"/>
     </g>
    </g>
    <g id="patch_9">
     <path d="M 407.132812 83.116562 
L 427.132812 83.116562 
L 427.132812 76.116562 
L 407.132812 76.116562 
z
" style="fill: #ff7f0e; fill-opacity: 0.5; stroke: #ff7f0e; stroke-linejoin: miter"/>
    </g>
    <g id="text_16">
     <!-- Synthetic Data -->
     <g transform="translate(435.132812 83.116562) scale(0.1 -0.1)">
      <use xlink:href="#DejaVuSans-53"/>
      <use xlink:href="#DejaVuSans-79" x="63.476562"/>
      <use xlink:href="#DejaVuSans-6e" x="122.65625"/>
      <use xlink:href="#DejaVuSans-74" x="186.035156"/>
      <use xlink:href="#DejaVuSans-68" x="225.244141"/>
      <use xlink:href="#DejaVuSans-65" x="288.623047"/>
      <use xlink:href="#DejaVuSans-74" x="350.146484"/>
      <use xlink:href="#DejaVuSans-69" x="389.355469"/>
      <use xlink:href="#DejaVuSans-63" x="417.138672"/>
      <use xlink:href="#DejaVuSans-20" x="472.119141"/>
      <use xlink:href="#DejaVuSans-44" x="503.90625"/>
      <use xlink:href="#DejaVuSans-61" x="580.908203"/>
      <use xlink:href="#DejaVuSans-74" x="642.1875"/>
      <use xlink:href="#DejaVuSans-61" x="681.396484"/>
     </g>
    </g>
   </g>
  </g>
 </g>
 <defs>
  <clipPath id="p40bd61286a">
   <rect x="72" y="51.84" width="446.4" height="332.64"/>
  </clipPath>
 </defs>
</svg>
