<?xml version="1.0" encoding="utf-8" standalone="no"?>
<!DOCTYPE svg PUBLIC "-//W3C//DTD SVG 1.1//EN"
  "http://www.w3.org/Graphics/SVG/1.1/DTD/svg11.dtd">
<svg xmlns:xlink="http://www.w3.org/1999/xlink" width="1008pt" height="288pt" viewBox="0 0 1008 288" xmlns="http://www.w3.org/2000/svg" version="1.1">
 <metadata>
  <rdf:RDF xmlns:dc="http://purl.org/dc/elements/1.1/" xmlns:cc="http://creativecommons.org/ns#" xmlns:rdf="http://www.w3.org/1999/02/22-rdf-syntax-ns#">
   <cc:Work>
    <dc:type rdf:resource="http://purl.org/dc/dcmitype/StillImage"/>
    <dc:date>2024-11-23T05:45:42.424872</dc:date>
    <dc:format>image/svg+xml</dc:format>
    <dc:creator>
     <cc:Agent>
      <dc:title>Matplotlib v3.7.5, https://matplotlib.org/</dc:title>
     </cc:Agent>
    </dc:creator>
   </cc:Work>
  </rdf:RDF>
 </metadata>
 <defs>
  <style type="text/css">*{stroke-linejoin: round; stroke-linecap: butt}</style>
 </defs>
 <g id="figure_1">
  <g id="patch_1">
   <path d="M 0 288 
L 1008 288 
L 1008 0 
L 0 0 
z
" style="fill: #ffffff"/>
  </g>
  <g id="axes_1">
   <g id="patch_2">
    <path d="M 54.02 246.04 
L 489.105 246.04 
L 489.105 43.2 
L 54.02 43.2 
z
" style="fill: #ffffff"/>
   </g>
   <g id="matplotlib.axis_1">
    <g id="xtick_1">
     <g id="text_1">
      <!-- 0 -->
      <g style="fill: #262626" transform="translate(50.83875 260.638438) scale(0.1 -0.1)">
       <defs>
        <path id="DejaVuSans-30" d="M 2034 4250 
Q 1547 4250 1301 3770 
Q 1056 3291 1056 2328 
Q 1056 1369 1301 889 
Q 1547 409 2034 409 
Q 2525 409 2770 889 
Q 3016 1369 3016 2328 
Q 3016 3291 2770 3770 
Q 2525 4250 2034 4250 
z
M 2034 4750 
Q 2819 4750 3233 4129 
Q 3647 3509 3647 2328 
Q 3647 1150 3233 529 
Q 2819 -91 2034 -91 
Q 1250 -91 836 529 
Q 422 1150 422 2328 
Q 422 3509 836 4129 
Q 1250 4750 2034 4750 
z
" transform="scale(0.015625)"/>
       </defs>
       <use xlink:href="#DejaVuSans-30"/>
      </g>
     </g>
    </g>
    <g id="xtick_2">
     <g id="text_2">
      <!-- 20 -->
      <g style="fill: #262626" transform="translate(134.6745 260.638438) scale(0.1 -0.1)">
       <defs>
        <path id="DejaVuSans-32" d="M 1228 531 
L 3431 531 
L 3431 0 
L 469 0 
L 469 531 
Q 828 903 1448 1529 
Q 2069 2156 2228 2338 
Q 2531 2678 2651 2914 
Q 2772 3150 2772 3378 
Q 2772 3750 2511 3984 
Q 2250 4219 1831 4219 
Q 1534 4219 1204 4116 
Q 875 4013 500 3803 
L 500 4441 
Q 881 4594 1212 4672 
Q 1544 4750 1819 4750 
Q 2544 4750 2975 4387 
Q 3406 4025 3406 3419 
Q 3406 3131 3298 2873 
Q 3191 2616 2906 2266 
Q 2828 2175 2409 1742 
Q 1991 1309 1228 531 
z
" transform="scale(0.015625)"/>
       </defs>
       <use xlink:href="#DejaVuSans-32"/>
       <use xlink:href="#DejaVuSans-30" x="63.623047"/>
      </g>
     </g>
    </g>
    <g id="xtick_3">
     <g id="text_3">
      <!-- 40 -->
      <g style="fill: #262626" transform="translate(221.6915 260.638438) scale(0.1 -0.1)">
       <defs>
        <path id="DejaVuSans-34" d="M 2419 4116 
L 825 1625 
L 2419 1625 
L 2419 4116 
z
M 2253 4666 
L 3047 4666 
L 3047 1625 
L 3713 1625 
L 3713 1100 
L 3047 1100 
L 3047 0 
L 2419 0 
L 2419 1100 
L 313 1100 
L 313 1709 
L 2253 4666 
z
" transform="scale(0.015625)"/>
       </defs>
       <use xlink:href="#DejaVuSans-34"/>
       <use xlink:href="#DejaVuSans-30" x="63.623047"/>
      </g>
     </g>
    </g>
    <g id="xtick_4">
     <g id="text_4">
      <!-- 60 -->
      <g style="fill: #262626" transform="translate(308.7085 260.638438) scale(0.1 -0.1)">
       <defs>
        <path id="DejaVuSans-36" d="M 2113 2584 
Q 1688 2584 1439 2293 
Q 1191 2003 1191 1497 
Q 1191 994 1439 701 
Q 1688 409 2113 409 
Q 2538 409 2786 701 
Q 3034 994 3034 1497 
Q 3034 2003 2786 2293 
Q 2538 2584 2113 2584 
z
M 3366 4563 
L 3366 3988 
Q 3128 4100 2886 4159 
Q 2644 4219 2406 4219 
Q 1781 4219 1451 3797 
Q 1122 3375 1075 2522 
Q 1259 2794 1537 2939 
Q 1816 3084 2150 3084 
Q 2853 3084 3261 2657 
Q 3669 2231 3669 1497 
Q 3669 778 3244 343 
Q 2819 -91 2113 -91 
Q 1303 -91 875 529 
Q 447 1150 447 2328 
Q 447 3434 972 4092 
Q 1497 4750 2381 4750 
Q 2619 4750 2861 4703 
Q 3103 4656 3366 4563 
z
" transform="scale(0.015625)"/>
       </defs>
       <use xlink:href="#DejaVuSans-36"/>
       <use xlink:href="#DejaVuSans-30" x="63.623047"/>
      </g>
     </g>
    </g>
    <g id="xtick_5">
     <g id="text_5">
      <!-- 80 -->
      <g style="fill: #262626" transform="translate(395.7255 260.638438) scale(0.1 -0.1)">
       <defs>
        <path id="DejaVuSans-38" d="M 2034 2216 
Q 1584 2216 1326 1975 
Q 1069 1734 1069 1313 
Q 1069 891 1326 650 
Q 1584 409 2034 409 
Q 2484 409 2743 651 
Q 3003 894 3003 1313 
Q 3003 1734 2745 1975 
Q 2488 2216 2034 2216 
z
M 1403 2484 
Q 997 2584 770 2862 
Q 544 3141 544 3541 
Q 544 4100 942 4425 
Q 1341 4750 2034 4750 
Q 2731 4750 3128 4425 
Q 3525 4100 3525 3541 
Q 3525 3141 3298 2862 
Q 3072 2584 2669 2484 
Q 3125 2378 3379 2068 
Q 3634 1759 3634 1313 
Q 3634 634 3220 271 
Q 2806 -91 2034 -91 
Q 1263 -91 848 271 
Q 434 634 434 1313 
Q 434 1759 690 2068 
Q 947 2378 1403 2484 
z
M 1172 3481 
Q 1172 3119 1398 2916 
Q 1625 2713 2034 2713 
Q 2441 2713 2670 2916 
Q 2900 3119 2900 3481 
Q 2900 3844 2670 4047 
Q 2441 4250 2034 4250 
Q 1625 4250 1398 4047 
Q 1172 3844 1172 3481 
z
" transform="scale(0.015625)"/>
       </defs>
       <use xlink:href="#DejaVuSans-38"/>
       <use xlink:href="#DejaVuSans-30" x="63.623047"/>
      </g>
     </g>
    </g>
    <g id="xtick_6">
     <g id="text_6">
      <!-- 100 -->
      <g style="fill: #262626" transform="translate(479.56125 260.638438) scale(0.1 -0.1)">
       <defs>
        <path id="DejaVuSans-31" d="M 794 531 
L 1825 531 
L 1825 4091 
L 703 3866 
L 703 4441 
L 1819 4666 
L 2450 4666 
L 2450 531 
L 3481 531 
L 3481 0 
L 794 0 
L 794 531 
z
" transform="scale(0.015625)"/>
       </defs>
       <use xlink:href="#DejaVuSans-31"/>
       <use xlink:href="#DejaVuSans-30" x="63.623047"/>
       <use xlink:href="#DejaVuSans-30" x="127.246094"/>
      </g>
     </g>
    </g>
    <g id="text_7">
     <!-- Epoch -->
     <g style="fill: #262626" transform="translate(256.251562 274.316562) scale(0.1 -0.1)">
      <defs>
       <path id="DejaVuSans-45" d="M 628 4666 
L 3578 4666 
L 3578 4134 
L 1259 4134 
L 1259 2753 
L 3481 2753 
L 3481 2222 
L 1259 2222 
L 1259 531 
L 3634 531 
L 3634 0 
L 628 0 
L 628 4666 
z
" transform="scale(0.015625)"/>
       <path id="DejaVuSans-70" d="M 1159 525 
L 1159 -1331 
L 581 -1331 
L 581 3500 
L 1159 3500 
L 1159 2969 
Q 1341 3281 1617 3432 
Q 1894 3584 2278 3584 
Q 2916 3584 3314 3078 
Q 3713 2572 3713 1747 
Q 3713 922 3314 415 
Q 2916 -91 2278 -91 
Q 1894 -91 1617 61 
Q 1341 213 1159 525 
z
M 3116 1747 
Q 3116 2381 2855 2742 
Q 2594 3103 2138 3103 
Q 1681 3103 1420 2742 
Q 1159 2381 1159 1747 
Q 1159 1113 1420 752 
Q 1681 391 2138 391 
Q 2594 391 2855 752 
Q 3116 1113 3116 1747 
z
" transform="scale(0.015625)"/>
       <path id="DejaVuSans-6f" d="M 1959 3097 
Q 1497 3097 1228 2736 
Q 959 2375 959 1747 
Q 959 1119 1226 758 
Q 1494 397 1959 397 
Q 2419 397 2687 759 
Q 2956 1122 2956 1747 
Q 2956 2369 2687 2733 
Q 2419 3097 1959 3097 
z
M 1959 3584 
Q 2709 3584 3137 3096 
Q 3566 2609 3566 1747 
Q 3566 888 3137 398 
Q 2709 -91 1959 -91 
Q 1206 -91 779 398 
Q 353 888 353 1747 
Q 353 2609 779 3096 
Q 1206 3584 1959 3584 
z
" transform="scale(0.015625)"/>
       <path id="DejaVuSans-63" d="M 3122 3366 
L 3122 2828 
Q 2878 2963 2633 3030 
Q 2388 3097 2138 3097 
Q 1578 3097 1268 2742 
Q 959 2388 959 1747 
Q 959 1106 1268 751 
Q 1578 397 2138 397 
Q 2388 397 2633 464 
Q 2878 531 3122 666 
L 3122 134 
Q 2881 22 2623 -34 
Q 2366 -91 2075 -91 
Q 1284 -91 818 406 
Q 353 903 353 1747 
Q 353 2603 823 3093 
Q 1294 3584 2113 3584 
Q 2378 3584 2631 3529 
Q 2884 3475 3122 3366 
z
" transform="scale(0.015625)"/>
       <path id="DejaVuSans-68" d="M 3513 2113 
L 3513 0 
L 2938 0 
L 2938 2094 
Q 2938 2591 2744 2837 
Q 2550 3084 2163 3084 
Q 1697 3084 1428 2787 
Q 1159 2491 1159 1978 
L 1159 0 
L 581 0 
L 581 4863 
L 1159 4863 
L 1159 2956 
Q 1366 3272 1645 3428 
Q 1925 3584 2291 3584 
Q 2894 3584 3203 3211 
Q 3513 2838 3513 2113 
z
" transform="scale(0.015625)"/>
      </defs>
      <use xlink:href="#DejaVuSans-45"/>
      <use xlink:href="#DejaVuSans-70" x="63.183594"/>
      <use xlink:href="#DejaVuSans-6f" x="126.660156"/>
      <use xlink:href="#DejaVuSans-63" x="187.841797"/>
      <use xlink:href="#DejaVuSans-68" x="242.822266"/>
     </g>
    </g>
   </g>
   <g id="matplotlib.axis_2">
    <g id="ytick_1">
     <g id="text_8">
      <!-- 50% -->
      <g style="fill: #262626" transform="translate(24.793438 225.202174) scale(0.1 -0.1)">
       <defs>
        <path id="DejaVuSans-35" d="M 691 4666 
L 3169 4666 
L 3169 4134 
L 1269 4134 
L 1269 2991 
Q 1406 3038 1543 3061 
Q 1681 3084 1819 3084 
Q 2600 3084 3056 2656 
Q 3513 2228 3513 1497 
Q 3513 744 3044 326 
Q 2575 -91 1722 -91 
Q 1428 -91 1123 -41 
Q 819 9 494 109 
L 494 744 
Q 775 591 1075 516 
Q 1375 441 1709 441 
Q 2250 441 2565 725 
Q 2881 1009 2881 1497 
Q 2881 1984 2565 2268 
Q 2250 2553 1709 2553 
Q 1456 2553 1204 2497 
Q 953 2441 691 2322 
L 691 4666 
z
" transform="scale(0.015625)"/>
        <path id="DejaVuSans-25" d="M 4653 2053 
Q 4381 2053 4226 1822 
Q 4072 1591 4072 1178 
Q 4072 772 4226 539 
Q 4381 306 4653 306 
Q 4919 306 5073 539 
Q 5228 772 5228 1178 
Q 5228 1588 5073 1820 
Q 4919 2053 4653 2053 
z
M 4653 2450 
Q 5147 2450 5437 2106 
Q 5728 1763 5728 1178 
Q 5728 594 5436 251 
Q 5144 -91 4653 -91 
Q 4153 -91 3862 251 
Q 3572 594 3572 1178 
Q 3572 1766 3864 2108 
Q 4156 2450 4653 2450 
z
M 1428 4353 
Q 1159 4353 1004 4120 
Q 850 3888 850 3481 
Q 850 3069 1003 2837 
Q 1156 2606 1428 2606 
Q 1700 2606 1854 2837 
Q 2009 3069 2009 3481 
Q 2009 3884 1853 4118 
Q 1697 4353 1428 4353 
z
M 4250 4750 
L 4750 4750 
L 1831 -91 
L 1331 -91 
L 4250 4750 
z
M 1428 4750 
Q 1922 4750 2215 4408 
Q 2509 4066 2509 3481 
Q 2509 2891 2217 2550 
Q 1925 2209 1428 2209 
Q 931 2209 642 2551 
Q 353 2894 353 3481 
Q 353 4063 643 4406 
Q 934 4750 1428 4750 
z
" transform="scale(0.015625)"/>
       </defs>
       <use xlink:href="#DejaVuSans-35"/>
       <use xlink:href="#DejaVuSans-30" x="63.623047"/>
       <use xlink:href="#DejaVuSans-25" x="127.246094"/>
      </g>
     </g>
    </g>
    <g id="ytick_2">
     <g id="text_9">
      <!-- 55% -->
      <g style="fill: #262626" transform="translate(24.793438 198.479289) scale(0.1 -0.1)">
       <use xlink:href="#DejaVuSans-35"/>
       <use xlink:href="#DejaVuSans-35" x="63.623047"/>
       <use xlink:href="#DejaVuSans-25" x="127.246094"/>
      </g>
     </g>
    </g>
    <g id="ytick_3">
     <g id="text_10">
      <!-- 60% -->
      <g style="fill: #262626" transform="translate(24.793438 171.756403) scale(0.1 -0.1)">
       <use xlink:href="#DejaVuSans-36"/>
       <use xlink:href="#DejaVuSans-30" x="63.623047"/>
       <use xlink:href="#DejaVuSans-25" x="127.246094"/>
      </g>
     </g>
    </g>
    <g id="ytick_4">
     <g id="text_11">
      <!-- 65% -->
      <g style="fill: #262626" transform="translate(24.793438 145.033517) scale(0.1 -0.1)">
       <use xlink:href="#DejaVuSans-36"/>
       <use xlink:href="#DejaVuSans-35" x="63.623047"/>
       <use xlink:href="#DejaVuSans-25" x="127.246094"/>
      </g>
     </g>
    </g>
    <g id="ytick_5">
     <g id="text_12">
      <!-- 70% -->
      <g style="fill: #262626" transform="translate(24.793438 118.310631) scale(0.1 -0.1)">
       <defs>
        <path id="DejaVuSans-37" d="M 525 4666 
L 3525 4666 
L 3525 4397 
L 1831 0 
L 1172 0 
L 2766 4134 
L 525 4134 
L 525 4666 
z
" transform="scale(0.015625)"/>
       </defs>
       <use xlink:href="#DejaVuSans-37"/>
       <use xlink:href="#DejaVuSans-30" x="63.623047"/>
       <use xlink:href="#DejaVuSans-25" x="127.246094"/>
      </g>
     </g>
    </g>
    <g id="ytick_6">
     <g id="text_13">
      <!-- 75% -->
      <g style="fill: #262626" transform="translate(24.793438 91.587746) scale(0.1 -0.1)">
       <use xlink:href="#DejaVuSans-37"/>
       <use xlink:href="#DejaVuSans-35" x="63.623047"/>
       <use xlink:href="#DejaVuSans-25" x="127.246094"/>
      </g>
     </g>
    </g>
    <g id="ytick_7">
     <g id="text_14">
      <!-- 80% -->
      <g style="fill: #262626" transform="translate(24.793438 64.86486) scale(0.1 -0.1)">
       <use xlink:href="#DejaVuSans-38"/>
       <use xlink:href="#DejaVuSans-30" x="63.623047"/>
       <use xlink:href="#DejaVuSans-25" x="127.246094"/>
      </g>
     </g>
    </g>
    <g id="text_15">
     <!-- Accuracy (%) -->
     <g style="fill: #262626" transform="translate(18.71375 177.689531) rotate(-90) scale(0.1 -0.1)">
      <defs>
       <path id="DejaVuSans-41" d="M 2188 4044 
L 1331 1722 
L 3047 1722 
L 2188 4044 
z
M 1831 4666 
L 2547 4666 
L 4325 0 
L 3669 0 
L 3244 1197 
L 1141 1197 
L 716 0 
L 50 0 
L 1831 4666 
z
" transform="scale(0.015625)"/>
       <path id="DejaVuSans-75" d="M 544 1381 
L 544 3500 
L 1119 3500 
L 1119 1403 
Q 1119 906 1312 657 
Q 1506 409 1894 409 
Q 2359 409 2629 706 
Q 2900 1003 2900 1516 
L 2900 3500 
L 3475 3500 
L 3475 0 
L 2900 0 
L 2900 538 
Q 2691 219 2414 64 
Q 2138 -91 1772 -91 
Q 1169 -91 856 284 
Q 544 659 544 1381 
z
M 1991 3584 
L 1991 3584 
z
" transform="scale(0.015625)"/>
       <path id="DejaVuSans-72" d="M 2631 2963 
Q 2534 3019 2420 3045 
Q 2306 3072 2169 3072 
Q 1681 3072 1420 2755 
Q 1159 2438 1159 1844 
L 1159 0 
L 581 0 
L 581 3500 
L 1159 3500 
L 1159 2956 
Q 1341 3275 1631 3429 
Q 1922 3584 2338 3584 
Q 2397 3584 2469 3576 
Q 2541 3569 2628 3553 
L 2631 2963 
z
" transform="scale(0.015625)"/>
       <path id="DejaVuSans-61" d="M 2194 1759 
Q 1497 1759 1228 1600 
Q 959 1441 959 1056 
Q 959 750 1161 570 
Q 1363 391 1709 391 
Q 2188 391 2477 730 
Q 2766 1069 2766 1631 
L 2766 1759 
L 2194 1759 
z
M 3341 1997 
L 3341 0 
L 2766 0 
L 2766 531 
Q 2569 213 2275 61 
Q 1981 -91 1556 -91 
Q 1019 -91 701 211 
Q 384 513 384 1019 
Q 384 1609 779 1909 
Q 1175 2209 1959 2209 
L 2766 2209 
L 2766 2266 
Q 2766 2663 2505 2880 
Q 2244 3097 1772 3097 
Q 1472 3097 1187 3025 
Q 903 2953 641 2809 
L 641 3341 
Q 956 3463 1253 3523 
Q 1550 3584 1831 3584 
Q 2591 3584 2966 3190 
Q 3341 2797 3341 1997 
z
" transform="scale(0.015625)"/>
       <path id="DejaVuSans-79" d="M 2059 -325 
Q 1816 -950 1584 -1140 
Q 1353 -1331 966 -1331 
L 506 -1331 
L 506 -850 
L 844 -850 
Q 1081 -850 1212 -737 
Q 1344 -625 1503 -206 
L 1606 56 
L 191 3500 
L 800 3500 
L 1894 763 
L 2988 3500 
L 3597 3500 
L 2059 -325 
z
" transform="scale(0.015625)"/>
       <path id="DejaVuSans-20" transform="scale(0.015625)"/>
       <path id="DejaVuSans-28" d="M 1984 4856 
Q 1566 4138 1362 3434 
Q 1159 2731 1159 2009 
Q 1159 1288 1364 580 
Q 1569 -128 1984 -844 
L 1484 -844 
Q 1016 -109 783 600 
Q 550 1309 550 2009 
Q 550 2706 781 3412 
Q 1013 4119 1484 4856 
L 1984 4856 
z
" transform="scale(0.015625)"/>
       <path id="DejaVuSans-29" d="M 513 4856 
L 1013 4856 
Q 1481 4119 1714 3412 
Q 1947 2706 1947 2009 
Q 1947 1309 1714 600 
Q 1481 -109 1013 -844 
L 513 -844 
Q 928 -128 1133 580 
Q 1338 1288 1338 2009 
Q 1338 2731 1133 3434 
Q 928 4138 513 4856 
z
" transform="scale(0.015625)"/>
      </defs>
      <use xlink:href="#DejaVuSans-41"/>
      <use xlink:href="#DejaVuSans-63" x="66.658203"/>
      <use xlink:href="#DejaVuSans-63" x="121.638672"/>
      <use xlink:href="#DejaVuSans-75" x="176.619141"/>
      <use xlink:href="#DejaVuSans-72" x="239.998047"/>
      <use xlink:href="#DejaVuSans-61" x="281.111328"/>
      <use xlink:href="#DejaVuSans-63" x="342.390625"/>
      <use xlink:href="#DejaVuSans-79" x="397.371094"/>
      <use xlink:href="#DejaVuSans-20" x="456.550781"/>
      <use xlink:href="#DejaVuSans-28" x="488.337891"/>
      <use xlink:href="#DejaVuSans-25" x="527.351562"/>
      <use xlink:href="#DejaVuSans-29" x="622.371094"/>
     </g>
    </g>
   </g>
   <g id="line2d_1">
    <path d="M 54.02 233.192459 
L 58.37085 217.473116 
L 62.7217 208.30351 
L 67.07255 217.473116 
L 71.4234 212.23335 
L 75.77425 209.613436 
L 80.1251 216.163158 
L 84.47595 213.543276 
L 88.8268 200.443831 
L 93.17765 205.683596 
L 97.5285 203.063713 
L 101.87935 179.484706 
L 106.2302 186.034428 
L 110.58105 189.964268 
L 114.9319 180.794663 
L 119.28275 176.864823 
L 123.6336 179.484706 
L 127.98445 186.034428 
L 132.3353 189.964268 
L 136.68615 166.385261 
L 141.037 165.075304 
L 145.38785 170.315101 
L 149.7387 165.075304 
L 154.08955 155.905699 
L 158.4404 157.215624 
L 162.79125 163.765346 
L 167.1421 146.736062 
L 171.49295 155.905699 
L 175.8438 142.806222 
L 180.19465 150.665901 
L 184.5455 133.636616 
L 188.89635 136.256499 
L 193.2472 145.426136 
L 197.59805 121.847097 
L 201.9489 131.016734 
L 206.29975 112.677492 
L 210.6506 119.227214 
L 215.00145 107.437695 
L 219.3523 127.086894 
L 223.70315 115.297374 
L 228.054 116.607332 
L 232.40485 121.847097 
L 236.7557 111.367534 
L 241.10655 121.847097 
L 245.4574 111.367534 
L 249.80825 115.297374 
L 254.1591 103.507887 
L 258.50995 111.367534 
L 262.8608 110.057609 
L 267.21165 108.747652 
L 271.5625 103.507887 
L 275.91335 104.817812 
L 280.2642 98.268089 
L 284.61505 91.718367 
L 288.9659 104.817812 
L 293.31675 110.057609 
L 297.6676 99.578047 
L 302.01845 83.858687 
L 306.3693 89.098484 
L 310.72015 83.858687 
L 315.071 82.54873 
L 319.42185 85.168644 
L 323.7727 81.238805 
L 328.12355 78.618922 
L 332.4744 69.449285 
L 336.82525 77.308965 
L 341.1761 72.069168 
L 345.52695 75.999007 
L 349.8778 74.689082 
L 354.22865 70.759242 
L 358.5795 78.618922 
L 362.93035 64.20952 
L 367.2812 69.449285 
L 371.63205 72.069168 
L 375.9829 73.379125 
L 380.33375 66.829402 
L 384.6846 73.379125 
L 389.03545 60.27968 
L 393.3863 57.659797 
L 397.73715 60.27968 
L 402.088 68.13936 
L 406.43885 61.589605 
L 410.7897 70.759242 
L 415.14055 62.899562 
L 419.4914 57.659797 
L 423.84225 58.969723 
L 428.1931 64.20952 
L 432.54395 52.42 
L 436.8948 66.829402 
L 441.24565 57.659797 
L 445.5965 60.27968 
L 449.94735 52.42 
L 454.2982 61.589605 
L 458.64905 64.20952 
L 462.9999 57.659797 
L 467.35075 55.039883 
L 471.7016 52.42 
L 476.05245 52.42 
L 480.4033 58.969723 
L 484.75415 57.659797 
" clip-path="url(#pab41f214b4)" style="fill: none; stroke: #1f77b4; stroke-width: 1.5; stroke-linecap: round"/>
   </g>
   <g id="line2d_2">
    <path d="M 54.02 139.178697 
L 58.37085 164.873782 
L 62.7217 123.761652 
L 67.07255 134.039661 
L 71.4234 128.900656 
L 75.77425 154.595741 
L 80.1251 118.622616 
L 84.47595 159.734745 
L 88.8268 200.846875 
L 93.17765 221.402955 
L 97.5285 200.846875 
L 101.87935 149.456737 
L 106.2302 180.290826 
L 110.58105 236.82 
L 114.9319 200.846875 
L 119.28275 211.124915 
L 123.6336 211.124915 
L 127.98445 149.456737 
L 132.3353 205.985911 
L 136.68615 216.263951 
L 141.037 216.263951 
L 145.38785 139.178697 
L 149.7387 180.290826 
L 154.08955 144.317701 
L 158.4404 123.761652 
L 162.79125 123.761652 
L 167.1421 139.178697 
L 171.49295 149.456737 
L 175.8438 134.039661 
L 180.19465 139.178697 
L 184.5455 134.039661 
L 188.89635 175.151822 
L 193.2472 180.290826 
L 197.59805 175.151822 
L 201.9489 170.012786 
L 206.29975 164.873782 
L 210.6506 149.456737 
L 215.00145 175.151822 
L 219.3523 159.734745 
L 223.70315 159.734745 
L 228.054 154.595741 
L 232.40485 154.595741 
L 236.7557 195.707871 
L 241.10655 149.456737 
L 245.4574 170.012786 
L 249.80825 180.290826 
L 254.1591 170.012786 
L 258.50995 170.012786 
L 262.8608 216.263951 
L 267.21165 200.846875 
L 271.5625 195.707871 
L 275.91335 170.012786 
L 280.2642 195.707871 
L 284.61505 149.456737 
L 288.9659 226.541976 
L 293.31675 231.680996 
L 297.6676 159.734745 
L 302.01845 205.985911 
L 306.3693 164.873782 
L 310.72015 195.707871 
L 315.071 180.290826 
L 319.42185 164.873782 
L 323.7727 211.124915 
L 328.12355 170.012786 
L 332.4744 211.124915 
L 336.82525 216.263951 
L 341.1761 154.595741 
L 345.52695 180.290826 
L 349.8778 221.402955 
L 354.22865 226.541976 
L 358.5795 195.707871 
L 362.93035 180.290826 
L 367.2812 211.124915 
L 371.63205 159.734745 
L 375.9829 190.568866 
L 380.33375 221.402955 
L 384.6846 185.42983 
L 389.03545 159.734745 
L 393.3863 195.707871 
L 397.73715 190.568866 
L 402.088 190.568866 
L 406.43885 170.012786 
L 410.7897 154.595741 
L 415.14055 180.290826 
L 419.4914 185.42983 
L 423.84225 154.595741 
L 428.1931 159.734745 
L 432.54395 180.290826 
L 436.8948 159.734745 
L 441.24565 154.595741 
L 445.5965 170.012786 
L 449.94735 159.734745 
L 454.2982 159.734745 
L 458.64905 185.42983 
L 462.9999 170.012786 
L 467.35075 170.012786 
L 471.7016 175.151822 
L 476.05245 195.707871 
L 480.4033 221.402955 
L 484.75415 159.734745 
" clip-path="url(#pab41f214b4)" style="fill: none; stroke-dasharray: 5.55,2.4; stroke-dashoffset: 0; stroke: #ff7f0e; stroke-width: 1.5"/>
   </g>
   <g id="patch_3">
    <path d="M 54.02 246.04 
L 54.02 43.2 
" style="fill: none; stroke: #262626; stroke-width: 0.8; stroke-linejoin: miter; stroke-linecap: square"/>
   </g>
   <g id="patch_4">
    <path d="M 54.02 246.04 
L 489.105 246.04 
" style="fill: none; stroke: #262626; stroke-width: 0.8; stroke-linejoin: miter; stroke-linecap: square"/>
   </g>
   <g id="text_16">
    <!-- Accuracy -->
    <g style="fill: #262626" transform="translate(244.16875 37.2) scale(0.12 -0.12)">
     <use xlink:href="#DejaVuSans-41"/>
     <use xlink:href="#DejaVuSans-63" x="66.658203"/>
     <use xlink:href="#DejaVuSans-63" x="121.638672"/>
     <use xlink:href="#DejaVuSans-75" x="176.619141"/>
     <use xlink:href="#DejaVuSans-72" x="239.998047"/>
     <use xlink:href="#DejaVuSans-61" x="281.111328"/>
     <use xlink:href="#DejaVuSans-63" x="342.390625"/>
     <use xlink:href="#DejaVuSans-79" x="397.371094"/>
    </g>
   </g>
   <g id="legend_1">
    <g id="patch_5">
     <path d="M 61.02 80.55625 
L 117.0075 80.55625 
Q 119.0075 80.55625 119.0075 78.55625 
L 119.0075 50.2 
Q 119.0075 48.2 117.0075 48.2 
L 61.02 48.2 
Q 59.02 48.2 59.02 50.2 
L 59.02 78.55625 
Q 59.02 80.55625 61.02 80.55625 
z
" style="fill: #ffffff; opacity: 0.8; stroke: #cccccc; stroke-linejoin: miter"/>
    </g>
    <g id="line2d_3">
     <path d="M 63.02 56.298438 
L 73.02 56.298438 
L 83.02 56.298438 
" style="fill: none; stroke: #1f77b4; stroke-width: 1.5; stroke-linecap: round"/>
    </g>
    <g id="text_17">
     <!-- Train -->
     <g style="fill: #262626" transform="translate(91.02 59.798438) scale(0.1 -0.1)">
      <defs>
       <path id="DejaVuSans-54" d="M -19 4666 
L 3928 4666 
L 3928 4134 
L 2272 4134 
L 2272 0 
L 1638 0 
L 1638 4134 
L -19 4134 
L -19 4666 
z
" transform="scale(0.015625)"/>
       <path id="DejaVuSans-69" d="M 603 3500 
L 1178 3500 
L 1178 0 
L 603 0 
L 603 3500 
z
M 603 4863 
L 1178 4863 
L 1178 4134 
L 603 4134 
L 603 4863 
z
" transform="scale(0.015625)"/>
       <path id="DejaVuSans-6e" d="M 3513 2113 
L 3513 0 
L 2938 0 
L 2938 2094 
Q 2938 2591 2744 2837 
Q 2550 3084 2163 3084 
Q 1697 3084 1428 2787 
Q 1159 2491 1159 1978 
L 1159 0 
L 581 0 
L 581 3500 
L 1159 3500 
L 1159 2956 
Q 1366 3272 1645 3428 
Q 1925 3584 2291 3584 
Q 2894 3584 3203 3211 
Q 3513 2838 3513 2113 
z
" transform="scale(0.015625)"/>
      </defs>
      <use xlink:href="#DejaVuSans-54"/>
      <use xlink:href="#DejaVuSans-72" x="46.333984"/>
      <use xlink:href="#DejaVuSans-61" x="87.447266"/>
      <use xlink:href="#DejaVuSans-69" x="148.726562"/>
      <use xlink:href="#DejaVuSans-6e" x="176.509766"/>
     </g>
    </g>
    <g id="line2d_4">
     <path d="M 63.02 70.976562 
L 73.02 70.976562 
L 83.02 70.976562 
" style="fill: none; stroke-dasharray: 5.55,2.4; stroke-dashoffset: 0; stroke: #ff7f0e; stroke-width: 1.5"/>
    </g>
    <g id="text_18">
     <!-- Test -->
     <g style="fill: #262626" transform="translate(91.02 74.476562) scale(0.1 -0.1)">
      <defs>
       <path id="DejaVuSans-65" d="M 3597 1894 
L 3597 1613 
L 953 1613 
Q 991 1019 1311 708 
Q 1631 397 2203 397 
Q 2534 397 2845 478 
Q 3156 559 3463 722 
L 3463 178 
Q 3153 47 2828 -22 
Q 2503 -91 2169 -91 
Q 1331 -91 842 396 
Q 353 884 353 1716 
Q 353 2575 817 3079 
Q 1281 3584 2069 3584 
Q 2775 3584 3186 3129 
Q 3597 2675 3597 1894 
z
M 3022 2063 
Q 3016 2534 2758 2815 
Q 2500 3097 2075 3097 
Q 1594 3097 1305 2825 
Q 1016 2553 972 2059 
L 3022 2063 
z
" transform="scale(0.015625)"/>
       <path id="DejaVuSans-73" d="M 2834 3397 
L 2834 2853 
Q 2591 2978 2328 3040 
Q 2066 3103 1784 3103 
Q 1356 3103 1142 2972 
Q 928 2841 928 2578 
Q 928 2378 1081 2264 
Q 1234 2150 1697 2047 
L 1894 2003 
Q 2506 1872 2764 1633 
Q 3022 1394 3022 966 
Q 3022 478 2636 193 
Q 2250 -91 1575 -91 
Q 1294 -91 989 -36 
Q 684 19 347 128 
L 347 722 
Q 666 556 975 473 
Q 1284 391 1588 391 
Q 1994 391 2212 530 
Q 2431 669 2431 922 
Q 2431 1156 2273 1281 
Q 2116 1406 1581 1522 
L 1381 1569 
Q 847 1681 609 1914 
Q 372 2147 372 2553 
Q 372 3047 722 3315 
Q 1072 3584 1716 3584 
Q 2034 3584 2315 3537 
Q 2597 3491 2834 3397 
z
" transform="scale(0.015625)"/>
       <path id="DejaVuSans-74" d="M 1172 4494 
L 1172 3500 
L 2356 3500 
L 2356 3053 
L 1172 3053 
L 1172 1153 
Q 1172 725 1289 603 
Q 1406 481 1766 481 
L 2356 481 
L 2356 0 
L 1766 0 
Q 1100 0 847 248 
Q 594 497 594 1153 
L 594 3053 
L 172 3053 
L 172 3500 
L 594 3500 
L 594 4494 
L 1172 4494 
z
" transform="scale(0.015625)"/>
      </defs>
      <use xlink:href="#DejaVuSans-54"/>
      <use xlink:href="#DejaVuSans-65" x="44.083984"/>
      <use xlink:href="#DejaVuSans-73" x="105.607422"/>
      <use xlink:href="#DejaVuSans-74" x="157.707031"/>
     </g>
    </g>
   </g>
  </g>
  <g id="axes_2">
   <g id="patch_6">
    <path d="M 552.62 246.04 
L 987.705 246.04 
L 987.705 43.2 
L 552.62 43.2 
z
" style="fill: #ffffff"/>
   </g>
   <g id="matplotlib.axis_3">
    <g id="xtick_7">
     <g id="text_19">
      <!-- 0 -->
      <g style="fill: #262626" transform="translate(549.43875 260.638438) scale(0.1 -0.1)">
       <use xlink:href="#DejaVuSans-30"/>
      </g>
     </g>
    </g>
    <g id="xtick_8">
     <g id="text_20">
      <!-- 20 -->
      <g style="fill: #262626" transform="translate(633.2745 260.638438) scale(0.1 -0.1)">
       <use xlink:href="#DejaVuSans-32"/>
       <use xlink:href="#DejaVuSans-30" x="63.623047"/>
      </g>
     </g>
    </g>
    <g id="xtick_9">
     <g id="text_21">
      <!-- 40 -->
      <g style="fill: #262626" transform="translate(720.2915 260.638438) scale(0.1 -0.1)">
       <use xlink:href="#DejaVuSans-34"/>
       <use xlink:href="#DejaVuSans-30" x="63.623047"/>
      </g>
     </g>
    </g>
    <g id="xtick_10">
     <g id="text_22">
      <!-- 60 -->
      <g style="fill: #262626" transform="translate(807.3085 260.638438) scale(0.1 -0.1)">
       <use xlink:href="#DejaVuSans-36"/>
       <use xlink:href="#DejaVuSans-30" x="63.623047"/>
      </g>
     </g>
    </g>
    <g id="xtick_11">
     <g id="text_23">
      <!-- 80 -->
      <g style="fill: #262626" transform="translate(894.3255 260.638438) scale(0.1 -0.1)">
       <use xlink:href="#DejaVuSans-38"/>
       <use xlink:href="#DejaVuSans-30" x="63.623047"/>
      </g>
     </g>
    </g>
    <g id="xtick_12">
     <g id="text_24">
      <!-- 100 -->
      <g style="fill: #262626" transform="translate(978.16125 260.638438) scale(0.1 -0.1)">
       <use xlink:href="#DejaVuSans-31"/>
       <use xlink:href="#DejaVuSans-30" x="63.623047"/>
       <use xlink:href="#DejaVuSans-30" x="127.246094"/>
      </g>
     </g>
    </g>
    <g id="text_25">
     <!-- Epoch -->
     <g style="fill: #262626" transform="translate(754.851563 274.316562) scale(0.1 -0.1)">
      <use xlink:href="#DejaVuSans-45"/>
      <use xlink:href="#DejaVuSans-70" x="63.183594"/>
      <use xlink:href="#DejaVuSans-6f" x="126.660156"/>
      <use xlink:href="#DejaVuSans-63" x="187.841797"/>
      <use xlink:href="#DejaVuSans-68" x="242.822266"/>
     </g>
    </g>
   </g>
   <g id="matplotlib.axis_4">
    <g id="ytick_8">
     <g id="text_26">
      <!-- 0.50 -->
      <g style="fill: #262626" transform="translate(523.354375 236.104871) scale(0.1 -0.1)">
       <defs>
        <path id="DejaVuSans-2e" d="M 684 794 
L 1344 794 
L 1344 0 
L 684 0 
L 684 794 
z
" transform="scale(0.015625)"/>
       </defs>
       <use xlink:href="#DejaVuSans-30"/>
       <use xlink:href="#DejaVuSans-2e" x="63.623047"/>
       <use xlink:href="#DejaVuSans-35" x="95.410156"/>
       <use xlink:href="#DejaVuSans-30" x="159.033203"/>
      </g>
     </g>
    </g>
    <g id="ytick_9">
     <g id="text_27">
      <!-- 0.55 -->
      <g style="fill: #262626" transform="translate(523.354375 211.83238) scale(0.1 -0.1)">
       <use xlink:href="#DejaVuSans-30"/>
       <use xlink:href="#DejaVuSans-2e" x="63.623047"/>
       <use xlink:href="#DejaVuSans-35" x="95.410156"/>
       <use xlink:href="#DejaVuSans-35" x="159.033203"/>
      </g>
     </g>
    </g>
    <g id="ytick_10">
     <g id="text_28">
      <!-- 0.60 -->
      <g style="fill: #262626" transform="translate(523.354375 187.559888) scale(0.1 -0.1)">
       <use xlink:href="#DejaVuSans-30"/>
       <use xlink:href="#DejaVuSans-2e" x="63.623047"/>
       <use xlink:href="#DejaVuSans-36" x="95.410156"/>
       <use xlink:href="#DejaVuSans-30" x="159.033203"/>
      </g>
     </g>
    </g>
    <g id="ytick_11">
     <g id="text_29">
      <!-- 0.65 -->
      <g style="fill: #262626" transform="translate(523.354375 163.287396) scale(0.1 -0.1)">
       <use xlink:href="#DejaVuSans-30"/>
       <use xlink:href="#DejaVuSans-2e" x="63.623047"/>
       <use xlink:href="#DejaVuSans-36" x="95.410156"/>
       <use xlink:href="#DejaVuSans-35" x="159.033203"/>
      </g>
     </g>
    </g>
    <g id="ytick_12">
     <g id="text_30">
      <!-- 0.70 -->
      <g style="fill: #262626" transform="translate(523.354375 139.014905) scale(0.1 -0.1)">
       <use xlink:href="#DejaVuSans-30"/>
       <use xlink:href="#DejaVuSans-2e" x="63.623047"/>
       <use xlink:href="#DejaVuSans-37" x="95.410156"/>
       <use xlink:href="#DejaVuSans-30" x="159.033203"/>
      </g>
     </g>
    </g>
    <g id="ytick_13">
     <g id="text_31">
      <!-- 0.75 -->
      <g style="fill: #262626" transform="translate(523.354375 114.742413) scale(0.1 -0.1)">
       <use xlink:href="#DejaVuSans-30"/>
       <use xlink:href="#DejaVuSans-2e" x="63.623047"/>
       <use xlink:href="#DejaVuSans-37" x="95.410156"/>
       <use xlink:href="#DejaVuSans-35" x="159.033203"/>
      </g>
     </g>
    </g>
    <g id="ytick_14">
     <g id="text_32">
      <!-- 0.80 -->
      <g style="fill: #262626" transform="translate(523.354375 90.469921) scale(0.1 -0.1)">
       <use xlink:href="#DejaVuSans-30"/>
       <use xlink:href="#DejaVuSans-2e" x="63.623047"/>
       <use xlink:href="#DejaVuSans-38" x="95.410156"/>
       <use xlink:href="#DejaVuSans-30" x="159.033203"/>
      </g>
     </g>
    </g>
    <g id="ytick_15">
     <g id="text_33">
      <!-- 0.85 -->
      <g style="fill: #262626" transform="translate(523.354375 66.19743) scale(0.1 -0.1)">
       <use xlink:href="#DejaVuSans-30"/>
       <use xlink:href="#DejaVuSans-2e" x="63.623047"/>
       <use xlink:href="#DejaVuSans-38" x="95.410156"/>
       <use xlink:href="#DejaVuSans-35" x="159.033203"/>
      </g>
     </g>
    </g>
    <g id="text_34">
     <!-- AUC -->
     <g style="fill: #262626" transform="translate(517.274688 155.191094) rotate(-90) scale(0.1 -0.1)">
      <defs>
       <path id="DejaVuSans-55" d="M 556 4666 
L 1191 4666 
L 1191 1831 
Q 1191 1081 1462 751 
Q 1734 422 2344 422 
Q 2950 422 3222 751 
Q 3494 1081 3494 1831 
L 3494 4666 
L 4128 4666 
L 4128 1753 
Q 4128 841 3676 375 
Q 3225 -91 2344 -91 
Q 1459 -91 1007 375 
Q 556 841 556 1753 
L 556 4666 
z
" transform="scale(0.015625)"/>
       <path id="DejaVuSans-43" d="M 4122 4306 
L 4122 3641 
Q 3803 3938 3442 4084 
Q 3081 4231 2675 4231 
Q 1875 4231 1450 3742 
Q 1025 3253 1025 2328 
Q 1025 1406 1450 917 
Q 1875 428 2675 428 
Q 3081 428 3442 575 
Q 3803 722 4122 1019 
L 4122 359 
Q 3791 134 3420 21 
Q 3050 -91 2638 -91 
Q 1578 -91 968 557 
Q 359 1206 359 2328 
Q 359 3453 968 4101 
Q 1578 4750 2638 4750 
Q 3056 4750 3426 4639 
Q 3797 4528 4122 4306 
z
" transform="scale(0.015625)"/>
      </defs>
      <use xlink:href="#DejaVuSans-41"/>
      <use xlink:href="#DejaVuSans-55" x="68.408203"/>
      <use xlink:href="#DejaVuSans-43" x="141.601562"/>
     </g>
    </g>
   </g>
   <g id="line2d_5">
    <path d="M 552.62 233.133861 
L 556.97085 236.82 
L 561.3217 225.248332 
L 565.67255 215.309774 
L 570.0234 209.856411 
L 574.37425 201.976728 
L 578.7251 195.158527 
L 583.07595 192.493087 
L 587.4268 187.278814 
L 591.77765 181.166398 
L 596.1285 175.736327 
L 600.47935 174.453173 
L 604.8302 170.679549 
L 609.18105 170.037972 
L 613.5319 163.569769 
L 617.88275 158.687961 
L 622.2336 155.200157 
L 626.58445 159.947794 
L 630.9353 156.279175 
L 635.28615 151.286545 
L 639.637 153.456212 
L 643.98785 156.325818 
L 648.3387 149.857558 
L 652.68955 147.162951 
L 657.0404 146.486391 
L 661.39125 146.428058 
L 665.7421 139.779012 
L 670.09295 143.943433 
L 674.4438 136.763631 
L 678.79465 131.257751 
L 683.1455 132.453406 
L 687.49635 128.137393 
L 691.8472 132.062638 
L 696.19805 126.475132 
L 700.5489 122.421503 
L 704.89975 117.819728 
L 709.2506 120.193503 
L 713.60145 115.655848 
L 717.9523 123.162241 
L 722.30315 115.195086 
L 726.654 117.720539 
L 731.00485 111.246491 
L 735.3557 113.503658 
L 739.70655 111.596432 
L 744.0574 110.109141 
L 748.40825 109.315915 
L 752.7591 106.854612 
L 757.10995 108.511028 
L 761.4608 102.404457 
L 765.81165 102.491927 
L 770.1625 102.21198 
L 774.51335 103.407635 
L 778.8642 97.691774 
L 783.21505 98.129214 
L 787.5659 100.468035 
L 791.91675 100.164767 
L 796.2676 97.744262 
L 800.61845 88.213977 
L 804.9693 89.327977 
L 809.32015 87.916525 
L 813.671 85.746829 
L 818.02185 85.606841 
L 822.3727 82.101532 
L 826.72355 82.976412 
L 831.0744 83.460496 
L 835.42525 78.193735 
L 839.7761 78.71283 
L 844.12695 75.493342 
L 848.4778 75.948288 
L 852.82865 77.243074 
L 857.1795 71.5797 
L 861.53035 69.9291 
L 865.8812 70.413212 
L 870.23205 70.745676 
L 874.5829 70.833176 
L 878.93375 66.452986 
L 883.2846 66.202148 
L 887.63545 65.863897 
L 891.9863 63.49588 
L 896.33715 63.05844 
L 900.688 62.848487 
L 905.03885 61.71701 
L 909.3897 62.586017 
L 913.74055 62.008589 
L 918.0914 59.698934 
L 922.44225 61.186225 
L 926.7931 59.973036 
L 931.14395 58.147465 
L 935.4948 58.246654 
L 939.84565 58.859065 
L 944.1965 59.903071 
L 948.54735 57.908374 
L 952.8982 58.054149 
L 957.24905 54.239726 
L 961.5999 54.012268 
L 965.95075 54.274709 
L 970.3016 53.067393 
L 974.65245 52.42 
L 979.0033 55.692006 
L 983.35415 52.921589 
" clip-path="url(#p62dadc587d)" style="fill: none; stroke: #1f77b4; stroke-width: 1.5; stroke-linecap: round"/>
   </g>
   <g id="line2d_6">
    <path d="M 552.62 141.194052 
L 556.97085 139.12942 
L 561.3217 158.51872 
L 565.67255 163.366009 
L 570.0234 153.761158 
L 574.37425 154.838324 
L 578.7251 165.430612 
L 583.07595 178.626101 
L 587.4268 175.30479 
L 591.77765 189.128633 
L 596.1285 185.986864 
L 600.47935 182.665552 
L 604.8302 184.191559 
L 609.18105 183.652961 
L 613.5319 182.934851 
L 617.88275 181.7679 
L 622.2336 181.139546 
L 626.58445 178.62613 
L 630.9353 177.189852 
L 635.28615 177.010338 
L 639.637 168.303141 
L 643.98785 162.737684 
L 648.3387 157.172226 
L 652.68955 151.427285 
L 657.0404 143.797224 
L 661.39125 132.12777 
L 665.7421 134.461673 
L 670.09295 136.167192 
L 674.4438 124.49771 
L 678.79465 124.677252 
L 683.1455 122.881976 
L 687.49635 118.393684 
L 691.8472 116.239353 
L 696.19805 118.393713 
L 700.5489 117.855116 
L 704.89975 116.239353 
L 709.2506 137.064845 
L 713.60145 127.908806 
L 717.9523 138.770393 
L 722.30315 137.154601 
L 726.654 140.565698 
L 731.00485 145.592529 
L 735.3557 145.053932 
L 739.70655 159.95497 
L 744.0574 154.209999 
L 748.40825 159.685642 
L 752.7591 161.211677 
L 757.10995 165.340885 
L 761.4608 161.032135 
L 765.81165 166.866862 
L 770.1625 163.366009 
L 774.51335 170.547229 
L 778.8642 168.662167 
L 783.21505 171.444881 
L 787.5659 169.021251 
L 791.91675 183.204149 
L 796.2676 190.295584 
L 800.61845 174.137839 
L 804.9693 177.638692 
L 809.32015 181.049789 
L 813.671 181.678114 
L 818.02185 181.678114 
L 822.3727 189.308146 
L 826.72355 184.19153 
L 831.0744 189.128604 
L 835.42525 192.629457 
L 839.7761 184.550614 
L 844.12695 184.550614 
L 848.4778 190.744396 
L 852.82865 199.810678 
L 857.1795 186.974273 
L 861.53035 187.423113 
L 865.8812 189.218389 
L 870.23205 185.35851 
L 874.5829 186.884516 
L 878.93375 190.475126 
L 883.2846 187.602598 
L 887.63545 184.640341 
L 891.9863 188.410494 
L 896.33715 189.128633 
L 900.688 187.243542 
L 905.03885 187.51287 
L 909.3897 186.525432 
L 913.74055 188.141224 
L 918.0914 189.128604 
L 922.44225 186.794731 
L 926.7931 188.590036 
L 931.14395 187.243571 
L 935.4948 189.756958 
L 939.84565 187.602598 
L 944.1965 189.397961 
L 948.54735 192.180646 
L 952.8982 186.974273 
L 957.24905 187.153786 
L 961.5999 190.116013 
L 965.95075 188.769549 
L 970.3016 189.128633 
L 974.65245 194.245249 
L 979.0033 198.194886 
L 983.35415 187.961682 
" clip-path="url(#p62dadc587d)" style="fill: none; stroke-dasharray: 5.55,2.4; stroke-dashoffset: 0; stroke: #ff7f0e; stroke-width: 1.5"/>
   </g>
   <g id="patch_7">
    <path d="M 552.62 246.04 
L 552.62 43.2 
" style="fill: none; stroke: #262626; stroke-width: 0.8; stroke-linejoin: miter; stroke-linecap: square"/>
   </g>
   <g id="patch_8">
    <path d="M 552.62 246.04 
L 987.705 246.04 
" style="fill: none; stroke: #262626; stroke-width: 0.8; stroke-linejoin: miter; stroke-linecap: square"/>
   </g>
   <g id="text_35">
    <!-- ROC Area under the Curve -->
    <g style="fill: #262626" transform="translate(690.5275 37.2) scale(0.12 -0.12)">
     <defs>
      <path id="DejaVuSans-52" d="M 2841 2188 
Q 3044 2119 3236 1894 
Q 3428 1669 3622 1275 
L 4263 0 
L 3584 0 
L 2988 1197 
Q 2756 1666 2539 1819 
Q 2322 1972 1947 1972 
L 1259 1972 
L 1259 0 
L 628 0 
L 628 4666 
L 2053 4666 
Q 2853 4666 3247 4331 
Q 3641 3997 3641 3322 
Q 3641 2881 3436 2590 
Q 3231 2300 2841 2188 
z
M 1259 4147 
L 1259 2491 
L 2053 2491 
Q 2509 2491 2742 2702 
Q 2975 2913 2975 3322 
Q 2975 3731 2742 3939 
Q 2509 4147 2053 4147 
L 1259 4147 
z
" transform="scale(0.015625)"/>
      <path id="DejaVuSans-4f" d="M 2522 4238 
Q 1834 4238 1429 3725 
Q 1025 3213 1025 2328 
Q 1025 1447 1429 934 
Q 1834 422 2522 422 
Q 3209 422 3611 934 
Q 4013 1447 4013 2328 
Q 4013 3213 3611 3725 
Q 3209 4238 2522 4238 
z
M 2522 4750 
Q 3503 4750 4090 4092 
Q 4678 3434 4678 2328 
Q 4678 1225 4090 567 
Q 3503 -91 2522 -91 
Q 1538 -91 948 565 
Q 359 1222 359 2328 
Q 359 3434 948 4092 
Q 1538 4750 2522 4750 
z
" transform="scale(0.015625)"/>
      <path id="DejaVuSans-64" d="M 2906 2969 
L 2906 4863 
L 3481 4863 
L 3481 0 
L 2906 0 
L 2906 525 
Q 2725 213 2448 61 
Q 2172 -91 1784 -91 
Q 1150 -91 751 415 
Q 353 922 353 1747 
Q 353 2572 751 3078 
Q 1150 3584 1784 3584 
Q 2172 3584 2448 3432 
Q 2725 3281 2906 2969 
z
M 947 1747 
Q 947 1113 1208 752 
Q 1469 391 1925 391 
Q 2381 391 2643 752 
Q 2906 1113 2906 1747 
Q 2906 2381 2643 2742 
Q 2381 3103 1925 3103 
Q 1469 3103 1208 2742 
Q 947 2381 947 1747 
z
" transform="scale(0.015625)"/>
      <path id="DejaVuSans-76" d="M 191 3500 
L 800 3500 
L 1894 563 
L 2988 3500 
L 3597 3500 
L 2284 0 
L 1503 0 
L 191 3500 
z
" transform="scale(0.015625)"/>
     </defs>
     <use xlink:href="#DejaVuSans-52"/>
     <use xlink:href="#DejaVuSans-4f" x="69.482422"/>
     <use xlink:href="#DejaVuSans-43" x="148.193359"/>
     <use xlink:href="#DejaVuSans-20" x="218.017578"/>
     <use xlink:href="#DejaVuSans-41" x="249.804688"/>
     <use xlink:href="#DejaVuSans-72" x="318.212891"/>
     <use xlink:href="#DejaVuSans-65" x="357.076172"/>
     <use xlink:href="#DejaVuSans-61" x="418.599609"/>
     <use xlink:href="#DejaVuSans-20" x="479.878906"/>
     <use xlink:href="#DejaVuSans-75" x="511.666016"/>
     <use xlink:href="#DejaVuSans-6e" x="575.044922"/>
     <use xlink:href="#DejaVuSans-64" x="638.423828"/>
     <use xlink:href="#DejaVuSans-65" x="701.900391"/>
     <use xlink:href="#DejaVuSans-72" x="763.423828"/>
     <use xlink:href="#DejaVuSans-20" x="804.537109"/>
     <use xlink:href="#DejaVuSans-74" x="836.324219"/>
     <use xlink:href="#DejaVuSans-68" x="875.533203"/>
     <use xlink:href="#DejaVuSans-65" x="938.912109"/>
     <use xlink:href="#DejaVuSans-20" x="1000.435547"/>
     <use xlink:href="#DejaVuSans-43" x="1032.222656"/>
     <use xlink:href="#DejaVuSans-75" x="1102.046875"/>
     <use xlink:href="#DejaVuSans-72" x="1165.425781"/>
     <use xlink:href="#DejaVuSans-76" x="1206.539062"/>
     <use xlink:href="#DejaVuSans-65" x="1265.71875"/>
    </g>
   </g>
   <g id="legend_2">
    <g id="patch_9">
     <path d="M 559.62 80.55625 
L 615.6075 80.55625 
Q 617.6075 80.55625 617.6075 78.55625 
L 617.6075 50.2 
Q 617.6075 48.2 615.6075 48.2 
L 559.62 48.2 
Q 557.62 48.2 557.62 50.2 
L 557.62 78.55625 
Q 557.62 80.55625 559.62 80.55625 
z
" style="fill: #ffffff; opacity: 0.8; stroke: #cccccc; stroke-linejoin: miter"/>
    </g>
    <g id="line2d_7">
     <path d="M 561.62 56.298438 
L 571.62 56.298438 
L 581.62 56.298438 
" style="fill: none; stroke: #1f77b4; stroke-width: 1.5; stroke-linecap: round"/>
    </g>
    <g id="text_36">
     <!-- Train -->
     <g style="fill: #262626" transform="translate(589.62 59.798438) scale(0.1 -0.1)">
      <use xlink:href="#DejaVuSans-54"/>
      <use xlink:href="#DejaVuSans-72" x="46.333984"/>
      <use xlink:href="#DejaVuSans-61" x="87.447266"/>
      <use xlink:href="#DejaVuSans-69" x="148.726562"/>
      <use xlink:href="#DejaVuSans-6e" x="176.509766"/>
     </g>
    </g>
    <g id="line2d_8">
     <path d="M 561.62 70.976562 
L 571.62 70.976562 
L 581.62 70.976562 
" style="fill: none; stroke-dasharray: 5.55,2.4; stroke-dashoffset: 0; stroke: #ff7f0e; stroke-width: 1.5"/>
    </g>
    <g id="text_37">
     <!-- Test -->
     <g style="fill: #262626" transform="translate(589.62 74.476562) scale(0.1 -0.1)">
      <use xlink:href="#DejaVuSans-54"/>
      <use xlink:href="#DejaVuSans-65" x="44.083984"/>
      <use xlink:href="#DejaVuSans-73" x="105.607422"/>
      <use xlink:href="#DejaVuSans-74" x="157.707031"/>
     </g>
    </g>
   </g>
  </g>
  <g id="text_38">
   <!-- Assessing Fidelity: Time Series Classification Performance -->
   <g style="fill: #262626" transform="translate(302.203125 16.397812) scale(0.14 -0.14)">
    <defs>
     <path id="DejaVuSans-67" d="M 2906 1791 
Q 2906 2416 2648 2759 
Q 2391 3103 1925 3103 
Q 1463 3103 1205 2759 
Q 947 2416 947 1791 
Q 947 1169 1205 825 
Q 1463 481 1925 481 
Q 2391 481 2648 825 
Q 2906 1169 2906 1791 
z
M 3481 434 
Q 3481 -459 3084 -895 
Q 2688 -1331 1869 -1331 
Q 1566 -1331 1297 -1286 
Q 1028 -1241 775 -1147 
L 775 -588 
Q 1028 -725 1275 -790 
Q 1522 -856 1778 -856 
Q 2344 -856 2625 -561 
Q 2906 -266 2906 331 
L 2906 616 
Q 2728 306 2450 153 
Q 2172 0 1784 0 
Q 1141 0 747 490 
Q 353 981 353 1791 
Q 353 2603 747 3093 
Q 1141 3584 1784 3584 
Q 2172 3584 2450 3431 
Q 2728 3278 2906 2969 
L 2906 3500 
L 3481 3500 
L 3481 434 
z
" transform="scale(0.015625)"/>
     <path id="DejaVuSans-46" d="M 628 4666 
L 3309 4666 
L 3309 4134 
L 1259 4134 
L 1259 2759 
L 3109 2759 
L 3109 2228 
L 1259 2228 
L 1259 0 
L 628 0 
L 628 4666 
z
" transform="scale(0.015625)"/>
     <path id="DejaVuSans-6c" d="M 603 4863 
L 1178 4863 
L 1178 0 
L 603 0 
L 603 4863 
z
" transform="scale(0.015625)"/>
     <path id="DejaVuSans-3a" d="M 750 794 
L 1409 794 
L 1409 0 
L 750 0 
L 750 794 
z
M 750 3309 
L 1409 3309 
L 1409 2516 
L 750 2516 
L 750 3309 
z
" transform="scale(0.015625)"/>
     <path id="DejaVuSans-6d" d="M 3328 2828 
Q 3544 3216 3844 3400 
Q 4144 3584 4550 3584 
Q 5097 3584 5394 3201 
Q 5691 2819 5691 2113 
L 5691 0 
L 5113 0 
L 5113 2094 
Q 5113 2597 4934 2840 
Q 4756 3084 4391 3084 
Q 3944 3084 3684 2787 
Q 3425 2491 3425 1978 
L 3425 0 
L 2847 0 
L 2847 2094 
Q 2847 2600 2669 2842 
Q 2491 3084 2119 3084 
Q 1678 3084 1418 2786 
Q 1159 2488 1159 1978 
L 1159 0 
L 581 0 
L 581 3500 
L 1159 3500 
L 1159 2956 
Q 1356 3278 1631 3431 
Q 1906 3584 2284 3584 
Q 2666 3584 2933 3390 
Q 3200 3197 3328 2828 
z
" transform="scale(0.015625)"/>
     <path id="DejaVuSans-53" d="M 3425 4513 
L 3425 3897 
Q 3066 4069 2747 4153 
Q 2428 4238 2131 4238 
Q 1616 4238 1336 4038 
Q 1056 3838 1056 3469 
Q 1056 3159 1242 3001 
Q 1428 2844 1947 2747 
L 2328 2669 
Q 3034 2534 3370 2195 
Q 3706 1856 3706 1288 
Q 3706 609 3251 259 
Q 2797 -91 1919 -91 
Q 1588 -91 1214 -16 
Q 841 59 441 206 
L 441 856 
Q 825 641 1194 531 
Q 1563 422 1919 422 
Q 2459 422 2753 634 
Q 3047 847 3047 1241 
Q 3047 1584 2836 1778 
Q 2625 1972 2144 2069 
L 1759 2144 
Q 1053 2284 737 2584 
Q 422 2884 422 3419 
Q 422 4038 858 4394 
Q 1294 4750 2059 4750 
Q 2388 4750 2728 4690 
Q 3069 4631 3425 4513 
z
" transform="scale(0.015625)"/>
     <path id="DejaVuSans-66" d="M 2375 4863 
L 2375 4384 
L 1825 4384 
Q 1516 4384 1395 4259 
Q 1275 4134 1275 3809 
L 1275 3500 
L 2222 3500 
L 2222 3053 
L 1275 3053 
L 1275 0 
L 697 0 
L 697 3053 
L 147 3053 
L 147 3500 
L 697 3500 
L 697 3744 
Q 697 4328 969 4595 
Q 1241 4863 1831 4863 
L 2375 4863 
z
" transform="scale(0.015625)"/>
     <path id="DejaVuSans-50" d="M 1259 4147 
L 1259 2394 
L 2053 2394 
Q 2494 2394 2734 2622 
Q 2975 2850 2975 3272 
Q 2975 3691 2734 3919 
Q 2494 4147 2053 4147 
L 1259 4147 
z
M 628 4666 
L 2053 4666 
Q 2838 4666 3239 4311 
Q 3641 3956 3641 3272 
Q 3641 2581 3239 2228 
Q 2838 1875 2053 1875 
L 1259 1875 
L 1259 0 
L 628 0 
L 628 4666 
z
" transform="scale(0.015625)"/>
    </defs>
    <use xlink:href="#DejaVuSans-41"/>
    <use xlink:href="#DejaVuSans-73" x="68.408203"/>
    <use xlink:href="#DejaVuSans-73" x="120.507812"/>
    <use xlink:href="#DejaVuSans-65" x="172.607422"/>
    <use xlink:href="#DejaVuSans-73" x="234.130859"/>
    <use xlink:href="#DejaVuSans-73" x="286.230469"/>
    <use xlink:href="#DejaVuSans-69" x="338.330078"/>
    <use xlink:href="#DejaVuSans-6e" x="366.113281"/>
    <use xlink:href="#DejaVuSans-67" x="429.492188"/>
    <use xlink:href="#DejaVuSans-20" x="492.96875"/>
    <use xlink:href="#DejaVuSans-46" x="524.755859"/>
    <use xlink:href="#DejaVuSans-69" x="575.025391"/>
    <use xlink:href="#DejaVuSans-64" x="602.808594"/>
    <use xlink:href="#DejaVuSans-65" x="666.285156"/>
    <use xlink:href="#DejaVuSans-6c" x="727.808594"/>
    <use xlink:href="#DejaVuSans-69" x="755.591797"/>
    <use xlink:href="#DejaVuSans-74" x="783.375"/>
    <use xlink:href="#DejaVuSans-79" x="822.583984"/>
    <use xlink:href="#DejaVuSans-3a" x="874.513672"/>
    <use xlink:href="#DejaVuSans-20" x="908.205078"/>
    <use xlink:href="#DejaVuSans-54" x="939.992188"/>
    <use xlink:href="#DejaVuSans-69" x="997.951172"/>
    <use xlink:href="#DejaVuSans-6d" x="1025.734375"/>
    <use xlink:href="#DejaVuSans-65" x="1123.146484"/>
    <use xlink:href="#DejaVuSans-20" x="1184.669922"/>
    <use xlink:href="#DejaVuSans-53" x="1216.457031"/>
    <use xlink:href="#DejaVuSans-65" x="1279.933594"/>
    <use xlink:href="#DejaVuSans-72" x="1341.457031"/>
    <use xlink:href="#DejaVuSans-69" x="1382.570312"/>
    <use xlink:href="#DejaVuSans-65" x="1410.353516"/>
    <use xlink:href="#DejaVuSans-73" x="1471.876953"/>
    <use xlink:href="#DejaVuSans-20" x="1523.976562"/>
    <use xlink:href="#DejaVuSans-43" x="1555.763672"/>
    <use xlink:href="#DejaVuSans-6c" x="1625.587891"/>
    <use xlink:href="#DejaVuSans-61" x="1653.371094"/>
    <use xlink:href="#DejaVuSans-73" x="1714.650391"/>
    <use xlink:href="#DejaVuSans-73" x="1766.75"/>
    <use xlink:href="#DejaVuSans-69" x="1818.849609"/>
    <use xlink:href="#DejaVuSans-66" x="1846.632812"/>
    <use xlink:href="#DejaVuSans-69" x="1881.837891"/>
    <use xlink:href="#DejaVuSans-63" x="1909.621094"/>
    <use xlink:href="#DejaVuSans-61" x="1964.601562"/>
    <use xlink:href="#DejaVuSans-74" x="2025.880859"/>
    <use xlink:href="#DejaVuSans-69" x="2065.089844"/>
    <use xlink:href="#DejaVuSans-6f" x="2092.873047"/>
    <use xlink:href="#DejaVuSans-6e" x="2154.054688"/>
    <use xlink:href="#DejaVuSans-20" x="2217.433594"/>
    <use xlink:href="#DejaVuSans-50" x="2249.220703"/>
    <use xlink:href="#DejaVuSans-65" x="2305.898438"/>
    <use xlink:href="#DejaVuSans-72" x="2367.421875"/>
    <use xlink:href="#DejaVuSans-66" x="2408.535156"/>
    <use xlink:href="#DejaVuSans-6f" x="2443.740234"/>
    <use xlink:href="#DejaVuSans-72" x="2504.921875"/>
    <use xlink:href="#DejaVuSans-6d" x="2544.285156"/>
    <use xlink:href="#DejaVuSans-61" x="2641.697266"/>
    <use xlink:href="#DejaVuSans-6e" x="2702.976562"/>
    <use xlink:href="#DejaVuSans-63" x="2766.355469"/>
    <use xlink:href="#DejaVuSans-65" x="2821.335938"/>
   </g>
  </g>
 </g>
 <defs>
  <clipPath id="pab41f214b4">
   <rect x="54.02" y="43.2" width="435.085" height="202.84"/>
  </clipPath>
  <clipPath id="p62dadc587d">
   <rect x="552.62" y="43.2" width="435.085" height="202.84"/>
  </clipPath>
 </defs>
</svg>
