<?xml version="1.0" encoding="utf-8" standalone="no"?>
<!DOCTYPE svg PUBLIC "-//W3C//DTD SVG 1.1//EN"
  "http://www.w3.org/Graphics/SVG/1.1/DTD/svg11.dtd">
<svg xmlns:xlink="http://www.w3.org/1999/xlink" width="576pt" height="432pt" viewBox="0 0 576 432" xmlns="http://www.w3.org/2000/svg" version="1.1">
 <metadata>
  <rdf:RDF xmlns:dc="http://purl.org/dc/elements/1.1/" xmlns:cc="http://creativecommons.org/ns#" xmlns:rdf="http://www.w3.org/1999/02/22-rdf-syntax-ns#">
   <cc:Work>
    <dc:type rdf:resource="http://purl.org/dc/dcmitype/StillImage"/>
    <dc:date>2024-11-23T05:45:35.212869</dc:date>
    <dc:format>image/svg+xml</dc:format>
    <dc:creator>
     <cc:Agent>
      <dc:title>Matplotlib v3.7.5, https://matplotlib.org/</dc:title>
     </cc:Agent>
    </dc:creator>
   </cc:Work>
  </rdf:RDF>
 </metadata>
 <defs>
  <style type="text/css">*{stroke-linejoin: round; stroke-linecap: butt}</style>
 </defs>
 <g id="figure_1">
  <g id="patch_1">
   <path d="M 0 432 
L 576 432 
L 576 0 
L 0 0 
z
" style="fill: #ffffff"/>
  </g>
  <g id="axes_1">
   <g id="patch_2">
    <path d="M 72 384.48 
L 518.4 384.48 
L 518.4 51.84 
L 72 51.84 
z
" style="fill: #ffffff"/>
   </g>
   <g id="PolyCollection_1">
    <defs>
     <path id="m93690fb412" d="M 92.290909 -48.902606 
L 92.290909 -47.52 
L 94.330196 -47.52 
L 96.369484 -47.52 
L 98.408771 -47.52 
L 100.448058 -47.52 
L 102.487346 -47.52 
L 104.526633 -47.52 
L 106.565921 -47.52 
L 108.605208 -47.52 
L 110.644495 -47.52 
L 112.683783 -47.52 
L 114.72307 -47.52 
L 116.762357 -47.52 
L 118.801645 -47.52 
L 120.840932 -47.52 
L 122.880219 -47.52 
L 124.919507 -47.52 
L 126.958794 -47.52 
L 128.998081 -47.52 
L 131.037369 -47.52 
L 133.076656 -47.52 
L 135.115943 -47.52 
L 137.155231 -47.52 
L 139.194518 -47.52 
L 141.233805 -47.52 
L 143.273093 -47.52 
L 145.31238 -47.52 
L 147.351667 -47.52 
L 149.390955 -47.52 
L 151.430242 -47.52 
L 153.469529 -47.52 
L 155.508817 -47.52 
L 157.548104 -47.52 
L 159.587392 -47.52 
L 161.626679 -47.52 
L 163.665966 -47.52 
L 165.705254 -47.52 
L 167.744541 -47.52 
L 169.783828 -47.52 
L 171.823116 -47.52 
L 173.862403 -47.52 
L 175.90169 -47.52 
L 177.940978 -47.52 
L 179.980265 -47.52 
L 182.019552 -47.52 
L 184.05884 -47.52 
L 186.098127 -47.52 
L 188.137414 -47.52 
L 190.176702 -47.52 
L 192.215989 -47.52 
L 194.255276 -47.52 
L 196.294564 -47.52 
L 198.333851 -47.52 
L 200.373138 -47.52 
L 202.412426 -47.52 
L 204.451713 -47.52 
L 206.491 -47.52 
L 208.530288 -47.52 
L 210.569575 -47.52 
L 212.608862 -47.52 
L 214.64815 -47.52 
L 216.687437 -47.52 
L 218.726725 -47.52 
L 220.766012 -47.52 
L 222.805299 -47.52 
L 224.844587 -47.52 
L 226.883874 -47.52 
L 228.923161 -47.52 
L 230.962449 -47.52 
L 233.001736 -47.52 
L 235.041023 -47.52 
L 237.080311 -47.52 
L 239.119598 -47.52 
L 241.158885 -47.52 
L 243.198173 -47.52 
L 245.23746 -47.52 
L 247.276747 -47.52 
L 249.316035 -47.52 
L 251.355322 -47.52 
L 253.394609 -47.52 
L 255.433897 -47.52 
L 257.473184 -47.52 
L 259.512471 -47.52 
L 261.551759 -47.52 
L 263.591046 -47.52 
L 265.630333 -47.52 
L 267.669621 -47.52 
L 269.708908 -47.52 
L 271.748196 -47.52 
L 273.787483 -47.52 
L 275.82677 -47.52 
L 277.866058 -47.52 
L 279.905345 -47.52 
L 281.944632 -47.52 
L 283.98392 -47.52 
L 286.023207 -47.52 
L 288.062494 -47.52 
L 290.101782 -47.52 
L 292.141069 -47.52 
L 294.180356 -47.52 
L 296.219644 -47.52 
L 298.258931 -47.52 
L 300.298218 -47.52 
L 302.337506 -47.52 
L 304.376793 -47.52 
L 306.41608 -47.52 
L 308.455368 -47.52 
L 310.494655 -47.52 
L 312.533942 -47.52 
L 314.57323 -47.52 
L 316.612517 -47.52 
L 318.651804 -47.52 
L 320.691092 -47.52 
L 322.730379 -47.52 
L 324.769667 -47.52 
L 326.808954 -47.52 
L 328.848241 -47.52 
L 330.887529 -47.52 
L 332.926816 -47.52 
L 334.966103 -47.52 
L 337.005391 -47.52 
L 339.044678 -47.52 
L 341.083965 -47.52 
L 343.123253 -47.52 
L 345.16254 -47.52 
L 347.201827 -47.52 
L 349.241115 -47.52 
L 351.280402 -47.52 
L 353.319689 -47.52 
L 355.358977 -47.52 
L 357.398264 -47.52 
L 359.437551 -47.52 
L 361.476839 -47.52 
L 363.516126 -47.52 
L 365.555413 -47.52 
L 367.594701 -47.52 
L 369.633988 -47.52 
L 371.673275 -47.52 
L 373.712563 -47.52 
L 375.75185 -47.52 
L 377.791138 -47.52 
L 379.830425 -47.52 
L 381.869712 -47.52 
L 383.909 -47.52 
L 385.948287 -47.52 
L 387.987574 -47.52 
L 390.026862 -47.52 
L 392.066149 -47.52 
L 394.105436 -47.52 
L 396.144724 -47.52 
L 398.184011 -47.52 
L 400.223298 -47.52 
L 402.262586 -47.52 
L 404.301873 -47.52 
L 406.34116 -47.52 
L 408.380448 -47.52 
L 410.419735 -47.52 
L 412.459022 -47.52 
L 414.49831 -47.52 
L 416.537597 -47.52 
L 418.576884 -47.52 
L 420.616172 -47.52 
L 422.655459 -47.52 
L 424.694746 -47.52 
L 426.734034 -47.52 
L 428.773321 -47.52 
L 430.812608 -47.52 
L 432.851896 -47.52 
L 434.891183 -47.52 
L 436.930471 -47.52 
L 438.969758 -47.52 
L 441.009045 -47.52 
L 443.048333 -47.52 
L 445.08762 -47.52 
L 447.126907 -47.52 
L 449.166195 -47.52 
L 451.205482 -47.52 
L 453.244769 -47.52 
L 455.284057 -47.52 
L 457.323344 -47.52 
L 459.362631 -47.52 
L 461.401919 -47.52 
L 463.441206 -47.52 
L 465.480493 -47.52 
L 467.519781 -47.52 
L 469.559068 -47.52 
L 471.598355 -47.52 
L 473.637643 -47.52 
L 475.67693 -47.52 
L 477.716217 -47.52 
L 479.755505 -47.52 
L 481.794792 -47.52 
L 483.834079 -47.52 
L 485.873367 -47.52 
L 487.912654 -47.52 
L 489.951942 -47.52 
L 491.991229 -47.52 
L 494.030516 -47.52 
L 496.069804 -47.52 
L 498.109091 -47.52 
L 498.109091 -47.520994 
L 498.109091 -47.520994 
L 496.069804 -47.522656 
L 494.030516 -47.526289 
L 491.991229 -47.533194 
L 489.951942 -47.544527 
L 487.912654 -47.560401 
L 485.873367 -47.578966 
L 483.834079 -47.59626 
L 481.794792 -47.607401 
L 479.755505 -47.608804 
L 477.716217 -47.600113 
L 475.67693 -47.584533 
L 473.637643 -47.567393 
L 471.598355 -47.553996 
L 469.559068 -47.548041 
L 467.519781 -47.551038 
L 465.480493 -47.562237 
L 463.441206 -47.578653 
L 461.401919 -47.595402 
L 459.362631 -47.606949 
L 457.323344 -47.609197 
L 455.284057 -47.601387 
L 453.244769 -47.586513 
L 451.205482 -47.569963 
L 449.166195 -47.557302 
L 447.126907 -47.552465 
L 445.08762 -47.556876 
L 443.048333 -47.569239 
L 441.009045 -47.585727 
L 438.969758 -47.600828 
L 436.930471 -47.609123 
L 434.891183 -47.607536 
L 432.851896 -47.596809 
L 430.812608 -47.581204 
L 428.773321 -47.566618 
L 426.734034 -47.558262 
L 424.694746 -47.558988 
L 422.655459 -47.568552 
L 420.616172 -47.583678 
L 418.576884 -47.598929 
L 416.537597 -47.608542 
L 414.49831 -47.608789 
L 412.459022 -47.599735 
L 410.419735 -47.585259 
L 408.380448 -47.571308 
L 406.34116 -47.563393 
L 404.301873 -47.564547 
L 402.262586 -47.574336 
L 400.223298 -47.588996 
L 398.184011 -47.602714 
L 396.144724 -47.609894 
L 394.105436 -47.607635 
L 392.066149 -47.597152 
L 390.026862 -47.583236 
L 387.987574 -47.572042 
L 385.948287 -47.568398 
L 383.909 -47.573855 
L 381.869712 -47.586103 
L 379.830425 -47.599871 
L 377.791138 -47.609138 
L 375.75185 -47.609876 
L 373.712563 -47.602024 
L 371.673275 -47.589565 
L 369.633988 -47.578568 
L 367.594701 -47.574286 
L 365.555413 -47.578749 
L 363.516126 -47.589871 
L 361.476839 -47.602402 
L 359.437551 -47.610405 
L 357.398264 -47.61019 
L 355.358977 -47.602233 
L 353.319689 -47.590941 
L 351.280402 -47.58234 
L 349.241115 -47.580957 
L 347.201827 -47.587537 
L 345.16254 -47.59869 
L 343.123253 -47.608663 
L 341.083965 -47.612392 
L 339.044678 -47.608265 
L 337.005391 -47.599019 
L 334.966103 -47.590173 
L 332.926816 -47.586902 
L 330.887529 -47.59113 
L 328.848241 -47.600493 
L 326.808954 -47.60973 
L 324.769667 -47.613763 
L 322.730379 -47.610699 
L 320.691092 -47.602936 
L 318.651804 -47.595654 
L 316.612517 -47.593595 
L 314.57323 -47.598147 
L 312.533942 -47.606548 
L 310.494655 -47.6137 
L 308.455368 -47.615464 
L 306.41608 -47.611327 
L 304.376793 -47.604665 
L 302.337506 -47.60041 
L 300.298218 -47.601699 
L 298.258931 -47.607793 
L 296.219644 -47.614696 
L 294.180356 -47.618027 
L 292.141069 -47.61612 
L 290.101782 -47.611128 
L 288.062494 -47.607338 
L 286.023207 -47.607954 
L 283.98392 -47.612757 
L 281.944632 -47.618415 
L 279.905345 -47.621142 
L 277.866058 -47.619645 
L 275.82677 -47.616013 
L 273.787483 -47.613906 
L 271.748196 -47.615531 
L 269.708908 -47.619927 
L 267.669621 -47.623939 
L 265.630333 -47.624981 
L 263.591046 -47.623195 
L 261.551759 -47.621153 
L 259.512471 -47.62145 
L 257.473184 -47.624412 
L 255.433897 -47.627972 
L 253.394609 -47.629739 
L 251.355322 -47.629228 
L 249.316035 -47.628148 
L 247.276747 -47.62859 
L 245.23746 -47.630974 
L 243.198173 -47.63381 
L 241.158885 -47.635372 
L 239.119598 -47.635454 
L 237.080311 -47.635415 
L 235.041023 -47.636584 
L 233.001736 -47.638873 
L 230.962449 -47.641057 
L 228.923161 -47.642253 
L 226.883874 -47.642842 
L 224.844587 -47.643858 
L 222.805299 -47.645722 
L 220.766012 -47.64786 
L 218.726725 -47.649546 
L 216.687437 -47.650786 
L 214.64815 -47.652176 
L 212.608862 -47.654069 
L 210.569575 -47.656192 
L 208.530288 -47.658126 
L 206.491 -47.659873 
L 204.451713 -47.661758 
L 202.412426 -47.663935 
L 200.373138 -47.666231 
L 198.333851 -47.668475 
L 196.294564 -47.670742 
L 194.255276 -47.673216 
L 192.215989 -47.676005 
L 190.176702 -47.679292 
L 188.137414 -47.683723 
L 186.098127 -47.690738 
L 184.05884 -47.70277 
L 182.019552 -47.723241 
L 179.980265 -47.756009 
L 177.940978 -47.803968 
L 175.90169 -47.867235 
L 173.862403 -47.942035 
L 171.823116 -48.021257 
L 169.783828 -48.096707 
L 167.744541 -48.16192 
L 165.705254 -48.214066 
L 163.665966 -48.254192 
L 161.626679 -48.286299 
L 159.587392 -48.316538 
L 157.548104 -48.353603 
L 155.508817 -48.410273 
L 153.469529 -48.504553 
L 151.430242 -48.657643 
L 149.390955 -48.886532 
L 147.351667 -49.192377 
L 145.31238 -49.550889 
L 143.273093 -49.913248 
L 141.233805 -50.221375 
L 139.194518 -50.431397 
L 137.155231 -50.532446 
L 135.115943 -50.552474 
L 133.076656 -50.558011 
L 131.037369 -50.672444 
L 128.998081 -51.147909 
L 126.958794 -52.516225 
L 124.919507 -55.790091 
L 122.880219 -62.566631 
L 120.840932 -74.751051 
L 118.801645 -93.64649 
L 116.762357 -118.550246 
L 114.72307 -145.664892 
L 112.683783 -168.478823 
L 110.644495 -180.111515 
L 108.605208 -176.604309 
L 106.565921 -159.044472 
L 104.526633 -132.989188 
L 102.487346 -105.606013 
L 100.448058 -82.520842 
L 98.408771 -66.217244 
L 96.369484 -56.373833 
L 94.330196 -51.23631 
L 92.290909 -48.902606 
z
" style="stroke: #1f77b4"/>
    </defs>
    <g clip-path="url(#pf64bd5e2f5)">
     <use xlink:href="#m93690fb412" x="0" y="432" style="fill: #1f77b4; fill-opacity: 0.5; stroke: #1f77b4"/>
    </g>
   </g>
   <g id="PolyCollection_2">
    <defs>
     <path id="m8386b687fb" d="M 102.763108 -49.776689 
L 102.763108 -47.52 
L 103.623389 -47.52 
L 104.48367 -47.52 
L 105.343951 -47.52 
L 106.204233 -47.52 
L 107.064514 -47.52 
L 107.924795 -47.52 
L 108.785077 -47.52 
L 109.645358 -47.52 
L 110.505639 -47.52 
L 111.365921 -47.52 
L 112.226202 -47.52 
L 113.086483 -47.52 
L 113.946764 -47.52 
L 114.807046 -47.52 
L 115.667327 -47.52 
L 116.527608 -47.52 
L 117.38789 -47.52 
L 118.248171 -47.52 
L 119.108452 -47.52 
L 119.968733 -47.52 
L 120.829015 -47.52 
L 121.689296 -47.52 
L 122.549577 -47.52 
L 123.409859 -47.52 
L 124.27014 -47.52 
L 125.130421 -47.52 
L 125.990703 -47.52 
L 126.850984 -47.52 
L 127.711265 -47.52 
L 128.571546 -47.52 
L 129.431828 -47.52 
L 130.292109 -47.52 
L 131.15239 -47.52 
L 132.012672 -47.52 
L 132.872953 -47.52 
L 133.733234 -47.52 
L 134.593516 -47.52 
L 135.453797 -47.52 
L 136.314078 -47.52 
L 137.174359 -47.52 
L 138.034641 -47.52 
L 138.894922 -47.52 
L 139.755203 -47.52 
L 140.615485 -47.52 
L 141.475766 -47.52 
L 142.336047 -47.52 
L 143.196328 -47.52 
L 144.05661 -47.52 
L 144.916891 -47.52 
L 145.777172 -47.52 
L 146.637454 -47.52 
L 147.497735 -47.52 
L 148.358016 -47.52 
L 149.218298 -47.52 
L 150.078579 -47.52 
L 150.93886 -47.52 
L 151.799141 -47.52 
L 152.659423 -47.52 
L 153.519704 -47.52 
L 154.379985 -47.52 
L 155.240267 -47.52 
L 156.100548 -47.52 
L 156.960829 -47.52 
L 157.821111 -47.52 
L 158.681392 -47.52 
L 159.541673 -47.52 
L 160.401954 -47.52 
L 161.262236 -47.52 
L 162.122517 -47.52 
L 162.982798 -47.52 
L 163.84308 -47.52 
L 164.703361 -47.52 
L 165.563642 -47.52 
L 166.423923 -47.52 
L 167.284205 -47.52 
L 168.144486 -47.52 
L 169.004767 -47.52 
L 169.865049 -47.52 
L 170.72533 -47.52 
L 171.585611 -47.52 
L 172.445893 -47.52 
L 173.306174 -47.52 
L 174.166455 -47.52 
L 175.026736 -47.52 
L 175.887018 -47.52 
L 176.747299 -47.52 
L 177.60758 -47.52 
L 178.467862 -47.52 
L 179.328143 -47.52 
L 180.188424 -47.52 
L 181.048706 -47.52 
L 181.908987 -47.52 
L 182.769268 -47.52 
L 183.629549 -47.52 
L 184.489831 -47.52 
L 185.350112 -47.52 
L 186.210393 -47.52 
L 187.070675 -47.52 
L 187.930956 -47.52 
L 188.791237 -47.52 
L 189.651518 -47.52 
L 190.5118 -47.52 
L 191.372081 -47.52 
L 192.232362 -47.52 
L 193.092644 -47.52 
L 193.952925 -47.52 
L 194.813206 -47.52 
L 195.673488 -47.52 
L 196.533769 -47.52 
L 197.39405 -47.52 
L 198.254331 -47.52 
L 199.114613 -47.52 
L 199.974894 -47.52 
L 200.835175 -47.52 
L 201.695457 -47.52 
L 202.555738 -47.52 
L 203.416019 -47.52 
L 204.276301 -47.52 
L 205.136582 -47.52 
L 205.996863 -47.52 
L 206.857144 -47.52 
L 207.717426 -47.52 
L 208.577707 -47.52 
L 209.437988 -47.52 
L 210.29827 -47.52 
L 211.158551 -47.52 
L 212.018832 -47.52 
L 212.879113 -47.52 
L 213.739395 -47.52 
L 214.599676 -47.52 
L 215.459957 -47.52 
L 216.320239 -47.52 
L 217.18052 -47.52 
L 218.040801 -47.52 
L 218.901083 -47.52 
L 219.761364 -47.52 
L 220.621645 -47.52 
L 221.481926 -47.52 
L 222.342208 -47.52 
L 223.202489 -47.52 
L 224.06277 -47.52 
L 224.923052 -47.52 
L 225.783333 -47.52 
L 226.643614 -47.52 
L 227.503896 -47.52 
L 228.364177 -47.52 
L 229.224458 -47.52 
L 230.084739 -47.52 
L 230.945021 -47.52 
L 231.805302 -47.52 
L 232.665583 -47.52 
L 233.525865 -47.52 
L 234.386146 -47.52 
L 235.246427 -47.52 
L 236.106708 -47.52 
L 236.96699 -47.52 
L 237.827271 -47.52 
L 238.687552 -47.52 
L 239.547834 -47.52 
L 240.408115 -47.52 
L 241.268396 -47.52 
L 242.128678 -47.52 
L 242.988959 -47.52 
L 243.84924 -47.52 
L 244.709521 -47.52 
L 245.569803 -47.52 
L 246.430084 -47.52 
L 247.290365 -47.52 
L 248.150647 -47.52 
L 249.010928 -47.52 
L 249.871209 -47.52 
L 250.731491 -47.52 
L 251.591772 -47.52 
L 252.452053 -47.52 
L 253.312334 -47.52 
L 254.172616 -47.52 
L 255.032897 -47.52 
L 255.893178 -47.52 
L 256.75346 -47.52 
L 257.613741 -47.52 
L 258.474022 -47.52 
L 259.334303 -47.52 
L 260.194585 -47.52 
L 261.054866 -47.52 
L 261.915147 -47.52 
L 262.775429 -47.52 
L 263.63571 -47.52 
L 264.495991 -47.52 
L 265.356273 -47.52 
L 266.216554 -47.52 
L 267.076835 -47.52 
L 267.937116 -47.52 
L 268.797398 -47.52 
L 269.657679 -47.52 
L 270.51796 -47.52 
L 271.378242 -47.52 
L 272.238523 -47.52 
L 273.098804 -47.52 
L 273.959086 -47.52 
L 273.959086 -47.522554 
L 273.959086 -47.522554 
L 273.098804 -47.527099 
L 272.238523 -47.537316 
L 271.378242 -47.557074 
L 270.51796 -47.589752 
L 269.657679 -47.63559 
L 268.797398 -47.68949 
L 267.937116 -47.741889 
L 267.076835 -47.783776 
L 266.216554 -47.812987 
L 265.356273 -47.836267 
L 264.495991 -47.863938 
L 263.63571 -47.900448 
L 262.775429 -47.938367 
L 261.915147 -47.961111 
L 261.054866 -47.952659 
L 260.194585 -47.907299 
L 259.334303 -47.832981 
L 258.474022 -47.746874 
L 257.613741 -47.66689 
L 256.75346 -47.604668 
L 255.893178 -47.563327 
L 255.032897 -47.539638 
L 254.172616 -47.527867 
L 253.312334 -47.522781 
L 252.452053 -47.520866 
L 251.591772 -47.520237 
L 250.731491 -47.520057 
L 249.871209 -47.520012 
L 249.010928 -47.520002 
L 248.150647 -47.52 
L 247.290365 -47.52 
L 246.430084 -47.52 
L 245.569803 -47.52 
L 244.709521 -47.52 
L 243.84924 -47.52 
L 242.988959 -47.52 
L 242.128678 -47.52 
L 241.268396 -47.52 
L 240.408115 -47.52 
L 239.547834 -47.52 
L 238.687552 -47.52 
L 237.827271 -47.52 
L 236.96699 -47.520001 
L 236.106708 -47.520004 
L 235.246427 -47.520019 
L 234.386146 -47.520084 
L 233.525865 -47.520333 
L 232.665583 -47.521155 
L 231.805302 -47.523519 
L 230.945021 -47.5294 
L 230.084739 -47.542015 
L 229.224458 -47.565206 
L 228.364177 -47.601392 
L 227.503896 -47.648493 
L 226.643614 -47.697862 
L 225.783333 -47.735872 
L 224.923052 -47.74973 
L 224.06277 -47.734362 
L 223.202489 -47.695383 
L 222.342208 -47.645816 
L 221.481926 -47.599145 
L 220.621645 -47.563678 
L 219.761364 -47.54125 
L 218.901083 -47.52952 
L 218.040801 -47.525326 
L 217.18052 -47.527248 
L 216.320239 -47.537059 
L 215.459957 -47.56023 
L 214.599676 -47.605078 
L 213.739395 -47.679633 
L 212.879113 -47.786283 
L 212.018832 -47.91668 
L 211.158551 -48.051013 
L 210.29827 -48.163738 
L 209.437988 -48.233032 
L 208.577707 -48.247965 
L 207.717426 -48.209676 
L 206.857144 -48.128127 
L 205.996863 -48.018471 
L 205.136582 -47.89882 
L 204.276301 -47.788151 
L 203.416019 -47.703072 
L 202.555738 -47.654237 
L 201.695457 -47.643961 
L 200.835175 -47.665695 
L 199.974894 -47.705542 
L 199.114613 -47.746437 
L 198.254331 -47.774739 
L 197.39405 -47.786238 
L 196.533769 -47.786857 
L 195.673488 -47.786474 
L 194.813206 -47.79043 
L 193.952925 -47.79619 
L 193.092644 -47.798371 
L 192.232362 -47.79743 
L 191.372081 -47.803535 
L 190.5118 -47.831289 
L 189.651518 -47.888926 
L 188.791237 -47.970051 
L 187.930956 -48.053761 
L 187.070675 -48.112916 
L 186.210393 -48.125575 
L 185.350112 -48.083798 
L 184.489831 -47.99614 
L 183.629549 -47.883321 
L 182.769268 -47.769525 
L 181.908987 -47.673648 
L 181.048706 -47.604514 
L 180.188424 -47.561388 
L 179.328143 -47.537994 
L 178.467862 -47.52693 
L 177.60758 -47.522367 
L 176.747299 -47.520753 
L 175.887018 -47.520376 
L 175.026736 -47.520736 
L 174.166455 -47.522238 
L 173.306174 -47.526296 
L 172.445893 -47.535588 
L 171.585611 -47.553846 
L 170.72533 -47.584436 
L 169.865049 -47.627563 
L 169.004767 -47.677437 
L 168.144486 -47.72205 
L 167.284205 -47.747363 
L 166.423923 -47.74433 
L 165.563642 -47.714073 
L 164.703361 -47.667215 
L 163.84308 -47.617914 
L 162.982798 -47.577102 
L 162.122517 -47.5492 
L 161.262236 -47.533099 
L 160.401954 -47.525187 
L 159.541673 -47.521951 
L 158.681392 -47.521216 
L 157.821111 -47.522442 
L 156.960829 -47.526887 
L 156.100548 -47.538001 
L 155.240267 -47.56165 
L 154.379985 -47.60508 
L 153.519704 -47.673618 
L 152.659423 -47.765734 
L 151.799141 -47.869519 
L 150.93886 -47.964557 
L 150.078579 -48.029964 
L 149.218298 -48.053892 
L 148.358016 -48.037469 
L 147.497735 -47.990691 
L 146.637454 -47.924957 
L 145.777172 -47.848955 
L 144.916891 -47.769628 
L 144.05661 -47.694373 
L 143.196328 -47.630718 
L 142.336047 -47.583915 
L 141.475766 -47.555502 
L 140.615485 -47.544448 
L 139.755203 -47.549658 
L 138.894922 -47.571413 
L 138.034641 -47.61037 
L 137.174359 -47.66485 
L 136.314078 -47.728863 
L 135.453797 -47.79326 
L 134.593516 -47.849861 
L 133.733234 -47.895525 
L 132.872953 -47.93286 
L 132.012672 -47.967503 
L 131.15239 -48.004796 
L 130.292109 -48.048043 
L 129.431828 -48.097675 
L 128.571546 -48.14995 
L 127.711265 -48.195949 
L 126.850984 -48.22344 
L 125.990703 -48.222466 
L 125.130421 -48.191917 
L 124.27014 -48.14335 
L 123.409859 -48.101802 
L 122.549577 -48.108532 
L 121.689296 -48.234288 
L 120.829015 -48.615219 
L 119.968733 -49.528533 
L 119.108452 -51.525379 
L 118.248171 -55.622283 
L 117.38789 -63.5116 
L 116.527608 -77.681524 
L 115.667327 -101.227916 
L 114.807046 -137.021689 
L 113.946764 -185.951183 
L 113.086483 -244.526382 
L 112.226202 -303.240936 
L 111.365921 -347.81625 
L 110.505639 -364.32 
L 109.645358 -346.067247 
L 108.785077 -297.748075 
L 107.924795 -233.442425 
L 107.064514 -169.686217 
L 106.204233 -118.383788 
L 105.343951 -83.759742 
L 104.48367 -63.843471 
L 103.623389 -53.991267 
L 102.763108 -49.776689 
z
" style="stroke: #ff7f0e"/>
    </defs>
    <g clip-path="url(#pf64bd5e2f5)">
     <use xlink:href="#m8386b687fb" x="0" y="432" style="fill: #ff7f0e; fill-opacity: 0.5; stroke: #ff7f0e"/>
    </g>
   </g>
   <g id="matplotlib.axis_1">
    <g id="xtick_1">
     <g id="line2d_1">
      <defs>
       <path id="m465f8c42d0" d="M 0 0 
L 0 3.5 
" style="stroke: #000000; stroke-width: 0.8"/>
      </defs>
      <g>
       <use xlink:href="#m465f8c42d0" x="109.881268" y="384.48" style="stroke: #000000; stroke-width: 0.8"/>
      </g>
     </g>
     <g id="text_1">
      <!-- 0.0 -->
      <g transform="translate(101.929706 399.078438) scale(0.1 -0.1)">
       <defs>
        <path id="DejaVuSans-30" d="M 2034 4250 
Q 1547 4250 1301 3770 
Q 1056 3291 1056 2328 
Q 1056 1369 1301 889 
Q 1547 409 2034 409 
Q 2525 409 2770 889 
Q 3016 1369 3016 2328 
Q 3016 3291 2770 3770 
Q 2525 4250 2034 4250 
z
M 2034 4750 
Q 2819 4750 3233 4129 
Q 3647 3509 3647 2328 
Q 3647 1150 3233 529 
Q 2819 -91 2034 -91 
Q 1250 -91 836 529 
Q 422 1150 422 2328 
Q 422 3509 836 4129 
Q 1250 4750 2034 4750 
z
" transform="scale(0.015625)"/>
        <path id="DejaVuSans-2e" d="M 684 794 
L 1344 794 
L 1344 0 
L 684 0 
L 684 794 
z
" transform="scale(0.015625)"/>
       </defs>
       <use xlink:href="#DejaVuSans-30"/>
       <use xlink:href="#DejaVuSans-2e" x="63.623047"/>
       <use xlink:href="#DejaVuSans-30" x="95.410156"/>
      </g>
     </g>
    </g>
    <g id="xtick_2">
     <g id="line2d_2">
      <g>
       <use xlink:href="#m465f8c42d0" x="184.008761" y="384.48" style="stroke: #000000; stroke-width: 0.8"/>
      </g>
     </g>
     <g id="text_2">
      <!-- 0.2 -->
      <g transform="translate(176.057198 399.078438) scale(0.1 -0.1)">
       <defs>
        <path id="DejaVuSans-32" d="M 1228 531 
L 3431 531 
L 3431 0 
L 469 0 
L 469 531 
Q 828 903 1448 1529 
Q 2069 2156 2228 2338 
Q 2531 2678 2651 2914 
Q 2772 3150 2772 3378 
Q 2772 3750 2511 3984 
Q 2250 4219 1831 4219 
Q 1534 4219 1204 4116 
Q 875 4013 500 3803 
L 500 4441 
Q 881 4594 1212 4672 
Q 1544 4750 1819 4750 
Q 2544 4750 2975 4387 
Q 3406 4025 3406 3419 
Q 3406 3131 3298 2873 
Q 3191 2616 2906 2266 
Q 2828 2175 2409 1742 
Q 1991 1309 1228 531 
z
" transform="scale(0.015625)"/>
       </defs>
       <use xlink:href="#DejaVuSans-30"/>
       <use xlink:href="#DejaVuSans-2e" x="63.623047"/>
       <use xlink:href="#DejaVuSans-32" x="95.410156"/>
      </g>
     </g>
    </g>
    <g id="xtick_3">
     <g id="line2d_3">
      <g>
       <use xlink:href="#m465f8c42d0" x="258.136254" y="384.48" style="stroke: #000000; stroke-width: 0.8"/>
      </g>
     </g>
     <g id="text_3">
      <!-- 0.4 -->
      <g transform="translate(250.184691 399.078438) scale(0.1 -0.1)">
       <defs>
        <path id="DejaVuSans-34" d="M 2419 4116 
L 825 1625 
L 2419 1625 
L 2419 4116 
z
M 2253 4666 
L 3047 4666 
L 3047 1625 
L 3713 1625 
L 3713 1100 
L 3047 1100 
L 3047 0 
L 2419 0 
L 2419 1100 
L 313 1100 
L 313 1709 
L 2253 4666 
z
" transform="scale(0.015625)"/>
       </defs>
       <use xlink:href="#DejaVuSans-30"/>
       <use xlink:href="#DejaVuSans-2e" x="63.623047"/>
       <use xlink:href="#DejaVuSans-34" x="95.410156"/>
      </g>
     </g>
    </g>
    <g id="xtick_4">
     <g id="line2d_4">
      <g>
       <use xlink:href="#m465f8c42d0" x="332.263746" y="384.48" style="stroke: #000000; stroke-width: 0.8"/>
      </g>
     </g>
     <g id="text_4">
      <!-- 0.6 -->
      <g transform="translate(324.312184 399.078438) scale(0.1 -0.1)">
       <defs>
        <path id="DejaVuSans-36" d="M 2113 2584 
Q 1688 2584 1439 2293 
Q 1191 2003 1191 1497 
Q 1191 994 1439 701 
Q 1688 409 2113 409 
Q 2538 409 2786 701 
Q 3034 994 3034 1497 
Q 3034 2003 2786 2293 
Q 2538 2584 2113 2584 
z
M 3366 4563 
L 3366 3988 
Q 3128 4100 2886 4159 
Q 2644 4219 2406 4219 
Q 1781 4219 1451 3797 
Q 1122 3375 1075 2522 
Q 1259 2794 1537 2939 
Q 1816 3084 2150 3084 
Q 2853 3084 3261 2657 
Q 3669 2231 3669 1497 
Q 3669 778 3244 343 
Q 2819 -91 2113 -91 
Q 1303 -91 875 529 
Q 447 1150 447 2328 
Q 447 3434 972 4092 
Q 1497 4750 2381 4750 
Q 2619 4750 2861 4703 
Q 3103 4656 3366 4563 
z
" transform="scale(0.015625)"/>
       </defs>
       <use xlink:href="#DejaVuSans-30"/>
       <use xlink:href="#DejaVuSans-2e" x="63.623047"/>
       <use xlink:href="#DejaVuSans-36" x="95.410156"/>
      </g>
     </g>
    </g>
    <g id="xtick_5">
     <g id="line2d_5">
      <g>
       <use xlink:href="#m465f8c42d0" x="406.391239" y="384.48" style="stroke: #000000; stroke-width: 0.8"/>
      </g>
     </g>
     <g id="text_5">
      <!-- 0.8 -->
      <g transform="translate(398.439677 399.078438) scale(0.1 -0.1)">
       <defs>
        <path id="DejaVuSans-38" d="M 2034 2216 
Q 1584 2216 1326 1975 
Q 1069 1734 1069 1313 
Q 1069 891 1326 650 
Q 1584 409 2034 409 
Q 2484 409 2743 651 
Q 3003 894 3003 1313 
Q 3003 1734 2745 1975 
Q 2488 2216 2034 2216 
z
M 1403 2484 
Q 997 2584 770 2862 
Q 544 3141 544 3541 
Q 544 4100 942 4425 
Q 1341 4750 2034 4750 
Q 2731 4750 3128 4425 
Q 3525 4100 3525 3541 
Q 3525 3141 3298 2862 
Q 3072 2584 2669 2484 
Q 3125 2378 3379 2068 
Q 3634 1759 3634 1313 
Q 3634 634 3220 271 
Q 2806 -91 2034 -91 
Q 1263 -91 848 271 
Q 434 634 434 1313 
Q 434 1759 690 2068 
Q 947 2378 1403 2484 
z
M 1172 3481 
Q 1172 3119 1398 2916 
Q 1625 2713 2034 2713 
Q 2441 2713 2670 2916 
Q 2900 3119 2900 3481 
Q 2900 3844 2670 4047 
Q 2441 4250 2034 4250 
Q 1625 4250 1398 4047 
Q 1172 3844 1172 3481 
z
" transform="scale(0.015625)"/>
       </defs>
       <use xlink:href="#DejaVuSans-30"/>
       <use xlink:href="#DejaVuSans-2e" x="63.623047"/>
       <use xlink:href="#DejaVuSans-38" x="95.410156"/>
      </g>
     </g>
    </g>
    <g id="xtick_6">
     <g id="line2d_6">
      <g>
       <use xlink:href="#m465f8c42d0" x="480.518732" y="384.48" style="stroke: #000000; stroke-width: 0.8"/>
      </g>
     </g>
     <g id="text_6">
      <!-- 1.0 -->
      <g transform="translate(472.567169 399.078438) scale(0.1 -0.1)">
       <defs>
        <path id="DejaVuSans-31" d="M 794 531 
L 1825 531 
L 1825 4091 
L 703 3866 
L 703 4441 
L 1819 4666 
L 2450 4666 
L 2450 531 
L 3481 531 
L 3481 0 
L 794 0 
L 794 531 
z
" transform="scale(0.015625)"/>
       </defs>
       <use xlink:href="#DejaVuSans-31"/>
       <use xlink:href="#DejaVuSans-2e" x="63.623047"/>
       <use xlink:href="#DejaVuSans-30" x="95.410156"/>
      </g>
     </g>
    </g>
    <g id="text_7">
     <!-- GFAP -->
     <g transform="translate(282.471094 412.756563) scale(0.1 -0.1)">
      <defs>
       <path id="DejaVuSans-47" d="M 3809 666 
L 3809 1919 
L 2778 1919 
L 2778 2438 
L 4434 2438 
L 4434 434 
Q 4069 175 3628 42 
Q 3188 -91 2688 -91 
Q 1594 -91 976 548 
Q 359 1188 359 2328 
Q 359 3472 976 4111 
Q 1594 4750 2688 4750 
Q 3144 4750 3555 4637 
Q 3966 4525 4313 4306 
L 4313 3634 
Q 3963 3931 3569 4081 
Q 3175 4231 2741 4231 
Q 1884 4231 1454 3753 
Q 1025 3275 1025 2328 
Q 1025 1384 1454 906 
Q 1884 428 2741 428 
Q 3075 428 3337 486 
Q 3600 544 3809 666 
z
" transform="scale(0.015625)"/>
       <path id="DejaVuSans-46" d="M 628 4666 
L 3309 4666 
L 3309 4134 
L 1259 4134 
L 1259 2759 
L 3109 2759 
L 3109 2228 
L 1259 2228 
L 1259 0 
L 628 0 
L 628 4666 
z
" transform="scale(0.015625)"/>
       <path id="DejaVuSans-41" d="M 2188 4044 
L 1331 1722 
L 3047 1722 
L 2188 4044 
z
M 1831 4666 
L 2547 4666 
L 4325 0 
L 3669 0 
L 3244 1197 
L 1141 1197 
L 716 0 
L 50 0 
L 1831 4666 
z
" transform="scale(0.015625)"/>
       <path id="DejaVuSans-50" d="M 1259 4147 
L 1259 2394 
L 2053 2394 
Q 2494 2394 2734 2622 
Q 2975 2850 2975 3272 
Q 2975 3691 2734 3919 
Q 2494 4147 2053 4147 
L 1259 4147 
z
M 628 4666 
L 2053 4666 
Q 2838 4666 3239 4311 
Q 3641 3956 3641 3272 
Q 3641 2581 3239 2228 
Q 2838 1875 2053 1875 
L 1259 1875 
L 1259 0 
L 628 0 
L 628 4666 
z
" transform="scale(0.015625)"/>
      </defs>
      <use xlink:href="#DejaVuSans-47"/>
      <use xlink:href="#DejaVuSans-46" x="77.490234"/>
      <use xlink:href="#DejaVuSans-41" x="125.884766"/>
      <use xlink:href="#DejaVuSans-50" x="194.292969"/>
     </g>
    </g>
   </g>
   <g id="matplotlib.axis_2">
    <g id="ytick_1">
     <g id="line2d_7">
      <defs>
       <path id="m623fac920a" d="M 0 0 
L -3.5 0 
" style="stroke: #000000; stroke-width: 0.8"/>
      </defs>
      <g>
       <use xlink:href="#m623fac920a" x="72" y="384.48" style="stroke: #000000; stroke-width: 0.8"/>
      </g>
     </g>
     <g id="text_8">
      <!-- 0 -->
      <g transform="translate(58.6375 388.279219) scale(0.1 -0.1)">
       <use xlink:href="#DejaVuSans-30"/>
      </g>
     </g>
    </g>
    <g id="ytick_2">
     <g id="line2d_8">
      <g>
       <use xlink:href="#m623fac920a" x="72" y="327.853937" style="stroke: #000000; stroke-width: 0.8"/>
      </g>
     </g>
     <g id="text_9">
      <!-- 10 -->
      <g transform="translate(52.275 331.653156) scale(0.1 -0.1)">
       <use xlink:href="#DejaVuSans-31"/>
       <use xlink:href="#DejaVuSans-30" x="63.623047"/>
      </g>
     </g>
    </g>
    <g id="ytick_3">
     <g id="line2d_9">
      <g>
       <use xlink:href="#m623fac920a" x="72" y="271.227875" style="stroke: #000000; stroke-width: 0.8"/>
      </g>
     </g>
     <g id="text_10">
      <!-- 20 -->
      <g transform="translate(52.275 275.027093) scale(0.1 -0.1)">
       <use xlink:href="#DejaVuSans-32"/>
       <use xlink:href="#DejaVuSans-30" x="63.623047"/>
      </g>
     </g>
    </g>
    <g id="ytick_4">
     <g id="line2d_10">
      <g>
       <use xlink:href="#m623fac920a" x="72" y="214.601812" style="stroke: #000000; stroke-width: 0.8"/>
      </g>
     </g>
     <g id="text_11">
      <!-- 30 -->
      <g transform="translate(52.275 218.401031) scale(0.1 -0.1)">
       <defs>
        <path id="DejaVuSans-33" d="M 2597 2516 
Q 3050 2419 3304 2112 
Q 3559 1806 3559 1356 
Q 3559 666 3084 287 
Q 2609 -91 1734 -91 
Q 1441 -91 1130 -33 
Q 819 25 488 141 
L 488 750 
Q 750 597 1062 519 
Q 1375 441 1716 441 
Q 2309 441 2620 675 
Q 2931 909 2931 1356 
Q 2931 1769 2642 2001 
Q 2353 2234 1838 2234 
L 1294 2234 
L 1294 2753 
L 1863 2753 
Q 2328 2753 2575 2939 
Q 2822 3125 2822 3475 
Q 2822 3834 2567 4026 
Q 2313 4219 1838 4219 
Q 1578 4219 1281 4162 
Q 984 4106 628 3988 
L 628 4550 
Q 988 4650 1302 4700 
Q 1616 4750 1894 4750 
Q 2613 4750 3031 4423 
Q 3450 4097 3450 3541 
Q 3450 3153 3228 2886 
Q 3006 2619 2597 2516 
z
" transform="scale(0.015625)"/>
       </defs>
       <use xlink:href="#DejaVuSans-33"/>
       <use xlink:href="#DejaVuSans-30" x="63.623047"/>
      </g>
     </g>
    </g>
    <g id="ytick_5">
     <g id="line2d_11">
      <g>
       <use xlink:href="#m623fac920a" x="72" y="157.975749" style="stroke: #000000; stroke-width: 0.8"/>
      </g>
     </g>
     <g id="text_12">
      <!-- 40 -->
      <g transform="translate(52.275 161.774968) scale(0.1 -0.1)">
       <use xlink:href="#DejaVuSans-34"/>
       <use xlink:href="#DejaVuSans-30" x="63.623047"/>
      </g>
     </g>
    </g>
    <g id="ytick_6">
     <g id="line2d_12">
      <g>
       <use xlink:href="#m623fac920a" x="72" y="101.349686" style="stroke: #000000; stroke-width: 0.8"/>
      </g>
     </g>
     <g id="text_13">
      <!-- 50 -->
      <g transform="translate(52.275 105.148905) scale(0.1 -0.1)">
       <defs>
        <path id="DejaVuSans-35" d="M 691 4666 
L 3169 4666 
L 3169 4134 
L 1269 4134 
L 1269 2991 
Q 1406 3038 1543 3061 
Q 1681 3084 1819 3084 
Q 2600 3084 3056 2656 
Q 3513 2228 3513 1497 
Q 3513 744 3044 326 
Q 2575 -91 1722 -91 
Q 1428 -91 1123 -41 
Q 819 9 494 109 
L 494 744 
Q 775 591 1075 516 
Q 1375 441 1709 441 
Q 2250 441 2565 725 
Q 2881 1009 2881 1497 
Q 2881 1984 2565 2268 
Q 2250 2553 1709 2553 
Q 1456 2553 1204 2497 
Q 953 2441 691 2322 
L 691 4666 
z
" transform="scale(0.015625)"/>
       </defs>
       <use xlink:href="#DejaVuSans-35"/>
       <use xlink:href="#DejaVuSans-30" x="63.623047"/>
      </g>
     </g>
    </g>
    <g id="text_14">
     <!-- Density -->
     <g transform="translate(46.195312 237.168594) rotate(-90) scale(0.1 -0.1)">
      <defs>
       <path id="DejaVuSans-44" d="M 1259 4147 
L 1259 519 
L 2022 519 
Q 2988 519 3436 956 
Q 3884 1394 3884 2338 
Q 3884 3275 3436 3711 
Q 2988 4147 2022 4147 
L 1259 4147 
z
M 628 4666 
L 1925 4666 
Q 3281 4666 3915 4102 
Q 4550 3538 4550 2338 
Q 4550 1131 3912 565 
Q 3275 0 1925 0 
L 628 0 
L 628 4666 
z
" transform="scale(0.015625)"/>
       <path id="DejaVuSans-65" d="M 3597 1894 
L 3597 1613 
L 953 1613 
Q 991 1019 1311 708 
Q 1631 397 2203 397 
Q 2534 397 2845 478 
Q 3156 559 3463 722 
L 3463 178 
Q 3153 47 2828 -22 
Q 2503 -91 2169 -91 
Q 1331 -91 842 396 
Q 353 884 353 1716 
Q 353 2575 817 3079 
Q 1281 3584 2069 3584 
Q 2775 3584 3186 3129 
Q 3597 2675 3597 1894 
z
M 3022 2063 
Q 3016 2534 2758 2815 
Q 2500 3097 2075 3097 
Q 1594 3097 1305 2825 
Q 1016 2553 972 2059 
L 3022 2063 
z
" transform="scale(0.015625)"/>
       <path id="DejaVuSans-6e" d="M 3513 2113 
L 3513 0 
L 2938 0 
L 2938 2094 
Q 2938 2591 2744 2837 
Q 2550 3084 2163 3084 
Q 1697 3084 1428 2787 
Q 1159 2491 1159 1978 
L 1159 0 
L 581 0 
L 581 3500 
L 1159 3500 
L 1159 2956 
Q 1366 3272 1645 3428 
Q 1925 3584 2291 3584 
Q 2894 3584 3203 3211 
Q 3513 2838 3513 2113 
z
" transform="scale(0.015625)"/>
       <path id="DejaVuSans-73" d="M 2834 3397 
L 2834 2853 
Q 2591 2978 2328 3040 
Q 2066 3103 1784 3103 
Q 1356 3103 1142 2972 
Q 928 2841 928 2578 
Q 928 2378 1081 2264 
Q 1234 2150 1697 2047 
L 1894 2003 
Q 2506 1872 2764 1633 
Q 3022 1394 3022 966 
Q 3022 478 2636 193 
Q 2250 -91 1575 -91 
Q 1294 -91 989 -36 
Q 684 19 347 128 
L 347 722 
Q 666 556 975 473 
Q 1284 391 1588 391 
Q 1994 391 2212 530 
Q 2431 669 2431 922 
Q 2431 1156 2273 1281 
Q 2116 1406 1581 1522 
L 1381 1569 
Q 847 1681 609 1914 
Q 372 2147 372 2553 
Q 372 3047 722 3315 
Q 1072 3584 1716 3584 
Q 2034 3584 2315 3537 
Q 2597 3491 2834 3397 
z
" transform="scale(0.015625)"/>
       <path id="DejaVuSans-69" d="M 603 3500 
L 1178 3500 
L 1178 0 
L 603 0 
L 603 3500 
z
M 603 4863 
L 1178 4863 
L 1178 4134 
L 603 4134 
L 603 4863 
z
" transform="scale(0.015625)"/>
       <path id="DejaVuSans-74" d="M 1172 4494 
L 1172 3500 
L 2356 3500 
L 2356 3053 
L 1172 3053 
L 1172 1153 
Q 1172 725 1289 603 
Q 1406 481 1766 481 
L 2356 481 
L 2356 0 
L 1766 0 
Q 1100 0 847 248 
Q 594 497 594 1153 
L 594 3053 
L 172 3053 
L 172 3500 
L 594 3500 
L 594 4494 
L 1172 4494 
z
" transform="scale(0.015625)"/>
       <path id="DejaVuSans-79" d="M 2059 -325 
Q 1816 -950 1584 -1140 
Q 1353 -1331 966 -1331 
L 506 -1331 
L 506 -850 
L 844 -850 
Q 1081 -850 1212 -737 
Q 1344 -625 1503 -206 
L 1606 56 
L 191 3500 
L 800 3500 
L 1894 763 
L 2988 3500 
L 3597 3500 
L 2059 -325 
z
" transform="scale(0.015625)"/>
      </defs>
      <use xlink:href="#DejaVuSans-44"/>
      <use xlink:href="#DejaVuSans-65" x="77.001953"/>
      <use xlink:href="#DejaVuSans-6e" x="138.525391"/>
      <use xlink:href="#DejaVuSans-73" x="201.904297"/>
      <use xlink:href="#DejaVuSans-69" x="254.003906"/>
      <use xlink:href="#DejaVuSans-74" x="281.787109"/>
      <use xlink:href="#DejaVuSans-79" x="320.996094"/>
     </g>
    </g>
   </g>
   <g id="patch_3">
    <path d="M 72 384.48 
L 72 51.84 
" style="fill: none; stroke: #000000; stroke-width: 0.8; stroke-linejoin: miter; stroke-linecap: square"/>
   </g>
   <g id="patch_4">
    <path d="M 518.4 384.48 
L 518.4 51.84 
" style="fill: none; stroke: #000000; stroke-width: 0.8; stroke-linejoin: miter; stroke-linecap: square"/>
   </g>
   <g id="patch_5">
    <path d="M 72 384.48 
L 518.4 384.48 
" style="fill: none; stroke: #000000; stroke-width: 0.8; stroke-linejoin: miter; stroke-linecap: square"/>
   </g>
   <g id="patch_6">
    <path d="M 72 51.84 
L 518.4 51.84 
" style="fill: none; stroke: #000000; stroke-width: 0.8; stroke-linejoin: miter; stroke-linecap: square"/>
   </g>
   <g id="text_15">
    <!-- KDE Plot of GFAP (Real vs Synthetic) -->
    <g transform="translate(186.425625 45.84) scale(0.12 -0.12)">
     <defs>
      <path id="DejaVuSans-4b" d="M 628 4666 
L 1259 4666 
L 1259 2694 
L 3353 4666 
L 4166 4666 
L 1850 2491 
L 4331 0 
L 3500 0 
L 1259 2247 
L 1259 0 
L 628 0 
L 628 4666 
z
" transform="scale(0.015625)"/>
      <path id="DejaVuSans-45" d="M 628 4666 
L 3578 4666 
L 3578 4134 
L 1259 4134 
L 1259 2753 
L 3481 2753 
L 3481 2222 
L 1259 2222 
L 1259 531 
L 3634 531 
L 3634 0 
L 628 0 
L 628 4666 
z
" transform="scale(0.015625)"/>
      <path id="DejaVuSans-20" transform="scale(0.015625)"/>
      <path id="DejaVuSans-6c" d="M 603 4863 
L 1178 4863 
L 1178 0 
L 603 0 
L 603 4863 
z
" transform="scale(0.015625)"/>
      <path id="DejaVuSans-6f" d="M 1959 3097 
Q 1497 3097 1228 2736 
Q 959 2375 959 1747 
Q 959 1119 1226 758 
Q 1494 397 1959 397 
Q 2419 397 2687 759 
Q 2956 1122 2956 1747 
Q 2956 2369 2687 2733 
Q 2419 3097 1959 3097 
z
M 1959 3584 
Q 2709 3584 3137 3096 
Q 3566 2609 3566 1747 
Q 3566 888 3137 398 
Q 2709 -91 1959 -91 
Q 1206 -91 779 398 
Q 353 888 353 1747 
Q 353 2609 779 3096 
Q 1206 3584 1959 3584 
z
" transform="scale(0.015625)"/>
      <path id="DejaVuSans-66" d="M 2375 4863 
L 2375 4384 
L 1825 4384 
Q 1516 4384 1395 4259 
Q 1275 4134 1275 3809 
L 1275 3500 
L 2222 3500 
L 2222 3053 
L 1275 3053 
L 1275 0 
L 697 0 
L 697 3053 
L 147 3053 
L 147 3500 
L 697 3500 
L 697 3744 
Q 697 4328 969 4595 
Q 1241 4863 1831 4863 
L 2375 4863 
z
" transform="scale(0.015625)"/>
      <path id="DejaVuSans-28" d="M 1984 4856 
Q 1566 4138 1362 3434 
Q 1159 2731 1159 2009 
Q 1159 1288 1364 580 
Q 1569 -128 1984 -844 
L 1484 -844 
Q 1016 -109 783 600 
Q 550 1309 550 2009 
Q 550 2706 781 3412 
Q 1013 4119 1484 4856 
L 1984 4856 
z
" transform="scale(0.015625)"/>
      <path id="DejaVuSans-52" d="M 2841 2188 
Q 3044 2119 3236 1894 
Q 3428 1669 3622 1275 
L 4263 0 
L 3584 0 
L 2988 1197 
Q 2756 1666 2539 1819 
Q 2322 1972 1947 1972 
L 1259 1972 
L 1259 0 
L 628 0 
L 628 4666 
L 2053 4666 
Q 2853 4666 3247 4331 
Q 3641 3997 3641 3322 
Q 3641 2881 3436 2590 
Q 3231 2300 2841 2188 
z
M 1259 4147 
L 1259 2491 
L 2053 2491 
Q 2509 2491 2742 2702 
Q 2975 2913 2975 3322 
Q 2975 3731 2742 3939 
Q 2509 4147 2053 4147 
L 1259 4147 
z
" transform="scale(0.015625)"/>
      <path id="DejaVuSans-61" d="M 2194 1759 
Q 1497 1759 1228 1600 
Q 959 1441 959 1056 
Q 959 750 1161 570 
Q 1363 391 1709 391 
Q 2188 391 2477 730 
Q 2766 1069 2766 1631 
L 2766 1759 
L 2194 1759 
z
M 3341 1997 
L 3341 0 
L 2766 0 
L 2766 531 
Q 2569 213 2275 61 
Q 1981 -91 1556 -91 
Q 1019 -91 701 211 
Q 384 513 384 1019 
Q 384 1609 779 1909 
Q 1175 2209 1959 2209 
L 2766 2209 
L 2766 2266 
Q 2766 2663 2505 2880 
Q 2244 3097 1772 3097 
Q 1472 3097 1187 3025 
Q 903 2953 641 2809 
L 641 3341 
Q 956 3463 1253 3523 
Q 1550 3584 1831 3584 
Q 2591 3584 2966 3190 
Q 3341 2797 3341 1997 
z
" transform="scale(0.015625)"/>
      <path id="DejaVuSans-76" d="M 191 3500 
L 800 3500 
L 1894 563 
L 2988 3500 
L 3597 3500 
L 2284 0 
L 1503 0 
L 191 3500 
z
" transform="scale(0.015625)"/>
      <path id="DejaVuSans-53" d="M 3425 4513 
L 3425 3897 
Q 3066 4069 2747 4153 
Q 2428 4238 2131 4238 
Q 1616 4238 1336 4038 
Q 1056 3838 1056 3469 
Q 1056 3159 1242 3001 
Q 1428 2844 1947 2747 
L 2328 2669 
Q 3034 2534 3370 2195 
Q 3706 1856 3706 1288 
Q 3706 609 3251 259 
Q 2797 -91 1919 -91 
Q 1588 -91 1214 -16 
Q 841 59 441 206 
L 441 856 
Q 825 641 1194 531 
Q 1563 422 1919 422 
Q 2459 422 2753 634 
Q 3047 847 3047 1241 
Q 3047 1584 2836 1778 
Q 2625 1972 2144 2069 
L 1759 2144 
Q 1053 2284 737 2584 
Q 422 2884 422 3419 
Q 422 4038 858 4394 
Q 1294 4750 2059 4750 
Q 2388 4750 2728 4690 
Q 3069 4631 3425 4513 
z
" transform="scale(0.015625)"/>
      <path id="DejaVuSans-68" d="M 3513 2113 
L 3513 0 
L 2938 0 
L 2938 2094 
Q 2938 2591 2744 2837 
Q 2550 3084 2163 3084 
Q 1697 3084 1428 2787 
Q 1159 2491 1159 1978 
L 1159 0 
L 581 0 
L 581 4863 
L 1159 4863 
L 1159 2956 
Q 1366 3272 1645 3428 
Q 1925 3584 2291 3584 
Q 2894 3584 3203 3211 
Q 3513 2838 3513 2113 
z
" transform="scale(0.015625)"/>
      <path id="DejaVuSans-63" d="M 3122 3366 
L 3122 2828 
Q 2878 2963 2633 3030 
Q 2388 3097 2138 3097 
Q 1578 3097 1268 2742 
Q 959 2388 959 1747 
Q 959 1106 1268 751 
Q 1578 397 2138 397 
Q 2388 397 2633 464 
Q 2878 531 3122 666 
L 3122 134 
Q 2881 22 2623 -34 
Q 2366 -91 2075 -91 
Q 1284 -91 818 406 
Q 353 903 353 1747 
Q 353 2603 823 3093 
Q 1294 3584 2113 3584 
Q 2378 3584 2631 3529 
Q 2884 3475 3122 3366 
z
" transform="scale(0.015625)"/>
      <path id="DejaVuSans-29" d="M 513 4856 
L 1013 4856 
Q 1481 4119 1714 3412 
Q 1947 2706 1947 2009 
Q 1947 1309 1714 600 
Q 1481 -109 1013 -844 
L 513 -844 
Q 928 -128 1133 580 
Q 1338 1288 1338 2009 
Q 1338 2731 1133 3434 
Q 928 4138 513 4856 
z
" transform="scale(0.015625)"/>
     </defs>
     <use xlink:href="#DejaVuSans-4b"/>
     <use xlink:href="#DejaVuSans-44" x="65.576172"/>
     <use xlink:href="#DejaVuSans-45" x="142.578125"/>
     <use xlink:href="#DejaVuSans-20" x="205.761719"/>
     <use xlink:href="#DejaVuSans-50" x="237.548828"/>
     <use xlink:href="#DejaVuSans-6c" x="297.851562"/>
     <use xlink:href="#DejaVuSans-6f" x="325.634766"/>
     <use xlink:href="#DejaVuSans-74" x="386.816406"/>
     <use xlink:href="#DejaVuSans-20" x="426.025391"/>
     <use xlink:href="#DejaVuSans-6f" x="457.8125"/>
     <use xlink:href="#DejaVuSans-66" x="518.994141"/>
     <use xlink:href="#DejaVuSans-20" x="554.199219"/>
     <use xlink:href="#DejaVuSans-47" x="585.986328"/>
     <use xlink:href="#DejaVuSans-46" x="663.476562"/>
     <use xlink:href="#DejaVuSans-41" x="711.871094"/>
     <use xlink:href="#DejaVuSans-50" x="780.279297"/>
     <use xlink:href="#DejaVuSans-20" x="840.582031"/>
     <use xlink:href="#DejaVuSans-28" x="872.369141"/>
     <use xlink:href="#DejaVuSans-52" x="911.382812"/>
     <use xlink:href="#DejaVuSans-65" x="976.365234"/>
     <use xlink:href="#DejaVuSans-61" x="1037.888672"/>
     <use xlink:href="#DejaVuSans-6c" x="1099.167969"/>
     <use xlink:href="#DejaVuSans-20" x="1126.951172"/>
     <use xlink:href="#DejaVuSans-76" x="1158.738281"/>
     <use xlink:href="#DejaVuSans-73" x="1217.917969"/>
     <use xlink:href="#DejaVuSans-20" x="1270.017578"/>
     <use xlink:href="#DejaVuSans-53" x="1301.804688"/>
     <use xlink:href="#DejaVuSans-79" x="1365.28125"/>
     <use xlink:href="#DejaVuSans-6e" x="1424.460938"/>
     <use xlink:href="#DejaVuSans-74" x="1487.839844"/>
     <use xlink:href="#DejaVuSans-68" x="1527.048828"/>
     <use xlink:href="#DejaVuSans-65" x="1590.427734"/>
     <use xlink:href="#DejaVuSans-74" x="1651.951172"/>
     <use xlink:href="#DejaVuSans-69" x="1691.160156"/>
     <use xlink:href="#DejaVuSans-63" x="1718.943359"/>
     <use xlink:href="#DejaVuSans-29" x="1773.923828"/>
    </g>
   </g>
   <g id="legend_1">
    <g id="patch_7">
     <path d="M 405.132812 89.19625 
L 511.4 89.19625 
Q 513.4 89.19625 513.4 87.19625 
L 513.4 58.84 
Q 513.4 56.84 511.4 56.84 
L 405.132812 56.84 
Q 403.132812 56.84 403.132812 58.84 
L 403.132812 87.19625 
Q 403.132812 89.19625 405.132812 89.19625 
z
" style="fill: #ffffff; opacity: 0.8; stroke: #cccccc; stroke-linejoin: miter"/>
    </g>
    <g id="patch_8">
     <path d="M 407.132812 68.438437 
L 427.132812 68.438437 
L 427.132812 61.438437 
L 407.132812 61.438437 
z
" style="fill: #1f77b4; fill-opacity: 0.5; stroke: #1f77b4; stroke-linejoin: miter"/>
    </g>
    <g id="text_16">
     <!-- Real Data -->
     <g transform="translate(435.132812 68.438437) scale(0.1 -0.1)">
      <use xlink:href="#DejaVuSans-52"/>
      <use xlink:href="#DejaVuSans-65" x="64.982422"/>
      <use xlink:href="#DejaVuSans-61" x="126.505859"/>
      <use xlink:href="#DejaVuSans-6c" x="187.785156"/>
      <use xlink:href="#DejaVuSans-20" x="215.568359"/>
      <use xlink:href="#DejaVuSans-44" x="247.355469"/>
      <use xlink:href="#DejaVuSans-61" x="324.357422"/>
      <use xlink:href="#DejaVuSans-74" x="385.636719"/>
      <use xlink:href="#DejaVuSans-61" x="424.845703"/>
     </g>
    </g>
    <g id="patch_9">
     <path d="M 407.132812 83.116562 
L 427.132812 83.116562 
L 427.132812 76.116562 
L 407.132812 76.116562 
z
" style="fill: #ff7f0e; fill-opacity: 0.5; stroke: #ff7f0e; stroke-linejoin: miter"/>
    </g>
    <g id="text_17">
     <!-- Synthetic Data -->
     <g transform="translate(435.132812 83.116562) scale(0.1 -0.1)">
      <use xlink:href="#DejaVuSans-53"/>
      <use xlink:href="#DejaVuSans-79" x="63.476562"/>
      <use xlink:href="#DejaVuSans-6e" x="122.65625"/>
      <use xlink:href="#DejaVuSans-74" x="186.035156"/>
      <use xlink:href="#DejaVuSans-68" x="225.244141"/>
      <use xlink:href="#DejaVuSans-65" x="288.623047"/>
      <use xlink:href="#DejaVuSans-74" x="350.146484"/>
      <use xlink:href="#DejaVuSans-69" x="389.355469"/>
      <use xlink:href="#DejaVuSans-63" x="417.138672"/>
      <use xlink:href="#DejaVuSans-20" x="472.119141"/>
      <use xlink:href="#DejaVuSans-44" x="503.90625"/>
      <use xlink:href="#DejaVuSans-61" x="580.908203"/>
      <use xlink:href="#DejaVuSans-74" x="642.1875"/>
      <use xlink:href="#DejaVuSans-61" x="681.396484"/>
     </g>
    </g>
   </g>
  </g>
 </g>
 <defs>
  <clipPath id="pf64bd5e2f5">
   <rect x="72" y="51.84" width="446.4" height="332.64"/>
  </clipPath>
 </defs>
</svg>
