<?xml version="1.0" encoding="utf-8" standalone="no"?>
<!DOCTYPE svg PUBLIC "-//W3C//DTD SVG 1.1//EN"
  "http://www.w3.org/Graphics/SVG/1.1/DTD/svg11.dtd">
<svg xmlns:xlink="http://www.w3.org/1999/xlink" width="1008pt" height="288pt" viewBox="0 0 1008 288" xmlns="http://www.w3.org/2000/svg" version="1.1">
 <metadata>
  <rdf:RDF xmlns:dc="http://purl.org/dc/elements/1.1/" xmlns:cc="http://creativecommons.org/ns#" xmlns:rdf="http://www.w3.org/1999/02/22-rdf-syntax-ns#">
   <cc:Work>
    <dc:type rdf:resource="http://purl.org/dc/dcmitype/StillImage"/>
    <dc:date>2024-11-23T05:45:52.799187</dc:date>
    <dc:format>image/svg+xml</dc:format>
    <dc:creator>
     <cc:Agent>
      <dc:title>Matplotlib v3.7.5, https://matplotlib.org/</dc:title>
     </cc:Agent>
    </dc:creator>
   </cc:Work>
  </rdf:RDF>
 </metadata>
 <defs>
  <style type="text/css">*{stroke-linejoin: round; stroke-linecap: butt}</style>
 </defs>
 <g id="figure_1">
  <g id="patch_1">
   <path d="M 0 288 
L 1008 288 
L 1008 0 
L 0 0 
z
" style="fill: #ffffff"/>
  </g>
  <g id="axes_1">
   <g id="patch_2">
    <path d="M 55.772054 246.04 
L 510.016027 246.04 
L 510.016027 43.2 
L 55.772054 43.2 
z
" style="fill: #ffffff"/>
   </g>
   <g id="matplotlib.axis_1">
    <g id="xtick_1">
     <g id="text_1">
      <!-- 0 -->
      <g style="fill: #262626" transform="translate(52.590804 260.638438) scale(0.1 -0.1)">
       <defs>
        <path id="DejaVuSans-30" d="M 2034 4250 
Q 1547 4250 1301 3770 
Q 1056 3291 1056 2328 
Q 1056 1369 1301 889 
Q 1547 409 2034 409 
Q 2525 409 2770 889 
Q 3016 1369 3016 2328 
Q 3016 3291 2770 3770 
Q 2525 4250 2034 4250 
z
M 2034 4750 
Q 2819 4750 3233 4129 
Q 3647 3509 3647 2328 
Q 3647 1150 3233 529 
Q 2819 -91 2034 -91 
Q 1250 -91 836 529 
Q 422 1150 422 2328 
Q 422 3509 836 4129 
Q 1250 4750 2034 4750 
z
" transform="scale(0.015625)"/>
       </defs>
       <use xlink:href="#DejaVuSans-30"/>
      </g>
     </g>
    </g>
    <g id="xtick_2">
     <g id="text_2">
      <!-- 20 -->
      <g style="fill: #262626" transform="translate(140.258349 260.638438) scale(0.1 -0.1)">
       <defs>
        <path id="DejaVuSans-32" d="M 1228 531 
L 3431 531 
L 3431 0 
L 469 0 
L 469 531 
Q 828 903 1448 1529 
Q 2069 2156 2228 2338 
Q 2531 2678 2651 2914 
Q 2772 3150 2772 3378 
Q 2772 3750 2511 3984 
Q 2250 4219 1831 4219 
Q 1534 4219 1204 4116 
Q 875 4013 500 3803 
L 500 4441 
Q 881 4594 1212 4672 
Q 1544 4750 1819 4750 
Q 2544 4750 2975 4387 
Q 3406 4025 3406 3419 
Q 3406 3131 3298 2873 
Q 3191 2616 2906 2266 
Q 2828 2175 2409 1742 
Q 1991 1309 1228 531 
z
" transform="scale(0.015625)"/>
       </defs>
       <use xlink:href="#DejaVuSans-32"/>
       <use xlink:href="#DejaVuSans-30" x="63.623047"/>
      </g>
     </g>
    </g>
    <g id="xtick_3">
     <g id="text_3">
      <!-- 40 -->
      <g style="fill: #262626" transform="translate(231.107143 260.638438) scale(0.1 -0.1)">
       <defs>
        <path id="DejaVuSans-34" d="M 2419 4116 
L 825 1625 
L 2419 1625 
L 2419 4116 
z
M 2253 4666 
L 3047 4666 
L 3047 1625 
L 3713 1625 
L 3713 1100 
L 3047 1100 
L 3047 0 
L 2419 0 
L 2419 1100 
L 313 1100 
L 313 1709 
L 2253 4666 
z
" transform="scale(0.015625)"/>
       </defs>
       <use xlink:href="#DejaVuSans-34"/>
       <use xlink:href="#DejaVuSans-30" x="63.623047"/>
      </g>
     </g>
    </g>
    <g id="xtick_4">
     <g id="text_4">
      <!-- 60 -->
      <g style="fill: #262626" transform="translate(321.955938 260.638438) scale(0.1 -0.1)">
       <defs>
        <path id="DejaVuSans-36" d="M 2113 2584 
Q 1688 2584 1439 2293 
Q 1191 2003 1191 1497 
Q 1191 994 1439 701 
Q 1688 409 2113 409 
Q 2538 409 2786 701 
Q 3034 994 3034 1497 
Q 3034 2003 2786 2293 
Q 2538 2584 2113 2584 
z
M 3366 4563 
L 3366 3988 
Q 3128 4100 2886 4159 
Q 2644 4219 2406 4219 
Q 1781 4219 1451 3797 
Q 1122 3375 1075 2522 
Q 1259 2794 1537 2939 
Q 1816 3084 2150 3084 
Q 2853 3084 3261 2657 
Q 3669 2231 3669 1497 
Q 3669 778 3244 343 
Q 2819 -91 2113 -91 
Q 1303 -91 875 529 
Q 447 1150 447 2328 
Q 447 3434 972 4092 
Q 1497 4750 2381 4750 
Q 2619 4750 2861 4703 
Q 3103 4656 3366 4563 
z
" transform="scale(0.015625)"/>
       </defs>
       <use xlink:href="#DejaVuSans-36"/>
       <use xlink:href="#DejaVuSans-30" x="63.623047"/>
      </g>
     </g>
    </g>
    <g id="xtick_5">
     <g id="text_5">
      <!-- 80 -->
      <g style="fill: #262626" transform="translate(412.804732 260.638438) scale(0.1 -0.1)">
       <defs>
        <path id="DejaVuSans-38" d="M 2034 2216 
Q 1584 2216 1326 1975 
Q 1069 1734 1069 1313 
Q 1069 891 1326 650 
Q 1584 409 2034 409 
Q 2484 409 2743 651 
Q 3003 894 3003 1313 
Q 3003 1734 2745 1975 
Q 2488 2216 2034 2216 
z
M 1403 2484 
Q 997 2584 770 2862 
Q 544 3141 544 3541 
Q 544 4100 942 4425 
Q 1341 4750 2034 4750 
Q 2731 4750 3128 4425 
Q 3525 4100 3525 3541 
Q 3525 3141 3298 2862 
Q 3072 2584 2669 2484 
Q 3125 2378 3379 2068 
Q 3634 1759 3634 1313 
Q 3634 634 3220 271 
Q 2806 -91 2034 -91 
Q 1263 -91 848 271 
Q 434 634 434 1313 
Q 434 1759 690 2068 
Q 947 2378 1403 2484 
z
M 1172 3481 
Q 1172 3119 1398 2916 
Q 1625 2713 2034 2713 
Q 2441 2713 2670 2916 
Q 2900 3119 2900 3481 
Q 2900 3844 2670 4047 
Q 2441 4250 2034 4250 
Q 1625 4250 1398 4047 
Q 1172 3844 1172 3481 
z
" transform="scale(0.015625)"/>
       </defs>
       <use xlink:href="#DejaVuSans-38"/>
       <use xlink:href="#DejaVuSans-30" x="63.623047"/>
      </g>
     </g>
    </g>
    <g id="xtick_6">
     <g id="text_6">
      <!-- 100 -->
      <g style="fill: #262626" transform="translate(500.472277 260.638438) scale(0.1 -0.1)">
       <defs>
        <path id="DejaVuSans-31" d="M 794 531 
L 1825 531 
L 1825 4091 
L 703 3866 
L 703 4441 
L 1819 4666 
L 2450 4666 
L 2450 531 
L 3481 531 
L 3481 0 
L 794 0 
L 794 531 
z
" transform="scale(0.015625)"/>
       </defs>
       <use xlink:href="#DejaVuSans-31"/>
       <use xlink:href="#DejaVuSans-30" x="63.623047"/>
       <use xlink:href="#DejaVuSans-30" x="127.246094"/>
      </g>
     </g>
    </g>
    <g id="text_7">
     <!-- Epoch -->
     <g style="fill: #262626" transform="translate(267.583103 274.316562) scale(0.1 -0.1)">
      <defs>
       <path id="DejaVuSans-45" d="M 628 4666 
L 3578 4666 
L 3578 4134 
L 1259 4134 
L 1259 2753 
L 3481 2753 
L 3481 2222 
L 1259 2222 
L 1259 531 
L 3634 531 
L 3634 0 
L 628 0 
L 628 4666 
z
" transform="scale(0.015625)"/>
       <path id="DejaVuSans-70" d="M 1159 525 
L 1159 -1331 
L 581 -1331 
L 581 3500 
L 1159 3500 
L 1159 2969 
Q 1341 3281 1617 3432 
Q 1894 3584 2278 3584 
Q 2916 3584 3314 3078 
Q 3713 2572 3713 1747 
Q 3713 922 3314 415 
Q 2916 -91 2278 -91 
Q 1894 -91 1617 61 
Q 1341 213 1159 525 
z
M 3116 1747 
Q 3116 2381 2855 2742 
Q 2594 3103 2138 3103 
Q 1681 3103 1420 2742 
Q 1159 2381 1159 1747 
Q 1159 1113 1420 752 
Q 1681 391 2138 391 
Q 2594 391 2855 752 
Q 3116 1113 3116 1747 
z
" transform="scale(0.015625)"/>
       <path id="DejaVuSans-6f" d="M 1959 3097 
Q 1497 3097 1228 2736 
Q 959 2375 959 1747 
Q 959 1119 1226 758 
Q 1494 397 1959 397 
Q 2419 397 2687 759 
Q 2956 1122 2956 1747 
Q 2956 2369 2687 2733 
Q 2419 3097 1959 3097 
z
M 1959 3584 
Q 2709 3584 3137 3096 
Q 3566 2609 3566 1747 
Q 3566 888 3137 398 
Q 2709 -91 1959 -91 
Q 1206 -91 779 398 
Q 353 888 353 1747 
Q 353 2609 779 3096 
Q 1206 3584 1959 3584 
z
" transform="scale(0.015625)"/>
       <path id="DejaVuSans-63" d="M 3122 3366 
L 3122 2828 
Q 2878 2963 2633 3030 
Q 2388 3097 2138 3097 
Q 1578 3097 1268 2742 
Q 959 2388 959 1747 
Q 959 1106 1268 751 
Q 1578 397 2138 397 
Q 2388 397 2633 464 
Q 2878 531 3122 666 
L 3122 134 
Q 2881 22 2623 -34 
Q 2366 -91 2075 -91 
Q 1284 -91 818 406 
Q 353 903 353 1747 
Q 353 2603 823 3093 
Q 1294 3584 2113 3584 
Q 2378 3584 2631 3529 
Q 2884 3475 3122 3366 
z
" transform="scale(0.015625)"/>
       <path id="DejaVuSans-68" d="M 3513 2113 
L 3513 0 
L 2938 0 
L 2938 2094 
Q 2938 2591 2744 2837 
Q 2550 3084 2163 3084 
Q 1697 3084 1428 2787 
Q 1159 2491 1159 1978 
L 1159 0 
L 581 0 
L 581 4863 
L 1159 4863 
L 1159 2956 
Q 1366 3272 1645 3428 
Q 1925 3584 2291 3584 
Q 2894 3584 3203 3211 
Q 3513 2838 3513 2113 
z
" transform="scale(0.015625)"/>
      </defs>
      <use xlink:href="#DejaVuSans-45"/>
      <use xlink:href="#DejaVuSans-70" x="63.183594"/>
      <use xlink:href="#DejaVuSans-6f" x="126.660156"/>
      <use xlink:href="#DejaVuSans-63" x="187.841797"/>
      <use xlink:href="#DejaVuSans-68" x="242.822266"/>
     </g>
    </g>
   </g>
   <g id="matplotlib.axis_2">
    <g id="ytick_1">
     <g id="text_8">
      <!-- $\mathdefault{10^{-1}}$ -->
      <g style="fill: #262626" transform="translate(25.272054 160.502395) scale(0.1 -0.1)">
       <defs>
        <path id="DejaVuSans-2212" d="M 678 2272 
L 4684 2272 
L 4684 1741 
L 678 1741 
L 678 2272 
z
" transform="scale(0.015625)"/>
       </defs>
       <use xlink:href="#DejaVuSans-31" transform="translate(0 0.684375)"/>
       <use xlink:href="#DejaVuSans-30" transform="translate(63.623047 0.684375)"/>
       <use xlink:href="#DejaVuSans-2212" transform="translate(128.203125 38.965625) scale(0.7)"/>
       <use xlink:href="#DejaVuSans-31" transform="translate(186.855469 38.965625) scale(0.7)"/>
      </g>
     </g>
    </g>
    <g id="ytick_2"/>
    <g id="ytick_3"/>
    <g id="ytick_4"/>
    <g id="ytick_5"/>
    <g id="ytick_6"/>
    <g id="ytick_7"/>
    <g id="ytick_8"/>
    <g id="ytick_9"/>
    <g id="ytick_10"/>
    <g id="ytick_11"/>
    <g id="ytick_12"/>
    <g id="ytick_13"/>
    <g id="text_9">
     <!-- Mean Absolute Error (log scale) -->
     <g style="fill: #262626" transform="translate(19.192366 223.045781) rotate(-90) scale(0.1 -0.1)">
      <defs>
       <path id="DejaVuSans-4d" d="M 628 4666 
L 1569 4666 
L 2759 1491 
L 3956 4666 
L 4897 4666 
L 4897 0 
L 4281 0 
L 4281 4097 
L 3078 897 
L 2444 897 
L 1241 4097 
L 1241 0 
L 628 0 
L 628 4666 
z
" transform="scale(0.015625)"/>
       <path id="DejaVuSans-65" d="M 3597 1894 
L 3597 1613 
L 953 1613 
Q 991 1019 1311 708 
Q 1631 397 2203 397 
Q 2534 397 2845 478 
Q 3156 559 3463 722 
L 3463 178 
Q 3153 47 2828 -22 
Q 2503 -91 2169 -91 
Q 1331 -91 842 396 
Q 353 884 353 1716 
Q 353 2575 817 3079 
Q 1281 3584 2069 3584 
Q 2775 3584 3186 3129 
Q 3597 2675 3597 1894 
z
M 3022 2063 
Q 3016 2534 2758 2815 
Q 2500 3097 2075 3097 
Q 1594 3097 1305 2825 
Q 1016 2553 972 2059 
L 3022 2063 
z
" transform="scale(0.015625)"/>
       <path id="DejaVuSans-61" d="M 2194 1759 
Q 1497 1759 1228 1600 
Q 959 1441 959 1056 
Q 959 750 1161 570 
Q 1363 391 1709 391 
Q 2188 391 2477 730 
Q 2766 1069 2766 1631 
L 2766 1759 
L 2194 1759 
z
M 3341 1997 
L 3341 0 
L 2766 0 
L 2766 531 
Q 2569 213 2275 61 
Q 1981 -91 1556 -91 
Q 1019 -91 701 211 
Q 384 513 384 1019 
Q 384 1609 779 1909 
Q 1175 2209 1959 2209 
L 2766 2209 
L 2766 2266 
Q 2766 2663 2505 2880 
Q 2244 3097 1772 3097 
Q 1472 3097 1187 3025 
Q 903 2953 641 2809 
L 641 3341 
Q 956 3463 1253 3523 
Q 1550 3584 1831 3584 
Q 2591 3584 2966 3190 
Q 3341 2797 3341 1997 
z
" transform="scale(0.015625)"/>
       <path id="DejaVuSans-6e" d="M 3513 2113 
L 3513 0 
L 2938 0 
L 2938 2094 
Q 2938 2591 2744 2837 
Q 2550 3084 2163 3084 
Q 1697 3084 1428 2787 
Q 1159 2491 1159 1978 
L 1159 0 
L 581 0 
L 581 3500 
L 1159 3500 
L 1159 2956 
Q 1366 3272 1645 3428 
Q 1925 3584 2291 3584 
Q 2894 3584 3203 3211 
Q 3513 2838 3513 2113 
z
" transform="scale(0.015625)"/>
       <path id="DejaVuSans-20" transform="scale(0.015625)"/>
       <path id="DejaVuSans-41" d="M 2188 4044 
L 1331 1722 
L 3047 1722 
L 2188 4044 
z
M 1831 4666 
L 2547 4666 
L 4325 0 
L 3669 0 
L 3244 1197 
L 1141 1197 
L 716 0 
L 50 0 
L 1831 4666 
z
" transform="scale(0.015625)"/>
       <path id="DejaVuSans-62" d="M 3116 1747 
Q 3116 2381 2855 2742 
Q 2594 3103 2138 3103 
Q 1681 3103 1420 2742 
Q 1159 2381 1159 1747 
Q 1159 1113 1420 752 
Q 1681 391 2138 391 
Q 2594 391 2855 752 
Q 3116 1113 3116 1747 
z
M 1159 2969 
Q 1341 3281 1617 3432 
Q 1894 3584 2278 3584 
Q 2916 3584 3314 3078 
Q 3713 2572 3713 1747 
Q 3713 922 3314 415 
Q 2916 -91 2278 -91 
Q 1894 -91 1617 61 
Q 1341 213 1159 525 
L 1159 0 
L 581 0 
L 581 4863 
L 1159 4863 
L 1159 2969 
z
" transform="scale(0.015625)"/>
       <path id="DejaVuSans-73" d="M 2834 3397 
L 2834 2853 
Q 2591 2978 2328 3040 
Q 2066 3103 1784 3103 
Q 1356 3103 1142 2972 
Q 928 2841 928 2578 
Q 928 2378 1081 2264 
Q 1234 2150 1697 2047 
L 1894 2003 
Q 2506 1872 2764 1633 
Q 3022 1394 3022 966 
Q 3022 478 2636 193 
Q 2250 -91 1575 -91 
Q 1294 -91 989 -36 
Q 684 19 347 128 
L 347 722 
Q 666 556 975 473 
Q 1284 391 1588 391 
Q 1994 391 2212 530 
Q 2431 669 2431 922 
Q 2431 1156 2273 1281 
Q 2116 1406 1581 1522 
L 1381 1569 
Q 847 1681 609 1914 
Q 372 2147 372 2553 
Q 372 3047 722 3315 
Q 1072 3584 1716 3584 
Q 2034 3584 2315 3537 
Q 2597 3491 2834 3397 
z
" transform="scale(0.015625)"/>
       <path id="DejaVuSans-6c" d="M 603 4863 
L 1178 4863 
L 1178 0 
L 603 0 
L 603 4863 
z
" transform="scale(0.015625)"/>
       <path id="DejaVuSans-75" d="M 544 1381 
L 544 3500 
L 1119 3500 
L 1119 1403 
Q 1119 906 1312 657 
Q 1506 409 1894 409 
Q 2359 409 2629 706 
Q 2900 1003 2900 1516 
L 2900 3500 
L 3475 3500 
L 3475 0 
L 2900 0 
L 2900 538 
Q 2691 219 2414 64 
Q 2138 -91 1772 -91 
Q 1169 -91 856 284 
Q 544 659 544 1381 
z
M 1991 3584 
L 1991 3584 
z
" transform="scale(0.015625)"/>
       <path id="DejaVuSans-74" d="M 1172 4494 
L 1172 3500 
L 2356 3500 
L 2356 3053 
L 1172 3053 
L 1172 1153 
Q 1172 725 1289 603 
Q 1406 481 1766 481 
L 2356 481 
L 2356 0 
L 1766 0 
Q 1100 0 847 248 
Q 594 497 594 1153 
L 594 3053 
L 172 3053 
L 172 3500 
L 594 3500 
L 594 4494 
L 1172 4494 
z
" transform="scale(0.015625)"/>
       <path id="DejaVuSans-72" d="M 2631 2963 
Q 2534 3019 2420 3045 
Q 2306 3072 2169 3072 
Q 1681 3072 1420 2755 
Q 1159 2438 1159 1844 
L 1159 0 
L 581 0 
L 581 3500 
L 1159 3500 
L 1159 2956 
Q 1341 3275 1631 3429 
Q 1922 3584 2338 3584 
Q 2397 3584 2469 3576 
Q 2541 3569 2628 3553 
L 2631 2963 
z
" transform="scale(0.015625)"/>
       <path id="DejaVuSans-28" d="M 1984 4856 
Q 1566 4138 1362 3434 
Q 1159 2731 1159 2009 
Q 1159 1288 1364 580 
Q 1569 -128 1984 -844 
L 1484 -844 
Q 1016 -109 783 600 
Q 550 1309 550 2009 
Q 550 2706 781 3412 
Q 1013 4119 1484 4856 
L 1984 4856 
z
" transform="scale(0.015625)"/>
       <path id="DejaVuSans-67" d="M 2906 1791 
Q 2906 2416 2648 2759 
Q 2391 3103 1925 3103 
Q 1463 3103 1205 2759 
Q 947 2416 947 1791 
Q 947 1169 1205 825 
Q 1463 481 1925 481 
Q 2391 481 2648 825 
Q 2906 1169 2906 1791 
z
M 3481 434 
Q 3481 -459 3084 -895 
Q 2688 -1331 1869 -1331 
Q 1566 -1331 1297 -1286 
Q 1028 -1241 775 -1147 
L 775 -588 
Q 1028 -725 1275 -790 
Q 1522 -856 1778 -856 
Q 2344 -856 2625 -561 
Q 2906 -266 2906 331 
L 2906 616 
Q 2728 306 2450 153 
Q 2172 0 1784 0 
Q 1141 0 747 490 
Q 353 981 353 1791 
Q 353 2603 747 3093 
Q 1141 3584 1784 3584 
Q 2172 3584 2450 3431 
Q 2728 3278 2906 2969 
L 2906 3500 
L 3481 3500 
L 3481 434 
z
" transform="scale(0.015625)"/>
       <path id="DejaVuSans-29" d="M 513 4856 
L 1013 4856 
Q 1481 4119 1714 3412 
Q 1947 2706 1947 2009 
Q 1947 1309 1714 600 
Q 1481 -109 1013 -844 
L 513 -844 
Q 928 -128 1133 580 
Q 1338 1288 1338 2009 
Q 1338 2731 1133 3434 
Q 928 4138 513 4856 
z
" transform="scale(0.015625)"/>
      </defs>
      <use xlink:href="#DejaVuSans-4d"/>
      <use xlink:href="#DejaVuSans-65" x="86.279297"/>
      <use xlink:href="#DejaVuSans-61" x="147.802734"/>
      <use xlink:href="#DejaVuSans-6e" x="209.082031"/>
      <use xlink:href="#DejaVuSans-20" x="272.460938"/>
      <use xlink:href="#DejaVuSans-41" x="304.248047"/>
      <use xlink:href="#DejaVuSans-62" x="372.65625"/>
      <use xlink:href="#DejaVuSans-73" x="436.132812"/>
      <use xlink:href="#DejaVuSans-6f" x="488.232422"/>
      <use xlink:href="#DejaVuSans-6c" x="549.414062"/>
      <use xlink:href="#DejaVuSans-75" x="577.197266"/>
      <use xlink:href="#DejaVuSans-74" x="640.576172"/>
      <use xlink:href="#DejaVuSans-65" x="679.785156"/>
      <use xlink:href="#DejaVuSans-20" x="741.308594"/>
      <use xlink:href="#DejaVuSans-45" x="773.095703"/>
      <use xlink:href="#DejaVuSans-72" x="836.279297"/>
      <use xlink:href="#DejaVuSans-72" x="875.642578"/>
      <use xlink:href="#DejaVuSans-6f" x="914.505859"/>
      <use xlink:href="#DejaVuSans-72" x="975.6875"/>
      <use xlink:href="#DejaVuSans-20" x="1016.800781"/>
      <use xlink:href="#DejaVuSans-28" x="1048.587891"/>
      <use xlink:href="#DejaVuSans-6c" x="1087.601562"/>
      <use xlink:href="#DejaVuSans-6f" x="1115.384766"/>
      <use xlink:href="#DejaVuSans-67" x="1176.566406"/>
      <use xlink:href="#DejaVuSans-20" x="1240.042969"/>
      <use xlink:href="#DejaVuSans-73" x="1271.830078"/>
      <use xlink:href="#DejaVuSans-63" x="1323.929688"/>
      <use xlink:href="#DejaVuSans-61" x="1378.910156"/>
      <use xlink:href="#DejaVuSans-6c" x="1440.189453"/>
      <use xlink:href="#DejaVuSans-65" x="1467.972656"/>
      <use xlink:href="#DejaVuSans-29" x="1529.496094"/>
     </g>
    </g>
   </g>
   <g id="line2d_1">
    <path d="M 55.772054 72.909417 
L 60.314494 79.48194 
L 64.856933 85.554907 
L 69.399373 91.447907 
L 73.941813 97.101304 
L 78.484253 102.802706 
L 83.026692 109.125936 
L 87.569132 114.493205 
L 92.111572 118.980903 
L 96.654011 122.504505 
L 101.196451 125.281762 
L 105.738891 127.573528 
L 110.281331 129.488722 
L 114.82377 130.994852 
L 119.36621 132.480902 
L 123.90865 133.952732 
L 128.45109 135.454669 
L 132.993529 136.965568 
L 137.535969 138.480155 
L 142.078409 140.114724 
L 146.620849 141.90644 
L 151.163288 143.817317 
L 155.705728 145.666961 
L 160.248168 147.848292 
L 164.790607 150.049872 
L 169.333047 152.606109 
L 173.875487 155.554915 
L 178.417927 158.782149 
L 182.960366 162.528182 
L 187.502806 166.558873 
L 192.045246 171.064735 
L 196.587686 175.598215 
L 201.130125 178.953909 
L 205.672565 181.816615 
L 210.215005 184.594408 
L 214.757444 186.459796 
L 219.299884 188.336008 
L 223.842324 190.02651 
L 228.384764 191.675521 
L 232.927203 193.226576 
L 237.469643 194.946873 
L 242.012083 196.695654 
L 246.554523 198.650424 
L 251.096962 200.480693 
L 255.639402 201.86479 
L 260.181842 202.784793 
L 264.724282 204.133478 
L 269.266721 205.020865 
L 273.809161 206.348716 
L 278.351601 206.900074 
L 282.89404 208.107225 
L 287.43648 209.047363 
L 291.97892 210.039211 
L 296.52136 211.223373 
L 301.063799 211.813888 
L 305.606239 212.302834 
L 310.148679 213.166119 
L 314.691119 213.581285 
L 319.233558 214.611655 
L 323.775998 215.141236 
L 328.318438 215.652789 
L 332.860877 215.832538 
L 337.403317 216.785353 
L 341.945757 217.350175 
L 346.488197 217.936095 
L 351.030636 219.077921 
L 355.573076 219.445237 
L 360.115516 220.213358 
L 364.657956 220.726113 
L 369.200395 221.490447 
L 373.742835 221.71771 
L 378.285275 222.659997 
L 382.827715 223.534442 
L 387.370154 224.362797 
L 391.912594 225.085401 
L 396.455034 225.84242 
L 400.997473 226.225521 
L 405.539913 227.066399 
L 410.082353 227.604641 
L 414.624793 228.289127 
L 419.167232 228.695031 
L 423.709672 229.691641 
L 428.252112 230.14595 
L 432.794552 230.504884 
L 437.336991 231.02419 
L 441.879431 231.496037 
L 446.421871 232.35939 
L 450.96431 232.865515 
L 455.50675 233.007869 
L 460.04919 233.688271 
L 464.59163 233.796474 
L 469.134069 234.281296 
L 473.676509 234.432138 
L 478.218949 234.831618 
L 482.761389 234.51688 
L 487.303828 235.316049 
L 491.846268 235.814078 
L 496.388708 236.425317 
L 500.931147 236.82 
L 505.473587 236.67426 
" clip-path="url(#pa881922d48)" style="fill: none; stroke: #1f77b4; stroke-width: 1.5; stroke-linecap: round"/>
   </g>
   <g id="line2d_2">
    <path d="M 55.772054 77.820401 
L 60.314494 82.302821 
L 64.856933 86.155025 
L 69.399373 90.7348 
L 73.941813 95.862913 
L 78.484253 102.331901 
L 83.026692 108.727038 
L 87.569132 112.226267 
L 92.111572 114.203264 
L 96.654011 115.873696 
L 101.196451 116.413934 
L 105.738891 117.085942 
L 110.281331 117.582302 
L 114.82377 118.106963 
L 119.36621 118.771328 
L 123.90865 119.709923 
L 128.45109 120.287338 
L 132.993529 120.876144 
L 137.535969 120.905232 
L 142.078409 121.898707 
L 146.620849 122.870512 
L 151.163288 123.711921 
L 155.705728 124.839046 
L 160.248168 126.210208 
L 164.790607 128.220128 
L 169.333047 130.328573 
L 173.875487 132.984485 
L 178.417927 135.093498 
L 182.960366 137.518231 
L 187.502806 140.355349 
L 192.045246 142.885307 
L 196.587686 144.433813 
L 201.130125 147.615339 
L 205.672565 149.74229 
L 210.215005 151.870349 
L 214.757444 153.301901 
L 219.299884 155.241133 
L 223.842324 156.126653 
L 228.384764 157.416829 
L 232.927203 158.348214 
L 237.469643 159.446728 
L 242.012083 160.480984 
L 246.554523 160.448992 
L 251.096962 161.093626 
L 255.639402 161.364046 
L 260.181842 161.403286 
L 264.724282 161.563808 
L 269.266721 161.684881 
L 273.809161 162.188063 
L 278.351601 162.398594 
L 282.89404 162.201322 
L 287.43648 161.970797 
L 291.97892 162.728418 
L 296.52136 162.873358 
L 301.063799 163.056384 
L 305.606239 163.729031 
L 310.148679 164.40282 
L 314.691119 164.134239 
L 319.233558 164.405683 
L 323.775998 164.996236 
L 328.318438 164.916466 
L 332.860877 165.941884 
L 337.403317 165.637576 
L 341.945757 166.976487 
L 346.488197 166.552819 
L 351.030636 167.569458 
L 355.573076 167.921671 
L 360.115516 168.042441 
L 364.657956 168.600471 
L 369.200395 168.791199 
L 373.742835 169.329879 
L 378.285275 169.368264 
L 382.827715 169.740945 
L 387.370154 170.701826 
L 391.912594 170.805878 
L 396.455034 171.576898 
L 400.997473 172.019504 
L 405.539913 172.01924 
L 410.082353 172.065354 
L 414.624793 172.208364 
L 419.167232 173.397442 
L 423.709672 173.5209 
L 428.252112 173.402842 
L 432.794552 173.274387 
L 437.336991 174.166608 
L 441.879431 173.931372 
L 446.421871 174.418282 
L 450.96431 174.323425 
L 455.50675 174.287685 
L 460.04919 175.037904 
L 464.59163 174.617777 
L 469.134069 174.676938 
L 473.676509 174.483299 
L 478.218949 174.771371 
L 482.761389 175.214709 
L 487.303828 175.279433 
L 491.846268 175.602291 
L 496.388708 175.883125 
L 500.931147 175.333487 
L 505.473587 176.160372 
" clip-path="url(#pa881922d48)" style="fill: none; stroke: #ff7f0e; stroke-width: 1.5; stroke-linecap: round"/>
   </g>
   <g id="patch_3">
    <path d="M 55.772054 246.04 
L 55.772054 43.2 
" style="fill: none; stroke: #262626; stroke-width: 0.8; stroke-linejoin: miter; stroke-linecap: square"/>
   </g>
   <g id="patch_4">
    <path d="M 55.772054 246.04 
L 510.016027 246.04 
" style="fill: none; stroke: #262626; stroke-width: 0.8; stroke-linejoin: miter; stroke-linecap: square"/>
   </g>
   <g id="text_10">
    <!-- Train on Synthetic, Test on Real -->
    <g style="fill: #262626" transform="translate(189.036228 37.2) scale(0.12 -0.12)">
     <defs>
      <path id="DejaVuSans-54" d="M -19 4666 
L 3928 4666 
L 3928 4134 
L 2272 4134 
L 2272 0 
L 1638 0 
L 1638 4134 
L -19 4134 
L -19 4666 
z
" transform="scale(0.015625)"/>
      <path id="DejaVuSans-69" d="M 603 3500 
L 1178 3500 
L 1178 0 
L 603 0 
L 603 3500 
z
M 603 4863 
L 1178 4863 
L 1178 4134 
L 603 4134 
L 603 4863 
z
" transform="scale(0.015625)"/>
      <path id="DejaVuSans-53" d="M 3425 4513 
L 3425 3897 
Q 3066 4069 2747 4153 
Q 2428 4238 2131 4238 
Q 1616 4238 1336 4038 
Q 1056 3838 1056 3469 
Q 1056 3159 1242 3001 
Q 1428 2844 1947 2747 
L 2328 2669 
Q 3034 2534 3370 2195 
Q 3706 1856 3706 1288 
Q 3706 609 3251 259 
Q 2797 -91 1919 -91 
Q 1588 -91 1214 -16 
Q 841 59 441 206 
L 441 856 
Q 825 641 1194 531 
Q 1563 422 1919 422 
Q 2459 422 2753 634 
Q 3047 847 3047 1241 
Q 3047 1584 2836 1778 
Q 2625 1972 2144 2069 
L 1759 2144 
Q 1053 2284 737 2584 
Q 422 2884 422 3419 
Q 422 4038 858 4394 
Q 1294 4750 2059 4750 
Q 2388 4750 2728 4690 
Q 3069 4631 3425 4513 
z
" transform="scale(0.015625)"/>
      <path id="DejaVuSans-79" d="M 2059 -325 
Q 1816 -950 1584 -1140 
Q 1353 -1331 966 -1331 
L 506 -1331 
L 506 -850 
L 844 -850 
Q 1081 -850 1212 -737 
Q 1344 -625 1503 -206 
L 1606 56 
L 191 3500 
L 800 3500 
L 1894 763 
L 2988 3500 
L 3597 3500 
L 2059 -325 
z
" transform="scale(0.015625)"/>
      <path id="DejaVuSans-2c" d="M 750 794 
L 1409 794 
L 1409 256 
L 897 -744 
L 494 -744 
L 750 256 
L 750 794 
z
" transform="scale(0.015625)"/>
      <path id="DejaVuSans-52" d="M 2841 2188 
Q 3044 2119 3236 1894 
Q 3428 1669 3622 1275 
L 4263 0 
L 3584 0 
L 2988 1197 
Q 2756 1666 2539 1819 
Q 2322 1972 1947 1972 
L 1259 1972 
L 1259 0 
L 628 0 
L 628 4666 
L 2053 4666 
Q 2853 4666 3247 4331 
Q 3641 3997 3641 3322 
Q 3641 2881 3436 2590 
Q 3231 2300 2841 2188 
z
M 1259 4147 
L 1259 2491 
L 2053 2491 
Q 2509 2491 2742 2702 
Q 2975 2913 2975 3322 
Q 2975 3731 2742 3939 
Q 2509 4147 2053 4147 
L 1259 4147 
z
" transform="scale(0.015625)"/>
     </defs>
     <use xlink:href="#DejaVuSans-54"/>
     <use xlink:href="#DejaVuSans-72" x="46.333984"/>
     <use xlink:href="#DejaVuSans-61" x="87.447266"/>
     <use xlink:href="#DejaVuSans-69" x="148.726562"/>
     <use xlink:href="#DejaVuSans-6e" x="176.509766"/>
     <use xlink:href="#DejaVuSans-20" x="239.888672"/>
     <use xlink:href="#DejaVuSans-6f" x="271.675781"/>
     <use xlink:href="#DejaVuSans-6e" x="332.857422"/>
     <use xlink:href="#DejaVuSans-20" x="396.236328"/>
     <use xlink:href="#DejaVuSans-53" x="428.023438"/>
     <use xlink:href="#DejaVuSans-79" x="491.5"/>
     <use xlink:href="#DejaVuSans-6e" x="550.679688"/>
     <use xlink:href="#DejaVuSans-74" x="614.058594"/>
     <use xlink:href="#DejaVuSans-68" x="653.267578"/>
     <use xlink:href="#DejaVuSans-65" x="716.646484"/>
     <use xlink:href="#DejaVuSans-74" x="778.169922"/>
     <use xlink:href="#DejaVuSans-69" x="817.378906"/>
     <use xlink:href="#DejaVuSans-63" x="845.162109"/>
     <use xlink:href="#DejaVuSans-2c" x="900.142578"/>
     <use xlink:href="#DejaVuSans-20" x="931.929688"/>
     <use xlink:href="#DejaVuSans-54" x="963.716797"/>
     <use xlink:href="#DejaVuSans-65" x="1007.800781"/>
     <use xlink:href="#DejaVuSans-73" x="1069.324219"/>
     <use xlink:href="#DejaVuSans-74" x="1121.423828"/>
     <use xlink:href="#DejaVuSans-20" x="1160.632812"/>
     <use xlink:href="#DejaVuSans-6f" x="1192.419922"/>
     <use xlink:href="#DejaVuSans-6e" x="1253.601562"/>
     <use xlink:href="#DejaVuSans-20" x="1316.980469"/>
     <use xlink:href="#DejaVuSans-52" x="1348.767578"/>
     <use xlink:href="#DejaVuSans-65" x="1413.75"/>
     <use xlink:href="#DejaVuSans-61" x="1475.273438"/>
     <use xlink:href="#DejaVuSans-6c" x="1536.552734"/>
    </g>
   </g>
   <g id="legend_1">
    <g id="patch_5">
     <path d="M 447.028527 80.55625 
L 503.016027 80.55625 
Q 505.016027 80.55625 505.016027 78.55625 
L 505.016027 50.2 
Q 505.016027 48.2 503.016027 48.2 
L 447.028527 48.2 
Q 445.028527 48.2 445.028527 50.2 
L 445.028527 78.55625 
Q 445.028527 80.55625 447.028527 80.55625 
z
" style="fill: #ffffff; opacity: 0.8; stroke: #cccccc; stroke-linejoin: miter"/>
    </g>
    <g id="line2d_3">
     <path d="M 449.028527 56.298438 
L 459.028527 56.298438 
L 469.028527 56.298438 
" style="fill: none; stroke: #1f77b4; stroke-width: 1.5; stroke-linecap: round"/>
    </g>
    <g id="text_11">
     <!-- Train -->
     <g style="fill: #262626" transform="translate(477.028527 59.798438) scale(0.1 -0.1)">
      <use xlink:href="#DejaVuSans-54"/>
      <use xlink:href="#DejaVuSans-72" x="46.333984"/>
      <use xlink:href="#DejaVuSans-61" x="87.447266"/>
      <use xlink:href="#DejaVuSans-69" x="148.726562"/>
      <use xlink:href="#DejaVuSans-6e" x="176.509766"/>
     </g>
    </g>
    <g id="line2d_4">
     <path d="M 449.028527 70.976562 
L 459.028527 70.976562 
L 469.028527 70.976562 
" style="fill: none; stroke: #ff7f0e; stroke-width: 1.5; stroke-linecap: round"/>
    </g>
    <g id="text_12">
     <!-- Test -->
     <g style="fill: #262626" transform="translate(477.028527 74.476562) scale(0.1 -0.1)">
      <use xlink:href="#DejaVuSans-54"/>
      <use xlink:href="#DejaVuSans-65" x="44.083984"/>
      <use xlink:href="#DejaVuSans-73" x="105.607422"/>
      <use xlink:href="#DejaVuSans-74" x="157.707031"/>
     </g>
    </g>
   </g>
  </g>
  <g id="axes_2">
   <g id="patch_6">
    <path d="M 533.461027 246.04 
L 987.705 246.04 
L 987.705 43.2 
L 533.461027 43.2 
z
" style="fill: #ffffff"/>
   </g>
   <g id="matplotlib.axis_3">
    <g id="xtick_7">
     <g id="text_13">
      <!-- 0 -->
      <g style="fill: #262626" transform="translate(530.279777 260.638438) scale(0.1 -0.1)">
       <use xlink:href="#DejaVuSans-30"/>
      </g>
     </g>
    </g>
    <g id="xtick_8">
     <g id="text_14">
      <!-- 20 -->
      <g style="fill: #262626" transform="translate(617.947322 260.638438) scale(0.1 -0.1)">
       <use xlink:href="#DejaVuSans-32"/>
       <use xlink:href="#DejaVuSans-30" x="63.623047"/>
      </g>
     </g>
    </g>
    <g id="xtick_9">
     <g id="text_15">
      <!-- 40 -->
      <g style="fill: #262626" transform="translate(708.796116 260.638438) scale(0.1 -0.1)">
       <use xlink:href="#DejaVuSans-34"/>
       <use xlink:href="#DejaVuSans-30" x="63.623047"/>
      </g>
     </g>
    </g>
    <g id="xtick_10">
     <g id="text_16">
      <!-- 60 -->
      <g style="fill: #262626" transform="translate(799.644911 260.638438) scale(0.1 -0.1)">
       <use xlink:href="#DejaVuSans-36"/>
       <use xlink:href="#DejaVuSans-30" x="63.623047"/>
      </g>
     </g>
    </g>
    <g id="xtick_11">
     <g id="text_17">
      <!-- 80 -->
      <g style="fill: #262626" transform="translate(890.493705 260.638438) scale(0.1 -0.1)">
       <use xlink:href="#DejaVuSans-38"/>
       <use xlink:href="#DejaVuSans-30" x="63.623047"/>
      </g>
     </g>
    </g>
    <g id="xtick_12">
     <g id="text_18">
      <!-- 100 -->
      <g style="fill: #262626" transform="translate(978.16125 260.638438) scale(0.1 -0.1)">
       <use xlink:href="#DejaVuSans-31"/>
       <use xlink:href="#DejaVuSans-30" x="63.623047"/>
       <use xlink:href="#DejaVuSans-30" x="127.246094"/>
      </g>
     </g>
    </g>
    <g id="text_19">
     <!-- Epoch -->
     <g style="fill: #262626" transform="translate(745.272076 274.316562) scale(0.1 -0.1)">
      <use xlink:href="#DejaVuSans-45"/>
      <use xlink:href="#DejaVuSans-70" x="63.183594"/>
      <use xlink:href="#DejaVuSans-6f" x="126.660156"/>
      <use xlink:href="#DejaVuSans-63" x="187.841797"/>
      <use xlink:href="#DejaVuSans-68" x="242.822266"/>
     </g>
    </g>
   </g>
   <g id="matplotlib.axis_4">
    <g id="ytick_14"/>
    <g id="ytick_15"/>
    <g id="ytick_16"/>
    <g id="ytick_17"/>
    <g id="ytick_18"/>
    <g id="ytick_19"/>
    <g id="ytick_20"/>
    <g id="ytick_21"/>
    <g id="ytick_22"/>
    <g id="ytick_23"/>
    <g id="ytick_24"/>
    <g id="ytick_25"/>
    <g id="ytick_26"/>
   </g>
   <g id="line2d_5">
    <path d="M 533.461027 52.42 
L 538.003467 58.370004 
L 542.545906 64.069539 
L 547.088346 69.257577 
L 551.630786 73.917233 
L 556.173226 78.428517 
L 560.715665 82.841857 
L 565.258105 87.166713 
L 569.800545 91.212835 
L 574.342985 94.709769 
L 578.885424 97.868015 
L 583.427864 100.498243 
L 587.970304 102.860357 
L 592.512743 104.806811 
L 597.055183 106.8638 
L 601.597623 108.901598 
L 606.140063 111.020474 
L 610.682502 113.31919 
L 615.224942 115.816993 
L 619.767382 118.431147 
L 624.309822 121.336132 
L 628.852261 124.590722 
L 633.394701 128.047228 
L 637.937141 131.464232 
L 642.47958 135.269831 
L 647.02202 139.239178 
L 651.56446 141.952008 
L 656.1069 144.349189 
L 660.649339 146.394945 
L 665.191779 148.617367 
L 669.734219 150.74101 
L 674.276659 153.01644 
L 678.819098 155.241026 
L 683.361538 157.706207 
L 687.903978 160.167595 
L 692.446418 162.66719 
L 696.988857 164.82463 
L 701.531297 166.425779 
L 706.073737 167.634774 
L 710.616176 168.561856 
L 715.158616 169.385828 
L 719.701056 170.346596 
L 724.243496 171.070797 
L 728.785935 171.868338 
L 733.328375 172.451547 
L 737.870815 173.735253 
L 742.413255 174.593748 
L 746.955694 175.308668 
L 751.498134 176.309414 
L 756.040574 177.191994 
L 760.583013 177.879228 
L 765.125453 178.867207 
L 769.667893 179.880173 
L 774.210333 180.584445 
L 778.752772 181.417244 
L 783.295212 182.212814 
L 787.837652 183.2568 
L 792.380092 184.128665 
L 796.922531 184.884928 
L 801.464971 185.948325 
L 806.007411 187.044915 
L 810.549851 187.759155 
L 815.09229 188.712227 
L 819.63473 189.617651 
L 824.17717 190.977738 
L 828.719609 191.928161 
L 833.262049 193.282154 
L 837.804489 194.532204 
L 842.346929 195.99417 
L 846.889368 197.111746 
L 851.431808 198.272973 
L 855.974248 199.518654 
L 860.516688 200.307119 
L 865.059127 201.820208 
L 869.601567 203.101846 
L 874.144007 204.4424 
L 878.686446 205.049977 
L 883.228886 206.593628 
L 887.771326 207.552144 
L 892.313766 208.701691 
L 896.856205 209.121689 
L 901.398645 211.178249 
L 905.941085 212.306659 
L 910.483525 213.574417 
L 915.025964 215.002914 
L 919.568404 215.494032 
L 924.110844 216.396255 
L 928.653284 218.259507 
L 933.195723 219.359108 
L 937.738163 219.640777 
L 942.280603 221.64422 
L 946.823042 222.491487 
L 951.365482 223.417945 
L 955.907922 224.921795 
L 960.450362 225.953204 
L 964.992801 227.094054 
L 969.535241 228.107152 
L 974.077681 228.691482 
L 978.620121 229.843081 
L 983.16256 231.11083 
" clip-path="url(#pb138b52506)" style="fill: none; stroke: #1f77b4; stroke-width: 1.5; stroke-linecap: round"/>
   </g>
   <g id="line2d_6">
    <path d="M 533.461027 54.87165 
L 538.003467 60.381887 
L 542.545906 65.492461 
L 547.088346 70.157449 
L 551.630786 74.212343 
L 556.173226 77.887153 
L 560.715665 81.515294 
L 565.258105 84.926274 
L 569.800545 87.273943 
L 574.342985 89.470318 
L 578.885424 91.38046 
L 583.427864 93.070675 
L 587.970304 95.266308 
L 592.512743 97.497018 
L 597.055183 99.593897 
L 601.597623 101.854652 
L 606.140063 104.206244 
L 610.682502 106.947167 
L 615.224942 109.757297 
L 619.767382 112.193428 
L 624.309822 114.781929 
L 628.852261 118.016226 
L 633.394701 122.092324 
L 637.937141 125.748808 
L 642.47958 129.858953 
L 647.02202 134.19033 
L 651.56446 138.315962 
L 656.1069 141.15789 
L 660.649339 142.097882 
L 665.191779 143.777185 
L 669.734219 144.369619 
L 674.276659 145.803564 
L 678.819098 146.92688 
L 683.361538 148.457974 
L 687.903978 150.019236 
L 692.446418 150.717719 
L 696.988857 151.139114 
L 701.531297 151.995354 
L 706.073737 152.794873 
L 710.616176 153.850843 
L 715.158616 154.834719 
L 719.701056 154.611988 
L 724.243496 154.968945 
L 728.785935 155.250079 
L 733.328375 154.988195 
L 737.870815 156.061777 
L 742.413255 155.982862 
L 746.955694 156.923165 
L 751.498134 156.891048 
L 756.040574 157.806192 
L 760.583013 157.785975 
L 765.125453 158.792787 
L 769.667893 159.411279 
L 774.210333 159.224262 
L 778.752772 159.643012 
L 783.295212 160.861565 
L 787.837652 161.362008 
L 792.380092 161.240334 
L 796.922531 161.50055 
L 801.464971 162.087165 
L 806.007411 162.817151 
L 810.549851 163.115629 
L 815.09229 163.269015 
L 819.63473 163.683997 
L 824.17717 163.840279 
L 828.719609 163.798055 
L 833.262049 164.977053 
L 837.804489 165.1318 
L 842.346929 166.328898 
L 846.889368 166.94577 
L 851.431808 168.518826 
L 855.974248 169.464988 
L 860.516688 170.584977 
L 865.059127 171.687161 
L 869.601567 171.797692 
L 874.144007 173.107138 
L 878.686446 175.003476 
L 883.228886 175.593915 
L 887.771326 176.374529 
L 892.313766 178.097691 
L 896.856205 178.457583 
L 901.398645 179.948893 
L 905.941085 179.936319 
L 910.483525 181.461851 
L 915.025964 181.36392 
L 919.568404 183.934101 
L 924.110844 183.521631 
L 928.653284 183.206668 
L 933.195723 183.603423 
L 937.738163 185.596936 
L 942.280603 185.985059 
L 946.823042 186.93796 
L 951.365482 187.697966 
L 955.907922 187.440866 
L 960.450362 189.017459 
L 964.992801 189.338707 
L 969.535241 190.853951 
L 974.077681 191.992368 
L 978.620121 192.362734 
L 983.16256 192.850012 
" clip-path="url(#pb138b52506)" style="fill: none; stroke: #ff7f0e; stroke-width: 1.5; stroke-linecap: round"/>
   </g>
   <g id="patch_7">
    <path d="M 533.461027 246.04 
L 533.461027 43.2 
" style="fill: none; stroke: #262626; stroke-width: 0.8; stroke-linejoin: miter; stroke-linecap: square"/>
   </g>
   <g id="patch_8">
    <path d="M 533.461027 246.04 
L 987.705 246.04 
" style="fill: none; stroke: #262626; stroke-width: 0.8; stroke-linejoin: miter; stroke-linecap: square"/>
   </g>
   <g id="text_20">
    <!-- Train on Real, Test on Real -->
    <g style="fill: #262626" transform="translate(682.118013 37.2) scale(0.12 -0.12)">
     <use xlink:href="#DejaVuSans-54"/>
     <use xlink:href="#DejaVuSans-72" x="46.333984"/>
     <use xlink:href="#DejaVuSans-61" x="87.447266"/>
     <use xlink:href="#DejaVuSans-69" x="148.726562"/>
     <use xlink:href="#DejaVuSans-6e" x="176.509766"/>
     <use xlink:href="#DejaVuSans-20" x="239.888672"/>
     <use xlink:href="#DejaVuSans-6f" x="271.675781"/>
     <use xlink:href="#DejaVuSans-6e" x="332.857422"/>
     <use xlink:href="#DejaVuSans-20" x="396.236328"/>
     <use xlink:href="#DejaVuSans-52" x="428.023438"/>
     <use xlink:href="#DejaVuSans-65" x="493.005859"/>
     <use xlink:href="#DejaVuSans-61" x="554.529297"/>
     <use xlink:href="#DejaVuSans-6c" x="615.808594"/>
     <use xlink:href="#DejaVuSans-2c" x="643.591797"/>
     <use xlink:href="#DejaVuSans-20" x="675.378906"/>
     <use xlink:href="#DejaVuSans-54" x="707.166016"/>
     <use xlink:href="#DejaVuSans-65" x="751.25"/>
     <use xlink:href="#DejaVuSans-73" x="812.773438"/>
     <use xlink:href="#DejaVuSans-74" x="864.873047"/>
     <use xlink:href="#DejaVuSans-20" x="904.082031"/>
     <use xlink:href="#DejaVuSans-6f" x="935.869141"/>
     <use xlink:href="#DejaVuSans-6e" x="997.050781"/>
     <use xlink:href="#DejaVuSans-20" x="1060.429688"/>
     <use xlink:href="#DejaVuSans-52" x="1092.216797"/>
     <use xlink:href="#DejaVuSans-65" x="1157.199219"/>
     <use xlink:href="#DejaVuSans-61" x="1218.722656"/>
     <use xlink:href="#DejaVuSans-6c" x="1280.001953"/>
    </g>
   </g>
   <g id="legend_2">
    <g id="patch_9">
     <path d="M 924.7175 80.55625 
L 980.705 80.55625 
Q 982.705 80.55625 982.705 78.55625 
L 982.705 50.2 
Q 982.705 48.2 980.705 48.2 
L 924.7175 48.2 
Q 922.7175 48.2 922.7175 50.2 
L 922.7175 78.55625 
Q 922.7175 80.55625 924.7175 80.55625 
z
" style="fill: #ffffff; opacity: 0.8; stroke: #cccccc; stroke-linejoin: miter"/>
    </g>
    <g id="line2d_7">
     <path d="M 926.7175 56.298438 
L 936.7175 56.298438 
L 946.7175 56.298438 
" style="fill: none; stroke: #1f77b4; stroke-width: 1.5; stroke-linecap: round"/>
    </g>
    <g id="text_21">
     <!-- Train -->
     <g style="fill: #262626" transform="translate(954.7175 59.798438) scale(0.1 -0.1)">
      <use xlink:href="#DejaVuSans-54"/>
      <use xlink:href="#DejaVuSans-72" x="46.333984"/>
      <use xlink:href="#DejaVuSans-61" x="87.447266"/>
      <use xlink:href="#DejaVuSans-69" x="148.726562"/>
      <use xlink:href="#DejaVuSans-6e" x="176.509766"/>
     </g>
    </g>
    <g id="line2d_8">
     <path d="M 926.7175 70.976562 
L 936.7175 70.976562 
L 946.7175 70.976562 
" style="fill: none; stroke: #ff7f0e; stroke-width: 1.5; stroke-linecap: round"/>
    </g>
    <g id="text_22">
     <!-- Test -->
     <g style="fill: #262626" transform="translate(954.7175 74.476562) scale(0.1 -0.1)">
      <use xlink:href="#DejaVuSans-54"/>
      <use xlink:href="#DejaVuSans-65" x="44.083984"/>
      <use xlink:href="#DejaVuSans-73" x="105.607422"/>
      <use xlink:href="#DejaVuSans-74" x="157.707031"/>
     </g>
    </g>
   </g>
  </g>
  <g id="text_23">
   <!-- Assessing Usefulness: Time Series Prediction Performance -->
   <g style="fill: #262626" transform="translate(300.272656 16.397812) scale(0.14 -0.14)">
    <defs>
     <path id="DejaVuSans-55" d="M 556 4666 
L 1191 4666 
L 1191 1831 
Q 1191 1081 1462 751 
Q 1734 422 2344 422 
Q 2950 422 3222 751 
Q 3494 1081 3494 1831 
L 3494 4666 
L 4128 4666 
L 4128 1753 
Q 4128 841 3676 375 
Q 3225 -91 2344 -91 
Q 1459 -91 1007 375 
Q 556 841 556 1753 
L 556 4666 
z
" transform="scale(0.015625)"/>
     <path id="DejaVuSans-66" d="M 2375 4863 
L 2375 4384 
L 1825 4384 
Q 1516 4384 1395 4259 
Q 1275 4134 1275 3809 
L 1275 3500 
L 2222 3500 
L 2222 3053 
L 1275 3053 
L 1275 0 
L 697 0 
L 697 3053 
L 147 3053 
L 147 3500 
L 697 3500 
L 697 3744 
Q 697 4328 969 4595 
Q 1241 4863 1831 4863 
L 2375 4863 
z
" transform="scale(0.015625)"/>
     <path id="DejaVuSans-3a" d="M 750 794 
L 1409 794 
L 1409 0 
L 750 0 
L 750 794 
z
M 750 3309 
L 1409 3309 
L 1409 2516 
L 750 2516 
L 750 3309 
z
" transform="scale(0.015625)"/>
     <path id="DejaVuSans-6d" d="M 3328 2828 
Q 3544 3216 3844 3400 
Q 4144 3584 4550 3584 
Q 5097 3584 5394 3201 
Q 5691 2819 5691 2113 
L 5691 0 
L 5113 0 
L 5113 2094 
Q 5113 2597 4934 2840 
Q 4756 3084 4391 3084 
Q 3944 3084 3684 2787 
Q 3425 2491 3425 1978 
L 3425 0 
L 2847 0 
L 2847 2094 
Q 2847 2600 2669 2842 
Q 2491 3084 2119 3084 
Q 1678 3084 1418 2786 
Q 1159 2488 1159 1978 
L 1159 0 
L 581 0 
L 581 3500 
L 1159 3500 
L 1159 2956 
Q 1356 3278 1631 3431 
Q 1906 3584 2284 3584 
Q 2666 3584 2933 3390 
Q 3200 3197 3328 2828 
z
" transform="scale(0.015625)"/>
     <path id="DejaVuSans-50" d="M 1259 4147 
L 1259 2394 
L 2053 2394 
Q 2494 2394 2734 2622 
Q 2975 2850 2975 3272 
Q 2975 3691 2734 3919 
Q 2494 4147 2053 4147 
L 1259 4147 
z
M 628 4666 
L 2053 4666 
Q 2838 4666 3239 4311 
Q 3641 3956 3641 3272 
Q 3641 2581 3239 2228 
Q 2838 1875 2053 1875 
L 1259 1875 
L 1259 0 
L 628 0 
L 628 4666 
z
" transform="scale(0.015625)"/>
     <path id="DejaVuSans-64" d="M 2906 2969 
L 2906 4863 
L 3481 4863 
L 3481 0 
L 2906 0 
L 2906 525 
Q 2725 213 2448 61 
Q 2172 -91 1784 -91 
Q 1150 -91 751 415 
Q 353 922 353 1747 
Q 353 2572 751 3078 
Q 1150 3584 1784 3584 
Q 2172 3584 2448 3432 
Q 2725 3281 2906 2969 
z
M 947 1747 
Q 947 1113 1208 752 
Q 1469 391 1925 391 
Q 2381 391 2643 752 
Q 2906 1113 2906 1747 
Q 2906 2381 2643 2742 
Q 2381 3103 1925 3103 
Q 1469 3103 1208 2742 
Q 947 2381 947 1747 
z
" transform="scale(0.015625)"/>
    </defs>
    <use xlink:href="#DejaVuSans-41"/>
    <use xlink:href="#DejaVuSans-73" x="68.408203"/>
    <use xlink:href="#DejaVuSans-73" x="120.507812"/>
    <use xlink:href="#DejaVuSans-65" x="172.607422"/>
    <use xlink:href="#DejaVuSans-73" x="234.130859"/>
    <use xlink:href="#DejaVuSans-73" x="286.230469"/>
    <use xlink:href="#DejaVuSans-69" x="338.330078"/>
    <use xlink:href="#DejaVuSans-6e" x="366.113281"/>
    <use xlink:href="#DejaVuSans-67" x="429.492188"/>
    <use xlink:href="#DejaVuSans-20" x="492.96875"/>
    <use xlink:href="#DejaVuSans-55" x="524.755859"/>
    <use xlink:href="#DejaVuSans-73" x="597.949219"/>
    <use xlink:href="#DejaVuSans-65" x="650.048828"/>
    <use xlink:href="#DejaVuSans-66" x="711.572266"/>
    <use xlink:href="#DejaVuSans-75" x="746.777344"/>
    <use xlink:href="#DejaVuSans-6c" x="810.15625"/>
    <use xlink:href="#DejaVuSans-6e" x="837.939453"/>
    <use xlink:href="#DejaVuSans-65" x="901.318359"/>
    <use xlink:href="#DejaVuSans-73" x="962.841797"/>
    <use xlink:href="#DejaVuSans-73" x="1014.941406"/>
    <use xlink:href="#DejaVuSans-3a" x="1067.041016"/>
    <use xlink:href="#DejaVuSans-20" x="1100.732422"/>
    <use xlink:href="#DejaVuSans-54" x="1132.519531"/>
    <use xlink:href="#DejaVuSans-69" x="1190.478516"/>
    <use xlink:href="#DejaVuSans-6d" x="1218.261719"/>
    <use xlink:href="#DejaVuSans-65" x="1315.673828"/>
    <use xlink:href="#DejaVuSans-20" x="1377.197266"/>
    <use xlink:href="#DejaVuSans-53" x="1408.984375"/>
    <use xlink:href="#DejaVuSans-65" x="1472.460938"/>
    <use xlink:href="#DejaVuSans-72" x="1533.984375"/>
    <use xlink:href="#DejaVuSans-69" x="1575.097656"/>
    <use xlink:href="#DejaVuSans-65" x="1602.880859"/>
    <use xlink:href="#DejaVuSans-73" x="1664.404297"/>
    <use xlink:href="#DejaVuSans-20" x="1716.503906"/>
    <use xlink:href="#DejaVuSans-50" x="1748.291016"/>
    <use xlink:href="#DejaVuSans-72" x="1806.84375"/>
    <use xlink:href="#DejaVuSans-65" x="1845.707031"/>
    <use xlink:href="#DejaVuSans-64" x="1907.230469"/>
    <use xlink:href="#DejaVuSans-69" x="1970.707031"/>
    <use xlink:href="#DejaVuSans-63" x="1998.490234"/>
    <use xlink:href="#DejaVuSans-74" x="2053.470703"/>
    <use xlink:href="#DejaVuSans-69" x="2092.679688"/>
    <use xlink:href="#DejaVuSans-6f" x="2120.462891"/>
    <use xlink:href="#DejaVuSans-6e" x="2181.644531"/>
    <use xlink:href="#DejaVuSans-20" x="2245.023438"/>
    <use xlink:href="#DejaVuSans-50" x="2276.810547"/>
    <use xlink:href="#DejaVuSans-65" x="2333.488281"/>
    <use xlink:href="#DejaVuSans-72" x="2395.011719"/>
    <use xlink:href="#DejaVuSans-66" x="2436.125"/>
    <use xlink:href="#DejaVuSans-6f" x="2471.330078"/>
    <use xlink:href="#DejaVuSans-72" x="2532.511719"/>
    <use xlink:href="#DejaVuSans-6d" x="2571.875"/>
    <use xlink:href="#DejaVuSans-61" x="2669.287109"/>
    <use xlink:href="#DejaVuSans-6e" x="2730.566406"/>
    <use xlink:href="#DejaVuSans-63" x="2793.945312"/>
    <use xlink:href="#DejaVuSans-65" x="2848.925781"/>
   </g>
  </g>
 </g>
 <defs>
  <clipPath id="pa881922d48">
   <rect x="55.772054" y="43.2" width="454.243973" height="202.84"/>
  </clipPath>
  <clipPath id="pb138b52506">
   <rect x="533.461027" y="43.2" width="454.243973" height="202.84"/>
  </clipPath>
 </defs>
</svg>
